<svg version="1.1" xmlns="http://www.w3.org/2000/svg" xmlns:xlink="http://www.w3.org/1999/xlink" x="0px" y="0px"
	 viewBox="0 0 1673.7 515.1" style="enable-background:new 0 0 1673.7 515.1;" xml:space="preserve">
<style type="text/css">
	.st0{fill:#35abdc;}
</style>
<g transform="matrix(1.25 0 0 -1.25 -320.94 394.8)">
	<linearGradient id="SVGID_1_" gradientUnits="userSpaceOnUse" x1="926.238" y1="322.5254" x2="926.238" y2="-196.5612">
		<stop  offset="0" style="stop-color:#35ADDD"/>
		<stop  offset="1" style="stop-color:#3D4599"/>
	</linearGradient>
	<path class="st0" d="M391.5,315.8c-43.9,0-67.4-2.9-77.6-2.9c-17.1,0-32.2,0.5-47.4,0.5c-8.3,0-9.8-0.5-9.8-3.9
		c0-5.9,2-6.4,23.9-6.4c13.7,0,21.5-4.4,21.5-43V35.6c0-7.3-1-8.3-23-8.3c-10.7,0-13.7-1-13.7-5.9c0-4.9,3.4-5.4,8.3-5.4
		c15.6,0,26.4,2,46.9,2c21.5,0,42-4.9,62.5-4.9c67.9,0,113.3,25.9,113.3,80.6c0,42.5-28.8,59.1-51.8,70.8c-9.8,4.9-19,7.3-19,8.3
		c0,1.5,10.7,6.8,20,13.2c15.6,10.7,36.6,27.8,36.6,62.5C482.3,283.1,455,315.8,391.5,315.8L391.5,315.8z M1228.1,315.3
		c-2.5,0-18.7-7.2-51.8-9.3c-7.2-0.4-10.6,0-10.6-5.1c0-4.7,4.3-5.5,11.9-5.5c19.1,0,21.7,0,21.7-26.8v-234c0-7.6-7.2-7.2-24.6-7.2
		c-10.2,0-10.6-2.6-10.6-5.5c0-3.4,0.8-4.2,10.6-4.2c5.9,0,28.5,0.8,42.9,0.8c7.7,0,17-0.8,23.4-0.8c15.3,0,18.3,0,18.3,4.2
		c0,3.4,0.8,6-20.4,6c-7.6,0-10.6,4.7-10.6,39.9c0,12.3,2.1,45.9,2.1,207.7c0,12.7,2.1,28,2.1,33.1
		C1232.4,313.2,1230.3,315.3,1228.1,315.3L1228.1,315.3z M875.5,314.9c-3.8,0-28.9-9.3-59.5-9.3c-4.7,0-5.5-1.7-5.5-5.9
		c0-3,1.7-4.3,19.1-4.3c11.5,0,14.9-3.8,14.9-34c0-89.6-1.3-215.3-1.3-227.6c0-6.4-3.8-6.4-18.3-6.4c-10.2,0-12.3-2.1-12.3-5.5
		c0-3.8,2.5-4.2,12.3-4.2c5.9,0,21.7,0.8,36.1,0.8c13.6,0,33.1-0.8,39.5-0.8c9.3,0,11.5,0,11.5,4.2c0,3.4-1.7,5.5-11.5,5.5
		c-26.3,0-25.5,0-25.5,20V74c0,3.8,5.9,6.8,12.7,11c7.2,4.7,13.2,8.9,14.9,8.9c2.5,0,20.4-26.8,38.2-47.1c17.8-20.4,21.7-31,29.3-31
		c5.9,0,18.7,0.4,23.8,0.4c3.8,0,9.3-0.4,14.4-0.4c9.3,0,12.3,0.8,12.3,3.8c0,3.4-3.4,5.5-13.6,5.5c-14.4,0-28,20.8-42.5,38.2
		c-29.7,35.7-37.4,43.7-37.4,47.6c0,3,26.3,21.7,47.6,42.5c13.2,12.7,27.6,31,27.6,34.8c0,1.3-1.7,1.7-5.1,1.7
		c-5.1,0-29.7-1.3-35.3-1.3c-5.1,0-13.2,1.3-17.4,1.3c-5.5,0-7.6-0.8-7.6-4.3c0-3.8,2.1-4.7,8.5-4.7c18.7,0,20-0.9,20-7.6
		c0-8.9-3.8-16.1-20.4-31.8c-13.6-12.7-57.8-51.8-68.4-51.8c-1.3,0-1.7,1.3-1.7,3c0,69.2,2.5,116.8,2.5,181.3
		c0,13.6,0.9,31.4,0.9,37C878.5,313.6,877.7,314.9,875.5,314.9L875.5,314.9z M376.9,304.1c44.4,0,64.9-46.9,64.9-71.3
		c0-38.6-16.1-47.9-30.3-58.6c0,0-20.5,2.9-50.3,2.9c-11.7,0-18.1-1-18.1,6.8v106C343.2,299.7,344.6,304.1,376.9,304.1L376.9,304.1z
		 M591,194.2c-38.6,0-79-35.7-79-95.6c0-70.9,51.8-87.9,86.6-87.9c34.4,0,70.5,26.8,70.5,28.9c0,0.9-1.3,3.4-3.4,3.4
		c-2.5,0-17.8-10.2-45.9-10.2c-32.3,0-77.7,15.7-77.7,74.3c0,9.8,1.3,11.9,8.1,12.3c48.4,3,90.9,12.3,101.9,14.9
		c11.5,2.5,17.4,4.2,17.4,5.9c0,3.4-6.8,13.6-14,22.1C640.3,180.2,613.1,194.2,591,194.2L591,194.2z M1086.2,194.2
		c-38.6,0-79-35.7-79-95.6c0-70.9,51.8-87.9,86.6-87.9c34.4,0,70.5,26.8,70.5,28.9c0,0.9-1.3,3.4-3.4,3.4
		c-2.5,0-17.8-10.2-45.9-10.2c-32.3,0-77.7,15.7-77.7,74.3c0,9.8,1.3,11.9,8.1,12.3c48.4,3,90.9,12.3,101.9,14.9
		c11.5,2.5,17.4,4.2,17.4,5.9c0,3.4-6.8,13.6-14,22.1C1135.5,180.2,1108.3,194.2,1086.2,194.2L1086.2,194.2z M1331.2,194.2
		c-38.7,0-79-35.7-79-95.6c0-70.9,51.8-87.9,86.6-87.9c34.4,0,70.5,26.8,70.5,28.9c0,0.9-1.3,3.4-3.4,3.4
		c-2.5,0-17.8-10.2-45.9-10.2c-32.3,0-77.7,15.7-77.7,74.3c0,9.8,1.3,11.9,8.1,12.3c48.4,3,90.9,12.3,101.9,14.9
		c11.5,2.5,17.4,4.2,17.4,5.9c0,3.4-6.8,13.6-14,22.1C1380.4,180.2,1353.3,194.2,1331.2,194.2L1331.2,194.2z M738.8,191.3
		c-6.8,0-14.9-2.1-21.7-2.1c-8.5,0-16.6,0.9-31,0.9c-7.2,0-6.8-1.3-6.8-6.4c0-4.7,0-4.2,7.7-4.2c23.8,0,22.9-0.8,22.9-29.7V33.3
		c0-5.9-1.3-6.4-18.7-6.4c-10.2,0-10.6-0.8-10.6-5.1c0-4.2,0.8-4.2,10.6-4.2c5.9,0,20.4,2.1,34.8,2.1c13.6,0,42-2.1,48-2.1
		c11,0,11.5-0.4,11.5,4.2c0,3.8-0.4,5.1-11.5,5.1c-31.4,0-32.7,0-32.7,20.8v87.5c0,17.8,9.3,28,34,28c21.2,0,26.3-17.4,32.3-17.4
		c2.5,0,9.3,18.7,9.3,22.9c0,11-19.5,20.4-27.2,20.4c-20,0-39.9-22.1-46.3-22.1c-1.7,0-2.1,3-2.1,6.8c0,1.3,0.8,10.6,0.8,12.7
		C742.2,190,740.5,191.3,738.8,191.3L738.8,191.3z M1586.8,190.8c-5.9,0-17.4-1.7-23.8-1.7c-11.5,0-19.1,0.8-30.6,0.8
		c-7.6,0-8.9,0-8.9-5.5c0-4.2,1.7-4.3,14.9-4.3c14.4,0,14.4-2.5,14.4-15.3c0-5.9-15.3-50.1-25.5-80.7c-6.8-20-9.3-25.9-12.3-25.9
		c-1.7,0-6.8,7.2-10.2,16.1c-25.5,65.4-36.5,80.3-36.5,92.6c0,9.8,2.5,12.3,12.7,12.3c8.9,0,10.6,0.4,10.6,4.2
		c0,4.7-1.7,6.4-10.6,6.4c-13.6,0-28.5-1.3-40.3-1.3c-10.2,0-13.2,0.8-25.1,0.8c-7.6,0-8.9-2.1-8.9-6c0-3.8,0.4-4.2,8.9-4.2
		c7.6,0,10.6-2.1,21.2-27.6c23.4-55.2,57.3-133.8,57.3-138.5c0-12.7-36.5-62.9-51.8-82C1428-86.9,1408-89.5,1408-92
		c0-2.1,4.2-4.2,11.5-4.2c9.3,0,12.3,3.4,25.1,5.1c9.3,1.3,14.4,1.7,19.1,11c13.6,28,32.7,62.4,59.5,127.4
		c33.6,81.5,52.2,132.5,61.6,132.5c5.1,0,11,2.1,11,5.9C1595.7,190.4,1593.6,190.9,1586.8,190.8L1586.8,190.8z M586.7,185.3
		c19.5,0,44.6-31.4,44.6-42c0-2.5-0.4-3.4-5.1-4.2c-31.9-5.1-54.8-10.6-76.9-10.6c-5.1,0-5.1,0.4-5.1,2.6
		C544.3,136.9,554.5,185.3,586.7,185.3L586.7,185.3z M1082,185.3c19.5,0,44.6-31.4,44.6-42c0-2.5-0.4-3.4-5.1-4.2
		c-31.9-5.1-54.8-10.6-76.9-10.6c-5.1,0-5.1,0.4-5.1,2.6C1039.5,136.9,1049.7,185.3,1082,185.3L1082,185.3z M1326.9,185.3
		c19.5,0,44.6-31.4,44.6-42c0-2.5-0.4-3.4-5.1-4.2c-31.9-5.1-54.8-10.6-76.9-10.6c-5.1,0-5.1,0.4-5.1,2.6
		C1284.5,136.9,1294.6,185.3,1326.9,185.3L1326.9,185.3z M360.8,167.9c53.2,0,89.3-34.2,89.3-78.1c0-42.5-27.3-67.9-64.4-67.9
		c-15.6,0-31.2,3.4-36.6,9.3c-4.4,4.9-5.9,32.2-5.9,36.6v87.4C343.2,165.9,347.1,167.9,360.8,167.9L360.8,167.9z M602.9-31.4
		c-10,0-18.4-6.1-18.4-16.1c0-19.1,25.1-15.7,25.1-26.3c0-4.2-3.2-7.9-9.8-7.9c-4.4,0-9.9,2.1-14.6,5.2l-4.1-7.3
		c4.6-3.2,10.9-6.3,18.7-6.3c10.9,0,19.9,7,19.9,16.6c0,19.3-25.1,13.5-25.1,26.4c0,4.2,2.8,7.3,8.3,7.3c4.9,0,8.7-1.7,12.9-3.8
		l3.6,7.1C614.6-33.5,608.9-31.4,602.9-31.4L602.9-31.4z M803.1-31.4c-17.1,0-24.7-12.2-24.7-29.3c0-16.2,7.5-29.3,24.7-29.3
		s24.7,13.1,24.7,29.3C827.8-43.6,820.2-31.4,803.1-31.4z M936.2-31.4c-17.1,0-25.5-12.3-25.5-29.3c0-17.4,7.6-29.3,25.1-29.3
		c7.6,0,14.8,3.2,20.6,8.5l-5.1,6.5c-4.6-4.2-9.9-6.5-15-6.5c-10.5,0-15.5,7.5-15.5,21c0,13.3,5.3,20.9,15.3,20.9
		c5.4,0,9.4-1.9,13.8-5.6l5.1,6.6C949.1-33.8,943.3-31.4,936.2-31.4L936.2-31.4z M1152-31.4c-17.1,0-24.7-12.2-24.7-29.3
		c0-16.2,7.5-29.3,24.7-29.3c17.2,0,24.7,13.1,24.7,29.3C1176.7-43.6,1169.1-31.4,1152-31.4z M358.9-32.3l-9.5-1v-55.9h9.9V-51h0.2
		l24-38.1h8.8v56.8h-9.9v-37.3H382L358.9-32.3L358.9-32.3z M485.4-32.3v-56.9h34.5l0.7,8.4h-25.4v16.1h21.3v8.4h-21.3v15.7h24v8.4
		L485.4-32.3L485.4-32.3z M840.5-32.3v-56.9h9.9v24.5h20.9v8.4h-20.9v15.7h23.3v8.4L840.5-32.3L840.5-32.3z M993-32.3l-11.5-0.9
		l-20-55.9h9.2l4.7,13.7h22.9l4.7-13.7h10.1L993-32.3L993-32.3z M1087.8-32.3v-56.9h9.9v24.5h20.9v8.4h-20.9v15.7h23.3v8.4
		L1087.8-32.3L1087.8-32.3z M1243.1-32.3l-9.5-1v-55.9h9.9V-51h0.2l23.9-38.1h8.8v56.8h-9.9v-37.3h-0.3L1243.1-32.3L1243.1-32.3z
		 M1338.1-32.3l-11.5-0.9l-20-55.9h9.2l4.7,13.7h22.9l4.7-13.7h10.1L1338.1-32.3L1338.1-32.3z M293.6-32.3v-37
		c0-12.8,7-20.6,21-20.6c13.8,0,20.9,7.9,20.9,20.7v37h-9.9V-70c0-7-3-11.7-11-11.7c-8.1,0-11.1,4.6-11.1,11.8v37.5H293.6
		L293.6-32.3z M406.2-32.3v-56.8h9.9v56.8H406.2z M425.7-32.3l19.6-56.8h10.9l19.6,56.8h-9.7l-10.9-31.7c0,0-1.1-3.2-3.9-12.9h-0.5
		c-2.7,9.7-3.8,13-3.8,13l-10.9,31.7L425.7-32.3L425.7-32.3z M533.7-32.3v-56.8h9.9v22.7h4.7c3.6,0,5.6-3.3,7.3-6.7l7.9-16h10.9
		l-10.9,20.5c-0.7,1.3-1.7,2.8-3.5,3.9v0.2c7.5,2.8,10.7,8.6,10.7,15.4c0,9.9-6.2,16.8-18.7,16.8L533.7-32.3L533.7-32.3z
		 M631.5-32.3v-56.8h9.9v56.8H631.5z M652.7-32.3v-8.5h15v-48.3h9.9v48.4h14.3l0.7,8.4H652.7z M699.1-32.3L717-64.8v-24.3h9.9v24.3
		l17.9,32.5h-10.9l-8-16.2c0,0-1-2.1-3.8-8.4h-0.2c-3,6.3-4.1,8.4-4.1,8.4l-7.5,16.2H699.1L699.1-32.3z M1021.1-32.3v-56.8h33.6
		l0.7,8.4H1031v48.4H1021.1z M1065.1-32.3v-56.8h9.9v56.8H1065.1z M1185.2-32.3v-56.8h9.9v22.7h4.7c3.6,0,5.6-3.3,7.3-6.7l7.9-16
		h10.9L1215-68.7c-0.7,1.3-1.7,2.8-3.5,3.9v0.2c7.5,2.8,10.7,8.6,10.7,15.4c0,9.9-6.2,16.8-18.7,16.8L1185.2-32.3L1185.2-32.3z
		 M1288.7-32.3v-56.8h9.9v56.8H1288.7z M803.1-39.8c9.8,0,14.5-8.5,14.5-20.9s-4.8-21-14.5-21c-9.8,0-14.6,8.6-14.6,21.1
		C788.5-48.3,793.3-39.8,803.1-39.8L803.1-39.8z M1152-39.8c9.8,0,14.5-8.5,14.5-20.9s-4.8-21-14.5-21c-9.8,0-14.6,8.6-14.6,21.1
		C1137.4-48.3,1142.2-39.8,1152-39.8L1152-39.8z M543.6-40.8h8.1c6.7,0,8.9-3.1,8.9-8.5c0-5.4-2.7-8.9-8.7-8.9h-8.3L543.6-40.8
		L543.6-40.8z M1195.1-40.8h8.1c6.7,0,8.9-3.1,8.9-8.5c0-5.4-2.7-8.9-8.7-8.9h-8.3L1195.1-40.8L1195.1-40.8z M986.7-42.3h0.2
		c3.9-11.8,4.6-13.6,4.6-13.6l4.4-12.5h-18l4.4,12.5C982.2-55.9,982.8-54.1,986.7-42.3z M1331.8-42.3h0.2
		c3.9-11.8,4.6-13.6,4.6-13.6l4.4-12.5h-18l4.4,12.5C1327.3-55.9,1328-54.1,1331.8-42.3z"/>
</g>
</svg>
