<svg xmlns="http://www.w3.org/2000/svg" viewBox="0 0 1673.7 515.1"><g transform="matrix(1.25 0 0 -1.25 -320.94 394.8)"><linearGradient id="a" gradientUnits="userSpaceOnUse" x1="926.238" y1="322.525" x2="926.238" y2="-196.561"><stop offset="0" stop-color="#35addd"/><stop offset="1" stop-color="#3d4599"/></linearGradient><path d="M391.5 315.8c-43.9 0-67.4-2.9-77.6-2.9-17.1 0-32.2.5-47.4.5-8.3 0-9.8-.5-9.8-3.9 0-5.9 2-6.4 23.9-6.4 13.7 0 21.5-4.4 21.5-43V35.6c0-7.3-1-8.3-23-8.3-10.7 0-13.7-1-13.7-5.9s3.4-5.4 8.3-5.4c15.6 0 26.4 2 46.9 2 21.5 0 42-4.9 62.5-4.9 67.9 0 113.3 25.9 113.3 80.6 0 42.5-28.8 59.1-51.8 70.8-9.8 4.9-19 7.3-19 8.3 0 1.5 10.7 6.8 20 13.2 15.6 10.7 36.6 27.8 36.6 62.5.1 34.6-27.2 67.3-90.7 67.3zm836.6-.5c-2.5 0-18.7-7.2-51.8-9.3-7.2-.4-10.6 0-10.6-5.1 0-4.7 4.3-5.5 11.9-5.5 19.1 0 21.7 0 21.7-26.8v-234c0-7.6-7.2-7.2-24.6-7.2-10.2 0-10.6-2.6-10.6-5.5 0-3.4.8-4.2 10.6-4.2 5.9 0 28.5.8 42.9.8 7.7 0 17-.8 23.4-.8 15.3 0 18.3 0 18.3 4.2 0 3.4.8 6-20.4 6-7.6 0-10.6 4.7-10.6 39.9 0 12.3 2.1 45.9 2.1 207.7 0 12.7 2.1 28 2.1 33.1-.1 4.6-2.2 6.7-4.4 6.7zm-352.6-.4c-3.8 0-28.9-9.3-59.5-9.3-4.7 0-5.5-1.7-5.5-5.9 0-3 1.7-4.3 19.1-4.3 11.5 0 14.9-3.8 14.9-34 0-89.6-1.3-215.3-1.3-227.6 0-6.4-3.8-6.4-18.3-6.4-10.2 0-12.3-2.1-12.3-5.5 0-3.8 2.5-4.2 12.3-4.2 5.9 0 21.7.8 36.1.8 13.6 0 33.1-.8 39.5-.8 9.3 0 11.5 0 11.5 4.2 0 3.4-1.7 5.5-11.5 5.5-26.3 0-25.5 0-25.5 20V74c0 3.8 5.9 6.8 12.7 11 7.2 4.7 13.2 8.9 14.9 8.9 2.5 0 20.4-26.8 38.2-47.1 17.8-20.4 21.7-31 29.3-31 5.9 0 18.7.4 23.8.4 3.8 0 9.3-.4 14.4-.4 9.3 0 12.3.8 12.3 3.8 0 3.4-3.4 5.5-13.6 5.5-14.4 0-28 20.8-42.5 38.2-29.7 35.7-37.4 43.7-37.4 47.6 0 3 26.3 21.7 47.6 42.5 13.2 12.7 27.6 31 27.6 34.8 0 1.3-1.7 1.7-5.1 1.7-5.1 0-29.7-1.3-35.3-1.3-5.1 0-13.2 1.3-17.4 1.3-5.5 0-7.6-.8-7.6-4.3 0-3.8 2.1-4.7 8.5-4.7 18.7 0 20-.9 20-7.6 0-8.9-3.8-16.1-20.4-31.8-13.6-12.7-57.8-51.8-68.4-51.8-1.3 0-1.7 1.3-1.7 3 0 69.2 2.5 116.8 2.5 181.3 0 13.6.9 31.4.9 37 .2 2.6-.6 3.9-2.8 3.9zm-498.6-10.8c44.4 0 64.9-46.9 64.9-71.3 0-38.6-16.1-47.9-30.3-58.6 0 0-20.5 2.9-50.3 2.9-11.7 0-18.1-1-18.1 6.8v106c.1 9.8 1.5 14.2 33.8 14.2zM591 194.2c-38.6 0-79-35.7-79-95.6 0-70.9 51.8-87.9 86.6-87.9 34.4 0 70.5 26.8 70.5 28.9 0 .9-1.3 3.4-3.4 3.4-2.5 0-17.8-10.2-45.9-10.2-32.3 0-77.7 15.7-77.7 74.3 0 9.8 1.3 11.9 8.1 12.3 48.4 3 90.9 12.3 101.9 14.9 11.5 2.5 17.4 4.2 17.4 5.9 0 3.4-6.8 13.6-14 22.1-15.2 17.9-42.4 31.9-64.5 31.9zm495.2 0c-38.6 0-79-35.7-79-95.6 0-70.9 51.8-87.9 86.6-87.9 34.4 0 70.5 26.8 70.5 28.9 0 .9-1.3 3.4-3.4 3.4-2.5 0-17.8-10.2-45.9-10.2-32.3 0-77.7 15.7-77.7 74.3 0 9.8 1.3 11.9 8.1 12.3 48.4 3 90.9 12.3 101.9 14.9 11.5 2.5 17.4 4.2 17.4 5.9 0 3.4-6.8 13.6-14 22.1-15.2 17.9-42.4 31.9-64.5 31.9zm245 0c-38.7 0-79-35.7-79-95.6 0-70.9 51.8-87.9 86.6-87.9 34.4 0 70.5 26.8 70.5 28.9 0 .9-1.3 3.4-3.4 3.4-2.5 0-17.8-10.2-45.9-10.2-32.3 0-77.7 15.7-77.7 74.3 0 9.8 1.3 11.9 8.1 12.3 48.4 3 90.9 12.3 101.9 14.9 11.5 2.5 17.4 4.2 17.4 5.9 0 3.4-6.8 13.6-14 22.1-15.3 17.9-42.4 31.9-64.5 31.9zm-592.4-2.9c-6.8 0-14.9-2.1-21.7-2.1-8.5 0-16.6.9-31 .9-7.2 0-6.8-1.3-6.8-6.4 0-4.7 0-4.2 7.7-4.2 23.8 0 22.9-.8 22.9-29.7V33.3c0-5.9-1.3-6.4-18.7-6.4-10.2 0-10.6-.8-10.6-5.1 0-4.2.8-4.2 10.6-4.2 5.9 0 20.4 2.1 34.8 2.1 13.6 0 42-2.1 48-2.1 11 0 11.5-.4 11.5 4.2 0 3.8-.4 5.1-11.5 5.1-31.4 0-32.7 0-32.7 20.8v87.5c0 17.8 9.3 28 34 28 21.2 0 26.3-17.4 32.3-17.4 2.5 0 9.3 18.7 9.3 22.9 0 11-19.5 20.4-27.2 20.4-20 0-39.9-22.1-46.3-22.1-1.7 0-2.1 3-2.1 6.8 0 1.3.8 10.6.8 12.7.1 3.5-1.6 4.8-3.3 4.8zm848-.5c-5.9 0-17.4-1.7-23.8-1.7-11.5 0-19.1.8-30.6.8-7.6 0-8.9 0-8.9-5.5 0-4.2 1.7-4.3 14.9-4.3 14.4 0 14.4-2.5 14.4-15.3 0-5.9-15.3-50.1-25.5-80.7-6.8-20-9.3-25.9-12.3-25.9-1.7 0-6.8 7.2-10.2 16.1-25.5 65.4-36.5 80.3-36.5 92.6 0 9.8 2.5 12.3 12.7 12.3 8.9 0 10.6.4 10.6 4.2 0 4.7-1.7 6.4-10.6 6.4-13.6 0-28.5-1.3-40.3-1.3-10.2 0-13.2.8-25.1.8-7.6 0-8.9-2.1-8.9-6 0-3.8.4-4.2 8.9-4.2 7.6 0 10.6-2.1 21.2-27.6 23.4-55.2 57.3-133.8 57.3-138.5 0-12.7-36.5-62.9-51.8-82-14.3-17.9-34.3-20.5-34.3-23 0-2.1 4.2-4.2 11.5-4.2 9.3 0 12.3 3.4 25.1 5.1 9.3 1.3 14.4 1.7 19.1 11 13.6 28 32.7 62.4 59.5 127.4 33.6 81.5 52.2 132.5 61.6 132.5 5.1 0 11 2.1 11 5.9-.1 4.7-2.2 5.2-9 5.1zm-1000.1-5.5c19.5 0 44.6-31.4 44.6-42 0-2.5-.4-3.4-5.1-4.2-31.9-5.1-54.8-10.6-76.9-10.6-5.1 0-5.1.4-5.1 2.6.1 5.8 10.3 54.2 42.5 54.2zm495.3 0c19.5 0 44.6-31.4 44.6-42 0-2.5-.4-3.4-5.1-4.2-31.9-5.1-54.8-10.6-76.9-10.6-5.1 0-5.1.4-5.1 2.6 0 5.8 10.2 54.2 42.5 54.2zm244.9 0c19.5 0 44.6-31.4 44.6-42 0-2.5-.4-3.4-5.1-4.2-31.9-5.1-54.8-10.6-76.9-10.6-5.1 0-5.1.4-5.1 2.6.1 5.8 10.2 54.2 42.5 54.2zm-966.1-17.4c53.2 0 89.3-34.2 89.3-78.1 0-42.5-27.3-67.9-64.4-67.9-15.6 0-31.2 3.4-36.6 9.3-4.4 4.9-5.9 32.2-5.9 36.6v87.4c0 10.7 3.9 12.7 17.6 12.7zM602.9-31.4c-10 0-18.4-6.1-18.4-16.1 0-19.1 25.1-15.7 25.1-26.3 0-4.2-3.2-7.9-9.8-7.9-4.4 0-9.9 2.1-14.6 5.2l-4.1-7.3c4.6-3.2 10.9-6.3 18.7-6.3 10.9 0 19.9 7 19.9 16.6 0 19.3-25.1 13.5-25.1 26.4 0 4.2 2.8 7.3 8.3 7.3 4.9 0 8.7-1.7 12.9-3.8l3.6 7.1c-4.8 3-10.5 5.1-16.5 5.1zm200.2 0c-17.1 0-24.7-12.2-24.7-29.3 0-16.2 7.5-29.3 24.7-29.3s24.7 13.1 24.7 29.3c0 17.1-7.6 29.3-24.7 29.3zm133.1 0c-17.1 0-25.5-12.3-25.5-29.3 0-17.4 7.6-29.3 25.1-29.3 7.6 0 14.8 3.2 20.6 8.5l-5.1 6.5c-4.6-4.2-9.9-6.5-15-6.5-10.5 0-15.5 7.5-15.5 21 0 13.3 5.3 20.9 15.3 20.9 5.4 0 9.4-1.9 13.8-5.6l5.1 6.6c-5.9 4.8-11.7 7.2-18.8 7.2zm215.8 0c-17.1 0-24.7-12.2-24.7-29.3 0-16.2 7.5-29.3 24.7-29.3s24.7 13.1 24.7 29.3c0 17.1-7.6 29.3-24.7 29.3zm-793.1-.9l-9.5-1v-55.9h9.9V-51h.2l24-38.1h8.8v56.8h-9.9v-37.3h-.4l-23.1 37.3zm126.5 0v-56.9h34.5l.7 8.4h-25.4v16.1h21.3v8.4h-21.3v15.7h24v8.4l-33.8-.1zm355.1 0v-56.9h9.9v24.5h20.9v8.4h-20.9v15.7h23.3v8.4l-33.2-.1zm152.5 0l-11.5-.9-20-55.9h9.2l4.7 13.7h22.9l4.7-13.7h10.1L993-32.3zm94.8 0v-56.9h9.9v24.5h20.9v8.4h-20.9v15.7h23.3v8.4l-33.2-.1zm155.3 0l-9.5-1v-55.9h9.9V-51h.2l23.9-38.1h8.8v56.8h-9.9v-37.3h-.3l-23.1 37.3zm95 0l-11.5-.9-20-55.9h9.2l4.7 13.7h22.9l4.7-13.7h10.1l-20.1 56.8zm-1044.5 0v-37c0-12.8 7-20.6 21-20.6 13.8 0 20.9 7.9 20.9 20.7v37h-9.9V-70c0-7-3-11.7-11-11.7-8.1 0-11.1 4.6-11.1 11.8v37.5h-9.9v.1zm112.6 0v-56.8h9.9v56.8h-9.9zm19.5 0l19.6-56.8h10.9l19.6 56.8h-9.7L455.2-64s-1.1-3.2-3.9-12.9h-.5c-2.7 9.7-3.8 13-3.8 13l-10.9 31.7-10.4-.1zm108 0v-56.8h9.9v22.7h4.7c3.6 0 5.6-3.3 7.3-6.7l7.9-16h10.9l-10.9 20.5c-.7 1.3-1.7 2.8-3.5 3.9v.2c7.5 2.8 10.7 8.6 10.7 15.4 0 9.9-6.2 16.8-18.7 16.8h-18.3zm97.8 0v-56.8h9.9v56.8h-9.9zm21.2 0v-8.5h15v-48.3h9.9v48.4h14.3l.7 8.4h-39.9zm46.4 0L717-64.8v-24.3h9.9v24.3l17.9 32.5h-10.9l-8-16.2s-1-2.1-3.8-8.4h-.2c-3 6.3-4.1 8.4-4.1 8.4l-7.5 16.2h-11.2zm322 0v-56.8h33.6l.7 8.4H1031v48.4h-9.9zm44 0v-56.8h9.9v56.8h-9.9zm120.1 0v-56.8h9.9v22.7h4.7c3.6 0 5.6-3.3 7.3-6.7l7.9-16h10.9L1215-68.7c-.7 1.3-1.7 2.8-3.5 3.9v.2c7.5 2.8 10.7 8.6 10.7 15.4 0 9.9-6.2 16.8-18.7 16.8l-18.3.1zm103.5 0v-56.8h9.9v56.8h-9.9zm-485.6-7.5c9.8 0 14.5-8.5 14.5-20.9s-4.8-21-14.5-21c-9.8 0-14.6 8.6-14.6 21.1 0 12.3 4.8 20.8 14.6 20.8zm348.9 0c9.8 0 14.5-8.5 14.5-20.9s-4.8-21-14.5-21c-9.8 0-14.6 8.6-14.6 21.1 0 12.3 4.8 20.8 14.6 20.8zm-608.4-1h8.1c6.7 0 8.9-3.1 8.9-8.5s-2.7-8.9-8.7-8.9h-8.3v17.4zm651.5 0h8.1c6.7 0 8.9-3.1 8.9-8.5s-2.7-8.9-8.7-8.9h-8.3v17.4zm-208.4-1.5h.2c3.9-11.8 4.6-13.6 4.6-13.6l4.4-12.5h-18l4.4 12.5c-.1 0 .5 1.8 4.4 13.6zm345.1 0h.2c3.9-11.8 4.6-13.6 4.6-13.6l4.4-12.5h-18l4.4 12.5c-.1 0 .6 1.8 4.4 13.6z" fill="url(#a)"/></g></svg>