<svg xmlns="http://www.w3.org/2000/svg" viewBox="0 0 2468 666.9"><path d="M716.8 517c-11.5 0-23 .1-34.5.1H410.4c-11 0-14.6 6.3-9 15.9 24.1 41.6 48.1 83.3 72.3 124.8 1.9 3.3 4.8 6.1 7.3 9.1h160c2.4-2.1 5.5-3.8 7.1-6.5 25.8-43 51.3-86.1 76.9-129.1 4.7-7.9 1-14.3-8.2-14.3zM208.3 150.1c49.8.2 99.6.2 149.4.4 5.6 0 9.2-2.1 12.1-7 24.6-42.7 49.3-85.2 74-127.8 4.3-7.4 3.7-10.5-2.8-15.7H282c-2.1 2.3-4.5 4.4-6.1 6.9-4.2 6.8-8.1 13.8-12.1 20.7-21 36.1-42 72.2-62.8 108.4-4.5 7.7-1.1 14.1 7.3 14.1zm-49.5 346.4c5.1.1 8.8-1.6 11.5-6.3 25-43.4 50.2-86.6 75.3-130 4.4-7.6.7-14.3-8.1-14.3-50.1 0-100.3 0-150.4-.1-4.5 0-7.5 1.8-9.7 5.7-3.4 6.1-7 12.1-10.5 18.2C44.6 408.2 22.3 446.6 0 484.9v6c2.7 4.1 6.5 5.3 11.5 5.3 33.5-.2 67-.1 100.4-.1 15.6 0 31.3.2 46.9.4zM277 520.3c-2.8 4-5.1 8.3-8.4 13.7-2.4-4.3-3.7-7.7-6-10.4-8.2-9.5-8-18.6.1-28 2.3-2.6 3.7-6 6.2-10.2 2.8 4.8 5 8.1 6.7 11.6 1.4 2.9 3.2 4 6.5 4 8-.1 16 .5 24 .6 15.9.1 31.9 0 48.1 0-.5-.9-1-2.1-1.6-3.3l-74.4-129.9c-5.5-9.6-12.7-9.5-18.3 0-36.4 61.8-72.7 123.6-109.3 185.2-17.7 29.8-35.9 59.2-54 88.7-2 3.3-3.3 6.6-1.1 10.3 2.1 3.6 5.4 4.5 9.4 4.4 5.7-.1 11.3.2 17 .3 36.1.2 72.3.3 108.4.5 11.7.1 23.3-.3 35 .4 6.3.4 9.9-1.8 12.9-7 24.6-42.7 49.4-85.2 74.1-127.8.7-1.2 1.3-2.5 2.2-4.3-24.7-.7-48.7-1.4-72.8-1.9-1.8 0-3.7 1.7-4.7 3.1zm175.8-214.1c19-32.7 38.5-65 57.8-97.5 6.2-10.4 12.5-20.8 18.6-31.4 4.2-7.3.2-13.8-8.3-13.7-2 0-4 .3-6 .3-80.5.1-160.9.1-241.4.2-20.8 0-41.6-.1-62.5-.1-10.4 0-14 6.3-8.7 15.4 23.8 41.2 47.7 82.4 71.5 123.6.8 1.3 1.6 2.6 2.8 4.3 11.4-20.9 22.5-41.2 33.4-61.6.8-1.5.4-4.1-.4-5.8-2.2-4.6-5-8.9-8.3-14.7 6.1 0 10.8.2 15.5 0 8.8-.4 16.4 1 19.3 11 .7 2.5 2.6 4.6 3.9 7 1.1 2.1 2.2 4.2 3.6 6.9-5.2 0-9.3.2-13.5-.1-2.9-.2-4.5.8-5.8 3.4-3.6 7.1-7.5 14.1-11.3 21.1-7.1 12.9-14.2 25.9-21.9 40h89c19.2 0 38.3.1 57.5.3 6.7 0 11.4-2.2 15.2-8.6zm-45.5 197.9c50.3.1 100.6 0 150.9.1 4.1 0 7-1.5 9-5 25.4-43.9 50.9-87.8 76.3-131.7 3.9-6.8.2-13.2-7.7-13.6H493.9c-1.2 0-2.5.2-4.4.3 11.3 20.5 22.2 40.5 33.3 60.3.6 1.1 2.6 1.9 4.1 1.9 4.9.2 9.8.1 16 .1-5.1 8.7-9.3 16-13.6 23.3-.4.6-1.2 1.4-1.9 1.4-8.7.1-17.4.1-26.6.1.5-1.4.6-2 .8-2.6 2.5-5 7-10 6.9-14.9-.1-5-4.8-10-7.5-14.9-8.7-15.9-17.4-31.8-26.3-47.9-.6.8-1.1 1.3-1.4 1.8l-74.1 127.8c-4.1 7-.1 13.5 8.1 13.5zm2035.3-171.3c7.9.3 15.9.2 23.7.2V191.4h-29.8v87.3c-1.9-2.3-2.8-3.3-3.6-4.3-20.7-26.7-41.4-53.5-62.1-80.2-1.1-1.4-3-3-4.6-3-8.3-.3-16.6-.1-25.3-.1v141.6h30v-89.3c1.6 1.8 2.5 2.9 3.4 4.1 21.3 27.4 42.5 54.7 63.8 82 1.2 1.3 2.9 3.2 4.5 3.3zM1181.7 188.7c-42.2-1-77.3 32-78 72.1-.8 43.5 35.2 74.6 74.1 75.4 43.8.9 78.7-33.8 77.3-73.4 1.7-40.1-34.1-73.1-73.4-74.1zm-2 118.7c-24.9.2-44.3-19.3-44.6-44.8-.3-24.6 19.9-45.1 44.4-45.2 24.3-.1 44.1 19.9 44.4 44.6.1 25-19.6 45.3-44.2 45.4zm-296-51c-.4-.1-.7-.5-1.2-1 7.7-4.1 12.3-10.2 14.5-18.4 6.1-22.6-10.1-44.7-34.5-45.8-19.9-.9-39.9-.2-60.3-.2v141.8c23.3 0 46.3.5 69.2-.2 13.4-.4 23.9-7.5 31.3-18.8 11-16.7 9.4-49.9-19-57.4zM833.1 218c7.5 0 14.8-.3 22.1.1 7 .4 12.3 6.5 12.6 13.8.4 7.3-4 14.1-11.1 15-7.7.9-15.5.2-23.6.2V218zm31.2 87c-10.2 1.1-20.5.2-31.4.2v-32.6c10.5 0 21-.7 31.3.2 8.3.8 13.4 7.7 13.6 15.4.2 8.1-5.1 15.9-13.5 16.8zm1083.1-61.4h-61.9v-52.4h-30.6v141.4h30.9v-59.8h61.8v59.8h30.8V191.3h-31.1c.1 17.7.1 35 .1 52.3zM1624.8 191c-12 0-22.8.1-33.6-.1-2.9 0-4.9.8-6.8 3.1-9.2 11-18.6 21.8-28 32.6-7.6 8.8-15.2 17.5-23.7 27.3v-62.6h-30.9v141.4h30.8v-34.3c0-1.5-.2-3.4.6-4.3 5-5.9 10.2-11.6 15.6-17.6 1.5 2.1 2.6 3.6 3.7 5.1 11.5 16.1 23 32.3 34.5 48.4.9 1.2 2.3 2.9 3.6 2.9 11.6.2 23.1.1 35.7.1-19-26.9-37.4-52.9-55.8-79 18.1-20.9 35.8-41.5 54.3-63zm499.5 2.8c-.6-1.3-2.8-2.7-4.4-2.7-6.8-.3-13.7.1-20.5-.2-3.4-.2-4.9 1.1-6.1 4.2-13.5 33.1-27.1 66.2-40.8 99.2-5.2 12.7-10.5 25.4-16 38.7 10.8 0 20.9.1 31-.1 1.3 0 3.1-1.6 3.7-2.9 2.6-5.9 4.8-12.1 7.4-18 .5-1.2 2.1-2.8 3.3-2.8 18.8-.2 37.6-.1 56.5-.1 2.8 7.1 5.4 13.9 8.4 20.6.6 1.4 2.6 3.2 4 3.2 10 .3 20 .1 30.4.1-.2-1.2-.2-1.7-.4-2.1-18.8-45.7-37.6-91.4-56.5-137.1zm-35.4 89.8c6.6-16.6 13.2-33 20.3-50.6 7 17.5 13.5 33.8 20.2 50.6h-40.5zm-645.7 24.3c-6.9-5.9-13.9-11.8-20.9-17.6-21.4 23.2-54.1 18.6-69 2.9-15.6-16.4-16.5-43.2-1.4-60.5 7.2-8.2 16.2-13.3 27-14.7 16.8-2.1 31.2 2.7 43 15.6 7.3-6.2 14.3-12.2 21.3-18.1-20.5-24.9-57.1-33.5-87.8-21.1-30.6 12.4-48 40.9-45.5 74.6 2.2 30.4 25.2 56.6 56 63.8 31.8 7.5 62.2-4.2 77.3-24.9zm263.9-13.9c-15.5-15.7-17.6-41.5-4.2-58.9 6.9-8.9 15.8-14.8 26.9-16.7 17.6-3 32.8 1.9 45.1 15.2 7.3-6.2 14.1-12 21.2-18-19.2-24.3-55.4-33.3-86.2-21.7-30.9 11.5-48.7 39.6-47.1 74.1 1.4 29.9 23.2 56 54.1 64.3 31.1 8.4 62.7-2.3 79.4-24.2-7-5.9-13.9-11.8-20.9-17.7-21.8 23.5-54.2 17.8-68.3 3.6zm-706.3-102.9h-30.7v141.5h85.7v-28.2h-55V191.1zm1239.1 141.5h30.4V191.2h-30.4v141.4zm-493.2 111.3c-.9-.4-1.8-.9-3.1-1.5 6.2-3.9 9.8-8.8 10.2-15.7.6-11.8-5.8-21.2-18-22.4-13.3-1.4-26.8-.3-40.6-.3v83.9c13.5 0 26.6.4 39.7-.2 4.6-.2 9.5-2.1 13.6-4.3 8-4.4 11.5-11.7 11.1-20.8-.4-8.9-4.9-15-12.9-18.7zm-37.1-28.7c7.2.4 14.1.3 20.9 1.3 5.6.8 8.4 4.6 8.6 9.5.1 5.3-2.8 9.8-8.5 10.8-6.8 1.2-13.8 1.1-21 1.6v-23.2zm23.5 59.6c-7.6.6-15.2.1-23.5.1v-25.3c8.3.4 16.4.3 24.4 1.4 7.1.9 10.9 6 10.7 12.2-.2 6.1-4.7 11.1-11.6 11.6zm212-21.3c12.2-5.9 17.8-15.2 16.5-27.4-1.3-11.8-9.3-20.1-22.8-22.3-6.8-1.1-13.9-.7-20.9-.8-6.6-.1-13.2 0-19.7 0v84.7h14.1v-31c13-2.3 14.4-1.8 20.8 8.7 2 3.3 4 6.5 6 9.8 8.3 13.5 8.3 13.5 24 12.8.2 0 .3-.1 1.3-.4-7.2-11.2-14.2-22-21.1-32.9.9-.7 1.3-1 1.8-1.2zm-8-11.7c-7.9 1.4-16 1.5-24.6 2.2v-29.1c8.5.7 16.7.7 24.7 2.2 6.2 1.2 9.5 6.5 9.5 12.4s-3.3 11.2-9.6 12.3zM1468 402.9c-3.1-.2-4.3 1.2-5.3 3.8-9.9 25.6-19.9 51.1-29.8 76.7-.5 1.3-.9 2.7-1.4 4.4h15.1c2.2-5.8 4.5-11.5 6.6-17.3.9-2.5 2-3.7 5-3.6 9.7.2 19.3.2 29 0 2.9-.1 4.1 1 4.9 3.6 1.7 4.9 3.6 9.7 5.6 14.4.6 1.3 2 2.9 3.1 3 4.5.3 9.1.1 14.1.1-11.3-28.8-22.4-56.7-33.5-85-4.7 0-9.1.2-13.4-.1zm-8.9 51.8c4.4-11.8 8.7-23.3 13.4-36.1 4.8 12.8 9.1 24.2 13.6 36.1h-27zm612-51.8c-5.2 0-9.1.3-13.1-.1-3.7-.3-6.1 1-8.6 3.8-8.2 9.2-16.5 18.2-25 27.2-1.3 1.4-3.3 2.2-6.1 3.9v-34.6h-14.4v84.5h14.6v-39.2c2.7 2 4.5 3 5.8 4.4 9.8 10.7 19.5 21.4 29.3 32.1 1.1 1.2 2.8 2.7 4.3 2.8 5.4.3 10.8.1 17.4.1-14-15.5-27.3-30.1-40.8-45 12.3-13.3 24.1-26.2 36.6-39.9zm-256.2 48.5h35.9v-12.6h-35.9v-23.1h41.6v-12.5h-56.4v84.3h57.3v-12.7h-42.5v-23.4zm308-.2h36v-12.4h-36.2v-23.2h41.6v-12.2h-56.4v84.3h57.5v-12.6h-42.5v-23.9zm190.9.2h36v-12.6h-35.9v-23.1h41.6v-12.5h-56.4v84.3h57.3v-12.7h-42.5c-.1-7.9-.1-15.3-.1-23.4zm154.2-48.5c-4.4 0-7.8.3-11.2-.1-3.8-.4-6 1.1-8 4.3-6.6 10.4-13.6 20.5-20.9 31.4-1.3-2-2.3-3.3-3.2-4.7-5.9-9.2-11.8-18.5-17.8-27.7-.8-1.3-2.2-3-3.4-3-5-.3-10.1-.1-16-.1 7.8 11.9 14.5 23.5 22.5 34 8.3 10.8 11.9 22.2 10.3 35.6-.6 5-.1 10.1-.1 15.1h14.5c0-4.4.5-8.6-.1-12.7-2.4-16.1 3.1-29.3 13-41.7 7.4-9.3 13.3-19.7 20.4-30.4zm-933.4 13h27.6v71.7h14.8v-72.1h27.4v-12.3h-69.8v12.7zm686.8-12.7h-14.5v84.4h55.2v-12.8h-40.7v-71.6z" fill="#35abdc"/></svg>