<svg xmlns="http://www.w3.org/2000/svg" viewBox="0 0 78.8 32.9"><g fill="#35abdc"><path d="M78.8 32.9h-.1.1zm-30-3.1c-.9 0-1.8 0-2.7-.1-1.3-.3-2.6-.9-3.5-2-.9-.8-1.7-1.6-2.6-2.4l-2.8-2.6-2.2-2.1-.1.1c-1.1 1.6-2.8 2.7-4.7 3.1-1.1.3-2.3.4-3.4.2-.5-.2-1.1 0-1.4.4-.3.4-.7.7-1 1.1l-.8.8.2.1c3.5 1.5 7.5 1.1 10.7-1 .2-.2.4-.1.5 0 1.8 1.6 3.5 3.2 5.3 4.8 1 1 2.1 1.7 3.4 2.1.6-.6 1.3-1.2 1.9-1.9-.6.7-1.2 1.3-1.9 1.9l.3.1c1 .4 2.2.5 3.3.5h31.4v-3.1H48.8zM.3 23.9h9c.9.1 1.7-.1 2.6-.3 1.2-.3 2.1-1.3 2.2-2.6.1-1 .1-1.9 0-2.8-.1-.9-.6-1.6-1.4-2-.4-.2-1-.4-1.5-.4.4 0 .8-.1 1.3-.2.9-.2 1.5-1 1.6-1.9.1-.7.1-1.5 0-2.2-.1-1.1-.9-2.1-1.9-2.4-.8-.3-1.6-.4-2.4-.4H.3c-.3 0-.3.1-.3.3v14.6c0 .2.1.3.3.3zm3.4-12.2c0-.2 0-.2.2-.2h5.2c1.5.1 1.7.7 1.6 2 0 .4-.4.8-.9.9-.4.1-.7.1-1.1.1H4c-.2 0-.3-.1-.3-.3v-2.5zm0 5.9c0-.2 0-.2.2-.2h5.5c.2 0 .4.1.6.1.4 0 .8.4.9.9.1.4.1.8 0 1.2 0 .8-.7 1.3-1.4 1.2H4c-.2 0-.3-.1-.3-.3v-2.9z"/><path d="M59.9 23.8h3.2c.2 0 .3-.1.3-.3v-5.2l-.1-4.7v-.2c-.1-2.5-2.1-4.5-4.6-4.5H53c-2.3 0-4.1 1.9-4 4.2v10.5c0 .2.1.2.3.2h2.6c.3 0 .3-.1.3-.3V13.3c.1-.8.7-1.4 1.5-1.4 1.4-.1 2.9 0 4.4 0 .7 0 1.3.5 1.4 1.2.1.3.1.5.1.8v9.6c0 .2 0 .3.3.3zm10.8-11.7h7.7c.2 0 .3-.1.3-.3V9.3c0-.3-.1-.3-.3-.3h-8.6c-2.3.1-4.1 1.9-4.1 4.2v6.3c0 .7.2 1.5.5 2.1.7 1.4 2.1 2.2 3.7 2.2h8.6c.2 0 .2 0 .2-.2V21c0-.2-.1-.3-.3-.3h-3.5c-1.3 0-2.7.1-4 0-.8 0-1.4-.6-1.4-1.4v-3.5c0-.8-.1-1.5 0-2.3 0-.7.5-1.3 1.2-1.4z"/><path d="M32.8 10c2.5 1.6 3.8 4.4 3.4 7.3-.1.6 0 1.1.3 1.5.6.6 1.3 1.2 2 1.8.6-1.1.9-2.4.9-3.7.1-2.3-.6-4.6-1.9-6.5-.1-.2-.1-.3 0-.4l3.3-3.3c.4-.4.8-.7 1.2-1.1 1-1.2 2.4-2 3.9-2.4v-.1c1.2-.1 2.4-.2 3.6-.1h28.8c.4 0 .4 0 .4-.4V.4c0-.5.1-.4-.4-.4H46.7c-1.1 0-2.2.2-3.2.6l1.7 1.6c.2.1.4.4.6.6 0 .1.1.2.1.2s0-.1-.1-.1l-.6-.6L43.5.6c-.9.3-1.7.8-2.4 1.2C40 2.7 39 3.7 38 4.7c-1.7 1.6-3.5 3.3-5.2 5 0 .1-.2.2 0 .3zm-9.4 12.6c-1.7-1.2-2.9-3.1-3.2-5.2-.1-.8-.1-1.5 0-2.2.1-.6-.1-1.2-.6-1.6-.6-.4-1.1-.8-1.6-1.3-.2-.1-.2-.1-.3.1-.5 1.2-.8 2.4-.8 3.7-.1 2.3.6 4.5 1.9 6.3.2.2.2.2 0 .4l-1.5 1.5c-1.5 1.4-2.8 2.9-4.3 4.2h-.1c-1.2.8-2.6 1.2-4 1.2H.3c-.2 0-.3.1-.3.3v2.5c0 .2.1.3.3.3 3.3 0 6.5.1 9.8 0 1.7 0 3.4-.6 4.8-1.6.1 0 .2-.1.2-.2l-.1-.1c.3-.1.5-.3.7-.5 1.6-1.3 3-2.8 4.5-4.2 1.1-1.1 2.2-2.1 3.3-3.2 0-.1.1-.1.2-.2l-.3-.2z"/><path d="M43.1 23.9h3.2c.1 0 .2-.1.2-.3V9.5c0-.2-.1-.2-.3-.2H43c-.2 0-.3 0-.3.3v7h.1v7c0 .2 0 .3.3.3zM.4 3.2h8.8c.3 0 .7 0 1.1.1 1 .2 1.9.5 2.8 1.1 0-.1.4.3.4.2.2.2.5.4.7.6l4 3.8 3.4 3.2c.1.2.2.2.3 0 .9-1.2 2.2-2.2 3.6-2.7 1.4-.6 2.8-.7 4.3-.5.3.1.7 0 1-.2l2.1-2.1-.1-.1c-3.6-1.5-7.6-1.1-10.8 1-.2.1-.4 0-.5-.1-1.6-1.5-3.2-2.9-4.8-4.4-.5-.5-1-.9-1.6-1.3C13.7.7 12 .1 10.3.1 7 0 3.7.1.4.1.1.1.1.2.1.4v2.5c-.1.3 0 .3.3.3z"/></g></svg>