<svg id="Layer_1" xmlns="http://www.w3.org/2000/svg" viewBox="0 0 150 173"><style>.st0{fill:#e8f5fc}.st1{fill:#f2fafe}.st2{fill:#c2dff1}.st3{fill:#daeefa}</style><path class="st0" d="M75 0L0 43.3l16 9.2 59-34z"/><path class="st1" d="M75 0L0 43.3l16 9.2z"/><path class="st2" d="M75 0l75 43.3-16 9.2-59-34z"/><path class="st3" d="M75 0l75 43.3-16 9.2z"/><path class="st0" d="M16 52.5v17.9H0V43.3z"/><path class="st1" d="M16 70.4H0V43.3z"/><path class="st2" d="M134 52.5v17.9h16V43.3z"/><path class="st3" d="M134 70.4h16V43.3z"/><path class="st0" d="M75 154.5l-59-34-16 9.2L75 173z"/><path class="st1" d="M16 120.5l-16 9.2L75 173z"/><path class="st2" d="M75 154.5l59-34 16 9.2L75 173z"/><path class="st3" d="M134 120.5l16 9.2L75 173z"/><path class="st0" d="M0 129.7v-27.1h16v17.9z"/><path class="st1" d="M0 129.7v-27.1h16z"/><path class="st2" d="M150 129.7v-27.1h-16v17.9z"/><path class="st3" d="M150 129.7v-27.1h-16z"/></svg>