<svg width="1189pt" height="1313pt" viewBox="0 0 1189 1313" xmlns="http://www.w3.org/2000/svg"><path d="M0 400.82C198.09 267.15 396.34 133.73 594.48.14 792.67 133.66 990.84 267.2 1189 400.76v1.21c-.98.77-1.96 1.54-2.92 2.3C992.8 274.13 799.62 143.83 606.35 13.67c-3.64-2.34-7.01-5.1-10.8-7.2-1.13-.89-2.36.21-3.35.71C400.89 136.23 209.52 265.21 18.22 394.27c-5.04 3.3-9.85 6.95-15.1 9.94-1.04-.36-2.08-.71-3.12-1.05v-2.34zm0 5.11c1-.49 2-.97 3-1.45 59.01 39.42 117.74 79.27 176.64 118.86 125.44 84.54 250.9 169.07 376.37 253.58 12.9 8.59 25.57 17.54 38.65 25.85C760.78 690.92 926.91 579.1 1093 467.22c31.04-20.74 61.82-41.86 92.97-62.41 1 .4 2.01.8 3.03 1.2v167.5c-84.6 57.27-169.45 114.18-254.11 171.36-112.67 76.06-225.47 151.92-338.15 227.95-1.16.88-2.7 1.56-3.91.34-112.9-76.09-225.86-152.12-338.72-228.28C169.45 687.7 84.61 630.78 0 573.52V405.93z" fill="#c2e0f4"/><path fill="#f1f9fd" d="M592.2 7.18c.99-.5 2.22-1.6 3.35-.71 3.79 2.1 7.16 4.86 10.8 7.2 193.27 130.16 386.45 260.46 579.73 390.6.96-.76 1.94-1.53 2.92-2.3v4.04c-1.02-.4-2.03-.8-3.03-1.2-31.15 20.55-61.93 41.67-92.97 62.41-166.09 111.88-332.22 223.7-498.34 335.55-13.08-8.31-25.75-17.26-38.65-25.85-125.47-84.51-250.93-169.04-376.37-253.58C120.74 483.75 62.01 443.9 3 404.48c-1 .48-2 .96-3 1.45v-2.77c1.04.34 2.08.69 3.12 1.05 5.25-2.99 10.06-6.64 15.1-9.94C209.52 265.21 400.89 136.23 592.2 7.18m-14.9 423.38c-33.77-22.84-67.81-45.28-101.65-68.01-16.99 11.25-33.9 22.62-50.89 33.87 50.72 34.19 101.83 67.84 152.54 102.04 3.33-1.96 6.49-4.19 9.71-6.32 64.73-43.18 129.42-86.41 194.17-129.56-16.86-11.47-33.89-22.7-50.87-33.99-50.99 34.01-101.87 68.2-153.01 101.97z"/><path fill="#488fd1" d="M577.3 430.56c51.14-33.77 102.02-67.96 153.01-101.97 16.98 11.29 34.01 22.52 50.87 33.99-64.75 43.15-129.44 86.38-194.17 129.56-3.22 2.13-6.38 4.36-9.71 6.32-50.71-34.2-101.82-67.85-152.54-102.04 16.99-11.25 33.9-22.62 50.89-33.87 33.84 22.73 67.88 45.17 101.65 68.01z"/><path fill="#1b96cc" d="M254.11 744.88c112.86 76.16 225.82 152.19 338.72 228.28 1.21 1.22 2.75.54 3.91-.34 112.68-76.03 225.48-151.89 338.15-227.95 83.15 56.02 166.29 112.06 249.43 168.08l1.68.4c1.1-.06 2.1-.42 3-1.08v3.71c-.89-.73-1.89-1.15-3-1.24-.39.12-1.17.35-1.57.47-190.98 128.72-381.98 257.42-572.98 386.13-5.54 3.95-11.52 7.31-16.76 11.66h-.37c-6.42-5.14-13.59-9.29-20.3-14.04-188.2-126.82-376.39-253.64-564.59-380.47-2.11-1.29-3.96-3.24-6.45-3.75-1.11.1-2.11.52-2.98 1.24v-3.71c.88.66 1.88 1.01 2.99 1.07a5.84 5.84 0 0 0 3.08-1.28c82.64-55.79 165.36-111.46 248.04-167.18z"/></svg>