<svg xmlns="http://www.w3.org/2000/svg" viewBox="0 0 1107.5 186.3"><linearGradient id="a" gradientUnits="userSpaceOnUse" x1="92.685" y1="1.952" x2="92.685" y2="186.266"><stop offset="0" stop-color="#35addd"/><stop offset="1" stop-color="#3d4599"/></linearGradient><path d="M177.5 147.4c-3.7-4.7-7.7-9.3-11.9-14.2 10.8-5.8 16.9-11.9 16.1-17.5-1.3-9.2-20.4-14.6-47.8-15.2-.3-.5-.6-1.1-.8-1.6-5-11-5-12.7-7.1-19.1-2.6-8.4-2.1-16.8.3-25.5 4-14.4 7.1-29.1 9.9-43.8 1.8-9.1-1.8-11.9-10.2-7.8-8.8 4.3-17 9.7-25.2 15-2.3 1.5-3.9 2.1-6.7 1-16.8-6.4-33.9-5.9-50.9-.6-3.1 1-5.1.4-7.7-1.3C27.2 11.4 18.8 6 9.9 1.6 3.4-1.6.9.2 1.8 7.4c1.4 11.2 3.5 22.3 5.8 33.4 1.9 9.1 6.1 18 6.4 27.1.5 17 2.1 33.5 8.2 49.4 0 0 .4 1 1.3 2.9C8.1 127-.9 134.5 0 141.3c1.3 9.4 21.5 14.9 50.2 15.2l.5.5c4.9 4.2 9.1 9.3 14.2 13.2 10 7.9 20.6 15.1 33.8 16.1 4.5.3 9.6-1.1 13.7-3 5.3-2.5 6.1-6.4 2.5-11.1-3.5-4.6-7.8-8.6-11.9-12.7-2.1-2.1-4.4-4.1-6.8-6.3 13.6-2 26.4-4.7 37.7-7.9.4.3.9.6 1.3 1 7.4 6.9 14.8 13.9 22.6 20.4 3.5 2.9 7.8 5.3 12.1 6.5 5.3 1.5 10.3-.8 13.7-5.1 3-3.8 1.2-8-.6-11.8-1.4-3.1-3.3-6.1-5.5-8.9zM65.6 25c-.2 3-.1 6-.7 8.8-.2.9-2.1 1.5-4.3 2.9 1.2-5 2.1-8.5 2.9-12l2.1.3zM44.4 36.7c1.7-2.6 3.7-3.7 6.7-2.5 1.5.6 3.3.4 4.8 1 2.4.9 5 1.9 7 3.4 3 2.4 3.3 7.4 1.1 9.8-2.4 2.5-7 2.8-9.9.2-1.5-1.3-2.6-3-2.9-3.4-3.5.5-6.3 1.1-9.1 1-.7 0-1.9-4.2-1.6-4.3 2.5-1.4 5.3-2.5 7.6-3.4-.5-.3-2-1-3.7-1.8zm4.1-11.9c2.8-2.1 6-3.8 9.3-4.7.8-.2 2.6 3.2 4 4.9-1.3.8-2.6 1.7-3.9 2.4-.7.4-1.5.5-2.1.7 1.9 1 3.5 1.8 5.1 2.6-1.8 1.1-3.8 3.3-5.3 3-2.8-.6-5.6-2.3-7.8-4.2-.7-.6-.3-4 .7-4.7zM24.1 39c1.3-4.1 4.1-6.4 9.2-6.1-6.4 4.7-4.7 11.5-4.7 18.5-5-3.8-6-7.7-4.5-12.4zm5.5 3.7c.6-2.2 1.7-4.8 3.4-5.9 1.6-1.1 4.3-.6 6.6-.9 0-.2.1-.4.1-.6-1.5-.5-3.1-.9-4.9-1.5.7-4.2 3.5-5.8 6.9-5.8 1.9 0 3.7 1.8 5.2 2.6-3.3 4.8-5.5 8.6-8.3 12-1.4 1.6-3.8 2.6-6 3-.8.2-3.2-2.2-3-2.9zm.2 5.3c4 1.4 7.9-4.2 12.6 1.1-2.9 1.7-5.1 3.8-7.2 3.7-2 0-3.9-2.5-5.4-4.8zm34.1 13.9c-.9.9-2.8 1.3-4.2 1.1-4.9-.7-9.9-1.3-14.6-3-2.2-.8-5-3.8-5-5.8 0-1.9 3-4.1 5.1-5.7 2.8-2.1 5.2-1.4 8.2.9 2.7 2 6.9 1.8 10.7 2.6-2.4 4.2-4 4.5-13.8 2.1 3.6 3.1 7.4 3 11.5 2.1 1.4-.3 2.9.4 4.4.6-.7 1.8-1.1 3.8-2.3 5.1zm15.3-41c3.1-.9 8.4 2.2 9.9 5.8.5 1.3.5 2.8.7 4.2-2.7 1.3-5.3 3.1-8.1 3.6-1.7.3-3.7-1.6-5.6-2.6 1.4-1 2.8-2 4.4-3.1-1.7-.2-3.5-.4-5.4-.6-.2-3.4.5-6.2 4.1-7.3zm17.3 22c.3.2-1 4.2-1.7 4.3-2.6.2-5.2-.6-7.9-1 0-.5.1-1 .1-1.4-1.5 1.7-2.8 3.6-4.5 5-3 2.5-7.8 2-9.9-.7-2-2.5-1.4-7.7 1.7-9.8 5.6-3.8 11.7-5.3 18.4-3.4-1.4 1.5-2.9 3-3.5 3.6 2.1.8 4.8 1.8 7.3 3.4zM72.5 26c.9.7 1.7 1.4 2.6 2.1.2 2.5.4 5.1.7 8.4-1.1-.3-3-.4-3.2-1-.8-2.9-1.2-5.9-1.8-8.9.6-.2 1.1-.4 1.7-.6zm19.6 34.9c-5.2 1.4-10.7 2.5-16.1 2.7-4.5.2-5.7-2.5-4.2-7.4 4.8 1.6 9.8 3.1 14.6-1.1-9.6 2.3-11.9 1.8-14-3 5.2.9 9.9.8 13.6-3.7.5-.7 3.5.4 5.3 1 1.6.6 3.1 1.5 4.7 2.4 1.8 5 1 7.7-3.9 9.1zm4-9.2c-.9-4 .3-5.6 4.6-4.1 1.8.6 3.9.5 5.8.7-.7 6-4 7-10.4 3.4zm9.8-5.5c-2.3-.5-5.4-.4-6.9-1.8-2.5-2.3-4.1-5.7-6-8.6h.1c-1-1.7-2-3.3-2.9-5 4.8-3.5 9.4-2.2 12 3.7-1.5.6-2.9 1.1-3.5 1.3 2.4 1.1 5.6 1.9 7.6 3.9.9 1-.3 4.3-.4 6.5zm2.3 5.8c.6-6.9 2.2-13.4-5.1-17.5 4.5-1.3 7.6.3 9.5 4 2.1 4.4.7 9.9-4.4 13.5z" fill="url(#a)"/><linearGradient id="b" gradientUnits="userSpaceOnUse" x1="669.536" y1="1.952" x2="669.536" y2="186.266"><stop offset="0" stop-color="#35addd"/><stop offset="1" stop-color="#3d4599"/></linearGradient><path d="M1105.4 158.3c-1.7-.5-3.6-.2-5.5-.2H237.6c-1.3 0-2.8-.3-3.9.2-1 .4-2 1.8-2 2.7 0 .9 1.1 2.3 2.1 2.7 1.1.5 2.6.2 4 .2h862.3c1.8 0 3.7.2 5.5-.3.9-.2 2.1-1.7 2.1-2.6-.2-1-1.4-2.5-2.3-2.7z" fill="url(#b)"/><linearGradient id="c" gradientUnits="userSpaceOnUse" x1="293.013" y1="1.952" x2="293.013" y2="186.266"><stop offset="0" stop-color="#35addd"/><stop offset="1" stop-color="#3d4599"/></linearGradient><path d="M299.9 134.9c10.8-.8 19.8-6.4 26.9-14.7 11.7-13.6 14.6-29.6 12.9-46.7-2.6-26.6-21.5-45.6-48.1-47.6-14.1-1.1-28.3-.9-42.4-1.3-1.1 0-2.2.4-3.3.6v111.3c1.4.2 2.5.4 3.7.4 16.7-.7 33.5-.8 50.3-2zm-42.6-98.7c15.2.2 30.3-1.2 44.6 4.4 19 7.4 27 25 25.6 45.3-1.2 18.1-9.5 32.4-27.8 36.5-13.6 3.1-28 2.5-42.4 3.6V36.2z" fill="url(#c)"/><linearGradient id="d" gradientUnits="userSpaceOnUse" x1="404.39" y1="1.952" x2="404.39" y2="186.266"><stop offset="0" stop-color="#35addd"/><stop offset="1" stop-color="#3d4599"/></linearGradient><path d="M404.2 138.6c24.6.1 43.5-18.7 43.4-43.1-.1-25.2-18.6-44-43.3-43.9-24.4.1-43.2 19.1-43.2 43.5 0 24.6 18.7 43.5 43.1 43.5zm-4.3-76.2c18-1.8 30.4 9.4 33.5 20.3h-57.7c-.4-7.1 12.9-19.1 24.2-20.3zm-27.3 32.5h63.5c1.8 14.5-10.5 30.5-25.2 32.2 0-4.6-.1-8.9 0-13.2.2-4.4-2.8-3.8-5.4-3.6-2.5.1-6.1-1.2-6 3.6.1 4.4 0 8.9 0 13.3-15.1-.4-28.3-16.3-26.9-32.3z" fill="url(#d)"/><linearGradient id="e" gradientUnits="userSpaceOnUse" x1="678.058" y1="1.952" x2="678.058" y2="186.266"><stop offset="0" stop-color="#35addd"/><stop offset="1" stop-color="#3d4599"/></linearGradient><path d="M650.2 136.3c.1-1.9.2-3.8.3-5.8v-43c0-2.2-.3-4.5 3-4.5h53v53.3h11.3V24.7h-11.6V71h-55.8V24.9h-12.1v101.9c0 11.1 0 11.1 11.9 9.5z" fill="url(#e)"/><linearGradient id="f" gradientUnits="userSpaceOnUse" x1="788.477" y1="1.952" x2="788.477" y2="186.266"><stop offset="0" stop-color="#35addd"/><stop offset="1" stop-color="#3d4599"/></linearGradient><path d="M820.1 124.2c0 3.1.2 5.3 0 7.4-.7 4.9 2.1 5.3 5.9 5.3 3.8 0 6.1-.2 6-5.2-.3-24.7-.1-49.3-.1-74 0-1.3-.2-2.5-.4-4.1-2.5 0-4.7.2-6.8 0-3.4-.3-4.9 1-4.6 4.5.2 2.6 0 5.2 0 8.2-23.8-19.2-46.2-19.3-63.7-.8-15.3 16.3-15.1 42.3-.2 59.2 13.3 15.1 41.9 21.5 63.9-.5zM789 62.8c17.9-.1 31.9 14.2 31.9 32.6 0 18.3-14 32.5-32 32.5-17.6 0-32.2-14.9-32.1-32.7 0-18.1 14.1-32.3 32.2-32.4z" fill="url(#f)"/><linearGradient id="g" gradientUnits="userSpaceOnUse" x1="564.389" y1="1.952" x2="564.389" y2="186.266"><stop offset="0" stop-color="#35addd"/><stop offset="1" stop-color="#3d4599"/></linearGradient><path d="M552.5 137.1c16.5 4.2 31.1 0 43.7-13.1.3 5 .5 8.7.7 12.3h10.8V53.8h-11v13c-20.3-18.4-43-20.1-60.1-5.2-16.7 14.5-20.4 39.2-8.6 57 5.9 9.1 13.9 15.8 24.5 18.5zm13-74.3c18 .1 31.5 14.1 31.5 32.9 0 18.3-13.9 32.3-32.2 32.2-17.5 0-31.9-15-31.9-33 .1-17.9 14.5-32.1 32.6-32.1z" fill="url(#g)"/><linearGradient id="h" gradientUnits="userSpaceOnUse" x1="1000.766" y1="1.952" x2="1000.766" y2="186.266"><stop offset="0" stop-color="#35addd"/><stop offset="1" stop-color="#3d4599"/></linearGradient><path d="M978.7 100.6c1.8 1.4 2.8 2.2 3.8 3 10.5 9.4 21.4 18.5 31.4 28.5 6.3 6.3 13.1 4.3 19.9 4.5l.6-1.2c-15.5-14-31-27.9-47-42.2 15-13 29.7-25.7 44.9-38.9-12.9-2.1-15.1-1.4-23.4 5.7-5.6 4.9-11.3 9.8-17 14.7-4.2 3.6-8.4 7.1-13.7 11.6V22h-11.1v114.4h11.5c.1-12 .1-23.5.1-35.8z" fill="url(#h)"/><linearGradient id="i" gradientUnits="userSpaceOnUse" x1="899.219" y1="1.952" x2="899.219" y2="186.266"><stop offset="0" stop-color="#35addd"/><stop offset="1" stop-color="#3d4599"/></linearGradient><path d="M892.1 137.7c21.2 3.6 43.1-4.7 48.9-18.7l-8.1-5.4c-20.7 17.5-41.5 18.9-55.5 3.8-11.6-12.6-11.7-32.6-.2-44.4 15.3-15.8 35.4-14.6 55.7 3.5 2.7-1.7 5.5-3.4 8.6-5.3-10.2-16.8-33.8-24-54.1-17.3-20 6.6-31.8 24.7-30.3 46.4 1.3 17.8 16.8 34.4 35 37.4z" fill="url(#i)"/><linearGradient id="j" gradientUnits="userSpaceOnUse" x1="1068.679" y1="1.952" x2="1068.679" y2="186.266"><stop offset="0" stop-color="#35addd"/><stop offset="1" stop-color="#3d4599"/></linearGradient><path d="M1066.2 127.3c-5.7-1.1-11-4.7-16.4-7.2-.1-.9-.8-.6-1.2-.1-1.8 2.1-3.6 4.3-5.4 6.3 6.3 8.5 16.5 13.1 26.7 12.2 10.7-1 19.4-7.6 22.1-16.7 3.2-11 .1-20.2-9.6-27.1-4.5-3.2-9.5-5.5-14.1-8.4-2.8-1.8-5.7-3.6-7.8-6-5.5-6.2-3.3-14.7 4.6-17.1 3.3-1 7.6-.4 11 .7 3.6 1.2 6.8 3.9 10.5 6.2 2.2-2.3 4.4-4.6 7.8-8.2-6.7-3.5-12.2-7.5-18.3-9.3-9.2-2.8-17.9-.6-24.3 7.2-8.4 10.2-5.9 24.8 5.9 33.1 5 3.5 10.8 5.9 15.9 9.4 3 2.1 6.3 4.8 7.7 8 3.5 8.9-4.9 18.9-15.1 17z" fill="url(#j)"/><linearGradient id="k" gradientUnits="userSpaceOnUse" x1="489.893" y1="1.952" x2="489.893" y2="186.266"><stop offset="0" stop-color="#35addd"/><stop offset="1" stop-color="#3d4599"/></linearGradient><path d="M480.1 103.6c.2-7.3.6-14.7 1.8-21.9 2.1-13.3 8.6-18.3 21.9-18.1.8 0 1.9-.6 2.4-1.2 1.7-2.4 3.1-5 4.9-7.9-13.2-6.9-22.3-.4-31.1 9.4V53.8c-1.8-.1-2.9-.2-4.1-.3-7.1-.1-7.1-.1-7.1 6.9v76h11.3c0-11.2-.2-22 0-32.8z" fill="url(#k)"/></svg>