<svg xmlns="http://www.w3.org/2000/svg" viewBox="0 0 48 48"><linearGradient id="a" gradientUnits="userSpaceOnUse" x1="47.463" y1="25.28" x2=".48" y2="25.28" gradientTransform="matrix(1 0 0 -1 0 49.28)"><stop offset="0" stop-color="#3d4599"/><stop offset="1" stop-color="#35addd"/></linearGradient><path d="M48 20v-4h-6V6H32V0h-4v6h-8V0h-4v6H6v10H0v4h6v8H0v4h6v10h10v6h4v-6h8v6h4v-6h10V32h6v-4h-6v-8h6zm-10-4v22H10V10h28v6z" fill="url(#a)"/><linearGradient id="b" gradientUnits="userSpaceOnUse" x1="47.463" y1="29.28" x2=".48" y2="29.28" gradientTransform="matrix(1 0 0 -1 0 49.28)"><stop offset="0" stop-color="#3d4599"/><stop offset="1" stop-color="#35addd"/></linearGradient><path fill="url(#b)" d="M18 18h4v4h-4z"/><linearGradient id="c" gradientUnits="userSpaceOnUse" x1="47.463" y1="29.28" x2=".48" y2="29.28" gradientTransform="matrix(1 0 0 -1 0 49.28)"><stop offset="0" stop-color="#3d4599"/><stop offset="1" stop-color="#35addd"/></linearGradient><path fill="url(#c)" d="M26 18h4v4h-4z"/><linearGradient id="d" gradientUnits="userSpaceOnUse" x1="47.463" y1="21.28" x2=".48" y2="21.28" gradientTransform="matrix(1 0 0 -1 0 49.28)"><stop offset="0" stop-color="#3d4599"/><stop offset="1" stop-color="#35addd"/></linearGradient><path fill="url(#d)" d="M18 26h4v4h-4z"/><linearGradient id="e" gradientUnits="userSpaceOnUse" x1="47.463" y1="21.28" x2=".48" y2="21.28" gradientTransform="matrix(1 0 0 -1 0 49.28)"><stop offset="0" stop-color="#3d4599"/><stop offset="1" stop-color="#35addd"/></linearGradient><path fill="url(#e)" d="M26 26h4v4h-4z"/></svg>