<svg class="go-to-icon" width="800" height="884" viewBox="0 0 600 663" xmlns="http://www.w3.org/2000/svg"><path fill="#1B96CC" d="M128.24 376.13c57.26 38.59 114.48 77.25 171.78 115.79 57.26-38.57 114.49-77.19 171.74-115.79 40.61 27.4 81.24 54.77 121.84 82.18 1.99 1.23 3.86 3.17 6.4 2.92v1.55c-.34-.36-1.02-1.06-1.36-1.41-63.77 43.36-127.87 86.27-191.76 129.46-34.63 23.33-69.21 46.7-103.86 70-.94.59-1.76 1.32-2.48 2.17h-1.02c-2.31-2.31-5.19-3.85-7.83-5.71-66.71-44.99-133.43-89.97-200.14-134.95-30.04-20.33-60.22-40.45-90.16-60.92L0 462.81v-2c.43.13 1.29.38 1.72.51 42.29-28.21 84.33-56.82 126.52-85.19z"/><g class="moution"><path fill="#bad9f2" d="M299.32 0h1.29c.41.4 1.23 1.19 1.64 1.59C401.48 68.53 500.75 135.44 600 202.38v87.24c-42.71 28.89-85.5 57.67-128.24 86.51-57.25 38.6-114.48 77.22-171.74 115.79-57.3-38.54-114.52-77.2-171.78-115.79C85.5 347.29 42.71 318.51 0 289.62v-87.25C98.2 136.16 196.39 69.94 294.59 3.74c1.61-1.18 3.63-2 4.73-3.74m-4.15 6.18C198.24 71.57 101.28 136.92 4.34 202.29c-.98.57-1.79 1.39-2.33 2.38C101.43 271.44 200.55 338.69 300 405.4c99.48-66.73 198.61-133.99 298.06-200.77-2.16-2.82-5.62-4.16-8.34-6.34-61.09-41.22-122.23-82.38-183.31-123.62-35.5-23.81-70.8-47.92-106.38-71.6-1.66.97-3.31 1.97-4.86 3.11z"/><path fill="#e9eef8" d="M295.17 6.18c1.55-1.14 3.2-2.14 4.86-3.11 35.58 23.68 70.88 47.79 106.38 71.6 61.08 41.24 122.22 82.4 183.31 123.62 2.72 2.18 6.18 3.52 8.34 6.34C498.61 271.41 399.48 338.67 300 405.4 200.55 338.69 101.43 271.44 2.01 204.67c.54-.99 1.35-1.81 2.33-2.38 96.94-65.37 193.9-130.72 290.83-196.11m-97.99 176.89c34.25 22.92 68.54 45.78 102.82 68.66 34.28-22.87 68.57-45.75 102.83-68.66-8.58-5.72-17.12-11.5-25.75-17.13-25.68 17.18-51.38 34.33-77.08 51.47-25.7-17.14-51.39-34.28-77.06-51.46-8.65 5.61-17.18 11.4-25.76 17.12z"/><path class="arrow" fill="#477cc9" d="M197.18 183.07c8.58-5.72 17.11-11.51 25.76-17.12 25.67 17.18 51.36 34.32 77.06 51.46 25.7-17.14 51.4-34.29 77.08-51.47 8.63 5.63 17.17 11.41 25.75 17.13-34.26 22.91-68.55 45.79-102.83 68.66-34.28-22.88-68.57-45.74-102.82-68.66z"/></g></svg>