<svg xmlns="http://www.w3.org/2000/svg" viewBox="0 0 910 819.2"><linearGradient id="a" gradientUnits="userSpaceOnUse" x1="252.978" y1="6.351" x2="252.978" y2="807.599"><stop offset="0" stop-color="#35addd"/><stop offset="1" stop-color="#3d4599"/></linearGradient><path d="M13.1 604.2c15.1 8.5 31.7 4.2 40.1-10.3 15.9-27.5 31.8-55 47.6-82.6 36.6-63.6 73.3-127.1 109.9-190.7 39.5-68.5 79-136.9 118.4-205.3 5.7-9.9 11.4-19.8 17.5-30.2 42.6 73.3 84.9 146.1 127.7 219.7 10.5-18.4 20.3-36 30.4-53.4 1.8-3 1.7-5.2 0-8.1-11.4-19.9-22.6-40-33.9-60-31.9-56.5-63.7-113-95.6-169.5-1.4-2.6-3.5-4.9-5.7-6.9-14.4-12.3-38.2-7.9-47.9 9-26 44.9-51.9 89.9-77.8 134.9-33.8 58.6-67.7 117.3-101.6 175.9-23.3 40.3-46.5 80.7-69.8 121-22.8 39.5-45.6 78.9-68.3 118.4-8 14.1-3.9 30.9 9 38.1z" fill="url(#a)"/><linearGradient id="b" gradientUnits="userSpaceOnUse" x1="645.771" y1="6.351" x2="645.771" y2="807.599"><stop offset="0" stop-color="#35addd"/><stop offset="1" stop-color="#3d4599"/></linearGradient><path d="M891.1 564.8c-25.4-43.9-50.9-87.8-76.4-131.7-48.1-82.9-96.2-165.7-144.1-248.7-6.2-10.7-14.7-16.5-27.1-15.9-11.9.6-21.3 5.7-27.3 16.4-34.2 60.5-68.5 121-102.8 181.5-33.2 58.6-66.5 117.2-99.7 175.8-5 8.8-10.3 17.5-14.7 26.6-8.1 17 .4 34.3 18.6 38.9 13 3.3 25-2.3 32.2-14.8 22.3-38.9 44.7-77.9 67.1-116.8 33.8-58.7 67.5-117.4 101.3-176 8.6-15 17.3-29.9 26.4-45.7 12.7 22 24.9 43.1 37.1 64.3 37.8 65.2 75.6 130.3 113.5 195.5 15.7 27 31.3 54.2 47.1 81.1 7.5 12.9 24.3 18.4 36.3 12.2 16.4-8.7 21.8-26.6 12.5-42.7z" fill="url(#b)"/><linearGradient id="c" gradientUnits="userSpaceOnUse" x1="32.137" y1="6.351" x2="32.137" y2="807.599"><stop offset="0" stop-color="#35addd"/><stop offset="1" stop-color="#3d4599"/></linearGradient><path d="M30.8 726.2c-8.3 1.3-13.9 6.4-19.8 13.3v-41.9H.6v102.3h10.3v-6.2c.1-12.7-.3-25.3.3-38 .5-12.1 10.3-20.5 22.3-20.2 12.1.3 19.5 8.2 19.6 21.1.1 12.7 0 25.3 0 38v4.9h10.1c.1-1.5.3-2.5.3-3.5 0-14.8.5-29.7-.2-44.5-.8-18-14.5-28.1-32.5-25.3z" fill="url(#c)"/><linearGradient id="d" gradientUnits="userSpaceOnUse" x1="106.422" y1="6.351" x2="106.422" y2="807.599"><stop offset="0" stop-color="#35addd"/><stop offset="1" stop-color="#3d4599"/></linearGradient><path d="M124.5 730.1c-14.9-6.7-29.4-4.3-43.8 2.6 1.1 3 2.1 5.6 3 8.2.1-.5.1-1 .2-1.5 8.6-1 17.3-2.8 25.9-2.8 11.9 0 18.5 8.6 17.3 21.2-1.7-.4-3.2-.7-4.7-1-11.7-2-23.5-3.2-34.8 1.8-8.1 3.5-12.3 9.8-12.7 18.7-.5 9.2 3.1 16.4 11.4 20.4 4.2 2 9.1 3.2 13.8 3.7 10.6.9 19.9-2.4 27.5-11.8.3 4.4.5 7.4.7 10.6h9.9c0-16.4.4-32.5-.2-48.6-.4-9.4-4.6-17.4-13.5-21.5zm-15.6 62.1c-5.1.4-10.6-.5-15.5-2.1-5.3-1.7-8.1-6.1-8.2-11.9 0-5.8 2.9-10.1 7.9-12.2 4.7-1.9 9.8-2.5 13.9-3.4 6.7 1.1 12.3 1.8 17.8 3.1 1.2.3 2.8 2.2 2.9 3.5 1.3 12-6.6 22-18.8 23z" fill="url(#d)"/><linearGradient id="e" gradientUnits="userSpaceOnUse" x1="259.95" y1="6.351" x2="259.95" y2="807.599"><stop offset="0" stop-color="#35addd"/><stop offset="1" stop-color="#3d4599"/></linearGradient><path d="M291.2 728.1c-8.8-2.4-14.9-.3-20.1 6.2-5.8 7.1-12.4 13.4-18.9 19.9-4.3 4.3-8.8 8.4-13.5 12.8v-69.5h-10.4v101.6h10.2c0-5.2-.1-10 0-14.8 0-1.4 0-3.3.9-4.2 4.4-4.9 9.1-9.5 14-14.5 7.8 10.2 15.1 19.7 22.4 29.2 4.2 5.4 8.8 6.6 15.9 3.9-10-13.3-20.1-26.6-31.7-42 10.3-9.5 20.7-18.9 31.2-28.6z" fill="url(#e)"/><linearGradient id="f" gradientUnits="userSpaceOnUse" x1="183.194" y1="6.351" x2="183.194" y2="807.599"><stop offset="0" stop-color="#35addd"/><stop offset="1" stop-color="#3d4599"/></linearGradient><path d="M168.3 783.4c-9.6-10.7-9.9-28.5-.6-39 4.4-4.9 9.8-8 16.3-8.7 10.1-1.1 17.9 3.8 24.9 10.7l7.2-7.2c-16.4-17.9-40.4-18.1-56.7-.8-14.3 15.1-12.3 41.4 4.2 54.9 14.4 11.8 39 12.7 52.8-6.2-2-1.9-3.9-3.8-5.9-5.6-18.6 13.1-31.6 13.6-42.2 1.9z" fill="url(#f)"/><linearGradient id="g" gradientUnits="userSpaceOnUse" x1="648.546" y1="6.351" x2="648.546" y2="807.599"><stop offset="0" stop-color="#35addd"/><stop offset="1" stop-color="#3d4599"/></linearGradient><path d="M682.5 728.6c-13.5-3.3-24.5 1.7-31.9 14.4-.4.8-1.1 1.4-1.8 2.4-4.2-11.5-12.1-17.4-23.8-17.8-11.7-.4-19.4 6.2-25.6 17 0-5.2.1-8.6-.1-12.1-.1-1-1-2-1.5-3.1-.6.9-1.8 1.9-1.8 2.8-.1 21.5-.1 43-.1 64.5 0 3.2 1.5 3.6 4.3 2.4 0-13.5-.1-27 .1-40.5.1-3.7.7-7.7 2-11.2 5.9-15.7 25.1-20.8 36.7-10 5.8 5.4 7.2 12.5 7.2 20V799c4.8 1.4 4.4-1.5 4.4-4 .1-14-.2-28 .6-42 .7-11.5 10.8-20.9 21.4-21.6 11.3-.7 19.9 5.2 22.8 16 .9 3.5 1.3 7.2 1.4 10.8.2 12.8 0 25.7.1 38.5 0 1.1 1.2 2.2 1.9 3.3.7-1 2.1-2 2.1-3 .1-14.2.4-28.3-.1-42.5-.3-13.7-7.5-23.3-18.3-25.9z" fill="url(#g)"/><linearGradient id="h" gradientUnits="userSpaceOnUse" x1="524.016" y1="6.351" x2="524.016" y2="807.599"><stop offset="0" stop-color="#35addd"/><stop offset="1" stop-color="#3d4599"/></linearGradient><path d="M542.2 728.8c-8.2 2.6-13.5 8.8-17.6 16.8-4.4-11.2-11.9-17.7-23.8-18.1-11.7-.4-19.5 5.8-25.5 15.3-.4-3-.4-5.6-.4-8.3 0-5.1 0-5.1-3.6-4.4v69.2c4.1 1.3 4-1.2 4-3.7 0-12-.1-24 .1-36 .1-3.6.6-7.3 1.7-10.8 3.4-10.7 14.2-18.2 24.2-17.2 11.4 1.1 19.1 8.6 19.8 21.3.9 14.1.4 28.3.7 42.5 0 1.4 1.3 2.7 2.1 4.1.7-1.4 2-2.7 2-4.1.2-11.8 0-23.7.1-35.5 0-3.5.3-7 1.2-10.4 2.9-11.2 12.9-18.5 23.9-18 11.1.5 18.8 7.9 20.7 20 .4 2.6.3 5.3.3 8v39.9c.6.4 1.2.8 1.7 1.2.8-1.2 2.4-2.4 2.4-3.6.1-15.3.8-30.7-.4-46-1.3-19.9-19.1-26.7-33.6-22.2z" fill="url(#h)"/><linearGradient id="i" gradientUnits="userSpaceOnUse" x1="420.789" y1="6.351" x2="420.789" y2="807.599"><stop offset="0" stop-color="#35addd"/><stop offset="1" stop-color="#3d4599"/></linearGradient><path d="M448.6 728.9c-.5.4-1 .8-1.6 1.2 0 13 .1 25.9-.1 38.9-.1 3.8-.6 7.7-1.9 11.2-4.5 12.2-15.3 18.6-28.8 17.3-11-1-18.7-8.1-20.7-19.7-.8-4.4-.7-9-.7-13.4-.1-11.5 0-22.9 0-34.3-3.6-1.5-4.5-.2-4.5 2.9.1 13-.3 26 .3 38.9.2 5.3 1.4 11.1 3.8 15.8 9.6 18.2 36.6 18.9 49 1.6 1-1.4 2-2.8 3.6-5.1v10.2c0 5.5 0 5.5 4.2 5.2 0-22.6 0-45.2-.1-67.8 0-.8-1.6-1.8-2.5-2.9z" fill="url(#i)"/><linearGradient id="j" gradientUnits="userSpaceOnUse" x1="349.798" y1="6.351" x2="349.798" y2="807.599"><stop offset="0" stop-color="#35addd"/><stop offset="1" stop-color="#3d4599"/></linearGradient><path d="M366.6 767.5c-5.4-2.5-11.3-3.9-16.9-5.9-4.7-1.7-9.6-3.1-13.7-5.6-6.6-4-7.3-11.2-2.3-17.1 3.6-4.2 8.4-5.8 13.7-6.2 9-.7 17 2.1 24.8 7.1.8-1.3 1.5-2.5 2.8-4.6-6.4-2.3-12-5-17.9-6.2-8.1-1.6-16.2-.8-23.5 4-8.7 5.7-12 21.5 1.7 27.5 5.5 2.4 11.2 4.1 16.8 6.1 4.1 1.4 8.4 2.4 12.2 4.4 9.9 5.1 10.5 16.3 1.2 22.4-2.4 1.6-5.4 2.6-8.3 3.1-11.3 1.9-21.3-1.5-30.5-8.1-.4-.3-.8-.4-1.3-.7-.8 1.2-1.5 2.2-2.3 3.4 11.7 8.9 24.5 12 38.7 9.5 7-1.3 13.7-8.2 14.6-14.8 1.1-8.5-1.8-14.6-9.8-18.3z" fill="url(#j)"/><linearGradient id="k" gradientUnits="userSpaceOnUse" x1="758.391" y1="6.351" x2="758.391" y2="807.599"><stop offset="0" stop-color="#35addd"/><stop offset="1" stop-color="#3d4599"/></linearGradient><path d="M753.2 733.2h25.3c1.4-3.9-.8-3.9-3.1-3.9h-22.2v-23.4c-3.5-1.4-4.2.1-4.2 2.8.1 6.8 0 13.5 0 20.7h-11.3c2.1 6.7 7.8 1.8 11.3 5 0 15.7.3 31.6-.1 47.6-.4 17.9 15.6 21.7 26.9 18 1.2-.4 1.9-2.5 2.8-3.8-2.2-.6-3.1-.3-4.1-.1-13.6 3.4-21.3-2.6-21.3-16.7v-46.2z" fill="url(#k)"/><linearGradient id="l" gradientUnits="userSpaceOnUse" x1="808.499" y1="6.351" x2="808.499" y2="807.599"><stop offset="0" stop-color="#35addd"/><stop offset="1" stop-color="#3d4599"/></linearGradient><path d="M828.1 702.2c-2.1-2.7-2.2-2.8-4.9-1-23.4 14.6-35.9 35.1-34.1 63.2 1.6 24.4 14.9 41.3 35.1 53.6.9.6 2.5.1 3.7.1.1-.4.2-.9.2-1.3-21.2-13.3-35-31.2-34.9-57.3 0-26.1 13.7-44 34.9-57.3z" fill="url(#l)"/><linearGradient id="m" gradientUnits="userSpaceOnUse" x1="890.661" y1="6.351" x2="890.661" y2="807.599"><stop offset="0" stop-color="#35addd"/><stop offset="1" stop-color="#3d4599"/></linearGradient><path d="M872 699.8c-.2 1.5 0 3 .9 3.9 1.2 1.3 3 2.1 4.5 3.1 32.1 22.7 38.1 64.9 12.8 93.7-4.8 5.4-11 9.5-16.5 14.3-1 .9-1.6 2.3-2.4 3.5.5.3.9.6 1.4.9 22.9-13.4 37.2-32.3 37.2-59.8.1-27.5-14.1-46.5-37.9-59.6z" fill="url(#m)"/><linearGradient id="n" gradientUnits="userSpaceOnUse" x1="722.863" y1="6.351" x2="722.863" y2="807.599"><stop offset="0" stop-color="#35addd"/><stop offset="1" stop-color="#3d4599"/></linearGradient><path d="M720.8 797.2c0 1.2 2 2.3 3 3.4.4-.4.8-.7 1.3-1.1v-70h-4.4c0 22.8-.1 45.2.1 67.7z" fill="url(#n)"/><linearGradient id="o" gradientUnits="userSpaceOnUse" x1="306.621" y1="6.351" x2="306.621" y2="807.599"><stop offset="0" stop-color="#35addd"/><stop offset="1" stop-color="#3d4599"/></linearGradient><path d="M312.9 785.7h-12.6v13.9c12.7 2 12.7 2 12.6-10v-3.9z" fill="url(#o)"/><linearGradient id="p" gradientUnits="userSpaceOnUse" x1="723.137" y1="6.351" x2="723.137" y2="807.599"><stop offset="0" stop-color="#35addd"/><stop offset="1" stop-color="#3d4599"/></linearGradient><path d="M720.5 709.1h5.3v-8h-5.3v8z" fill="url(#p)"/></svg>