<svg id="Ebene_1" xmlns="http://www.w3.org/2000/svg" viewBox="0 0 750 259.1"><style>.st0{fill:#fff}</style><path class="st0" d="M439.1 165.9c1.6 1.2 2.5-1.2 4.1 0v-2.8c-1.6-1.2-2.5 1.2-4.1 0v2.8z"/><path class="st0" d="M426.3 194.6l.2.4h2.1v63.9h5.4v-10.2c0-3.7 1.8-6.6 5.4-6.6 3.7 0 5.4 3 5.4 6.6v10.2h62.5V231h2.3c.1-.2.1-.2.2-.5l-16-17.1c-.1 0-.1-.1-.2-.1h-45.5V195h2.1l.2-.4-11.8-22.9v-9.1c.4-.1.7-.5.7-1 0-.6-.5-1-1-1s-1 .5-1 1 .3.9.7 1v9.1l-11.7 22.9zm72.2 42.6c2.1.1 3.7 1.8 3.7 3.9v1.2h-3.7v-5.1zm0 5.5h3.7v8.8h-3.7v-8.8zm-4.1-1.7c0-2.1 1.6-3.8 3.7-3.9v5.1h-3.7V241zm0 1.7h3.7v8.8h-3.7v-8.8zm-8.9-5.5c2.1.1 3.7 1.8 3.7 3.9v1.2h-3.7v-5.1zm0 5.5h3.7v8.8h-3.7v-8.8zm-4.1-1.7c0-2.1 1.7-3.8 3.7-3.9v5.1h-3.7V241zm0 1.7h3.7v8.8h-3.7v-8.8zm-8.8-5.5c2.1.1 3.7 1.8 3.7 3.9v1.2h-3.7v-5.1zm0 5.5h3.7v8.8h-3.7v-8.8zm-4.2-1.7c0-2.1 1.7-3.8 3.7-3.9v5.1h-3.7V241zm0 1.7h3.7v8.8h-3.7v-8.8zm-8.9-5.5c2.1.1 3.7 1.8 3.7 3.9v1.2h-3.7v-5.1zm0 5.5h3.7v8.8h-3.7v-8.8zm-4-1.7c0-2.1 1.6-3.8 3.7-3.9v5.1h-3.7V241zm0 1.7h3.7v8.8h-3.7v-8.8zM438.3 202c2 0 3.6 1.6 3.6 3.6s-1.6 3.6-3.6 3.6-3.6-1.6-3.6-3.6 1.6-3.6 3.6-3.6zm162.6 54.5c.2-.1.6-.2.9-.1-.1.3-.6.2-.7.5 0 .1 1.2.2.8.4-.5.3-.1.6-.4.7-.1.1.2.4.2.6.1 0 .4-.5.5-.6.2-.1.3.1.5.2.3.2.3.2.5 0s.3-.4.5-.4c.3-.2 1 .4.7.6-.4.1-.8.3-.8.5h1.2c.2-.1.3-.1 0-.2-.1 0 .2-.2.3-.2.3.1.5 0 .7-.1.2-.1.6-.3 1-.6.2-.2.4.2.7.3.4.1.6.3.4-.4 0-.1.1-.2.1-.2.3-.1 1 .5 1 .9 0 .2-.1.3-.2.4H690c.2-.1.3-.1.3-.1.1 0 .7.1.8.1-.1-.2-.2-.5-.4-.5-1.1-.1-1.3-.8-.7-1 .1 0 .8 0 .9-.1-.1 0-.7-.4-.8-.5-1.6-.2-3.8.4-5.4.1-.8-.2-.7-1.1-1.6-1.4-.1 0 .1-.4 0-.4-.3.1-.8-.9-.2-1 .1 0 .6.2.7.1 0-.1-.1-.2-.2-.2-.2-.1-.4-.3-.5-.4.9 0 .4-.4.6-.4.3 0 .7 1 1 1.1.1 0 .2-.6.3-.7.4-.5.6.6.7.9.1.4.7-.5.3-.9-.6-.5 1-.3 1 .3.1 1.3-.3 1.6 1.1.4 0 0 .2.1.3.2.2.1.3.3.5.4.1 0 0-.1.1-.1 0-.1.4-.1.3-.2-.1-.1-.5-.1-.5-.2 0-.2-.3-.8-.3-1 .2 0 .7.2.9.3.2.1.3.4.4.6.4.3.8 0 1.2-.1 1.3-.5.2-.4.1-.5-.2-.2-.9-.6-1.1-.8.3.1.5.3.8.4h.3c.1-.1.4-.3.4-.4-.1-.1-.8-.4-.9-.5-.1-.1.2-.1.1-.2.1 0 .2-.1.4-.1.4 0 .3.3.7.3.9-.1-.6-.2 0-.4-.1 0 .2-.1.2-.3-.1-.4-.4-.4-.5-.4-1.7-.2-3 .8-4.7.6-.2 0-.6-.7-.8-.8-.1-.1-.7-.7-.7-.9.1-.5.9-.4 1.1-.2.1.1.3.7.4.7.1.1.6.1.7.2.1-.2-.5-.5-.6-.6-.1-.3.1-.3.2-.5.1-.1.2-.5.3-.4.3.2.3.9.5 1 .2.1.6-.5.8-.6.1-.1.6.2.6.1.1-.4-1.5-1.6.2-1.2.2.1-.4-.7-.5-1 .2 0 .5.3.7.1h.4c.3 0 .5-.2.6-.5-.4-.4-1.7-.5-2-.5-1.4-.2-2.3.5-3.7 0-.5-.2.1-.1.3-.7 0-.1-.5-.5.4-.4 1.6.3-1.2-1.2-1.2-1.2.1.2-.2-.3-.2-.5.1-.1.3.1.4 0h.4c.1 0 .3-.3.4-.3-.1-.1-.5-.3-.6-.3-.6 0-1.2 0-1.6-.6-.1-.2-.2-.3-.3-.5.1 0 .4.1.4-.1 0-.4.7.1.6.1-.4-.8.2-.6.5-.4.1.1.7.1.8.1l-.4-.4c0-.1-.3.1-.3 0 0-.2 0-.6.1-.7.1-.1.2.2.4.3.2.1.5.5.6.5.3 0 .8-.3 1.1-.5-.1-.2-.1-.5-.2-.7-.1-.1-.4-.2-.5-.4.1 0 .3.1.4.1.1 0 0-.2.2-.2 0-.2.3-.3.3-.4 0-.1-.3-.1-.3-.2-.1-.1-.1-.2-.1-.4.1 0 .2.1.3.1.4 0 .4.1.8.1.1 0 .5-.5.6-.6-.1 0-.2-.1-.3-.1-.8 0-1.8-.3-2.5-.4-1.4-.2-2.6.5-4 .3-.2 0-.3-.7-.4-.8-.1 0-.1-.2-.1-.2 0-.1.1-.1.2-.2.1 0 .3-.1.4-.1.7.7.8-.4.5-.7-.4-.5.7-.1 1-.1.1 0 .1.4.2.4.1.1.7.1.9.1 0-.1-.4-.6-.4-.8 0-.1-.3-.1-.3-.2s-.4-.3-.4-.4c.1 0 .6 0 .7.1.2.2.2.4.5.6.2.1.4.5.9.3-.1-.2.2-.6 0-.6s-.4-.3-.4-.4h.3c.7.2 0-.3.1-.3-.1-.1.1-.3 0-.4-.1-.2-.2 0-.3-.2.2 0 .4.1.6.1.1 0-.5-.5-.4-.5-.1-.1.7-.6 0-.6-.6 0-1.3.4-1.9.3-.4 0-.7-.8-.2-.7.6.1 1-.3.8-.5-.3-.2-1.8 0-1.7-.6 1.1-.5.8-1 .6-.9-.7.3-1.5.2-1.9 0-.2-.1-.3-.3-.4-.5-.1-.2-.7-.2-.9-.4-.2-.2.2-.9-.1-.9-.7.1-.9-.8-.9-.9.1 0 1.3.2 1.3.3.5 1.2 1.3.5 2 1 0-.1 0-.2.1-.2.1-.1.1-.3.2-.3h1.3c-.1-.1-.2-.2-.3-.4l-.1-.1c-.1-.2-.2-.3-.3-.5.1.1.3.1.4.2h.3c-.1-.1-.1-.2-.2-.3-.1-.2.1-.6 0-.8.5-.4 1.3-.7 1.1-.8-.2-.1-1.7 0-1.8-.2-.2-.3-1.9-.4-2-.7-.1-.2 1.2-.1 1.3-.3.1-.1 1.7-.2 1.8-.3.1-.5-2.4-.6-2.6-.6-1.3.3-1.4-.3-2.3-1.2-.1-.1-.2-.3-.4-.5.2 0 .3-.1.5-.1.1-.1 1.7 0 1.8-.1-.1-.1-1.6-.7-1.7-.8-.3-.3-.6-.4-1-.5-1.1-.3-.7-.8-.7-.8.2-.1 1 .2 1.2.2.9 0 1-.1.1-.6-.1-.1-2.8-1-1.4-1.4.7-.2 1.5.7 1.6.8.1 0 .1.1.2.2h.3v-.4c0-.1-.2-.2-.2-.3 0-.2-.3-.8-.3-1 .2 0 .7.2.8.3.8.6.7.4.8-.6 0-.1 1-.1 1.1-.1.5-.1-.2-.7-.5-.9-.7-.4-.1-.6.7-.5.2 0 .4-.1.5-.1.1 0 0-.3.1-.4-.1-.1-.2-.2-.3-.2h-2.1c-.3 0-1.7 0-1.9-.1-.1-.1.7-.6 1.2-.5v-.4c-.1-.2-.2-.3-.3-.5.2 0 .4-.1.5-.1.1 0 .3.1.4.1.1 0 .8-.3.9-.3-.1 0-.5-.2-.6-.3-1-.3-2.5-.4-3.5-.1-1 .3 1.2-1-.4-1.3-.1 0-.5-1-.4-1.2.1.1.3.1.4.2.1.2.8.6 1 .8.3.4.7.2 1 0 .1-.1 3.5-1.6-.1-.9-.1 0 .1-.4.1-.4 1.3-.1.9-.6-.1-.5-.8 0-2.2-.3-2.7-1.2-.1-.1-.1-.3-.1-.4l.3-.3c0 .1.1.3.1.4 0 .1.1.2.1.2.3-.5.6.1.9.1.1 0 .2-.1.3-.2-.4-.7.1-.4.3-.6.3-.2.3-.5.1-.9-.3-.8-.3-.8.4-.9h.2c.1 0 .3-.1.4-.1-.2-.1-.3-.2-.5-.2h-2c-.1 0-.2-.1-.4-.1.4-.6-.4-.9-.1-1.5.1-.1.1-.3.1-.4.1.1.2.1.3.2l.5.5c-.1-.3-.2-.5-.2-.8v-.6c.1 0 .3 0 .3.1l.6.6c.1.1.3 0 .3 0 .1-.3-.2-1.1-.3-1.2-.3-.5.6-.3 1-.4-.1 0-.2-.5-.2-.5-.3-.1-1-.5-1.3-.4-2.8.8.1-1.5-2.5.2-.4.3-.4-.5-.3-.9.4-1.9 1.5-.6.7-2.2-.1-.1 0-.6.1-.7-.1.1-.2.1-.3.2-.4.6-.7 1.5-1.1 2.1l-.2.2c0-.1-.3-.7-.2-.8.9-1-1-.6.8-2.1.1-.1-.2-.4-.1-.5-.1.1-.2 0-.3.1-.1.1-.2.2-.4.3 0-.2 0-.4.1-.6.1-.4.5-.5.7-.9 0-.1 0-.6-.1-.8-.6.6-.7 0-.7-.3 0-.4.2-.7.1-1.1 0-.1-.2-.4-.2-.5 0 .1-.4.7-.4.8 0 .6.3.7.2 1.3 0 .2 0 .5-.1.6-.7.2-.2.6-.2 1 0 .3-1-.7 0 .9-.1.4 0 .9-.1 1.3-.2-.3-.3-.7-.5-1v-.1c-.1-.1-.2-.2-.2-.3v.4c.1.5.3.9.5 1.4v.3h-.3c-.2-.2-.3-.4-.5-.7-.2-.4-.3-.7-.4-1.1 0-.1-.1-.1-.2-.2v.3c0 .2.5 1 0 1-.1 0-.3-.5-.4-.5 0 .1-.2.7-.1.8.3.5 1 .6 1.3 1.1.2.4.1.6-.2.7-.2.1-.4.1-.6.1-.7 0-1.3-.4-2-.5-.1 0-.3.3-.4.4.1 0 .1.1.2.1.6.3 2.1 1.7 1.6 2.3-.1.1-1.7-1.1-1.8-1-.2.2-.4.3-.6.5.2.1.4.1.4.3.2.4.1 1.1.4 1.1 1.3.2 2.2 1.7 2 1.8-.6.3-3.2-.7-3.8-.5-.1 0-.2.2-.2.2.1 0 .2.1.3.1.5 0 .5 0 .5.5 0 .1.2.2.2.3 0 .5.8.6.4 1.3l.1.1c.3.3.3.3 0 .7-.1.1-.1.2-.2.3.1 0 .3 0 .3-.1.4-.3 1 0 1.3-.3.1-.1.3-.7.4-.6.1 0 .8.2.8.2-.4.6-1.5 1.2-.5.9.3-.1.7.7.3.8-.3.1-1.1.2-1.5.3-1.3.4-2.7.7-4.1 1.1-.1 0-.2.1-.3.2.1 0 .2.1.3.1.3 0 .5 0 .8-.1.3 0 .6-.1.3.5-.2.4-.7.7-.3 1.1.1.1.6.2.7.3l.6-.1.3.1c.1-.2.1-.3.2-.5.1-.1.2-.1.3-.2v.4c0 .1.2.1.3.1.3-.2.5-.5.8-.7.1 0 .2 0 .3.1 0 0 0 .2-.1.3 0 .1-.2.1-.2.2-.1.2-.1.3-.1.5.2 0 .4.1.5 0 .2-.1.4-.3.6-.4.1 0 .3.1.4.2-.1.1.2.2-.3.4l-2 .5-.4-.1c-.1 0-.3.1-.4.1-.2-.1-.2 0-.4-.1 0-.1-.3-.1-.2-.2l-.4-.1c-.1.1-.2-.1-.3 0-.2.1-.3.1-.6 0-.3-.2-.5 0-.8 0-.1 0-.3.2-.3.2.1.1.1.2.2.2s.2 0 .3.1c.3.1.5.2.8.2-.2.3-.4.5-.5.8 0 .1-.1.1-.1.1 0 .1 0 .2-.1.3h.2c.1-.1.3-.3.4-.3.1-.1.3-.1.4-.1-.1.2-.1.4-.2.5-.1.2-.2.3-.4.4-.2.3-.3.5-.5.8.3-.1.5-.3.8-.4.2-.1.4-.4.7 0 .3.3.3.5 0 .8v.3c0 .1.2.1.3 0 .3-.4.6.2.9 0 .3.8.7.3.9 0 .4-.4.8-.5.7.1 0 0 .3-.1.4-.1.2-.1.5.2.7.1.4.3 0 .2-.2.4-.4.2-.3.6-.7.8-.6.2-1.3-.1-1.9.1-3.3.9-2.7 1.2-4.2 1.2-.1 0-.5.9-.6 1 .1 0 .7.4.8.4.3 0 .3-.5.6-.5s.9.3.6.5c-.4.4-1.1.6-1 1 .1.3.9.3.7.9.1 0 .4-.7.4-.8.1-.2.4.4.5.3.3-.4 1-.5 1-.2 0 .2-.7.8-.7 1 0 .6.7.4 1 .3.5-.2 1-.9 1.5-1 .1 0 1.1 1 1.2 1.2.2.4-1.2.6-1.4.6-.6.2-1.3 0-1.8.3-.7.3-1.3 1.1-1.9 1.2-1.3.3-1.4-.3-2.7-.1.5-.2.9-.4.7-.5-.3-.1-2.3 0-2.5-.2-.3-.3-2.6-.4-2.7-.9-.1-.2 1.6-.1 1.8-.3.1-.2 2.3-.2 2.5-.3.2-.6-3.3-.8-3.5-.7-1.8.4-2-.4-3.2-1.4-.2-.2-.3-.4-.5-.6.2-.1.4-.1.6-.2.2-.1 2.3 0 2.5-.1-.2-.2-2.2-.8-2.4-1-.4-.3-.8-.5-1.3-.6-1.5-.4-1-.9-.9-.9.2-.2 1.4.2 1.6.2 1.2 0 1.4-.2.1-.7-.2-.1-3.8-1.2-1.9-1.7 1-.3 2.1.9 2.3 1 .1 0 .2.2.3.2h.4c0-.1 0-.3-.1-.4-.1-.1-.2-.2-.3-.4-.1-.3-.4-.9-.4-1.2.3 0 .9.2 1.1.3 1.2.7.9.4 1.1-.7 0-.1 1.4-.1 1.5-.1.7-.1-.2-.8-.7-1-.9-.5-.1-.7.9-.5.2 0 .5-.1.7-.1.1 0 0-.4.1-.4-.2-.1-.3-.2-.5-.2-1 0-1.9.1-2.9 0-.3 0-2.3 0-2.6-.1-.2-.1 1-.7 1.7-.6v-.5l-.3-.6c.2 0 .5-.1.7-.1.2 0 .4.1.5.1.2 0 1-.3 1.2-.3-.1-.1-.7-.3-.8-.3-1.4-.3-3.5-.5-4.9-.2-1.4.3 1.6-1.2-.6-1.5-.1 0-.7-1.2-.6-1.4.2.1.4.1.5.3.2.2 1.1.7 1.3 1 .4.5.9.3 1.3 0 .1-.1 4.7-1.8-.2-1.1-.1 0 .1-.5.2-.5 1.8-.2 1.2-.7-.1-.6-1.1.1-3-.3-3.7-1.5-.1-.1-.2-.4-.1-.5.1-.1.3-.2.4-.3.1.2.1.3.2.5.1.1.1.2.2.3.4-.6.8.1 1.2.1.1 0 .3-.1.4-.2-.6-.8.2-.5.5-.7.4-.2.4-.6.2-1-.4-.9-.4-.9.5-1h.3c.2 0 .4-.1.6-.1-.2-.1-.4-.2-.7-.2h-2.7c-.2 0-.3-.1-.5-.1.5-.7-.6-1.1-.2-1.8.1-.1.1-.3.1-.5.1.1.2.2.4.3.2.2.5.4.7.6l-.3-.9s0-.1-.1-.1c0-.2 0-.4-.1-.6.2 0 .3.1.5.1.3.2.6.5.9.7.1.1.4.1.5 0 .1-.3-.3-1.2-.4-1.4-.5-.6.9-.4 1.3-.5-.1-.1-.2-.6-.3-.6-.5-.1-1.3-.5-1.8-.4-3.8.9.2-1.8-3.5.2-.6.3-.5-.5-.3-1.1.6-2.3 2-.7 1-2.6-.1-.1.1-.7.1-.8-.1.1-.3.1-.4.2-.6.7-.9 1.8-1.5 2.5-.1.1-.1.2-.3.2 0-.2-.4-.9-.3-1 1.2-1.1-1.3-.7 1.1-2.4.1-.1-.2-.4-.2-.6-.1.1-.3 0-.4.1-.2.1-.3.3-.5.4 0-.2 0-.5.1-.7.2-.5.7-.6.9-1.1 0-.1 0-.8-.1-.9-.8.8-1 0-1-.3-.1-.5.2-.8.2-1.3 0-.1-.3-.5-.3-.6 0 .1-.5.8-.5.9 0 .7.4.9.3 1.6 0 .2 0 .6-.1.7-.9.2-.3.7-.2 1.1.1.4-1.4-.8 0 1-.2.4 0 1.1-.1 1.6l-.6-1.2s0-.1-.1-.1c-.1-.1-.2-.2-.3-.4 0 .1 0 .3.1.4.2.6.4 1.1.6 1.7v.3h-.4c-.2-.2-.5-.5-.6-.8-.2-.4-.4-.9-.6-1.3 0-.1-.2-.2-.2-.2v.3c0 .2.6 1.2 0 1.2-.1 0-.5-.5-.6-.5.1.1-.3.9-.2 1 .5.6 1.3.7 1.8 1.3.3.4.1.7-.3.8-.2.1-.5.2-.8.1-1-.1-1.7-.5-2.7-.6-.1 0-.4.4-.5.4.1.1.2.1.3.2.8.4 2.9 2 2.3 2.7-.1.1-2.3-1.3-2.4-1.2-.3.2-.6.4-.8.6.2.1.5.1.6.3.2.4.2 1.3.6 1.3 1.8.2 3 1.9 2.7 2.1-.8.3-4.5-.9-5.3-.5l-.3.3c.1 0 .3.1.4.1.7 0 .7-.1.7.6 0 .1.2.2.2.4 0 .6 1.1.7.5 1.5l.1.1c.4.4.4.4 0 .8-.1.1-.2.3-.2.4.2 0 .3 0 .5-.1.5-.4 1.3 0 1.8-.4.1-.1.5-.8.6-.8.1 0 1.1.2 1.1.3-.5.7-2.1 1.4-.7 1.1.4-.1.9.8.4 1-.4.1-1.6.3-2 .4-1.9.4-3.7.9-5.6 1.3-.1 0-.3.1-.4.2.1 0 .2.1.4.1.4 0 .7 0 1.1-.1.5 0 .8-.1.4.6-.3.5-.9.9-.4 1.3.1.1.8.3.9.3l.8-.1.4.1c.2-.2.1-.4.3-.6.1-.1.3-.2.5-.3 0 .2 0 .3.1.5.1.1.3.1.4.1.4-.2.7-.6 1.1-.8.1-.1.3 0 .4.1 0 .1 0 .3-.1.4-.1.1-.2.1-.2.2-.1.2-.1.4-.2.6.2 0 .5.1.7.1.3-.1.5-.4.8-.4.2-.1.4.1.6.2-.1.1.2.2-.4.4-1.1.3-1.6.4-2.7.6 0-.1-.5-.1-.5-.1-.1 0-.5.2-.6.1-.3-.1-.3 0-.5-.1.1-.1-.4-.1-.3-.2l-.5-.1c-.1.1-.3-.1-.4 0-.3.1-.5.1-.8 0-.4-.2-.7 0-1.1 0-.1 0-.3.2-.4.3.1.1.2.2.3.2.1.1.3 0 .4.1.4.1.7.2 1.1.3-.2.3-.5.6-.7 1 0 .1-.1.1-.2.2 0 .1 0 .2-.1.3h.3c.2-.1.4-.3.6-.4.2-.1.4-.1.6-.1l-.3.6c-.1.2-.3.3-.5.5-.3.3-.5.6-.7 1 .4-.2.7-.3 1.1-.5.3-.2.6-.4 1 0s.4.6 0 1c-.1.1-.1.3 0 .4.1.1.3.1.4 0 .4-.5.8.3 1.2.1.4.9 1 .3 1.2 0 .5-.5 1.1-.6 1 .1 0 0 .4-.1.6-.2.3-.1.6.3.9.1.5.4.1.3-.2.4-.5.2-.4.7-.9.9-.8.3-1.7-.1-2.6.1-4.5 1-3.7 1.4-5.8 1.4-.1 0-.7 1-.8 1.1.1 0 .9.5 1.1.5.4 0 .5-.6.9-.6s1.2.3.9.6c-.5.5-1.5.7-1.3 1.2.2.4 1.2.3 1 1.1.1 0 .5-.8.6-.9.2-.2.5.5.7.3.4-.5 1.3-.6 1.4-.3 0 .3-.9.9-.9 1.2-.1.7 1 .5 1.4.3.7-.3 1.4-1.1 2-1.2.2 0 1.4 1.2 1.6 1.4.3.4-1.6.7-1.9.8-.8.3-1.7 0-2.5.3-.9.3-1.7 1.3-2.7 1.4-1.8.4-2-.4-3.8-.1-.3 0-1.3.4-1.7.4.3.1-.7.7-.4.7.2 0 .2.3.4.2.6 0 1.3-.3.9.3-.2.2-1 .2-1.4.3-.7.1 1.4 1.1 1.1 1.8.4-.2 1.4.4 1.8.1.1-.1.4-1 .6-1 .2-.1.5-.1.7-.2-.1.2-.3.6-.3.8 0 .1.6-.3.6-.1.1-.1-.2.7 0 .7.4-.2.9-1.1 1.1-.9.7.7 2.2 0 2.9.2.2 0 .4.7.4.7 0 .3-.9.2-1.1.3-.7.4-.8 1.8-1.6 1.5-1.8-.6-4 .2-5.9.4v-.1h-2.2c-.1 0-.1.1-.2.2l.2.2h1.3c.2 0 .4.1.6.2-.1.2-.1.3-.2.5-.1.3-.3.5-.5.8.3-.1.6-.1.9-.2.1 0 .2-.2.3-.2.2-.1.4-.1.6-.2-.2.2-.3.4-.5.5-.2.1-.4.2-.6.4-.2.2-.3.5-.4.8 0 0 .2.3.2.2.3-.1.5-.3.8-.5.7-.4.3.3.5.4 0 0 .2-.1.3-.2.3-.3.6-.6 1-.8.3-.1.6.1.9.2.1 0 0 .5 0 .7 0 .1-.1.3-.2.4.2 0 .4 0 .5-.2.4-.4 2-.7 1.7-.3-.3.3 1.1 1.3.9 1.3-1.7.2-1.5 2.2-3.4 1.9-.3 0 0-.7-1.2.6-.3.3-.8.2-1.3.1.5-.4 1.3-.7 1.1-.8-.2-.1-1.7 0-1.8-.2-.2-.3-1.9-.4-2-.7-.1-.2 1.2-.1 1.3-.3.1-.1 1.7-.2 1.8-.3.1-.5-2.4-.6-2.6-.6-1.3.3-1.4-.3-2.3-1.2-.1-.1-.2-.3-.4-.5.2 0 .3-.1.5-.1.1-.1 1.7 0 1.8-.1-.1-.1-1.6-.7-1.7-.8-.3-.3-.6-.4-1-.5-1.1-.3-.7-.8-.7-.8.2-.1 1 .2 1.2.2.9 0 1-.1.1-.6-.1-.1-2.8-1-1.4-1.4.7-.2 1.5.7 1.6.8.1 0 .1.1.2.2h.3v-.4c0-.1-.2-.2-.2-.3 0-.2-.3-.8-.3-1 .2 0 .7.2.8.3.8.6.7.4.8-.6 0-.1 1-.1 1.1-.1.5-.1-.2-.7-.5-.9-.7-.4-.1-.6.7-.5.2 0 .4-.1.5-.1.1 0 0-.3.1-.4-.1-.1-.2-.2-.3-.2h-2.1c-.3 0-1.7 0-1.9-.1-.1-.1.7-.6 1.2-.5v-.4c-.1-.2-.2-.3-.3-.5.2 0 .4-.1.5-.1.1 0 .3.1.4.1.1 0 .8-.3.9-.3-.1 0-.5-.2-.6-.3-1-.3-2.5-.4-3.5-.2-1 .3 1.2-1-.4-1.3-.1 0-.5-1-.4-1.2.1.1.3.1.4.2.1.2.8.6 1 .8.3.4.7.2 1 0 .1-.1 3.5-1.6-.1-.9-.1 0 .1-.4.1-.4 1.3-.1.9-.6-.1-.5-.8 0-2.2-.3-2.7-1.2-.1-.1-.1-.3-.1-.4l.3-.3c0 .1.1.3.1.4 0 .1.1.2.1.2.3-.5.6.1.9.1.1 0 .2-.1.3-.2-.4-.7.1-.4.3-.6.3-.2.3-.5.1-.9-.3-.8-.3-.8.4-.9h.2c.1 0 .3-.1.4-.1-.2-.1-.3-.2-.5-.2h-2c-.1 0-.2-.1-.4-.1.4-.6-.4-.9-.1-1.5.1-.1.1-.3.1-.4.1.1.2.1.3.2l.5.5c-.1-.3-.2-.5-.2-.8v-.6c.1 0 .3 0 .3.1l.6.6c.1.1.3 0 .3 0 .1-.3-.2-1.1-.3-1.2-.3-.5.6-.3 1-.4-.1 0-.2-.5-.2-.5-.3-.1-1-.5-1.3-.4-2.8.8.1-1.5-2.5.2-.4.3-.4-.5-.3-1 .4-1.9 1.5-.6.7-2.2-.1-.1 0-.6.1-.7-.1.1-.2.1-.3.2-.4.6-.7 1.5-1.1 2.1l-.2.2c0-.1-.3-.7-.2-.8.9-1-1-.6.8-2.1.1-.1-.2-.4-.1-.5-.1.1-.2 0-.3.1-.1.1-.2.2-.4.3 0-.2 0-.4.1-.6.1-.4.5-.5.7-.9 0-.1 0-.6-.1-.8-.6.6-.7 0-.7-.3 0-.4.2-.7.1-1.1 0-.1-.2-.4-.2-.5 0 .1-.4.7-.4.8 0 .6.3.7.2 1.3 0 .2 0 .5-.1.6-.7.2-.2.6-.2 1 0 .3-1-.7 0 .9-.1.4 0 .9-.1 1.3-.2-.3-.3-.7-.5-1v-.1c-.1-.1-.2-.2-.2-.3v.4c.1.5.3.9.5 1.4v.3h-.3c-.2-.2-.3-.4-.5-.7-.2-.4-.3-.7-.4-1.1 0-.1-.1-.1-.2-.2v.3c0 .2.5 1 0 1-.1 0-.3-.5-.4-.5 0 .1-.2.7-.1.8.3.5 1 .6 1.3 1.1.2.4.1.6-.2.7-.2.1-.4.1-.6.1-.7 0-1.3-.4-2-.5-.1 0-.3.3-.4.4.1 0 .1.1.2.1.6.3 2.1 1.7 1.6 2.3-.1.1-1.7-1.1-1.8-1-.2.2-.4.3-.6.5.2.1.4.1.4.3.2.4.1 1.1.4 1.1 1.3.2 2.2 1.7 2 1.8-.6.3-3.2-.7-3.8-.5-.1 0-.2.2-.2.2.1 0 .2.1.3.1.5 0 .5 0 .5.5 0 .1.2.2.2.3 0 .5.8.6.4 1.3l.1.1c.3.3.3.3 0 .7-.1.1-.1.2-.2.3.1 0 .3 0 .3-.1.4-.3 1 0 1.3-.3.1-.1.3-.7.4-.6.1 0 .8.2.8.2-.4.6-1.5 1.2-.5.9.3-.1.7.7.3.8-.3.1-1.1.2-1.5.3-1.3.4-2.7.7-4.1 1.1-.1 0-.2.1-.3.2.1 0 .2.1.3.1.3 0 .5 0 .8-.1.3 0 .6-.1.3.5-.2.4-.7.7-.3 1.1.1.1.6.2.7.3l.6-.1.3.1c.1-.2.1-.3.2-.5.1-.1.2-.1.3-.2v.4c0 .1.2.1.3.1.3-.2.5-.5.8-.7.1 0 .2 0 .3.1 0 0 0 .2-.1.3 0 .1-.2.1-.2.2-.1.2-.1.3-.1.5.2 0 .4.1.5 0 .2-.1.4-.3.6-.4.1 0 .3.1.4.2-.1.1.2.2-.3.4l-2 .5-.4-.1c-.1 0-.3.1-.4.1-.2-.1-.2 0-.4-.1 0-.1-.3-.1-.2-.2l-.4-.1c-.1.1-.2-.1-.3 0-.2.1-.3.1-.6 0-.3-.2-.5 0-.8 0-.1 0-.3.2-.3.2.1.1.1.2.2.2s.2 0 .3.1c.3.1.5.2.8.2-.2.3-.4.5-.5.8 0 .1-.1.1-.1.1 0 .1 0 .2-.1.3h.2c.1-.1.3-.3.4-.3.1-.1.3-.1.4-.1-.1.2-.1.4-.2.5-.1.2-.2.3-.4.4-.2.3-.3.5-.5.8.3-.1.5-.3.8-.4.2-.1.4-.4.7 0 .3.3.3.5 0 .8v.3c0 .1.2.1.3 0 .3-.4.6.2.9 0 .3.8.7.3.9 0 .4-.4.8-.5.7.1 0 0 .3-.1.4-.1.2-.1.5.2.7.1.4.3 0 .2-.2.4-.4.2-.3.6-.7.8-.6.2-1.3-.1-1.9.1-3.3.9-2.7 1.2-4.2 1.2-.1 0-.5.9-.6 1 .1 0 .7.4.8.4.3 0 .3-.5.6-.5s.9.3.6.5c-.4.4-1.1.6-1 1 .1.3.9.3.7.9.1 0 .4-.7.4-.8.1-.2.4.4.5.3.3-.4 1-.5 1-.2 0 .2-.7.8-.7 1 0 .6.7.4 1 .3.5-.2 1-.9 1.5-1 .1 0 1.1 1 1.2 1.2.2.4-1.2.6-1.4.6-.6.2-1.3 0-1.8.3-.7.3-1.3 1.1-1.9 1.2-1.3.3-1.4-.3-2.8-.1-.2 0-1 .3-1.2.4.2 0-.5.6-.3.6s.2.2.3.2c.4 0 .9-.3.6.2-.1.2-.7.1-1.1.2-.5.1 1 .9.8 1.5.3-.2 1 .3 1.3.1.1-.1.3-.8.4-.9.2-.1.3-.1.5-.1 0 .2-.2.5-.2.7 0 .1.4-.2.4-.1.1 0-.1.6 0 .6.3-.1.7-.9.8-.8.5.6 1.6 0 2.1.1.1 0 .3.6.3.6 0 .2-.7.2-.8.2-.5.3-.6 1.5-1.2 1.3-1.3-.5-2.9.1-4.3.3h-1.6c-.1 0-.1.1-.2.2.1.1.1.2.2.2h1c.1 0 .3.1.4.2-.1.1-.1.3-.2.4-.1.2-.2.4-.3.7.2-.1.5-.1.7-.2.1 0 .1-.1.2-.2s.3-.1.4-.2c-.1.2-.2.3-.3.5-.1.1-.3.2-.4.3-.1.2-.2.4-.3.7 0 0 .1.2.2.2.2-.1.4-.3.6-.4.5-.4.2.3.4.4 0 0 .2-.1.2-.2.2-.2.4-.5.7-.7.2-.1.5.1.7.2.1 0 0 .4 0 .6 0 .1-.1.2-.1.4.1 0 .3 0 .3-.1.3-.4 1.5-.6 1.2-.2-.2.3.8 1.1.6 1.1-1.2.1-1.1 1.9-2.5 1.6-.2 0 0-.6-.9.5-.3.4-1.3 0-1.3 0-.1.7 1.8.7 1.7 1.2-.2.8.5 1.7 1.1 1.1.1-.1.2.5.3.4.2.8 1-.6 1.2-.6.2 0 .5-.3.7 0 0 0-.7.5-.4.7.5.2.4 1.2-.2 1-1.8-.6-4.9.7-6.8.4-.8-.1-.6.2-.9.2-.2 1.8-.1 2.2.3 2.1zm56.9-15.5c-.2 0-.4-.9-.6-1-.1 0-.2-.2-.2-.3 0-.1.1-.2.2-.2.2-.1.4-.2.5-.1 1 .9 1.1-.5.6-.8-.2-.2-.2-.2 0-.3 0 .6 1.8.7 1.7 1.2-.1.5.1 1.1.5 1.2-.8.3-1.7.4-2.7.3zm3.3-5.9v.1c-.5.1-.9.2-1.4.2-.3 0-.5-.3-.6-.6.5-.4.2.3.4.4 0 0 .2-.1.2-.2l.4-.4c.2-.1.3-.2.4-.3.2 0 .4.1.6.2.1.1.1.4 0 .6zm.2 5.6h-.1.1c-.1 0-.1 0 0 0zm-.3-2.8h-.3c-.1 0-.1-.4-.5 0-.2-.1-.5-.2-.5-.4.2 0 .9 0 1 .1l.3.3zm-1.7-4h-.3l.1-.1c.1-.1.3-.1.4-.2-.1.1-.2.2-.2.3zm.2 4.6c-.3.1-.8-.1-1-.1.2-.1.7 0 1 .1zm-1-5c0 .1-.1.1-.1.2-.1-.1-.2-.2-.2-.3.2-.1.3-.1.4-.2 0 .1-.1.2-.1.3zm4.2 14c-.1.1-.7 0-1.1 0 0-.1-.1-.1-.1-.1.2-.1.4.1.6.1h.5c.1-.1.1 0 .1 0zm.3-1.7c-.2-.4-.4.6-.9.7-.1 0-.1.1 0 .2-.7 0-1.4-.1-1.9-.7-.1-.2-.2-.4-.4-.6.2 0 .6.1.6-.1v-.1h.2c.3 0 .7.3.7.3-.1-.2-.2-.4-.2-.5.1-.1.2-.1.3-.2.2 0 .4.1.6.2 0 0 .2 0 .3.1.2.1.4.1.4 0h.4c-.1-.1-.4-.3-.5-.5 0-.1.1-.2.1-.2.3-.1 1 .5 1 .9.1.4-.6.7-.7.5zm-.4-5.3c.2 0 .5-.3.7 0l-.2.2h-.7l.2-.2zm-.1-3.9c-.1-.2-.3 0-.4-.2.2 0 .5.1.7.1-.2 0-.2 0-.3.1zm.4-.2c-.1-.1-.7-.5-.6-.5-.1 0 .2-.2.3-.4.2.3.7.8.6.8-.1 0-.2 0-.3.1zm-.3-1.3h-.2c-.3 0-.5 0-.8.1.4-.3 1.2-.3 1-.1zm-2.9-6.6c.2 0 .4 0 .2.3l-.1.1v-.1c-.2 0-.2-.1-.1-.3zm-4.7 1.1c.7 1.5 1.8.6 2.7 1.2 0-.1.1-.2.1-.3.1-.1.2-.4.3-.4h1.4c.1.1.1.2 0 .4.3-.2 1 .3 1.3.1.1-.1.3-.8.4-.9.2-.1.3-.1.5-.1 0 .2-.2.5-.2.7 0 .1.4-.2.4-.1.1 0-.1.6 0 .6.3-.1.7-.9.8-.8.5.6 1.6 0 2.1.1.1 0 .3.6.3.6 0 .2-.7.2-.8.2-.5.3-.6 1.5-1.2 1.3-1.2-.4-2.6 0-3.9.3 0-.2-.1-.2-.3-.2-.3.1-.7.2-1.1.2h-.6c-.3 0-.7-.1-.9-.2-.2-.1-.4-.4-.6-.6-.2-.2-1-.2-1.2-.5-.2-.3.3-1-.1-1-1 .1-1.2-.9-1.3-1 .3.1 1.9.3 1.9.4zm-20.7 19.1c0 .7-.9 1-1.1.8-.3-.5-.6.7-1.2.8-.5.1 1.1 1.1.7 1.2-.3.1-1.8-.2-2.1 0-.1.1-.3.1-.4.1h-.2c-1.4-.2-2.6.5-4 .3-.2 0-.3-.7-.4-.8-.1 0-.1-.2-.1-.2 0-.1.1-.1.2-.2.1 0 .3-.1.4-.1.7.7.8-.4.5-.7-.4-.5.7-.1 1-.1.1 0 .1.4.2.4.1.1.7.1.9.1 0-.1-.4-.6-.4-.8 0-.1-.3-.1-.3-.2.2 0 .4 0 .5-.1.1.1.1.2.3.3.2.1.4.5.9.3-.1-.2.2-.6 0-.6s-.4-.3-.4-.4h.3c.4.1.3 0 .2-.1.1 0 .2 0 .4-.1.3-.1.8-.3 1.3-.7.3-.3.6.2 1 .4.5.2.9.4.5-.5 0-.1.1-.3.2-.3.2 0 1.1.7 1.1 1.2zm-10.3-6.4c.5 1.2 1.3.5 2 1 0-.1 0-.2.1-.2.1-.1.1-.3.2-.3h1.3c-.1-.1-.2-.2-.3-.4l-.1-.1c-.1-.2-.2-.3-.3-.5.1.1.3.1.4.2h.3c-.1-.1-.1-.2-.2-.3v-.4c.7.3 1.9.5 1.8.9-.3.9.7 2 1.5 1.3.2-.2.2.6.4.5.3 1 1.4-.7 1.6-.8.3-.1.7-.3.9 0 0 0-.9.6-.5.8.7.2.6 1.5-.3 1.2-1.7-.4-4.2.1-6.5.4v-.1c1.1-.5.8-1 .6-.9-.7.3-1.5.2-1.9 0-.2-.1-.3-.3-.4-.5-.1-.2-.7-.2-.9-.4-.2-.2.2-.9-.1-.9-.7.1-.9-.8-.9-.9.1.1 1.3.3 1.3.4zM59.2 256.7c.2-.1.6-.1.8-.1-.1.3-.6.2-.7.5 0 .1 1.1.2.7.4-.5.3-.1.5-.4.6-.1 0 .2.3.2.5.1 0 .3-.5.5-.5.2-.1.3.1.4.2.3.2.3.2.5 0s.3-.3.5-.4c.3-.1.9.4.6.5-.4.1-.7.3-.7.5h1.1c.2 0 .2-.1 0-.2-.1 0 .2-.2.3-.1.3.1.5 0 .7-.1.2-.1.6-.2.9-.5.2-.2.4.2.7.3.3.1.6.3.3-.4l.1-.2c.3-.1.9.5.9.8 0 .2-.1.3-.1.4h73.8c.2-.1.3-.1.3-.1.1 0 .6.1.7.1-.1-.1-.2-.4-.4-.5-1-.1-1.2-.7-.6-.9.1 0 .7 0 .8-.1-.1 0-.7-.4-.7-.4-1.5-.2-3.5.3-4.9.1-.8-.1-.6-1-1.4-1.2-.1 0 .1-.4 0-.3-.3.1-.7-.9-.2-.9.1 0 .5.2.6.1 0-.1-.1-.1-.1-.2-.2-.1-.3-.2-.5-.4.8 0 .3-.3.6-.3.2 0 .6.9.9 1 .1 0 .2-.6.3-.6.4-.5.5.6.6.9.1.4.6-.5.3-.8-.5-.5.9-.2.9.2.1 1.2-.3 1.5 1 .3l.2.1.4.4c.1 0 0-.1.1-.1 0-.1.3-.1.3-.2-.1-.1-.4-.1-.5-.2 0-.2-.3-.7-.2-.9.2 0 .6.2.8.3.2.1.2.4.4.5.3.3.7 0 1.1-.1 1.2-.5.2-.4.1-.5-.2-.2-.8-.5-1-.7.2.1.5.2.7.3h.3c0-.1.4-.3.3-.4-.1-.1-.8-.4-.8-.5-.1-.1.2-.1.1-.2.1 0 .2-.1.3-.1.3 0 .3.3.6.2.8-.1-.5-.2 0-.4-.1 0 .2-.1.2-.3-.1-.4-.4-.4-.5-.4-1.6-.2-2.8.7-4.3.6-.2 0-.5-.6-.7-.7-.1-.1-.7-.7-.6-.8.1-.4.8-.3 1-.2.1.1.3.6.4.7.1.1.5.1.6.2.1-.2-.5-.4-.5-.6 0-.2.1-.3.2-.4.1-.1.2-.5.3-.4.2.2.2.8.5.9.2.1.5-.4.7-.5.1 0 .5.2.5.1.1-.4-1.4-1.5.2-1.1.2.1-.4-.7-.5-.9.2 0 .4.3.7.1h.4c.2 0 .4-.2.5-.4-.3-.4-1.6-.4-1.8-.5-1.3-.1-2.1.5-3.4 0-.5-.2.1 0 .3-.6 0-.1-.5-.5.4-.4 1.4.2-1.1-1.1-1.1-1 .1.1-.1-.3-.2-.4.1-.1.3.1.4 0h.4c.1 0 .3-.2.4-.3-.1-.1-.4-.2-.5-.2-.5 0-1.1 0-1.4-.6-.1-.1-.2-.3-.2-.4.1 0 .4.1.4-.1 0-.4.6.1.6.1-.4-.7.2-.6.5-.4.1.1.6.1.8.1 0-.1-.3-.3-.3-.4 0-.1-.3.1-.3 0v-.6c.1-.1.2.2.4.3.1.1.4.5.6.4.3 0 .7-.3 1-.4-.1-.2-.1-.5-.2-.7-.1-.1-.4-.2-.5-.3.1 0 .2.1.4.1.1 0 0-.2.1-.2 0-.1.3-.3.3-.4 0-.1-.2-.1-.3-.2-.1-.1-.1-.2-.1-.3.1 0 .2.1.3.1.3 0 .4.1.7.1.1 0 .5-.4.6-.5-.1 0-.2-.1-.3-.1-.7 0-1.6-.3-2.3-.4-1.3-.1-2.4.5-3.6.3-.1 0-.2-.7-.4-.7-.1 0-.1-.1-.1-.2s.1-.1.1-.2c.1 0 .3-.1.4-.1.7.7.7-.4.4-.6-.4-.4.6-.1.9-.1.1 0 .1.4.2.4.1.1.7.1.8.1 0-.1-.4-.6-.4-.7 0-.1-.2-.1-.3-.2 0-.1-.4-.2-.4-.4h.7c.2.2.2.4.4.5.2.1.4.5.8.3-.1-.2.2-.6 0-.6s-.4-.2-.4-.4h.3c.6.2 0-.3.1-.3-.1-.1.1-.2 0-.4s-.2 0-.3-.2c.2 0 .4.1.6.1.1 0-.5-.4-.4-.5-.1 0 .7-.5 0-.6-.6 0-1.2.3-1.7.3-.3 0-.6-.7-.2-.6.6.1.9-.3.8-.4-.3-.2-1.7 0-1.6-.6 1-.4.7-.9.5-.8-.6.3-1.4.2-1.7 0-.2-.1-.3-.3-.4-.5-.1-.2-.6-.2-.8-.4-.1-.2.2-.8-.1-.8-.7.1-.8-.7-.8-.8.1 0 1.1.2 1.2.3.4 1.1 1.2.5 1.8.9 0-.1 0-.2.1-.2.1-.1.1-.3.2-.3h1.1c-.1-.1-.2-.2-.2-.3l-.1-.1c-.1-.1-.2-.3-.2-.4.1.1.3.1.4.1h.3c0-.1-.1-.2-.1-.3-.1-.2.1-.6 0-.7.5-.3 1.2-.7 1-.7-.2-.1-1.5 0-1.6-.1-.2-.3-1.7-.3-1.8-.7 0-.1 1.1-.1 1.2-.2.1-.1 1.5-.2 1.6-.2.1-.5-2.2-.6-2.3-.6-1.2.3-1.3-.3-2.1-1.1-.1-.1-.2-.3-.3-.4.1 0 .3-.1.4-.1.1-.1 1.5 0 1.6-.1-.1-.1-1.5-.6-1.6-.7-.3-.2-.5-.4-.9-.5-1-.3-.7-.7-.6-.7.1-.1.9.2 1.1.2.8 0 .9-.1.1-.5-.1-.1-2.5-.9-1.2-1.3.7-.2 1.4.7 1.5.7.1 0 .1.1.2.1h.3v-.3c0-.1-.2-.2-.2-.3 0-.2-.3-.7-.3-.9.2 0 .6.2.7.3.8.5.6.3.7-.5 0 0 .9-.1 1-.1.5-.1-.2-.6-.5-.8-.6-.4-.1-.6.6-.4.1 0 .3-.1.5-.1.1 0 0-.3.1-.3-.1 0-.2-.1-.3-.1h-1.9c-.2 0-1.5 0-1.7-.1-.1-.1.7-.5 1.1-.5v-.4c-.1-.2-.2-.3-.2-.4.2 0 .3-.1.5-.1.1 0 .2.1.4.1.1 0 .7-.2.8-.3-.1 0-.4-.2-.5-.2-.9-.3-2.3-.4-3.2-.1-.9.3 1.1-.9-.4-1.2-.1 0-.4-.9-.4-1.1.1.1.3.1.3.2.1.2.7.5.9.7.2.4.6.2.9 0 .1-.1 3.1-1.4-.1-.8-.1 0 .1-.4.1-.4 1.2-.1.8-.5-.1-.5-.7 0-2-.2-2.4-1.1-.1-.1-.1-.3-.1-.4 0-.1.2-.2.3-.2 0 .1.1.2.1.4 0 .1.1.2.1.2.3-.5.5.1.8.1.1 0 .2-.1.3-.1-.4-.6.1-.4.3-.5.2-.2.3-.4.1-.8-.3-.7-.3-.7.3-.8h.2c.1 0 .3-.1.4-.1-.1-.1-.3-.2-.4-.2H128c-.1 0-.2-.1-.3-.1.3-.5-.4-.9-.1-1.4.1-.1.1-.3.1-.4.1.1.2.1.2.2l.5.5c-.1-.2-.1-.5-.2-.7v-.5c.1 0 .2 0 .3.1l.6.6c.1.1.3 0 .3 0 .1-.2-.2-1-.3-1.1-.3-.4.6-.3.9-.4-.1 0-.2-.4-.2-.5-.3-.1-.9-.4-1.2-.3-2.5.7.1-1.4-2.3.2-.4.3-.3-.4-.2-.9.4-1.8 1.3-.6.7-2-.1-.1 0-.5.1-.6-.1.1-.2.1-.3.2-.4.5-.6 1.4-1 1.9l-.2.2c0-.1-.3-.7-.2-.8.8-.9-.9-.6.7-1.9.1-.1-.2-.3-.1-.4-.1.1-.2 0-.3.1l-.3.3v-.6c.1-.4.5-.5.6-.8 0-.1 0-.6-.1-.7-.5.6-.6 0-.7-.3 0-.4.1-.6.1-1 0-.1-.2-.4-.2-.5 0 .1-.3.6-.3.7 0 .6.2.7.2 1.2 0 .2 0 .5-.1.5-.6.2-.2.6-.1.9 0 .3-.9-.6 0 .8-.1.3 0 .8-.1 1.2-.1-.3-.3-.6-.4-.9v-.1c-.1-.1-.1-.2-.2-.3v.3c.1.4.3.9.4 1.3v.3h-.3c-.2-.2-.3-.4-.4-.6-.2-.3-.3-.7-.4-1 0-.1-.1-.1-.2-.2v.3c0 .2.4.9 0 .9-.1 0-.3-.4-.4-.4 0 .1-.2.7-.1.8.3.5.9.5 1.2 1 .2.3.1.5-.2.6-.2.1-.3.1-.5.1-.6 0-1.2-.4-1.8-.4-.1 0-.3.3-.3.3.1 0 .1.1.2.1.6.3 1.9 1.6 1.5 2.1-.1.1-1.5-1-1.6-.9-.2.2-.4.3-.6.4.1.1.3.1.4.2.2.3.1 1 .4 1 1.2.2 2 1.5 1.8 1.6-.5.3-3-.7-3.5-.4-.1 0-.1.1-.2.2.1 0 .2.1.3.1.5 0 .4 0 .5.4 0 .1.2.2.2.3 0 .4.7.6.3 1.2l.1.1c.3.3.3.3 0 .6-.1.1-.1.2-.2.3.1 0 .2 0 .3-.1.4-.3.9 0 1.2-.3.1-.1.3-.6.4-.6.1 0 .8.2.7.2-.3.6-1.4 1-.5.9.3-.1.6.6.3.7-.3.1-1 .2-1.3.3-1.2.3-2.5.7-3.7 1-.1 0-.2.1-.2.2.1 0 .2.1.2.1.2 0 .5 0 .7-.1.3 0 .5-.1.2.4-.2.4-.6.7-.2 1 .1.1.5.2.6.2l.5-.1.2.1c.1-.2.1-.3.2-.4.1-.1.2-.1.3-.2v.3c0 .1.2.1.2.1.2-.2.5-.4.7-.6.1 0 .2 0 .3.1 0 0 0 .2-.1.3 0 .1-.1.1-.2.2s-.1.3-.1.5c.2 0 .3.1.5 0s.3-.3.5-.3c.1 0 .3.1.4.1-.1.1.1.2-.3.3-.7.2-1.1.3-1.8.5l-.3-.1c-.1 0-.3.1-.4.1-.2-.1-.2 0-.3-.1l-.2-.1-.3-.1c-.1.1-.2-.1-.3 0-.2.1-.3.1-.5 0-.3-.1-.5 0-.7 0-.1 0-.2.2-.3.2l.2.2c.1 0 .2 0 .3.1.2.1.5.1.7.2-.2.2-.3.5-.5.7l-.1.1v.2h.2c.1-.1.2-.2.4-.3.1-.1.3-.1.4-.1-.1.2-.1.3-.2.5-.1.1-.2.2-.3.4-.2.2-.3.5-.5.7.2-.1.5-.2.7-.4.2-.1.4-.3.7 0 .2.3.3.5 0 .7v.3c0 .1.2.1.2 0 .3-.4.5.2.8 0 .3.7.7.2.8 0 .3-.4.7-.4.6.1 0 0 .3-.1.4-.1.2-.1.4.2.6.1.3.3 0 .2-.2.3-.3.2-.3.6-.6.7-.5.2-1.1-.1-1.7.1-3 .8-2.4 1.1-3.9 1.1-.1 0-.5.8-.5.9.1 0 .6.4.7.4.3 0 .3-.5.6-.5.2 0 .8.2.6.5-.3.4-1 .6-.9.9.1.3.8.3.7.8.1 0 .3-.6.4-.7.1-.1.3.4.4.2.2-.4.9-.5.9-.2 0 .2-.6.7-.6.9 0 .6.7.4 1 .3.4-.2.9-.8 1.4-.9.1 0 1 .9 1.1 1.1.2.3-1.1.5-1.2.6-.5.2-1.1 0-1.7.2-.6.3-1.1 1-1.8 1.1-1.2.3-1.3-.2-2.4-.1.4-.2.8-.4.6-.4-.2-.1-2.1 0-2.2-.2-.3-.3-2.3-.4-2.5-.8-.1-.2 1.5-.1 1.6-.3.1-.1 2.1-.2 2.3-.3.2-.6-3-.7-3.2-.7-1.6.3-1.8-.3-2.9-1.3-.2-.1-.3-.3-.5-.5.2 0 .4-.1.6-.1.2-.1 2.1 0 2.2-.1-.1-.1-2-.8-2.2-.9-.4-.3-.7-.4-1.2-.5-1.4-.4-.9-.8-.9-.9.2-.1 1.2.2 1.4.2 1.1 0 1.2-.1.1-.6-.1-.1-3.5-1.1-1.7-1.5.9-.2 1.9.8 2 .9.1 0 .2.1.3.2h.4v-.4l-.3-.3c-.1-.2-.4-.8-.4-1.1.2 0 .8.2 1 .3 1.1.6.8.4 1-.6 0-.1 1.3-.1 1.4-.1.6-.1-.2-.7-.7-.9-.8-.4-.1-.7.9-.5.2 0 .5-.1.7-.1.1 0 0-.4.1-.4-.1-.1-.3-.2-.4-.2-.9 0-1.8.1-2.6 0-.3 0-2.1 0-2.3-.1-.1-.1.9-.6 1.5-.6v-.4c-.1-.2-.2-.3-.3-.5.2 0 .4-.1.7-.1.2 0 .3.1.5.1.1 0 .9-.3 1.1-.3-.1-.1-.6-.3-.7-.3-1.3-.3-3.2-.5-4.4-.2-1.2.3 1.5-1.1-.5-1.4-.1 0-.6-1.1-.6-1.3.2.1.4.1.5.2.2.2 1 .6 1.2.9.3.4.8.3 1.2 0 .1-.1 4.3-1.7-.2-1-.1 0 .1-.5.1-.5 1.7-.1 1.1-.6-.1-.6-1 .1-2.8-.3-3.3-1.3-.1-.1-.1-.4-.1-.5.1-.1.3-.2.4-.3.1.1.1.3.2.4 0 .1.1.2.2.3.4-.5.7.1 1.1.1.1 0 .3-.1.4-.2-.5-.8.2-.4.4-.6.3-.2.4-.5.2-.9-.4-.8-.4-.8.5-.9h.3c.2 0 .4-.1.6-.1-.2-.1-.4-.2-.6-.2h-2.4c-.1 0-.3-.1-.4-.1.4-.6-.5-1-.2-1.6.1-.1.1-.3.1-.5.1.1.2.2.3.2.2.2.4.4.6.5-.1-.3-.2-.6-.3-.8v-.1c0-.2 0-.3-.1-.5.1 0 .3 0 .4.1.3.2.5.5.8.7.1.1.4 0 .4 0 .1-.3-.3-1.1-.4-1.2-.4-.5.8-.4 1.2-.5-.1-.1-.2-.5-.3-.5-.4-.1-1.2-.5-1.6-.4-3.4.8.1-1.7-3.2.2-.6.3-.4-.5-.3-1 .5-2.1 1.8-.7.9-2.4-.1-.1.1-.6.1-.8-.1.1-.3.1-.4.2-.5.6-.8 1.6-1.3 2.3-.1.1-.1.1-.3.2 0-.2-.4-.8-.3-.9 1.1-1-1.2-.7 1-2.2.1-.1-.2-.4-.2-.5-.1.1-.3 0-.4.1-.2.1-.3.2-.4.4 0-.2 0-.5.1-.7.2-.4.7-.6.8-1 0-.1 0-.7-.1-.8-.7.7-.9 0-.9-.3-.1-.5.2-.7.2-1.2 0-.1-.2-.4-.3-.5 0 .1-.5.7-.5.8 0 .7.3.8.3 1.4 0 .2 0 .6-.1.6-.9.2-.3.7-.2 1 .1.4-1.3-.8 0 1-.2.4 0 1-.1 1.4-.2-.4-.4-.7-.6-1.1v-.1l-.3-.3v.4l.6 1.5v.3h-.4c-.2-.2-.4-.4-.6-.7-.2-.4-.3-.8-.5-1.2 0-.1-.1-.1-.2-.2v.3c0 .2.6 1 0 1.1-.1 0-.4-.5-.6-.5.1.1-.3.8-.2.9.4.6 1.2.6 1.6 1.2.3.4.1.6-.2.7-.2.1-.5.1-.7.1-.9 0-1.6-.5-2.5-.5-.1 0-.4.4-.5.4.1.1.2.1.2.2.8.4 2.6 1.8 2 2.5-.1.1-2.1-1.2-2.2-1.1-.2.2-.5.3-.8.5.2.1.5.1.6.3.2.4.2 1.1.6 1.2 1.7.2 2.7 1.8 2.5 1.9-.8.3-4-.8-4.8-.5-.1 0-.2.2-.3.2.1 0 .2.1.4.1.6 0 .6-.1.6.5 0 .1.2.2.2.3 0 .5 1 .7.4 1.4l.1.1c.4.3.4.3 0 .8-.1.1-.1.2-.2.4.1 0 .3 0 .4-.1.5-.3 1.2 0 1.7-.4.1-.1.4-.7.5-.7.1 0 1 .2 1 .2-.5.7-1.9 1.2-.7 1 .4-.1.8.7.4.9-.4.1-1.4.3-1.8.3l-5.1 1.2c-.1 0-.2.1-.3.2.1 0 .2.1.3.1.3 0 .7 0 1-.1.4 0 .7-.1.3.5-.3.5-.8.8-.3 1.2.1.1.7.2.8.3l.7-.1.3.1c.2-.2.1-.3.3-.5.1-.1.3-.2.4-.2v.4c.1.1.3.1.3.1.3-.2.6-.5 1-.7.1 0 .3 0 .3.1s0 .2-.1.4c-.1.1-.2.1-.2.2-.1.2-.1.4-.1.6.2 0 .4.1.6.1.3-.1.5-.3.7-.4.2 0 .4.1.5.2-.1.1.2.2-.4.4-1 .3-1.5.3-2.5.5l-.4-.1c-.1 0-.4.2-.5.1-.2-.1-.2 0-.5-.1 0-.1-.3-.1-.3-.2l-.5-.1c-.1.1-.3-.1-.4 0-.3.1-.4.1-.7 0-.4-.2-.6 0-1 0-.1 0-.3.2-.4.2.1.1.2.2.3.2.1 0 .3 0 .4.1.3.1.6.2 1 .3-.2.3-.4.6-.7.9 0 .1-.1.1-.1.2s0 .2-.1.3h.3c.2-.1.3-.3.5-.4.2-.1.4-.1.6-.1-.1.2-.2.4-.3.5-.1.2-.3.3-.4.4-.2.3-.4.6-.7.9.3-.1.7-.3 1-.4.3-.1.5-.4.9 0 .3.3.3.6 0 .9-.1.1-.1.3 0 .4 0 .1.3.1.3 0 .4-.5.7.2 1.1 0 .3.8.9.3 1.1 0 .4-.5 1-.5.9.1 0 0 .4-.1.6-.1.3-.1.6.2.9.1.4.3.1.3-.2.4-.4.2-.4.7-.8.8-.7.2-1.6-.1-2.3.1-4.1 1-3.3 1.3-5.3 1.3-.1 0-.6.9-.7 1 .1 0 .9.5 1 .5.4 0 .4-.5.8-.5.3 0 1.1.3.8.5-.5.4-1.4.7-1.2 1.1.1.4 1.1.3.9 1 .1 0 .5-.7.5-.8.2-.2.5.5.6.3.3-.4 1.2-.6 1.2-.2 0 .2-.8.8-.9 1.1 0 .7.9.5 1.3.3.6-.3 1.2-1 1.9-1.1.1 0 1.3 1 1.4 1.2.3.4-1.5.6-1.7.7-.7.2-1.6 0-2.3.3-.8.3-1.6 1.2-2.4 1.3-1.7.3-1.8-.3-3.5-.1-.3 0-1.2.3-1.5.4.3.1-.7.6-.4.6.2 0 .2.2.4.2.5 0 1.1-.3.8.2-.1.2-.9.2-1.3.2-.6.1 1.2 1 1 1.6.4-.2 1.3.3 1.6.1.1-.1.4-.9.5-.9.2-.1.4-.1.6-.2 0 .2-.3.5-.3.7 0 .1.6-.2.5-.1.1 0-.1.7 0 .6.4-.2.9-1 1-.9.6.7 2 0 2.7.2.2 0 .4.6.4.7 0 .2-.8.2-1 .2-.6.3-.7 1.6-1.4 1.4-1.6-.5-3.7.1-5.4.3h-2c-.1 0-.1.1-.2.2.1.1.1.2.2.2h1.2c.2 0 .4.1.5.2-.1.2-.1.3-.2.5s-.3.5-.4.7c.3-.1.6-.1.9-.2.1 0 .2-.1.3-.2.2-.1.4-.1.5-.2-.1.2-.3.3-.4.5-.2.1-.4.2-.5.3-.2.2-.2.5-.3.7l.2.2c.2-.1.5-.3.7-.4.6-.4.3.3.5.4 0 0 .2-.1.3-.2.3-.2.6-.6.9-.7.2-.1.6.1.8.2.1 0 0 .4 0 .6 0 .1-.1.3-.2.4.1 0 .3 0 .4-.1.3-.4 1.8-.6 1.5-.2-.2.3 1 1.2.8 1.2-1.5.1-1.3 2-3.1 1.7-.2 0 0-.6-1.1.5-.2.2-.8.2-1.2.1.5-.3 1.2-.7 1-.7-.2-.1-1.5 0-1.6-.1-.2-.3-1.7-.3-1.8-.7 0-.1 1.1-.1 1.2-.2.1-.1 1.5-.2 1.6-.2.1-.5-2.2-.6-2.3-.6-1.2.3-1.3-.3-2.1-1.1-.1-.1-.2-.3-.3-.4.1 0 .3-.1.4-.1.1-.1 1.5 0 1.6-.1-.1-.1-1.5-.6-1.6-.7-.3-.2-.5-.4-.9-.5-1-.3-.7-.7-.6-.7.1-.1.9.2 1.1.2.8 0 .9-.1.1-.5-.1-.1-2.5-.9-1.2-1.3.7-.2 1.4.7 1.5.7.1 0 .1.1.2.1h.3v-.3c0-.1-.2-.2-.2-.3 0-.2-.3-.7-.3-.9.2 0 .6.2.7.3.8.5.6.3.7-.5 0 0 .9-.1 1-.1.5-.1-.2-.6-.5-.8-.6-.4-.1-.6.6-.4.1 0 .3-.1.5-.1.1 0 0-.3.1-.3-.1 0-.2-.1-.3-.1h-1.9c-.2 0-1.5 0-1.7-.1-.1-.1.7-.5 1.1-.5v-.4c-.1-.2-.2-.3-.2-.4.2 0 .3-.1.5-.1.1 0 .2.1.4.1.1 0 .7-.2.8-.3-.1 0-.4-.2-.5-.2-.9-.3-2.3-.4-3.2-.1-.9.3 1.1-.9-.4-1.2-.1 0-.4-.9-.4-1.1.1.1.3.1.3.2.1.2.7.5.9.7.2.4.6.2.9 0 .1-.1 3.1-1.4-.1-.8-.1 0 .1-.4.1-.4 1.2-.1.8-.5-.1-.5-.7 0-2-.2-2.4-1.1-.1-.1-.1-.3-.1-.4 0-.1.2-.2.3-.2 0 .1.1.2.1.4 0 .1.1.2.1.2.3-.5.5.1.8.1.1 0 .2-.1.3-.1-.4-.6.1-.4.3-.5.2-.2.3-.4.1-.8-.3-.7-.3-.7.3-.8h.2c.1 0 .3-.1.4-.1-.1-.1-.3-.2-.4-.2h-1.8c-.1 0-.2-.1-.3-.1.3-.5-.4-.9-.1-1.4.1-.1.1-.3.1-.4.1.1.2.1.2.2l.5.5c-.1-.2-.1-.5-.2-.7v-.5c.1 0 .2 0 .3.1l.6.6c.1.1.3 0 .3 0 .1-.2-.2-1-.3-1.1-.3-.4.6-.3.9-.4-.1 0-.2-.4-.2-.5-.3-.1-.9-.4-1.2-.3-2.5.7.1-1.4-2.3.2-.4.3-.3-.4-.2-.9.4-1.8 1.3-.6.7-2-.1-.1 0-.5.1-.6-.1.1-.2.1-.3.2-.4.5-.6 1.4-1 1.9l-.2.2c0-.1-.3-.7-.2-.8.8-.9-.9-.6.7-1.9.1-.1-.2-.3-.1-.4-.1.1-.2 0-.3.1l-.3.3v-.6c.1-.4.5-.5.6-.8 0-.1 0-.6-.1-.7-.5.6-.6 0-.7-.3 0-.4.1-.6.1-1 0-.1-.2-.4-.2-.5 0 .1-.3.6-.3.7 0 .6.2.7.2 1.2 0 .2 0 .5-.1.5-.6.2-.2.6-.1.9 0 .3-.9-.6 0 .8-.1.3 0 .8-.1 1.2-.1-.3-.3-.6-.4-.9v-.1c-.1-.1-.1-.2-.2-.3v.3c.1.4.3.9.4 1.3v.3h-.3c-.2-.2-.3-.4-.4-.6-.2-.3-.3-.7-.4-1 0-.1-.1-.1-.2-.2v.3c0 .2.4.9 0 .9-.1 0-.3-.4-.4-.4 0 .1-.2.7-.1.8.3.5.9.5 1.2 1 .2.3.1.5-.2.6-.2.1-.3.1-.5.1-.6 0-1.2-.4-1.8-.4-.1 0-.3.3-.3.3.1 0 .1.1.2.1.6.3 1.9 1.6 1.5 2.1-.1.1-1.5-1-1.6-.9-.2.2-.4.3-.6.4.1.1.3.1.4.2.2.3.1 1 .4 1 1.2.2 2 1.5 1.8 1.6-.5.3-2.9-.7-3.5-.4-.1 0-.1.1-.2.2.1 0 .2.1.3.1.5 0 .4 0 .5.4 0 .1.2.2.2.3 0 .4.7.6.3 1.2l.1.1c.3.3.3.3 0 .6-.1.1-.1.2-.2.3.1 0 .2 0 .3-.1.4-.3.9 0 1.2-.3.1-.1.3-.6.4-.6.1 0 .8.2.7.2-.3.6-1.4 1-.5.9.3-.1.6.6.3.7-.3.1-1 .2-1.3.3-1.2.3-2.5.7-3.7 1-.1 0-.2.1-.2.2.1 0 .2.1.2.1.2 0 .5 0 .7-.1.3 0 .5-.1.2.4-.2.4-.6.7-.2 1 .1.1.5.2.6.2l.5-.1.2.1c.1-.2.1-.3.2-.4.1-.1.2-.1.3-.2v.3c0 .1.2.1.2.1.2-.2.5-.4.7-.6.1 0 .2 0 .3.1 0 0 0 .2-.1.3 0 .1-.1.1-.2.2s-.1.3-.1.5c.2 0 .3.1.5 0s.3-.3.5-.3c.1 0 .3.1.4.1-.1.1.1.2-.3.3-.7.2-1.1.3-1.8.5l-.3-.1c-.1 0-.3.1-.4.1-.2-.1-.2 0-.3-.1l-.2-.1-.3-.1c-.1.1-.2-.1-.3 0-.2.1-.3.1-.5 0-.3-.1-.5 0-.7 0-.1 0-.2.2-.3.2l.2.2c.1 0 .2 0 .3.1.2.1.5.1.7.2-.2.2-.3.5-.5.7l-.1.1v.2h.2c.1-.1.2-.2.4-.3.1-.1.3-.1.4-.1-.1.2-.1.3-.2.5-.1.1-.2.2-.3.4-.2.2-.3.5-.5.7.2-.1.5-.2.7-.4.2-.1.4-.3.7 0 .2.3.3.5 0 .7v.3c0 .1.2.1.2 0 .3-.4.5.2.8 0 .3.7.7.2.8 0 .3-.4.7-.4.6.1 0 0 .3-.1.4-.1.2-.1.4.2.6.1.3.3 0 .2-.2.3-.3.2-.3.6-.6.7-.5.2-1.1-.1-1.7.1-3 .8-2.4 1.1-3.9 1.1-.1 0-.5.8-.5.9.1 0 .6.4.7.4.3 0 .3-.5.6-.5.2 0 .8.2.6.5-.3.4-1 .6-.9.9.1.3.8.3.7.8.1 0 .3-.6.4-.7.1-.1.3.4.4.2.2-.4.9-.5.9-.2 0 .2-.6.7-.6.9 0 .6.7.4 1 .3.4-.2.9-.8 1.4-.9.1 0 1 .9 1.1 1.1.2.3-1.1.5-1.2.6-.5.2-1.1 0-1.7.2-.6.3-1.1 1-1.8 1.1-1.2.3-1.3-.3-2.5-.1-.2 0-.9.3-1.1.3.2 0-.5.5-.3.5.1 0 .1.2.3.2.4 0 .8-.3.6.2-.1.2-.7.1-1 .2-.4.1.9.8.7 1.4.3-.2.9.3 1.2.1.1-.1.3-.7.4-.8.1-.1.3-.1.5-.1 0 .2-.2.5-.2.6 0 .1.4-.2.4-.1.1 0-.1.6 0 .5.3-.1.6-.8.7-.7.4.6 1.5 0 1.9.1.1 0 .3.5.3.6 0 .2-.6.1-.7.2-.5.3-.5 1.4-1.1 1.2-1.2-.4-2.7.1-3.9.3h-1.5l-.1.1c.1 0 .1.1.2.1h.9c.1 0 .3.1.4.2-.1.1-.1.3-.2.4l-.3.6c.2-.1.4-.1.6-.2.1 0 .1-.1.2-.2s.3-.1.4-.2c-.1.1-.2.3-.3.4-.1.1-.3.1-.4.3-.1.2-.2.4-.2.6 0 0 .1.2.2.2.2-.1.3-.2.5-.4.4-.3.2.2.3.3l.2-.2c.2-.2.4-.5.6-.6.2-.1.4 0 .6.2v.5c0 .1-.1.2-.1.3.1 0 .2 0 .3-.1.2-.3 1.3-.5 1.1-.2-.2.2.7 1 .6 1-1.1.1-1 1.7-2.3 1.4-.2 0 0-.5-.8.4-.3.3-1.2 0-1.2 0-.1.6 1.6.6 1.5 1.1-.2.7.5 1.5 1 1 .1-.1.1.5.3.4.2.8.9-.6 1.1-.6.2 0 .4-.2.6 0 0 0-.6.5-.3.6.5.2.4 1.1-.2.9-1.6-.5-4.5.7-6.2.4-.7-.1-.5.1-.8.2-1.8 1.1-1.8 1.5-1.4 1.4zm51.7-14.1c-.2 0-.3-.8-.5-.9-.1 0-.1-.2-.2-.2 0-.1.1-.2.2-.2.2 0 .4-.2.5-.1.9.8 1-.4.6-.8-.2-.2-.1-.2 0-.2 0 .6 1.6.6 1.5 1.1-.1.5.1 1 .4 1.1-.8.2-1.7.3-2.5.2zm3-5.3v.1c-.4.1-.8.2-1.2.2-.3 0-.5-.3-.5-.5.4-.3.2.2.3.3l.2-.2c.1-.1.2-.3.4-.4.2-.1.3-.1.3-.2.2 0 .4.1.5.2.1 0 0 .3 0 .5zm.1 5.1h-.1.1c0-.1 0-.1 0 0zm-.3-2.6h-.3c-.1 0-.1-.3-.4 0-.2-.1-.4-.2-.4-.3.1 0 .8 0 .9.1.1 0 .2.1.2.2zm-1.5-3.6h-.3.1c.1-.1.3-.1.4-.2-.1 0-.1.1-.2.2zm.2 4.1c-.3.1-.8-.1-.9-.1.2 0 .6.1.9.1zm-.9-4.5c0 .1-.1.1-.1.2-.1-.1-.2-.2-.2-.3.2-.1.3-.1.4-.2 0 .1-.1.2-.1.3zm3.8 12.8c-.1.1-.6 0-1 0 0-.1-.1-.1-.1-.1.1-.1.4.1.6 0h.5v.1zm.3-1.6c-.2-.4-.4.6-.8.6-.1 0-.1.1 0 .2-.6 0-1.2-.1-1.7-.7-.1-.2-.2-.4-.3-.5.2 0 .5.1.5-.1v-.1h.1c.2 0 .6.3.6.2-.1-.2-.2-.4-.2-.5.1 0 .2-.1.2-.2.2 0 .4.1.6.2 0 0 .2 0 .3.1.2.1.3.1.3 0h.4c-.1-.1-.4-.3-.4-.4l.1-.2c.3-.1.9.5.9.8.1.5-.5.8-.6.6zm-.3-4.9c.2 0 .4-.2.6 0 0 0-.1.1-.2.1h-.6c.1 0 .1 0 .2-.1zm-.2-3.5c-.1-.2-.3 0-.4-.2.2 0 .4.1.6.1-.1 0-.1.1-.2.1zm.4-.2c-.1-.1-.6-.4-.5-.5-.1 0 .2-.2.3-.3.2.3.6.7.5.7-.2.1-.3.1-.3.1zm-.3-1.1h-.2c-.2 0-.5 0-.7.1.3-.3 1.1-.3.9-.1zm-2.7-6c.2 0 .3 0 .2.3l-.1.1v-.1c-.1-.1-.1-.2-.1-.3zm-4.2 1c.6 1.3 1.6.6 2.4 1.1 0-.1.1-.2.1-.3.1-.1.2-.3.3-.4h1.3c.1.1.1.2 0 .3.3-.2.9.3 1.2.1.1-.1.3-.7.4-.8.1-.1.3-.1.5-.1 0 .2-.2.5-.2.6 0 .1.4-.2.4-.1.1 0-.1.6 0 .5.3-.1.6-.8.7-.7.4.6 1.5 0 1.9.1.1 0 .3.5.3.6 0 .2-.6.1-.7.2-.5.3-.5 1.4-1.1 1.2-1.1-.4-2.4 0-3.6.2 0-.1-.1-.2-.2-.2-.3.1-.7.2-1 .2h-.6c-.3 0-.6-.1-.8-.1-.2-.1-.4-.3-.5-.6-.2-.2-.9-.2-1.1-.4-.2-.2.2-.9-.1-.9-.9.1-1.1-.8-1.2-.9.1.1 1.6.3 1.6.4zm-18.8 17.3c0 .6-.9.9-1 .7-.3-.4-.5.7-1.1.7-.5.1 1 1 .7 1.1-.3.1-1.6-.1-1.9 0-.1.1-.2.1-.3.1h-.2c-1.3-.1-2.4.5-3.6.3-.1 0-.2-.7-.4-.7-.1 0-.1-.1-.1-.2s.1-.1.1-.2c.1 0 .3-.1.4-.1.7.7.7-.4.4-.6-.4-.4.6-.1.9-.1.1 0 .1.4.2.4.1.1.7.1.8.1 0-.1-.4-.6-.4-.7 0-.1-.2-.1-.3-.2.2 0 .3 0 .5-.1.1.1.1.2.2.3.2.1.4.5.8.3-.1-.2.2-.6 0-.6s-.4-.2-.4-.4h.3c.3.1.3 0 .2-.1.1 0 .2 0 .3-.1.2-.1.8-.3 1.2-.6.3-.2.5.2.9.3.4.1.8.4.5-.4 0-.1.1-.2.2-.3.3.1 1.1.7 1.1 1.1zm-9.3-5.8c.4 1.1 1.2.5 1.8.9 0-.1 0-.2.1-.2.1-.1.1-.3.2-.3h1.1c-.1-.1-.2-.2-.2-.3l-.1-.1c-.1-.1-.2-.3-.2-.4.1.1.3.1.4.1h.3c0-.1-.1-.2-.1-.3v-.3c.6.3 1.7.4 1.6.8-.2.8.7 1.8 1.3 1.2.2-.1.2.5.4.4.3.9 1.2-.6 1.4-.7.3-.1.6-.3.9 0 0 0-.8.6-.5.7.6.2.6 1.3-.3 1.1-1.5-.4-3.8.1-5.9.4v-.1c1-.4.7-.9.5-.8-.6.3-1.4.2-1.7 0-.2-.1-.3-.3-.4-.5-.1-.2-.6-.2-.8-.4-.1-.2.2-.8-.1-.8-.7.1-.8-.7-.8-.8 0 .1 1 .3 1.1.4zm97.4 8.9l-.3 2.3v.3l4.1.5.4-3.1c0-.2.2-.4.4-.3.2 0 .4.2.3.4l-.4 3.1 4 .5v-.3l.3-2.5v-.1h.3l.1-1.2h-.3l-3.4-.4c1.3-.3 3.6.3 3.2-1.4-.1-.4-.5-.8-1.2-.9-.4-.1-.9 0-1.6.3-.7.4-1.1 1.1-1.2 1.6 0-.8 0-1.8-.9-2.6-.5-.5-1-.7-1.5-.7-1.1-.1-2.1.6-2.3 1.3-.5 2 2.4 1.1 3.6 2.1l-3.5-.4h-.3l-.1 1.2h.3v.3zm6-2c.6-.3 1-.4 1.2-.3.2 0 .4.2.5.3.3.9-1.7.4-2.7 1h-.1c.3-.4.6-.8 1.1-1zm-4.7-1.1s.5-.6 1.1-.5c.3 0 .7.2 1 .6.6.7.8 1.3.9 1.9h-.1c-.8-1.4-3.6-.6-2.9-2zm2.1 9.3l.2-2.2-4-.5-.1.1v.2l-.3 2.4zm4.8 0l.2-1.3v-.3l-4-.5-.3 2.1zm2.2-5.5l.3 2.6v.4l4.5-.5-.4-3.4c0-.2.1-.4.4-.5.2 0 .4.1.5.4l.4 3.4 4.4-.5v-.4l-.3-2.8v-.1h.3l-.1-1.3h-.3l-3.8.4c1.4-.6 3.9-.6 3-2.3-.2-.4-.8-.8-1.6-.7-.5 0-1 .3-1.6.8-.7.6-.9 1.4-.9 2-.2-.8-.5-1.9-1.6-2.6-.6-.4-1.2-.5-1.8-.4-1.2.1-2.1 1.1-2.1 2-.1 2.3 2.8.6 4.4 1.4l-3.9.4h-.3l.1 1.3h.3l.1.4zm5.9-3.7c.6-.5.9-.6 1.2-.7.3 0 .5.1.6.2.6.8-1.7.9-2.6 1.8h-.1c.3-.5.5-.9.9-1.3zm-5.2 0s.3-.8 1.1-.8c.3 0 .8.1 1.3.4.8.6 1.2 1.2 1.4 1.8h-.1c-1.3-1.3-4.1.2-3.7-1.4zm-.2 7.6v.2l.1 1.4h4.6l-.3-2.2-4.5.5v.1zm10 1.6l-.3-2.4v-.4l-4.4.5.2 2.3zm4.7-7.5c.4.1 1.6-.3 2-.3-.2.3-.9.9-1.4.8-.1 0 0 .5-.1.7.1 0 .7.5.8.1.1-.2.6-.7.9-.7-.1.2.4.8-.6 1.2-.1.1-.5-.1-.5 0-.1.3.2.6.1.7.1 0 .6-.4.7-.5.6-.3.4.2 1-.2.2-.1-.1-.5.4-.4 0 .2 1.4-.2 1.3 0 0 .1-1.1.6-1.2.7-.1.2-.1.3-.2.5.2-.1 1 0 1.2-.2.5-.4 1-.8 1.6-.8 1.7-.1-.3.3.1 1.2l.2.2c.4-.5 1.4-.1 1.7.1.1 0-.7.4-.8.7 0 .2.6.5.7.7.3.7-.4.6-1.1.8-1.3.4-2.1-.5-3.3-.4-.5 0-1.7.4-2.2.5-1.2.4 1.3.6 1.7.6h.1c.4 0 .6.4.2.5-.4.1-.7.4-1 .7h48.1c-.1-.1-.3-.4-.4-.6h.7c.1 0 .2.2.4.2.2.1.4.2.7.3h.4c0-.3.2-.7.1-1 0-.1-.7 0-.7-.1-.1-.2-.1-.3-.2-.5.2 0 .3-.1.5-.1.6 0 .5.3 1.1.3.1 0 .8-.4.9-.4-.1 0 .5-.7.4-.7-.6 0-2 .1-2.6.1-.8 0-1.4-.6-2.9-.6-.1 0 1.3-.5 1.4-.5.2 0 .9.1 1.1.1-.1-.2-.3-.6-.5-.6-1.5-.1-1.7-.9-.9-1.1.1 0 1 0 1.1-.1-.1 0-.9-.5-1.1-.5-2.2-.2-5 .4-7.1.1-1.1-.2-.9-1.2-2-1.5-.1 0 .1-.5 0-.4-.4.1-1-1.1-.3-1.2.1 0 .7.2.9.1-.1-.1-.1-.2-.2-.2-.2-.2-.5-.3-.7-.5 1.1 0 .5-.4.8-.4.4 0 .9 1.1 1.3 1.2.2 0 .3-.7.4-.8.6-.6.7.7.9 1.1.2.5.9-.6.4-1-.7-.6 1.3-.3 1.3.3.1 1.5-.4 1.8 1.4.4 0 0 .2.1.3.2.2.1.4.3.6.5.1 0 0-.1.1-.1 0-.1.5-.2.4-.2-.1-.1-.6-.1-.7-.2 0-.3-.4-.9-.4-1.1.3 0 .9.3 1.1.4.2.1.4.5.6.7.5.4 1.1 0 1.6-.1 1.8-.6.2-.5.1-.6-.3-.3-1.2-.6-1.4-.9.3.1.7.3 1 .4h.4c.1-.1.6-.4.5-.5-.1-.2-1.1-.4-1.2-.6-.1-.1.2-.1.2-.2.2 0 .3-.1.5-.1.5 0 .4.4.9.3 1.2-.2-.8-.2 0-.5-.1 0 .3-.2.2-.3-.1-.4-.5-.5-.7-.5-2.2-.2-4 .9-6.2.7-.3 0-.8-.7-1-.9-.2-.2-1-.8-.9-1 .2-.5 1.2-.4 1.5-.3.1.1.4.8.5.8.2.1.7.2.9.2.2-.3-.7-.5-.7-.7-.1-.3.1-.3.2-.6.1-.2.2-.6.4-.5.3.2.4 1 .7 1.2.2.1.8-.5 1.1-.6.2-.1.7.2.8.1.1-.4-2-1.8.2-1.3.3.1-.5-.8-.7-1.1.3 0 .6.3.9.1h.5c.3 0 .6-.2.8-.6-.5-.5-2.2-.6-2.6-.6-1.9-.2-3.1.6-4.8.1-.7-.2.1-.1.4-.7 0-.1-.7-.6.6-.4 2 .3-1.6-1.4-1.5-1.3.1.2-.2-.4-.3-.5.2-.1.4.1.6 0h.5c.1 0 .4-.3.5-.3-.1-.1-.6-.3-.8-.3-.8 0-1.5 0-2.1-.7l-.3-.6c.2 0 .6.1.6-.1 0-.4.9.2.8.1-.5-.9.3-.7.7-.5.1.1.9.1 1.1.1-.1-.1-.4-.3-.5-.4-.1-.1-.4.1-.4 0 0-.3-.1-.6.1-.8.1-.1.3.2.5.3.2.1.6.6.8.5.4 0 1-.4 1.4-.5-.1-.2-.2-.6-.3-.8-.1-.1-.6-.3-.7-.4.2 0 .4.1.5.1.2 0 0-.2.2-.2 0-.2.4-.3.4-.5-.1-.1-.4-.1-.4-.2-.1-.1-.1-.3-.2-.4.2-.1.3.2.4.2.5 0 .6.1 1 .1.1 0 .7-.5.8-.6-.1 0-.3-.1-.4-.1-1-.1-2.3-.4-3.3-.5-1.8-.2-3.4.6-5.2.4-.2 0-.4-.8-.5-.9-.1 0-.2-.2-.2-.3 0-.1.1-.2.2-.2.2-.1.4-.2.5-.1 1 .8 1-.4.6-.8-.6-.5.9-.1 1.3-.1.1 0 .2.4.3.5.2.1 1 .1 1.2.1-.1-.2-.5-.7-.6-.9-.1-.1-.4-.1-.4-.2-.1-.2-.5-.3-.6-.5.2 0 .8 0 .9.1.3.2.3.5.6.6.3.1.5.6 1.2.4-.1-.2.3-.7 0-.7-.2 0-.5-.3-.6-.4h.4c.9.3 0-.3.2-.3-.1-.2.1-.3 0-.4-.1-.2-.3 0-.4-.2.2 0 .6.1.8.1.1 0-.7-.5-.6-.6-.1-.1.9-.7 0-.7-.8 0-1.7.4-2.5.3-.5 0-.9-.9-.3-.7.8.2 1.3-.4 1.1-.5-.4-.3-2.4 0-2.3-.7 1.4-.5 1.1-1.1.8-1-.9.3-2 .3-2.5.1-.2-.1-.4-.4-.6-.6-.2-.2-.9-.2-1.1-.5-.2-.2.3-1-.1-1-1 .1-1.2-.9-1.2-1 .1 0 1.6.3 1.7.3.6 1.4 1.7.6 2.6 1.1 0-.1.1-.2.1-.3.1-.1.2-.4.3-.4h1.6c-.1-.1-.2-.3-.3-.4 0-.1-.1-.1-.2-.1-.1-.2-.2-.4-.3-.5.2.1.4.1.6.2h.4c-.1-.1-.1-.3-.2-.4-.1-.2.2-.7 0-.9.7-.4 1.7-.8 1.5-.9-.2-.1-2.2 0-2.4-.2-.3-.3-2.4-.4-2.6-.8-.1-.2 1.5-.1 1.7-.3.1-.2 2.2-.2 2.4-.3.2-.6-3.2-.7-3.4-.7-1.7.3-1.9-.4-3.1-1.3-.2-.1-.3-.4-.5-.6.2 0 .4-.1.6-.1.2-.1 2.2 0 2.3-.1-.2-.1-2.1-.8-2.3-.9-.4-.3-.8-.4-1.3-.6-1.4-.4-1-.9-.9-.9.2-.1 1.3.2 1.5.2 1.1 0 1.3-.2.1-.6-.1-.1-3.6-1.2-1.8-1.6 1-.3 2 .8 2.2.9.1 0 .2.1.3.2h.4c0-.1 0-.3-.1-.4-.1-.1-.2-.2-.3-.4-.1-.3-.4-.8-.4-1.1.2 0 .9.2 1.1.3 1.1.6.9.4 1-.7 0-.1 1.3-.1 1.4-.1.7-.1-.2-.7-.7-1-.9-.4-.1-.7.9-.5.2 0 .5-.1.7-.1.1 0 0-.4.1-.4-.1-.1-.3-.2-.4-.2-.9 0-1.9.1-2.8 0-.3 0-2.2 0-2.5-.1-.2-.1 1-.6 1.6-.6v-.4c-.1-.2-.2-.4-.3-.5.2 0 .5-.1.7-.1.2 0 .3.1.5.1.1 0 1-.3 1.1-.3-.1-.1-.6-.3-.8-.3-1.3-.3-3.3-.5-4.6-.2-1.3.3 1.6-1.2-.5-1.4-.1 0-.6-1.2-.6-1.4.2.1.4.1.5.2.2.2 1.1.7 1.2.9.3.5.9.3 1.3 0 .1-.1 4.5-1.8-.2-1-.1 0 .1-.5.1-.5 1.7-.1 1.2-.7-.1-.6-1.1.1-2.9-.3-3.5-1.4-.1-.1-.2-.4-.1-.5.1-.1.3-.2.4-.3.1.1.1.3.2.4 0 .1.1.2.2.3.4-.6.8.1 1.1.1.1 0 .3-.1.4-.2-.6-.8.2-.5.4-.6.4-.2.4-.5.2-1-.4-.9-.4-.9.5-1h.3c.2 0 .4-.1.6-.1-.2-.1-.4-.2-.6-.2h-2.6c-.2 0-.3-.1-.5-.1.5-.6-.6-1.1-.2-1.7.1-.1.1-.3.1-.5l.3.3c.2.2.5.4.7.6l-.3-.9s0-.1-.1-.1c0-.2 0-.4-.1-.5.2 0 .3 0 .5.1.3.2.5.5.8.7.1.1.4 0 .4 0 .1-.3-.3-1.2-.4-1.3-.4-.5.8-.4 1.3-.5-.1-.1-.2-.5-.3-.6-.5-.1-1.3-.5-1.7-.4-3.6.9.1-1.7-3.3.2-.3.2-.4 0-.4-.3h.1v-.3c0-.2.1-.3.1-.5.5-2.2 1.9-.7 1-2.5-.1-.1.1-.6.1-.8-.1.1-.3.1-.4.2-.4.5-.7 1.2-1 1.8l-.6-4.1 3.5 1.8-.8-4.6 3.4-3.3-4.6-.7-2.1-4.2-2.1 4.2-4.6.7 3.4 3.3-.8 4.6 3.5-1.8-.3 2.5c0-.1-.1-.1-.1-.2 0 0 0-.1-.1-.1l-.3-.3v.4c.1.3.2.6.3.8l-.1 1c-.2-.2-.4-.4-.6-.7-.2-.4-.4-.8-.5-1.2 0-.1-.1-.1-.2-.2v.3c0 .2.6 1.1 0 1.1-.1 0-.5-.5-.6-.5.1.1-.3.8-.2.9.4.6 1.3.6 1.7 1.2.3.4.1.6-.3.8-.2.1-.5.2-.7.1-.9-.1-1.7-.5-2.6-.5-.1 0-.4.4-.5.4.1.1.2.1.3.2.8.4 2.8 1.9 2.2 2.6-.1.1-2.2-1.2-2.3-1.1-.3.2-.5.4-.8.5.2.1.5.1.6.3.2.4.2 1.2.6 1.3 1.8.2 2.9 1.9 2.6 2-.8.3-4.2-.8-5-.5-.1 0-.2.2-.3.3.1 0 .3.1.4.1.7 0 .6-.1.7.6 0 .1.2.2.2.3 0 .6 1.1.7.5 1.4l.1.1c.4.4.4.4 0 .8-.1.1-.2.2-.2.4.2 0 .3 0 .5-.1.5-.3 1.3 0 1.8-.4.1-.1.4-.8.5-.7.1 0 1.1.2 1 .2-.5.7-2 1.3-.7 1.1.4-.1.9.8.4.9-.4.1-1.5.3-1.9.4-1.8.4-3.5.8-5.3 1.2-.1 0-.2.1-.4.2.1 0 .2.1.3.1.4 0 .7 0 1.1-.1.4 0 .8-.1.4.6-.3.5-.9.8-.3 1.3.1.1.8.3.9.3l.8-.1.3.1c.2-.2.1-.3.3-.5.1-.1.3-.2.4-.2 0 .1 0 .3.1.4.1.1.3.1.3.1.4-.2.7-.5 1-.8.1 0 .3 0 .4.1 0 .1 0 .3-.1.4-.1.1-.2.1-.2.2-.1.2-.1.4-.2.6.2 0 .5.1.7.1.3-.1.5-.3.7-.4.2 0 .4.1.6.2-.1.1.2.2-.4.4-1.1.3-1.5.3-2.6.6l-.5-.1c-.1 0-.4.2-.6.1-.3-.1-.2 0-.5-.1.1-.1-.4-.1-.3-.2l-.5-.1c-.1.1-.3-.1-.4 0-.3.1-.5.1-.7 0-.4-.2-.7 0-1 0-.1 0-.3.2-.4.3.1.1.2.2.3.2.1.1.3 0 .4.1.3.1.7.2 1 .3-.2.3-.5.6-.7.9 0 .1-.1.1-.1.2s0 .2-.1.3h.3c.2-.1.3-.3.5-.4.2-.1.4-.1.6-.1l-.3.6c-.1.2-.3.3-.5.5-.2.3-.5.6-.7.9.3-.2.7-.3 1-.5.3-.2.6-.4.9 0 .3.4.4.6 0 .9-.1.1-.1.3 0 .4.1.1.3.1.3 0 .4-.5.7.2 1.1 0 .4.9 1 .3 1.2 0 .5-.5 1-.6.9.1 0 0 .4-.1.6-.1.3-.1.6.2.9.1.5.4.1.3-.2.4-.5.2-.4.7-.9.8-.8.3-1.7-.1-2.5.1-4.3 1-3.5 1.4-5.6 1.3-.1 0-.7 1-.8 1.1.1 0 .9.5 1 .5.4 0 .4-.6.8-.6.3 0 1.1.3.8.6-.5.4-1.4.7-1.3 1.1.1.4 1.1.3 1 1 .1 0 .5-.8.6-.8.2-.2.5.5.6.3.4-.5 1.3-.6 1.3-.3s-.9.9-.9 1.1c0 .7 1 .5 1.4.3.6-.3 1.3-1 2-1.2.1 0 1.4 1.1 1.5 1.3.3.4-1.5.6-1.8.7-.7.2-1.6 0-2.4.3-.9.3-1.6 1.2-2.5 1.4-1.8.3-1.9-.4-3.6-.1-.3 0-1.3.4-1.6.4.3.1-.7.6-.4.7.2 0 .2.2.4.2.6 0 1.2-.3.8.3-.2.2-.9.2-1.4.2-.6.1 1.3 1 1 1.7.4-.2 1.3.4 1.7.1.1-.1.4-.9.5-1 .2-.1.4-.1.7-.2 0 .2-.3.6-.3.8 0 .1.6-.2.6-.1.1 0-.2.7 0 .6.4-.2.9-1 1-.9.6.7 2.1 0 2.8.2.2 0 .4.6.4.7 0 .2-.9.2-1 .3-.7.4-.8 1.7-1.5 1.5-1.7-.6-3.9.2-5.7.4h-2.1c-.1 0-.1.1-.2.2.1.1.1.2.2.2h1.3c.2 0 .4.1.6.2-.1.2-.1.3-.2.5-.1.3-.3.5-.4.7.3-.1.6-.1.9-.2.1 0 .2-.1.3-.2.2-.1.4-.1.6-.2-.1.2-.3.4-.5.5l-.6.3c-.2.2-.3.5-.4.8l.2.2c.3-.1.5-.3.7-.5.6-.4.3.3.5.4 0 0 .2-.1.3-.2.3-.3.6-.6.9-.7.2-.1.6.1.9.2.1 0 0 .4 0 .7 0 .1-.1.3-.2.4.1 0 .3 0 .4-.2.3-.4 1.9-.6 1.6-.3-.3.3 1 1.3.8 1.3-1.6.1-1.4 2.1-3.3 1.8-.2 0 0-.7-1.2.5-.4.4-1.7 0-1.7 0-.1.7 2.4.8 2.2 1.4-.3.9.7 1.9 1.4 1.2.2-.1.2.6.4.5.3 1 1.3-.7 1.5-.7.3-.1.6-.3.9 0 0 0-.9.6-.5.7.7.2.6 1.4-.3 1.2-2.4-.6-6.5.8-8.9.5-1-.1-.8.2-1.2.3.4.1.4.6 1 .4.3-.1.8-.2 1.2-.1-.2.3-.8.3-1 .6 0 .1 1.5.3 1 .5-.7.3-.1.6-.6.8-.2.1.2.4.2.6.2-.1.5-.6.7-.6.3-.1.4.1.6.2.4.2.4.3.7 0 .2-.2.5-.4.7-.5.5-.2 1.3.5.9.6-.7.2-1.4.5-.8.8.3-.2 2.2-.2 1.3-.5-.1 0 .3-.2.4-.2.4.1.7 0 1-.1.3-.1.8-.3 1.3-.7.3-.3.6.2 1 .4.5.2.8.4.5-.4 0-.1.1-.3.2-.3.4-.1 1.3.6 1.3 1 0 .7-.9 1-1.1.7-.3-.5-.5.7-1.1.8-.5.1 1.1 1 .7 1.2-.3.1-1.7-.1-2 0-.8.3-1.4.2-2.1.6-1.3.7-2.7.1-4.1.3-.4 0-.8.8-1.1.9.4 0 .8.1 1.1.1.1 0 .3-.1.3 0 .1.1.2.4.1.5-.7.6.5 1.2-.6 1.1-.4-.1-2.6.1-3 .3.4 0 .6.7 1.4.4.2-.1.4.1.6.2l-.3.6c-.2.3-.4 1.6-.2 1.7.5.1 1 .6 1.5-.5.1-.2 1.1-.2 1.3-.4 0 .2-.5.7-.6.9-.1.2-.1.5-.2.7l.6-.3c.1-.1.8-.8.9-.8.2.1.6.8.8 1-.1.1-.9 0-1 0-.4.1 1.2.4.3.7-1.7.6-4.8-.3-6.6-.1-.3 0-1.2.1-1.5.2.1.2-.1.8.2.8zm22.1-65l.7-3.9-2.9-2.8 3.9-.6 1.8-3.6 1.8 3.6 4 .6-2.9 2.8.7 3.9-3-1.6-.1-.4 2.4 1.3-.6-3.2 2.4-2.3-3.3-.5-1.5-3-1.5 3-3.3.5 2.4 2.3-.6 3.2 2.4-1.3-.1.4-2.7 1.6zm36.1 67.3v2.5h3.9v-3c0-.2.2-.4.4-.4s.4.2.4.4v3h3.8v-2.8h.3v-1.1h-3.6c1.2-.4 3.4-.1 2.8-1.7-.1-.3-.6-.7-1.3-.7-.4 0-.9.1-1.4.5-.7.4-.9 1.1-1 1.7-.1-.7-.2-1.7-1.1-2.4-.5-.4-1-.5-1.5-.5-1 0-1.9.8-2 1.5-.3 1.9 2.4.8 3.7 1.6h-3.7v1.1h.3v.3zm5.5-2.6c.5-.3.9-.5 1.1-.5.2 0 .4.1.5.2.4.8-1.5.6-2.4 1.3h-.1c.2-.4.4-.7.9-1zm-4.6-.5s.4-.6 1-.6c.3 0 .6.1 1 .5.6.6.9 1.1 1 1.7h-.1c-.9-1.3-3.4-.3-2.9-1.6zm3 8.3V257h-3.9v.3l-.1 1.6zm4.5 0l.1-1.5v-.3l-3.9-.1v1.9zm11.7-5.8h.3l.2-1.3h-.3l-3.7-.6c1.6-.6 4.3 1.1 4.3-1.1 0-.9-.8-1.8-1.9-2-.5-.1-1.1 0-1.7.3-1.1.6-1.5 1.6-1.7 2.4 0-.6-.1-1.4-.8-2-.5-.5-1-.7-1.5-.8-.8-.1-1.3.2-1.5.6-.9 1.6 1.5 1.7 2.8 2.4l-3.6-.6h-.3l-.2 1.3h.3v.1l-.4 2.7v.3l4.2.7.5-3.3c0-.2.2-.4.5-.3.2 0 .4.2.3.5l-.5 3.3 4.3.7v-.3l.4-2.5v-.5zm-4.8-2.3s-.1 0 0 0c-.9-.9-3.1-1.1-2.5-1.8.1-.1.3-.2.6-.1.3 0 .6.2 1.2.7.4.3.6.7.7 1.2zm.7.1s-.1 0 0 0c.2-.6.6-1.2 1.3-1.7.5-.3.9-.4 1.2-.3.7.1 1 .8 1 .9.4 1.5-2.2-.1-3.5 1.1zm-6.4 8h4.4l.4-2.7-4.3-.7v.4zm9.6 0l.3-1.6v-.3l-4.3-.7-.4 2.6zm30.3-27.5s0-.3-.1-.9c-.1-.6-.3-1.4-.6-2.3-.2-.5-.4-.9-.6-1.4-.3-.5-.6-1-.9-1.6-.3-.6-.5-1.3-.5-2.1 0-.7.2-1.5.5-2.1.3-.6.5-1.2.7-1.8l.6-1.8c.1-.6.2-1.1.3-1.7v-1.5c-.1-.9-.4-1.7-.6-2.2-.1-.3-.2-.5-.3-.6-.1-.1-.1-.2-.1-.2l.2.2c.1.1.3.3.6.5.4.5 1 1.2 1.3 2.2.1.2.2.5.2.8.1.3.1.6.1.9 0 .6 0 1.2-.1 1.9-.1.6-.2 1.3-.5 1.9-.2.6-.5 1.3-.7 1.9-.3.6-.4 1.2-.5 1.7 0 .5.1 1.1.3 1.7.2.6.4 1.2.6 1.7.2.6.3 1.1.4 1.6.2 1 .1 1.9 0 2.4-.2.5-.3.8-.3.8zm-1.3 6.4l-4.5 4.3c.1.1.1.1.1.3h2.3v16.5h9.3v-7.5h4.7v7.5h9.3v-16.5h2.3c.1-.1.1-.1.1-.3l-14-13.3h-.2l-6.6 6.3c-.1-.1-.1-.1-.3-.1v-1.7l.2-.2h.2l.2-.2v-.6l-.2-.2h-3.3l-.2.2v.6l.2.2h.2l.2.2v4.5zm16.7 7h2.2v2.2h-2.2v-2.2zm0 2.5h2.2v2.2h-2.2v-2.2zm-2.5-2.5h2.2v2.2h-2.2v-2.2zm0 2.5h2.2v2.2h-2.2v-2.2zm-11.5-2.5h2.2v2.2h-2.2v-2.2zm0 2.4h2.2v2.2h-2.2v-2.2zm-2.5-2.4h2.2v2.2h-2.2v-2.2zm0 2.4h2.2v2.2h-2.2v-2.2zm28.2-18.7v30.3h5.7v-10.3h8.6v10.3h37.2v-30.3h1.6l.2-.4-10.1-13.8c-.1 0-.1-.1-.2-.1h-21.7l-.3-.3v-1.7l.3-.3.3-.3v-.9l-.3-.3h-7.7l-.3.3v.9l.3.3.3.3v1.7l-.3.3h-5.1c-.1 0-.1.1-.2.1l-10.1 13.8.2.4h1.6zm41.6 4h4.1v4h-4.1v-4zm0 4.5h4.1v4.1h-4.1V237zm0 9.6h4.1v4.1h-4.1v-4.1zm0 4.6h4.1v4h-4.1v-4zm-4.5-18.7h4.1v4h-4.1v-4zm0 4.5h4.1v4.1h-4.1V237zm0 9.6h4.1v4.1h-4.1v-4.1zm0 4.6h4.1v4h-4.1v-4zm-11.2-18.7h4.1v4h-4.1v-4zm0 4.5h4.1v4.1h-4.1V237zm0 9.6h4.1v4.1h-4.1v-4.1zm0 4.6h4.1v4h-4.1v-4zm-4.5-18.7h4.1v4h-4.1v-4zm0 4.5h4.1v4.1h-4.1V237zm0 9.6h4.1v4.1h-4.1v-4.1zm0 4.6h4.1v4h-4.1v-4zm-11.2-18.7h4.1v4h-4.1v-4zm0 4.5h4.1v4.1h-4.1V237zm-4.5-4.5h4.1v4h-4.1v-4zm0 4.5h4.1v4.1h-4.1V237zm53.5-.2v22.1h8.2v-10.3h6.6v10.3h8.3v-22.1h2.9c.1-.2.1-.2.2-.3l-4.4-7v-8.3h.3l.2-.2v-.8l-.2-.2H416l-.2.2v.8l.2.2h.3v3c-.2.1-.2.1-.4.1l-6.9-11.1h-.4l-14.5 23.3c.1.2.1.2.2.3h2.9zm11.8.3h3.1v3.1H409v-3.1zm0 3.5h3.1v3.1H409v-3.1zm-3.6-3.5h3.2v3.1h-3.2v-3.1zm0 3.5h3.2v3.1h-3.2v-3.1zm151.9-25.7s.1-.5.2-1.4c.2-.9.5-2.2 1.1-3.6.3-.7.7-1.5 1.2-2.3.5-.8 1.1-1.6 1.6-2.6s1-2 .9-3.2c0-1.2-.4-2.3-.9-3.3s-.9-2-1.4-2.9c-.4-1-.8-1.9-1-2.8-.3-.9-.5-1.8-.5-2.6 0-.5-.1-.8 0-1.2 0-.4 0-.8.1-1.2.2-1.5.7-2.7 1.2-3.5.2-.4.5-.7.6-1 .2-.2.2-.3.2-.3s-.1.1-.4.3c-.2.2-.6.4-1 .8-.8.7-1.8 1.9-2.4 3.5-.1.4-.3.8-.4 1.2-.1.4-.2.9-.2 1.3-.1 1 0 1.9.2 2.9s.4 2 .8 3 .9 2 1.3 3c.5 1 .8 1.9.9 2.7 0 .8-.2 1.7-.5 2.6l-1.2 2.7c-.4.9-.6 1.8-.7 2.6-.3 1.6-.1 2.9.1 3.8-.1 1 .2 1.5.2 1.5zm-40.6 19.6v24.3h17.6V247h7v11.8h30.5v-24.3h3.2l.2-.4-11.4-14.8c-.1 0-.1-.1-.2-.1h-3.2l-.2-.2v-2.2h.6l.2-.2v-.7l-.2-.2h-7.2l-.2.2v.7l.2.2h.6v2.2l-.2.2h-29.1c-.1 0-.1.1-.2.1l-11.4 14.8.2.4h3.2zm47 1.6h3.4v3.3h-3.4v-3.3zm0 3.7h3.4v3.4h-3.4v-3.4zm0 7.3h3.4v3.4h-3.4v-3.4zm0 3.8h3.4v3.3h-3.4v-3.3zm-3.7-14.8h3.3v3.3H560v-3.3zm0 3.7h3.3v3.4H560v-3.4zm0 7.3h3.3v3.4H560v-3.4zm0 3.8h3.3v3.3H560v-3.3zm-9.2-14.8h3.3v3.3h-3.3v-3.3zm0 3.7h3.3v3.4h-3.3v-3.4zm0 7.3h3.3v3.4h-3.3v-3.4zm0 3.8h3.3v3.3h-3.3v-3.3zm-3.7-14.8h3.3v3.3h-3.3v-3.3zm0 3.7h3.3v3.4h-3.3v-3.4zm0 7.3h3.3v3.4h-3.3v-3.4zm0 3.8h3.3v3.3h-3.3v-3.3zm-9.2-14.8h3.3v3.3h-3.3v-3.3zm0 3.7h3.3v3.4h-3.3v-3.4zm-3.6-3.7h3.3v3.3h-3.3v-3.3zm0 3.7h3.3v3.4h-3.3v-3.4zm-9.2-3.7h3.3v3.3h-3.3v-3.3zm0 3.7h3.3v3.4h-3.3v-3.4zm-3.7-3.7h3.3v3.3h-3.3v-3.3zm0 3.7h3.3v3.4h-3.3v-3.4z"/><path class="st0" d="M0 258.9h750v.3H0zM533.3 84.6c-1.4.4-2.7 1.1-3.1.9-.4-.2-.3-.9-.3-.9.3-2.4-1.4-7.9-4.9-10.5-3.6-2.6-4-3.1-4.1-3.8-.2-.7 1.1-1.2 1.9-1.7.8-.5.7-1.5.7-1.7 0-.2 0-.4.2-1 .1-.6-1.2-.3-1.9-.2-.7.2-1.4.3-2 .1-.6-.2-2.1-.4-2.9-.3-.7.1-1.4-.1-2-.6-.7-.5-.1-1.7.1-2.3.2-.6.7-1.1 1.2-1.4.5-.2 1.1-.8-.1-1.5-1.2-.7-2.1.6-2.3 1.1-.2.6-.5 2.3-.7 2.8-.2.5-.3-.5-.4-1.2-.1-.7.1-1.2.3-1.8.2-.6.4-2.1-.9-2.1s-.8 2.3-.6 3c.2.7.2 1.2-.2 1-.3-.3-1.9-2-1.9-2-.5-.9-.8-2.4-.8-2.4-.1-.6-.4-1.8.4-1.8.7 0 .6-.9.6-1.6s-1.3-.9-2 .6c-.8 1.6-.2 3.9.2 4.9.5 1-.2.9-.7.4-.6-.5-1.3-2-1.6-2.9-.3-.9-.1-1.8-.1-1.8.1-.8 0-1.1-.6-1.3-.2-.1-1.1-.2-1.2 1.2-.1 1.4 1.1 3.8 1.6 5.1.5 1.2-.6.6-1.7-.1s-1.1-.9-1.2-1.4c-.1-.5-1.1-2.4-1.3-3-.2-.5.1-.8 0-1.6-.1-.9-1.6-.8-1.7.5-.1 1.3 1 3.3 1.8 4.6.8 1.3.3 1-.4.7-.8-.3-2.3-1.8-2.8-2.7-.5-.9-.7-2.4-.9-3.3-.2-.9-1.2-.8-1.4.1-.3.9.5 2.8 1.7 4.6 1.2 1.9 1.9 2.3 4 3.2 2.1.9 1.1 1-.5 1.5-1.5.5-2-.1-2.5-.6s-1.7.4-1.1 1.5c.6 1.1 2.6.7 3.3.6.8-.1.5.7.8 1.3.3.6 1.3 1.2 2.8 1.8 1.5.6 1.8 1.2.8 1.9-1.1.7-2.3.4-3.2.2-.9-.3-.8-.7-.9-1.5-.1-.8-1.2-1.6-2-.6-.8 1.1.3 2.1 1.2 2.5.9.4 2.1 1.2 1.3 1.7-.7.5-1.7.4-2.8.1-1-.3-1.1-.7-1.3-1.2-.1-.6-.6-.9-1.2-.8-.7.2-1.1 1-.7 1.7.4.7 1.8 1.9 4.2 2.2 2.3.3 3.7-.5 4.3-1.3.6-.8 1.5-1.3 1.9-1 .4.3.1 1-1.1 1.3-1.2.4-.4 2.5 1.1 2.1 1.5-.4 2.7-4.7 2.8-5.5.1-.8.7-2 2.1-2.8 1.4-.8 2.2 0 2.2 0 1.1 1-1 1.3-.7 2 .2.6 1.1.2 1.5.7.4.5-.4 1.4.1 1.7.6.3 1.1-.4 1.3-.9.1-.4.6-.5.9-.2.3.4 1.9 3.2 3.1 5.3 1.2 2.1 1.8 5.7.6 6.7s-3.1 1-5.6-.1c-2.5-1.1-6.3-1.2-6.3-1.2-1.4-2-3.6-1.9-3.3 0 .4 1.9 1.6 2.7 1.6 2.7s0 .2-.1.7c-18.2 8.7-34.4 4.5-36.5 3.8-.2-2.7-1.4-6.6-3.9-8.9-3.2-3-3.6-3.5-3.7-4.2-.1-.7 1.2-1.1 2.1-1.5.9-.4.9-1.5.9-1.7 0-.2.1-.4.3-1 .2-.5-1.2-.5-1.9-.4-.7.1-1.4.1-2-.2-.6-.3-2.1-.6-2.8-.6-.7 0-1.4-.3-2-.8s.1-1.7.3-2.3c.3-.6.8-1.1 1.3-1.2.5-.1 1.2-.6.1-1.5-1.1-.8-2.2.3-2.4.9-.3.5-.7 2.2-1 2.7-.3.5-.3-.6-.3-1.2 0-.7.2-1.2.5-1.7.3-.6.7-2-.6-2.1-1.3-.1-1.1 2.2-.9 2.9.1.7 0 1.3-.3 1-.3-.3-1.7-2.2-1.7-2.2-.4-.9-.5-2.4-.5-2.4 0-.6-.2-1.8.6-1.8.7 0 .7-.9.7-1.5s-1.2-1.1-2.1.4c-1 1.5-.7 3.9-.3 4.9.4 1-.3.9-.8.4s-1.1-2.1-1.3-3.1c-.2-1 .1-1.8.1-1.8.2-.8.1-1.1-.4-1.4-.2-.1-1.1-.3-1.3 1.1-.2 1.4.7 4 1.1 5.2.4 1.3-.7.5-1.7-.3s-1-1.1-1.1-1.6c-.1-.5-.8-2.5-.9-3.1-.2-.6.2-.8.2-1.6s-1.5-1-1.7.3c-.3 1.3.6 3.4 1.3 4.8.6 1.4.2 1-.5.6-.7-.3-2.1-2.1-2.4-3-.3-1-.4-2.4-.5-3.4-.1-1-1.1-.9-1.4-.1-.4.9.2 2.8 1.2 4.8s1.7 2.5 3.7 3.7.9 1.1-.7 1.4c-1.6.3-2-.3-2.4-.9-.4-.5-1.8.2-1.3 1.4s2.5 1 3.3 1 .4.7.6 1.4c.2.7 1.2 1.3 2.6 2.1 1.4.7 1.7 1.4.6 2-1.1.6-2.4.2-3.2-.2-.8-.4-.7-.8-.7-1.6s-1-1.8-1.9-.8c-.9 1 .1 2.1.9 2.6.9.5 1.9 1.4 1.1 1.9-.8.5-1.8.2-2.8-.2-1-.4-1-.8-1.1-1.4-.1-.6-.5-1-1.1-.9-.7.1-1.2.9-.9 1.6.3.7 1.6 2.1 3.9 2.7 2.3.6 3.7-.1 4.4-.8.7-.7 1.6-1.1 2-.7.3.4 0 1-1.2 1.2-1.2.2-.7 2.5.9 2.2 1.5-.2 3.2-4.4 3.4-5.2.2-.8 1-1.9 2.4-2.6 1.5-.7 2.1.2 2.1.2 1 1.1-1.1 1.2-1 1.9.2.7 1.1.4 1.4.9.3.5-.6 1.3-.1 1.7.5.4 1.2-.3 1.3-.7.2-.4.6-.5.9-.1.3.4 1.5 3.4 2.5 5.6.9 2.2 1.2 5.9-.2 6.8s-3.2.7-5.6-.7c-2.4-1.4-6.1-1.9-6.1-1.9-1.1-2.2-3.4-2.3-3.2-.3s1.3 2.9 1.3 2.9 0 .2-.1.5h-.2c-17.9 7.2-33.2 2.6-36.4 1.5.3-2.7-.3-7.2-2.7-9.9-2.9-3.3-3.2-3.9-3.2-4.6 0-.7 1.3-1 2.2-1.2.9-.3 1.1-1.3 1.1-1.5 0-.2.1-.4.4-.9.2-.5-1.1-.6-1.8-.6s-1.4-.1-2-.4c-.6-.3-2-.9-2.7-.9s-1.3-.4-1.8-1.1c-.5-.6.3-1.6.6-2.2.4-.6.9-1 1.4-1 .5-.1 1.3-.5.3-1.5s-2.2.1-2.5.6c-.3.5-1 2.1-1.3 2.5-.3.5-.2-.6-.1-1.3.1-.7.3-1.1.7-1.7.4-.5.9-1.9-.4-2.2-1.3-.3-1.3 2.1-1.3 2.8.1.7-.1 1.3-.4.9-.3-.3-1.4-2.4-1.4-2.4-.3-1-.2-2.5-.2-2.5.1-.6.1-1.8.8-1.7.7.1.8-.8.9-1.4.1-.6-1-1.2-2.1.2s-1.1 3.7-.9 4.8c.2 1.1-.4.8-.8.3-.5-.6-.8-2.2-.9-3.2-.1-1 .3-1.7.3-1.7.3-.8.2-1.1-.2-1.4-.2-.1-1-.4-1.4.9-.4 1.3.2 4 .4 5.3.2 1.3-.7.4-1.7-.5-.9-.9-.9-1.2-.9-1.7s-.5-2.6-.6-3.2c-.1-.6.3-.7.4-1.6.1-.9-1.3-1.2-1.7.1-.4 1.3.2 3.4.7 4.9.5 1.5.1 1-.6.6s-1.8-2.3-2-3.3c-.2-1-.1-2.5-.1-3.4 0-1-1-1.1-1.4-.2-.5.8-.1 2.8.6 4.9.8 2.1 1.4 2.7 3.2 4.1 1.8 1.4.8 1.2-.8 1.4-1.6.1-1.9-.6-2.3-1.2-.4-.6-1.8 0-1.5 1.2.3 1.2 2.4 1.3 3.1 1.3.8.1.3.8.5 1.4.2.7 1 1.5 2.4 2.4 1.3.9 1.5 1.6.3 2-1.2.5-2.4-.1-3.2-.6-.8-.5-.6-.9-.5-1.7.1-.8-.8-1.9-1.8-1-1 .8-.2 2.1.6 2.7.8.6 1.7 1.6.9 2-.8.4-1.8 0-2.7-.5-.9-.5-.9-.9-1-1.5 0-.6-.4-1-1-1-.7 0-1.3.8-1.1 1.5.2.7 1.4 2.3 3.6 3.1 2.2.9 3.7.4 4.5-.3.8-.7 1.7-.9 2-.5.3.4-.1 1-1.4 1-1.2.1-.9 2.4.6 2.3 1.5-.1 3.7-4 4-4.8.3-.8 1.2-1.8 2.7-2.3 1.5-.5 2.1.5 2.1.5.9 1.3-1.3 1.1-1.2 1.8.1.7 1 .5 1.3 1 .2.5-.7 1.3-.3 1.7.5.5 1.2-.2 1.4-.5.2-.4.7-.4.9 0 .2.4 1.1 3.6 1.8 5.9.7 2.3.5 6-1 6.7-1.5.7-3.2.3-5.5-1.4C390.6 85 387 84 387 84c-.8-2.3-3.1-2.7-3.2-.7 0 1.1.2 1.9.5 2.4-19.1 6.1-34.3-.2-36.5-1.2.6-2.7.4-7.2-1.7-10.2-2.5-3.6-2.7-4.2-2.7-4.9.1-.7 1.4-.8 2.3-1 .9-.2 1.2-1.2 1.2-1.4 0-.2.2-.4.5-.9s-1.1-.7-1.8-.8c-.7-.1-1.4-.2-1.9-.6-.5-.4-1.9-1-2.6-1.2-.7-.1-1.3-.6-1.7-1.2-.5-.7.4-1.6.8-2.2.4-.5 1-.9 1.5-.9s1.3-.4.4-1.4c-.9-1.1-2.2-.1-2.6.3-.4.5-1.2 2-1.5 2.4-.4.4-.2-.6 0-1.3.1-.7.4-1.1.9-1.6.4-.5 1.1-1.8-.2-2.2-1.2-.4-1.5 1.9-1.5 2.6 0 .7-.2 1.2-.5.9-.2-.4-1.2-2.5-1.2-2.5-.2-1 0-2.5 0-2.5.2-.6.2-1.8.9-1.6.7.2.9-.7 1.1-1.3.1-.6-.9-1.3-2.1-.1-1.2 1.2-1.5 3.6-1.4 4.7.1 1.1-.5.8-.8.2-.4-.6-.6-2.3-.6-3.3s.5-1.7.5-1.7c.4-.7.3-1-.1-1.4-.2-.2-1-.5-1.5.8s-.2 4-.1 5.3c.1 1.3-.8.4-1.6-.6s-.7-1.2-.7-1.7-.2-2.6-.2-3.2c0-.6.3-.7.6-1.5.2-.8-1.2-1.3-1.7-.1s-.1 3.4.2 4.9c.3 1.5 0 1-.6.5s-1.6-2.5-1.7-3.5c-.1-1 .2-2.5.3-3.4.1-1-.8-1.2-1.4-.4-.5.8-.4 2.8.1 4.9.5 2.2 1.1 2.8 2.8 4.4 1.7 1.6.7 1.3-1 1.3-1.6 0-1.9-.8-2.2-1.4-.3-.6-1.8-.2-1.6 1 .2 1.2 2.2 1.5 3 1.6.7.1.2.8.3 1.5.1.7.9 1.6 2.1 2.6 1.2 1 1.3 1.7.1 2-1.2.3-2.4-.3-3.1-.9-.7-.5-.5-.9-.4-1.7.2-.8-.6-1.9-1.7-1.2s-.4 2.1.4 2.7c.8.6 1.6 1.8.7 2.1-.9.3-1.8-.2-2.7-.8-.9-.6-.9-1-.8-1.6.1-.6-.3-1.1-.9-1.1-.7-.1-1.4.6-1.3 1.4.1.8 1.1 2.4 3.2 3.5s3.7.7 4.5.1c.8-.6 1.8-.7 2.1-.3.3.4-.2.9-1.5.9-1.2 0-1.2 2.3.4 2.4 1.5.1 4.1-3.6 4.4-4.3.3-.8 1.4-1.7 2.9-2 1.6-.3 2 .7 2 .7.7 1.3-1.4.9-1.4 1.7 0 .7 1 .6 1.2 1.2.2.6-.8 1.2-.4 1.6.4.5 1.2 0 1.5-.4.2-.4.7-.3.9.1.2.5.8 3.7 1.2 6.1.4 2.4-.1 6-1.7 6.5-1.5.5-3.2 0-5.3-1.9-2-1.9-5.6-3.2-5.6-3.2-.6-2.4-2.8-3-3.1-1 0 .3-.1.6 0 .8-17.2-3.3-30.3-15.1-37-22.5-.3-.6-.6-.9-1.1-1.2-1.4-1.6-2.5-3-3.2-3.9.4-.3.7-.7.6-1.1-.1-.4-.6-.7-1.2-.7.1-.1.1-.2.1-.3-.1-.2-.3-.3-.6-.2l-.3.1c-.1-.1-.2-.2-.3-.1l-.4.1c-.1 0-.2.1-.2.3-1.7.5-3.4.8-5.2.9-.3-.6-.7-1.2-1-2.1h.1c.7.2 1.4-.2 1.5-.8.1-.5-.3-1.2-1-1.5v-1c.3.1.5.2.5.2 0-.5-.4-.7-.4-.7h.3c-.1-.1-.2-.1-.3-.2.9-.1 1.1-1.6.2-1.7-1.6-6-7.6-5.7-10.2-3.3-2.3 2.1-3.7 3.8-6 2.3.2-.7-.1-1.5-.8-1.9-.8-.4-1.7 0-2 .7-.4.8 0 1.7.7 2 .3.2.7.2 1 .1.1.1.1.2.2.2 2.2 1.8 4.7 2.1 5.2 1.8-.4.5.2 1.3.2 1.3 0 .1.1.1.3 0 .1.9.4 1.8.8 2.6-.8 1-1.9 2.6-2.8 4.3-.7-.2-1.9.1-3.2.4.9-.6 1.9-1.2 2.1-1.5v-.2c0-.1-.1-.3-.3-.4-.3-.4-.7-.8-1.1-1.1l.6-1.1-.1-.1-3.5-1.8c.4.1.8.2 1.3.4.8.3 1.7.6 2.2.3.2-.1.4-.4.4-.8 0-.5-.3-1.1-1-1.5-.5-.3-1.1-.3-1.8-.3-.8.1-1.4.5-2 1.2.4-.9.6-2 0-3.2-.3-.6-.7-1.1-1.3-1.4-1.1-.6-2.4-.2-2.9.5-.3.4-.3.7-.3 1 .1.5.8.9 1.5 1.3s1.5.8 1.8 1.4l-3.7-1.9-.1-.1-.4.8c-1-.3-1.6-.5-1.8-.6 0 0 0 .1-.1.1 0 .1.1 1.8-.1 3-1.3-3.8-2.8-8.4-3.7-9.5-1.2-1.3-4.1-2.7-6.4 1.1-2.3 3.8-1.1 7.7.2 6.2 2.8-3 3.3.8 2.9 5.1-.3 4.4-2 12.5-.6 14.9 1.5 2.7 1.6 3.8 7 6-2.7 4.4-5.9 6-6.6 6.3-2.3-.7-3.8-1.1-3.9-1.1 0 0-.9-.3-1.7-1-1-.9-1.3-2-.9-3.5.5-1.7 1.6-2.2 2.4-2.2.7 0 1.5.4 1.7 1.5.1.6.7.9 1.2.8.6-.1.9-.7.8-1.2-.4-1.8-1.8-3.1-3.7-3.2-1.6-.1-3.8.9-4.5 3.7-.8 2.8.4 4.6 1.5 5.6.4.4.9.7 1.3.9.7.4 1.2.5 1.3.5 1.6.5 39.1 11.2 41.7 11.9 4.3 1.1 7.5.3 9.8-2.3 2.5-3 2.6-6.1.3-9.5-.5-.8-1.7-2.6-1.6-3.1 0-.1.1-.3.9-.6.5-.2.8-.8.6-1.4-.2-.5-.8-.8-1.4-.6-1.2.4-1.8 1.1-2.1 1.9-.4 1.4.5 3 1.8 4.9 1.8 2.7 1.8 4.8-.1 7-1.7 2-4.1 2.5-7.7 1.6-.3-.1-1.1-.3-2.2-.6 0-.1-.1-.3-.2-.4 0 0-.7-.9-1.3-2.5-.5-1.2-1-3.1-1.2-5.5 7.4.5 11.2-7 11.1-10.3 3.9 2.5 8.9 5.2 14.5 7.3 7.4 2.8 15.9 4.8 25 4.2.1.3.3.5.3.5s-.4 1.3-1.8 2.6-3.7 1.4-4.9 1.3c-1.2-.1-3.4.9-5 1.8s-4.5 1.7-6.8 2.5c-2.4.7-2.6 2.5-2.1 3 .5.4 1.3.3 2-.1s2-.9 2.6-1.2 3.4-1.5 4.6-2.1c1.2-.6 1.6-.6 1.9-.3.3.3-.4.8-2.8 2.1s-3 1.4-3.5 1.1c-.5-.3-2.4 1.7-2.4 2.8 0 1.1 1.1 1 2.7.3 1.6-.6 6-3.7 8.4-5 2.4-1.3 2.2-.9 4.9-.3 2.7.7 3.7.1 4.9-.4 1.2-.5 3.7 1.4 5.1 2.8 1.4 1.4 3 1.7 4.2 1.5 1.2-.2 2.4.3 4.6 1.5 2.1 1.1 4.8-.4 5.5-.6.7-.2.3.5-.6 1.1-.9.6-1.6 0-2.6.6s-1.4 2.8-.5 3.1c.9.3 3-1.6 3.6-2.1.6-.4-.2.6-1 1.7s-.9 1.9-.4 2.3c.5.4 1.3-.5 2.1-1.4.8-.9 4.2-4.7 5.5-6.6 1.3-2-.8-2.9-2.2-2.9-1.4-.1-2.9.1-3.2-.2-.3-.3 0-1 0-1 .1-.2.2-.4.3-.7 1.2.5 5.4 2.2 11.5 3.2 6.7 1 15.6 1.2 25.6-2s-.3 1.4-1.5 2.8-3.5 1.7-4.7 1.8c-1.2.1-3.3 1.2-4.8 2.2-1.5 1-4.3 2.2-6.6 3.1-2.3 1-2.4 2.8-1.8 3.1.6.4 1.3.2 2-.3s1.9-1.1 2.5-1.4c.6-.4 3.2-1.8 4.4-2.5 1.2-.7 1.5-.8 1.8-.5.3.3-.3.9-2.6 2.4-2.3 1.5-2.8 1.7-3.4 1.4-.5-.3-2.2 1.9-2.1 3 .1 1.1 1.2.8 2.7.1 1.5-.8 5.6-4.2 7.9-5.8s2.1-1.2 4.9-.8c2.8.4 3.7-.2 4.8-.9 1.2-.6 3.8 1 5.4 2.3 1.6 1.3 3.2 1.4 4.4 1 1.2-.3 2.4.1 4.7 1 2.2.9 4.8-.9 5.4-1.2.7-.3.3.5-.5 1.2-.9.7-1.6.1-2.5.8-.9.7-1.1 2.9-.2 3.1s2.8-1.9 3.4-2.4c.6-.5-.1.6-.8 1.8-.7 1.2-.7 2-.2 2.3.5.3 1.3-.6 2-1.6s3.7-5.1 4.8-7.1c1.1-2.1-1-2.8-2.5-2.7-1.4.1-2.9.4-3.2.2-.3-.3-.1-1-.1-1 .1-.2.1-.5.2-.7 1.6.6 5.6 1.8 11.3 2.2 6.7.6 15.5.1 25.2-3.7-.2.5-.4 1.1-.8 1.6-1.1 1.6-3.3 2.1-4.5 2.3-1.2.2-3.1 1.6-4.5 2.8-1.4 1.2-4 2.7-6.1 3.9-2.1 1.2-2 3-1.4 3.3.6.3 1.3.1 1.9-.5.6-.6 1.8-1.3 2.3-1.7.5-.4 3-2.2 4.1-3 1.1-.8 1.4-.9 1.8-.7.3.2-.2.9-2.3 2.7-2.1 1.8-2.6 2-3.2 1.8-.5-.2-2 2.1-1.8 3.2.2 1.1 1.3.7 2.7-.2 1.4-.9 5.1-4.9 7.1-6.7 2-1.8 1.9-1.4 4.7-1.3 2.8.1 3.6-.7 4.7-1.4 1.1-.8 3.9.6 5.6 1.7 1.7 1.1 3.3 1 4.5.5 1.1-.5 2.4-.2 4.8.4 2.3.6 4.6-1.4 5.3-1.8.6-.4.4.5-.4 1.2-.8.8-1.6.3-2.4 1.1-.8.8-.7 3 .2 3.1.9.1 2.5-2.2 3.1-2.8.5-.6-.1.6-.6 1.9-.6 1.3-.5 2.1.1 2.3.6.2 1.2-.8 1.8-1.8.6-1.1 3.1-5.5 3.9-7.7.9-2.2-1.4-2.7-2.8-2.4-1.4.3-2.8.8-3.1.5-.3-.2-.2-1-.2-1 .1-.4.1-.8.2-1.3 1.4.4 5.7 1.4 11.7 1.6 6.6.1 15.3-.9 24.6-5.3-.1.5-.3 1-.6 1.6-.9 1.7-3 2.5-4.2 2.8-1.1.3-2.9 2-4.1 3.3-1.2 1.3-3.7 3.1-5.7 4.6-2 1.5-1.7 3.3-1 3.5.6.2 1.3-.1 1.9-.7.5-.6 1.6-1.5 2.1-2s2.7-2.5 3.7-3.5c1-.9 1.3-1.1 1.7-.9.4.2-.1.9-2 2.9s-2.4 2.3-2.9 2.2c-.6-.2-1.7 2.4-1.4 3.4.3 1.1 1.4.5 2.7-.5 1.3-1.1 4.5-5.4 6.3-7.4 1.8-2 1.8-1.6 4.6-1.9 2.8-.2 3.5-1.1 4.5-2 1-.9 3.9.1 5.8 1 1.8.9 3.4.6 4.5 0s2.4-.5 4.8-.1 4.5-1.9 5-2.4c.6-.5.5.4-.2 1.3s-1.5.5-2.3 1.4c-.7.9-.4 3.1.5 3.1s2.3-2.5 2.7-3.1c.5-.6 0 .6-.4 1.9-.4 1.3-.3 2.1.3 2.3.6.2 1.1-.9 1.5-2 .4-1.1 2.4-5.8 3-8.1.5-1.5-1.8-1.7-3.1-1.3zm-26.7-16.7c-1.6.1-2.2-.5-2.8-1.1-.7-.6-1.5-1.4-.5-1.6 0 0 .6-.2 1-.7s1.1-.6 1.2 0c.1.7.3 1.3 1.2 1.4.9.2 1.5.3 1.6.8.1.6-.1 1.1-1.7 1.2zm4.3-2.3c-.9 0-2.1-.3-2.1-.3s-1.5-.3-1.4-1.4c.1-1.1.4-1.2 1.5-.6s1.4.6 2.1 1c.8.5 1.3 1.3-.1 1.3zm-63 6.3c-1.6-.1-2.1-.8-2.7-1.4-.6-.6-1.3-1.5-.3-1.6 0 0 .6-.2 1.1-.6.4-.4 1.2-.5 1.2.2s.2 1.3 1 1.5c.8.2 1.4.5 1.5 1-.1.5-.3 1-1.8.9zm4.5-1.8c-.9-.1-2-.5-2-.5s-1.5-.4-1.3-1.5c.2-1.1.5-1.2 1.5-.4 1.1.7 1.3.8 2 1.3.7.4 1.2 1.3-.2 1.1zm-63.1.1c-1.6-.3-2-1-2.5-1.7s-1.1-1.7-.1-1.6c0 0 .6-.1 1.1-.4s1.2-.3 1.1.3c-.1.7 0 1.3.8 1.7.8.3 1.3.6 1.4 1.1.1.4-.2.9-1.8.6zm4.8-1.2c-.9-.2-2-.8-2-.8s-1.4-.6-1.1-1.6c.3-1 .6-1.1 1.6-.2 1 .9 1.2.9 1.9 1.5.6.6.9 1.5-.4 1.1zm-63.3-6.6c-1.5-.4-1.9-1.2-2.3-2-.5-.8-.9-1.8 0-1.6 0 0 .7 0 1.2-.3s1.2-.2 1.1.4c-.1.7-.1 1.3.6 1.7.8.4 1.3.8 1.2 1.3 0 .5-.3 1-1.8.5zm4.8-.7c-.9-.3-1.9-.9-1.9-.9s-1.3-.8-.9-1.7c.4-1 .7-1 1.6-.1.9 1 1.1 1.1 1.7 1.7.5.6.8 1.5-.5 1zm-51.1-10c-1.3-.1-2.5.4-2.5.4s-4.3 1.2-4.7 5.4c0 .6-.1 1.4-.2 2.2-.5-.4-1-.8-1.3-1.1 0-.2-.1-.4-.2-.6.1 0 .2 0 .3-.1.1-.1.1-.4 0-.6l-.3-.3c0-.1.1-.2 0-.3l-.3-.3c-.1-.1-.2-.1-.3-.1-.6-.6-1.1-1.2-1.6-1.9.1-.7.1-1.4.1-2.1 1.2.6 2 .9 2 .9-.5-.9-.9-1.9-.4-3.4v-.2c1.9-.2 3.7-.5 5.6-1 .1.1.2.2.4.1l.4-.1c.1 0 .2-.1.2-.3h.1c.7.9 1.6 2 2.7 3.4zm-19 22.4c.1 3.6.9 6.3 1.7 8-5.4-1.5-11.9-3.4-17.4-5 1.5-.9 3.9-2.6 6-6 2.6.9 5.8 1.9 9.7 3zm2.3-5.4c-2.1-.7-2-1.6-.7-5.6.2-.5.3-1 .3-1.5.1 0 .2 0 .5.3.7.8-1 5.2-.1 6-.1.1-.1.2-.1.4s.1.3.1.4zm6.8-27.6zm-17.3 1.8c.7-.1 1.2 0 1.5.1.3.1.4.3.5.5v.1c0 .2 0 .3-.1.4-.2.2-.8.1-1.4-.1-.6-.1-1.4-.4-2-.3.4-.3.9-.6 1.5-.7zm-4-1.4c-.5-.3-1-.6-1-1 0-.2.1-.4.3-.6.2-.1.8-.4 1.5-.1.4.2.6.5.8 1.1.3 1 .1 1.5 0 2v-.1c-.4-.6-.9-.9-1.6-1.3zM249.2 69c1.3.5 2.9 1 4.8 1.6-2.9 4.4-6.2 5.6-6.3 5.6-.1.1-.3.1-.4.3-1.4-.4-2.7-.8-3.9-1.1 1.6-1.1 3.9-3.1 5.8-6.4zm20.6 13.9c-.5-.7-2.2-3.4-2.4-8.1 1.2.3 2.3.7 3.6 1.1.3.1.6.2.9.2.2 3.8 1.2 6.5 2 8-1.1-.4-2.5-.8-4.1-1.2zm4.4-14.3c0-.1-.1-.2-.1-.3-.2-.4-.3-.7-2.1-.8.3-1.9 2.5-6.1 1.2-7.6-.3-.3-.7-.6-1.2-.8.4-.3.7-.7.9-1.4l.3.3v.3l.3.3c.1.1.2.1.3.1l.3.3c.5.5 1.2.6 1.6.3.4.3.8.7 1.4 1.2-.5 2.9-1.3 6.4-2.9 8.1zm10.5-3.5c-.5-2.6-2-3.5-2.7-5.1-.7-1.6-.9-4.4 1-5.1 1.9-.6-1.5 2.7.4 4.3 1.5 1.2 4.2-1 3.8-4.5 3.6 3.8 8.6 8.5 14.8 12.6 6.2 4.1 13.6 7.7 22 9.2 0 .1 0 .3.1.4-16.1.9-30.4-6.1-39.4-11.8zm-65.4 1.8l-1.2.7.1-1.3-1.1-.9 1.3-.3.5-1.3.8 1.2h1.3l-.8 1.1.3 1.3zm-43.5-21.3c.1-.1.2-.1.3-.1l2 .7 1.3-1.7c.1-.1.2-.1.3-.1s.2.1.2.2l.4 2.1 2.1.2c.1 0 .2.1.2.2s0 .2-.1.3l-1.6 1.4.9 2c0 .1 0 .2-.1.3-.1.1-.2.1-.3.1l-2-.7-1.3 1.7c-.1.1-.2.1-.3.1-.1 0-.2-.1-.2-.2l-.4-2.1-2.1-.2c-.1 0-.2-.1-.2-.2s0-.2.1-.3l1.6-1.4-.9-2c0-.1 0-.2.1-.3zm2.5 1.1c-.1.1-.2.2-.3.1l-1.6-.5.7 1.6c.1.1 0 .3-.1.3l-1.3 1.1 1.7.2c.1 0 .2.1.3.2l.3 1.7 1-1.4c.1-.1.2-.1.3-.1l1.6.6-.7-1.6c-.1-.1 0-.3.1-.3l1.3-1.1-1.7-.2c-.1 0-.2-.1-.3-.2l-.4-1.7-.9 1.3c.1 0 .1 0 0 0zm17.2-.5l-.4-1.2 1.2.4 1.1-.7V46l1 .8-1.3.4-.4 1.2-.8-1.1-1.3-.1zm-5.7 7.8l-1.2-.7.2 1.3-1 .9 1.3.3.5 1.2.6-1.2 1.4-.1-.9-1 .3-1.3z"/><ellipse transform="rotate(-56.907 185.878 37.175)" class="st0" cx="185.9" cy="37.2" rx=".5" ry=".5"/><path class="st0" d="M164.3 43.6l.2-1.4-1.1.7-1.2-.6.2 1.3-.9 1 1.3.1.7 1.2.5-1.2 1.3-.2zm10-13.8l-.2-1-.7.8-1-.2.5.9-.4 1 1-.2.7.7.1-1 1-.5z"/><ellipse transform="rotate(-11.836 161.99 31.783)" class="st0" cx="162" cy="31.8" rx=".5" ry=".5"/><ellipse transform="rotate(-11.836 99.496 .523)" class="st0" cx="99.5" cy=".5" rx=".5" ry=".5"/><ellipse transform="rotate(-15.006 165.884 23.841)" class="st0" cx="165.9" cy="23.9" rx=".5" ry=".5"/><ellipse transform="rotate(-11.836 211.462 61.355)" class="st0" cx="211.5" cy="61.4" rx=".5" ry=".5"/><path class="st0" d="M149.9 27.6l-1.1-.9 1.3-.4.5-1.3.8 1.2h1.4l-.9 1.1.4 1.4-1.3-.5-1.2.8z"/><ellipse transform="rotate(-14.366 209.95 54.602)" class="st0" cx="210" cy="54.6" rx=".5" ry=".5"/><path class="st0" d="M136.4 22.9c.1 0 .2.1.2.2l.6 2.1 2.2.1c.1 0 .2.1.3.2s0 .2-.1.3l-1.5 1.5 1 1.9c.1.1 0 .2 0 .3-.1.1-.2.1-.3.1l-2.1-.6-1.2 1.8c-.1.1-.2.1-.3.1-.1 0-.2-.1-.2-.2l-.6-2.1-2.2-.1c-.1 0-.2-.1-.3-.2s0-.2.1-.3l1.5-1.5-1-1.9c-.1-.1 0-.2 0-.3s.2-.1.3-.1l2.1.6 1.2-1.8c.1 0 .2-.1.3-.1zm.5 3.2c-.1 0-.2-.2-.2-.4l-.4-1.7-.9 1.4c-.1.1-.2.1-.3.1l-1.7-.5.8 1.5c.1.1 0 .2-.1.3l-1.2 1.2 1.7.1c.1 0 .2.1.3.2l.4 1.7.9-1.4c.1-.1.2-.2.3-.1l1.7.4-.8-1.5c-.1-.1 0-.3.1-.3l1.2-1.1-1.8.1c.1 0 0 0 0 0zm6.1-9.7l-.2-1-.7.8-1-.2.5.9-.4 1 1-.2.7.7.2-1.1.9-.4zm-14.4-2.5l-.2-1-.7.7-1-.1.5.9-.5.9 1-.2.8.7.1-1 .9-.5zM116.7 18l-.8-1.4 1.6.2 1.1-1.2.3 1.6 1.5.6-1.4.8-.1 1.7-1.2-1.1-1.7.3z"/><ellipse transform="rotate(-15.016 104.984 9.252)" class="st0" cx="105" cy="9.3" rx="1" ry="1"/><ellipse transform="rotate(-15.016 109.43 2.755)" class="st0" cx="109.4" cy="2.8" rx=".5" ry=".5"/><path class="st0" d="M140.2 7.3l-.2-1-.7.7-1.1-.1.6.9-.5.9 1-.2.8.7.1-1 .9-.5zm61.1 50h.2l1.3.8 1.2-1c.1-.1.2-.1.2 0 .1 0 .1.1.1.2l-.1 1.5 1.4.5c.1 0 .1.1.1.2s0 .2-.1.2l-1.4.7.3 1.5c0 .1 0 .2-.1.2h-.2l-1.3-.8-1.2 1c-.1.1-.2.1-.2 0-.1 0-.1-.1-.1-.2l.1-1.5-1.4-.5c-.1 0-.1-.1-.1-.2s0-.2.1-.2l1.4-.7-.3-1.5c0-.1 0-.2.1-.2zm1.6 1.2c-.1 0-.1.1-.2 0l-1-.6.2 1.2c0 .1 0 .2-.1.2l-1.1.6 1.1.4c.1 0 .1.1.1.2l-.1 1.2.9-.8c.1-.1.2-.1.2 0l1 .7-.2-1.2c0-.1 0-.2.1-.2l1.1-.6-1.1-.4c-.1 0-.1-.1-.1-.2v-1.2l-.8.7zm-47.2-44.2c.1 0 .1.1.2.1l.4 1.3h1.3c.1 0 .1 0 .2.1v.2l-.9 1 .7 1.1v.2c0 .1-.1.1-.2.1l-1.3-.2-.6 1.2c0 .1-.1.1-.2.1s-.1-.1-.2-.1l-.4-1.3h-1.3c-.1 0-.1 0-.2-.1v-.2l.9-1-.7-1.1v-.2c0-.1.1-.1.2-.1l1.3.2.6-1.2c.1 0 .1-.1.2-.1zm.5 1.4c-.1 0-.1.1-.2.1l-.4-.9-.5 1c0 .1-.1.1-.2.1l-1-.2.6.9v.2l-.7.8h1.1c.1 0 .1 0 .2.1l.4 1 .5-.9c0-.1.1-.1.2-.1l1 .2-.6-.9v-.2l.7-1-1.1-.2z"/><ellipse transform="rotate(-13.094 115.846 8.237)" class="st0" cx="115.8" cy="8.2" rx=".5" ry=".5"/><ellipse transform="rotate(-11.836 149.79 37.176)" class="st0" cx="149.8" cy="37.2" rx="1" ry="1"/><ellipse transform="rotate(-11.836 172.514 38.77)" class="st0" cx="172.5" cy="38.8" rx="1" ry="1"/><path class="st0" d="M125.4 3.2h.1l.6.6.8-.4h.1s.1.1 0 .1v1l.8.5.1.1s0 .1-.1.1l-.9.2v.9s0 .1-.1.1h-.1l-.6-.6-.8.4h-.1s-.1-.1 0-.1l.2-.9-.8-.5-.1-.1s0-.1.1-.1l.9-.2v-.9c-.1-.1-.1-.2-.1-.2zm.8.9h-.1l-.5-.5v.7c0 .1 0 .1-.1.1l-.7.2.6.4.1.1-.2.7.6-.3h.1l.5.5v-.7c0-.1 0-.1.1-.1l.7-.2-.6-.4-.1-.1.2-.7-.6.3z"/><ellipse transform="rotate(-14.36 225.22 70.2)" class="st0" cx="225.2" cy="70.2" rx=".7" ry=".7"/></svg>