<svg class="logo-icon" xmlns="http://www.w3.org/2000/svg" viewBox="0 0 150 173.2"><style>.lst0,.lst1,.lst2{fill:#2a8bcb}</style><path class="lst0" d="M75 0L0 43.3l16 9.2 59-34z"/><path class="lst1" d="M75 0L0 43.3l16 9.2z"/><path class="lst2" d="M75 0l75 43.3-16 9.2-59-34z"/><path class="lst0" d="M75 0l75 43.3-16 9.2zM16 52.5v17.9H0V43.3z"/><path class="lst1" d="M16 70.4H0V43.3zm118-17.9v17.9h16V43.3z"/><path class="lst2" d="M134 70.4h16V43.3z"/><path class="lst0" d="M75 173.2L0 129.9l16-9.2 59 34z"/><path class="lst1" d="M75 173.2L0 129.9l16-9.2z"/><path class="lst0" d="M75 173.2l75-43.3-16-9.2-59 34z"/><path class="lst2" d="M75 173.2l75-43.3-16-9.2z"/><path class="lst0" d="M134 120.7v-17.9h16v27.1z"/><path class="lst1" d="M134 120.7l16-17.9v27.1zm-118 0v-17.9H0v27.1z"/><path class="lst0" d="M16 120.7L0 102.8v27.1z"/><path class="lst1" d="M83 168.6V114l-8 4.7-8-4.7v54.6l8 4.6z"/><path class="lst0" d="M75 50.6c-19.9 0-36 16.1-36 36s16.1 36 36 36 36-16.1 36-36-16.1-36-36-36zm0 56c-11 0-20-9-20-20s9-20 20-20 20 9 20 20-9 20-20 20z"/></svg>