<svg xmlns="http://www.w3.org/2000/svg" viewBox="0 0 1165 326"><linearGradient id="a" gradientUnits="userSpaceOnUse" x1="98.759" y1="333" x2="98.759" y2="5.018"><stop offset="0" stop-color="#3d4599"/><stop offset="1" stop-color="#35abdc"/></linearGradient><path d="M70.2 4.8C91.6-1.7 115-.5 135.8 7.5c23.8 9.1 43.5 28.2 53.3 51.7 8.1 19.6 10.2 41.8 5.2 62.5-5.3 22.8-19.2 43.4-38.3 56.9-16.5 12-36.9 18.6-57.3 18.4v-37.8H61.2v29H31.7v-29H7.5v-24.8H32v24.5h29v-38h38v37.8c20.1.2 39.8-10.9 50.4-27.9 14.6-22.2 11.7-54-6.5-73.3-11-12-27.3-18.5-43.5-18.6-17.4-.4-34.8 7.7-46.1 20.9-9.4 10.8-14.4 25-14.6 39.2H.5v-2.5C1.1 78.1 6.7 59.7 17 44.4 29.5 25.7 48.6 11.3 70.2 4.8z" fill="url(#a)"/><linearGradient id="b" gradientUnits="userSpaceOnUse" x1="394.066" y1="333" x2="394.066" y2="5.018"><stop offset="0" stop-color="#3d4599"/><stop offset="1" stop-color="#35abdc"/></linearGradient><path d="M391 44.6c7.3-2.1 15.7 3.7 15.6 11.4.6 6.7-5.3 13.1-12 13-7.1.6-13.5-6-12.9-13-.1-5.4 4.1-10.2 9.3-11.4z" fill="url(#b)"/><linearGradient id="c" gradientUnits="userSpaceOnUse" x1="523.493" y1="333" x2="523.493" y2="5.018"><stop offset="0" stop-color="#3d4599"/><stop offset="1" stop-color="#35abdc"/></linearGradient><path d="M520 44.7c8.4-2.8 18 5.5 15.8 14.3-1.1 7.5-9.7 12.1-16.7 9.4-5.3-1.9-8.8-7.6-8-13.2.4-4.9 4.1-9.3 8.9-10.5z" fill="url(#c)"/><linearGradient id="d" gradientUnits="userSpaceOnUse" x1="781.968" y1="333" x2="781.968" y2="5.018"><stop offset="0" stop-color="#3d4599"/><stop offset="1" stop-color="#35abdc"/></linearGradient><path d="M771.1 44.8c14.9-2.8 31 .4 43.5 9C827 62.1 836 75.5 839 90.1c3 14.3.4 29.7-7.2 42.2-6.3 10.5-16.1 18.9-27.4 23.6-17.3 7.3-38.2 5.5-53.9-4.8-9.5-6.1-17.1-15-21.7-25.3-7.3-16-6.7-35.4 1.7-50.9 8-15.5 23.4-26.9 40.6-30.1zm1.9 20.9c-10.6 2.6-20 10.2-24.7 20.1-4.9 9.8-5 21.8-.5 31.7 4.4 9.9 13.3 17.6 23.6 20.6 8.8 2.6 18.6 1.8 26.9-2.2 10.5-5 18.3-15.1 20.5-26.5 2.8-13.4-2.6-27.9-13.2-36.4-9-7.3-21.4-10.2-32.6-7.3z" fill="url(#d)"/><linearGradient id="e" gradientUnits="userSpaceOnUse" x1="321.122" y1="333" x2="321.122" y2="5.018"><stop offset="0" stop-color="#3d4599"/><stop offset="1" stop-color="#35abdc"/></linearGradient><path d="M272.8 45.8h40.8c14.7.7 29.8 5.3 41 15.1 9.9 9.2 14.2 22.9 14.9 36 .9 16.1-2.7 33.7-14.5 45.4-11.6 10.9-27.8 15.9-43.6 16.3-12.8.2-25.7 0-38.5.1-.1-37.6-.1-75.3-.1-112.9zM293.7 65c0 24.7.1 49.4 0 74.2 9.3.1 18.6.7 27.7-1.6 8.3-1.9 16.7-6 21.2-13.6 5.1-8.6 5.9-19.1 5-28.9-.8-8.8-4.5-18.1-12.5-22.8-12.2-7.8-27.3-7.5-41.4-7.3z" fill="url(#e)"/><linearGradient id="f" gradientUnits="userSpaceOnUse" x1="699.336" y1="333" x2="699.336" y2="5.018"><stop offset="0" stop-color="#3d4599"/><stop offset="1" stop-color="#35abdc"/></linearGradient><path d="M689.3 45.8h20.3v113c-6.8-.1-13.5.2-20.3-.1.1-37.7-.1-75.3 0-112.9z" fill="url(#f)"/><linearGradient id="g" gradientUnits="userSpaceOnUse" x1="570.75" y1="333" x2="570.75" y2="5.018"><stop offset="0" stop-color="#3d4599"/><stop offset="1" stop-color="#35abdc"/></linearGradient><path d="M557.3 57.5c6.6 0 13.3.1 19.9-.1.2 7.2 0 14.4.1 21.6h18.5v18.5h-18.5V130c.3 3.3.5 7.7 4.1 9.1 4.6 1.9 9.6 1 14.4.8v18.5c-10 .4-21 1.6-29.8-3.9-7.2-5-8.4-14.5-8.6-22.5-.1-11.5 0-23 0-34.5h-11.5V79h11.5c-.1-7.2-.1-14.3-.1-21.5z" fill="url(#g)"/><linearGradient id="h" gradientUnits="userSpaceOnUse" x1="457.227" y1="333" x2="457.227" y2="5.018"><stop offset="0" stop-color="#3d4599"/><stop offset="1" stop-color="#35abdc"/></linearGradient><path d="M431 86.6c6.9-6.8 16.9-9.8 26.4-9.3 7.1 0 13.5 3.6 18.8 8v-6.2h20v73c0 9.1-2.5 18.4-8.3 25.5-5.8 7.6-15 12.1-24.4 13.2-9.5.9-19.7.2-28.1-4.8-5.7-3.5-11.1-7.8-14.9-13.3 4.7-4.3 9.3-8.8 13.9-13.3 4 5.2 8.5 10.5 15.1 12.4 7.2 1.9 15.8 1.1 21.2-4.4 4.3-4.3 5.4-10.7 5.2-16.5-15.5 11.1-39.7 6.7-50.4-9-11.2-16.6-9.7-41.8 5.5-55.3zm21.7 9.6c-7.4 1.7-12.4 8.7-13.4 15.9-1.4 7.9.4 16.9 6.6 22.4 7.1 6 19.1 5.3 25.2-1.9 3.8-4.2 5.4-10 5.2-15.5.2-6.3-2-12.8-6.7-17.1-4.5-4.2-11.1-5.3-16.9-3.8z" fill="url(#h)"/><linearGradient id="i" gradientUnits="userSpaceOnUse" x1="639.583" y1="333" x2="639.583" y2="5.018"><stop offset="0" stop-color="#3d4599"/><stop offset="1" stop-color="#35abdc"/></linearGradient><path d="M607.1 94.2c5.8-10 17-16.1 28.3-16.9 9.9-.7 20.7.7 28.5 7.2 6.8 5.3 9.7 14.1 9.7 22.5.2 17.2 0 34.5.1 51.7h-20v-6.4c-5.5 4.4-12.2 7.7-19.3 8.1-8.6.5-17.8-2.2-23.6-8.9-5.9-6.8-6.6-16.7-4-25 2.4-7.6 9.3-13 16.7-15.5 9.7-3.1 20.3-2.9 30 0 0-3.8-.1-8.2-3-11.1-4.9-4.9-12.7-5.2-18.9-3.1-4.9 1.8-8.5 5.8-11.3 10.2-4.4-4.2-8.9-8.4-13.2-12.8zm19.7 36.3c-2 3.2-1.3 8.1 2.1 10.1 4.4 2.8 9.9 2.1 14.7 1 3.6-1 7.4-2.6 9.8-5.6.2-2.4 0-4.8.1-7.2-6.1-2.2-12.7-3.5-19.2-2.6-2.9.5-5.8 1.8-7.5 4.3z" fill="url(#i)"/><linearGradient id="j" gradientUnits="userSpaceOnUse" x1="887.389" y1="333" x2="887.389" y2="5.018"><stop offset="0" stop-color="#3d4599"/><stop offset="1" stop-color="#35abdc"/></linearGradient><path d="M883.1 77.7c9-1.3 18.6-.4 26.7 4.1 5.4 2.8 9.7 7.2 13.5 11.9-4.5 4.3-8.9 8.7-13.4 12.9-3.6-3.8-7.5-7.6-12.5-9.5-5.8-2.5-12.8-1.6-17.8 2.2-11.8 9.2-11.9 29.6-.2 39 5.4 4.3 13.1 4.9 19.5 2.4 5.1-2.3 8.7-6.8 12.6-10.6 4.3 4.3 8.9 8.4 13.1 12.8-5.1 7.4-12.5 13.3-21.2 15.8-13.3 4.2-29 1.6-39.3-8-17.2-14.7-18.5-43.8-3.3-60.3 5.8-6.6 13.7-11.2 22.3-12.7z" fill="url(#j)"/><linearGradient id="k" gradientUnits="userSpaceOnUse" x1="965.09" y1="333" x2="965.09" y2="5.018"><stop offset="0" stop-color="#3d4599"/><stop offset="1" stop-color="#35abdc"/></linearGradient><path d="M935.1 93.5c5.2-8.5 14.2-14.7 24.2-16 8.1-.8 16.7-.3 23.9 3.7 7.4 3.8 12.6 10.8 15.5 18.4 3.2 8.1 3.8 17 3 25.6-17.7.1-35.3-.1-53 .1.7 4.3 2.3 8.8 5.7 11.8 5.5 5.1 13.9 6 20.8 3.8 5.4-1.7 9.3-6.1 13.2-10 4.5 4.1 8.8 8.4 13.2 12.6-6.1 8.6-15.6 14.9-26.1 16.4-10.8 1.7-22.6-.1-31.6-6.6-8.3-6-13.7-15.6-15.3-25.7-1.4-11.6 0-24.1 6.5-34.1zm20.5 5.7c-2.9 2.5-4.5 6-5.7 9.6 10.2.1 20.5 0 30.7 0-.7-4.6-3-9.4-7.4-11.5-5.6-2.7-12.9-2.4-17.6 1.9z" fill="url(#k)"/><linearGradient id="l" gradientUnits="userSpaceOnUse" x1="1045.397" y1="333" x2="1045.397" y2="5.018"><stop offset="0" stop-color="#3d4599"/><stop offset="1" stop-color="#35abdc"/></linearGradient><path d="M1013 94.2c5.4-9.1 15.2-15.2 25.7-16.6 10.5-1.3 22.1-.1 30.8 6.5 6.7 5.1 10 13.6 10.1 21.8v52.8h-20v-6.3c-5 3.8-10.8 6.9-17.1 7.7-9 1.2-18.8-1.4-25.1-8.1-6.4-6.9-7.4-17.4-4.4-26.1 2.4-7.2 8.9-12.4 15.9-14.8 9.8-3.4 20.6-3.2 30.5-.3.1-3.6.3-7.6-2.3-10.4-4.3-5.2-11.9-5.7-17.9-4.1-5.6 1.5-9.8 6-12.8 10.8-4.5-4.4-9.1-8.5-13.4-12.9zm25.2 32.5c-4.1 1-7.8 5-6.5 9.4.8 4 5.1 6.1 8.8 6.3 6.6.4 13.5-1.4 18.6-5.9v-7.8c-6.6-2.2-13.9-3.8-20.9-2z" fill="url(#l)"/><linearGradient id="m" gradientUnits="userSpaceOnUse" x1="1129.503" y1="333" x2="1129.503" y2="5.018"><stop offset="0" stop-color="#3d4599"/><stop offset="1" stop-color="#35abdc"/></linearGradient><path d="M1114 83.5c5.1-4.3 11.8-6.6 18.5-6.3 8.2-.3 16.9 2.1 22.8 8 6.8 6.7 9.4 16.5 9.5 25.8-.1 15.9.1 31.8-.1 47.8-6.7-.1-13.5 0-20.2 0V112c.1-5.4-1.9-11.3-6.6-14.4-6.5-3.9-16.3-2.2-20.3 4.5-2.2 3.5-3.2 7.7-3.1 11.9v44.8h-20.2V79h19.8c-.1 1.5-.1 3-.1 4.5z" fill="url(#m)"/><linearGradient id="n" gradientUnits="userSpaceOnUse" x1="393.88" y1="333" x2="393.88" y2="5.018"><stop offset="0" stop-color="#3d4599"/><stop offset="1" stop-color="#35abdc"/></linearGradient><path d="M383.8 79h20.3v79.7h-20.3V79z" fill="url(#n)"/><linearGradient id="o" gradientUnits="userSpaceOnUse" x1="523.375" y1="333" x2="523.375" y2="5.018"><stop offset="0" stop-color="#3d4599"/><stop offset="1" stop-color="#35abdc"/></linearGradient><path d="M513.3 79h20.3v79.8h-20.2c-.2-26.6-.1-53.2-.1-79.8z" fill="url(#o)"/><linearGradient id="p" gradientUnits="userSpaceOnUse" x1="300.181" y1="333" x2="300.181" y2="5.018"><stop offset="0" stop-color="#3d4599"/><stop offset="1" stop-color="#35abdc"/></linearGradient><path d="M273.3 249.3h32.3c8.5.1 17.2 5.3 20 13.6 2.4 7.3 2.2 15.8-1.5 22.6-3.7 6.5-11.2 10.1-18.5 10.3-7.5.1-14.9 0-22.4 0v30.3h-9.8c-.1-25.7-.2-51.3-.1-76.8zm9.7 38c7.9-.3 15.8.6 23.6-.5 8.4-1.5 12.4-11.3 10-19-1.3-5.9-7.2-9.9-13.1-10-6.8-.1-13.7 0-20.5 0v29.5z" fill="url(#p)"/><linearGradient id="q" gradientUnits="userSpaceOnUse" x1="364.755" y1="333" x2="364.755" y2="5.018"><stop offset="0" stop-color="#3d4599"/><stop offset="1" stop-color="#35abdc"/></linearGradient><path d="M360.6 249.2h8.4c10.7 25.6 21.3 51.2 32.1 76.7h-10.6c-2.7-6.5-5.4-13-8-19.5h-35.3c-2.7 6.5-5.3 13.1-8.2 19.5h-10.6c10.8-25.5 21.5-51.1 32.2-76.7zm-9.8 48.8h28c-4.7-11.3-9.3-22.6-14-33.9-4.6 11.3-9.3 22.6-14 33.9z" fill="url(#q)"/><linearGradient id="r" gradientUnits="userSpaceOnUse" x1="446.52" y1="333" x2="446.52" y2="5.018"><stop offset="0" stop-color="#3d4599"/><stop offset="1" stop-color="#35abdc"/></linearGradient><path d="M417.8 249.3h30.8c7.1 0 14.6 3 18.7 9 4.3 6.3 4.6 14.4 2.9 21.6-1.6 6.5-6.7 11.6-12.9 13.9 6 10.7 12 21.5 18 32.2h-11c-5.8-10.2-11.5-20.5-17.3-30.8h-19.6V326h-9.8c.2-25.6.2-51.2.2-76.7zm9.5 8.5v29h18.3c3.9 0 8.1-.9 11.2-3.5 5.1-4.4 5.8-12.4 3-18.3-2.4-4.9-7.9-7.3-13.1-7.2-6.6-.1-13 0-19.4 0z" fill="url(#r)"/><linearGradient id="s" gradientUnits="userSpaceOnUse" x1="518.502" y1="333" x2="518.502" y2="5.018"><stop offset="0" stop-color="#3d4599"/><stop offset="1" stop-color="#35abdc"/></linearGradient><path d="M485.3 249.3h66.4c0 2.8.1 5.7 0 8.5h-28.5v68.3h-9.5v-68.3h-28.5c.1-2.9.1-5.7.1-8.5z" fill="url(#s)"/><linearGradient id="t" gradientUnits="userSpaceOnUse" x1="597.624" y1="333" x2="597.624" y2="5.018"><stop offset="0" stop-color="#3d4599"/><stop offset="1" stop-color="#35abdc"/></linearGradient><path d="M568.3 249.3h8.2c13.7 19.5 27.2 39.2 40.8 58.7v-58.7h9.7v76.8h-8.3c-13.7-19.5-27.1-39.2-40.7-58.7v58.7h-9.8c.1-25.7 0-51.3.1-76.8z" fill="url(#t)"/><linearGradient id="u" gradientUnits="userSpaceOnUse" x1="674.743" y1="333" x2="674.743" y2="5.018"><stop offset="0" stop-color="#3d4599"/><stop offset="1" stop-color="#35abdc"/></linearGradient><path d="M651.1 249.2c15.8.1 31.6 0 47.4.1v8.5h-38v24.5H694v8.2h-33.5v27h38v8.5H651c0-25.6-.1-51.2.1-76.8z" fill="url(#u)"/><linearGradient id="v" gradientUnits="userSpaceOnUse" x1="746.57" y1="333" x2="746.57" y2="5.018"><stop offset="0" stop-color="#3d4599"/><stop offset="1" stop-color="#35abdc"/></linearGradient><path d="M717.8 249.3h30.8c7.2-.1 14.7 2.9 18.8 9 4.5 6.7 4.9 15.6 2.5 23.1-1.9 5.8-6.8 10.1-12.4 12.4 6 10.7 11.9 21.5 18 32.2h-10.9c-5.8-10.2-11.5-20.5-17.3-30.8h-19.7V326h-9.8v-76.7zm9.7 8.5v29h19c5.1 0 10.6-2.2 13-6.9 2.4-4.6 2.4-10.3.2-14.9-2.4-4.9-8-7.3-13.2-7.2h-19z" fill="url(#v)"/></svg>