<?xml version="1.0" encoding="utf-8"?>
<!-- Generator: Adobe Illustrator 21.1.0, SVG Export Plug-In . SVG Version: 6.00 Build 0)  -->
<svg version="1.1" id="Layer_1" xmlns="http://www.w3.org/2000/svg" xmlns:xlink="http://www.w3.org/1999/xlink" x="0px" y="0px"
	 viewBox="0 0 1165 326" style="enable-background:new 0 0 1165 326;" xml:space="preserve">
<style type="text/css">
	.st0{fill:url(#SVGID_1_);}
	.st1{fill:url(#SVGID_2_);}
	.st2{fill:url(#SVGID_3_);}
	.st3{fill:url(#SVGID_4_);}
	.st4{fill:url(#SVGID_5_);}
	.st5{fill:url(#SVGID_6_);}
	.st6{fill:url(#SVGID_7_);}
	.st7{fill:url(#SVGID_8_);}
	.st8{fill:url(#SVGID_9_);}
	.st9{fill:url(#SVGID_10_);}
	.st10{fill:url(#SVGID_11_);}
	.st11{fill:url(#SVGID_12_);}
	.st12{fill:url(#SVGID_13_);}
	.st13{fill:url(#SVGID_14_);}
	.st14{fill:url(#SVGID_15_);}
	.st15{fill:url(#SVGID_16_);}
	.st16{fill:url(#SVGID_17_);}
	.st17{fill:url(#SVGID_18_);}
	.st18{fill:url(#SVGID_19_);}
	.st19{fill:url(#SVGID_20_);}
	.st20{fill:url(#SVGID_21_);}
	.st21{fill:url(#SVGID_22_);}
</style>
<g>
	<linearGradient id="SVGID_1_" gradientUnits="userSpaceOnUse" x1="98.7587" y1="333" x2="98.7587" y2="5.0183">
		<stop  offset="0" style="stop-color:#3D4599"/>
		<stop  offset="1" style="stop-color:#35ABDC"/>
	</linearGradient>
	<path class="st0" d="M70.2,4.8c21.4-6.5,44.8-5.3,65.6,2.7c23.8,9.1,43.5,28.2,53.3,51.7c8.1,19.6,10.2,41.8,5.2,62.5
		c-5.3,22.8-19.2,43.4-38.3,56.9c-16.5,12-36.9,18.6-57.3,18.4c0-12.6,0-25.2,0-37.8c-12.5,0-25,0-37.5,0c0,9.7,0,19.3,0,29
		c-9.8,0-19.7,0-29.5,0c0-9.7,0-19.3,0-29c-8.1,0-16.2,0-24.2,0c0-8.3,0-16.5,0-24.8c8.2,0,16.3,0,24.5,0c0,8.2,0,16.3,0,24.5
		c9.7,0,19.3,0,29,0c0-12.7,0-25.3,0-38c12.7,0,25.3,0,38,0c0,12.6,0,25.2,0,37.8c20.1,0.2,39.8-10.9,50.4-27.9
		c14.6-22.2,11.7-54-6.5-73.3c-11-12-27.3-18.5-43.5-18.6C82,38.5,64.6,46.6,53.3,59.8C43.9,70.6,38.9,84.8,38.7,99
		C26,99,13.2,99,0.5,99v-2.5C1.1,78.1,6.7,59.7,17,44.4C29.5,25.7,48.6,11.3,70.2,4.8z"/>
	<linearGradient id="SVGID_2_" gradientUnits="userSpaceOnUse" x1="394.0661" y1="333" x2="394.0661" y2="5.0183">
		<stop  offset="0" style="stop-color:#3D4599"/>
		<stop  offset="1" style="stop-color:#35ABDC"/>
	</linearGradient>
	<path class="st1" d="M391,44.6c7.3-2.1,15.7,3.7,15.6,11.4c0.6,6.7-5.3,13.1-12,13c-7.1,0.6-13.5-6-12.9-13
		C381.6,50.6,385.8,45.8,391,44.6z"/>
	<linearGradient id="SVGID_3_" gradientUnits="userSpaceOnUse" x1="523.4934" y1="333" x2="523.4934" y2="5.0183">
		<stop  offset="0" style="stop-color:#3D4599"/>
		<stop  offset="1" style="stop-color:#35ABDC"/>
	</linearGradient>
	<path class="st2" d="M520,44.7c8.4-2.8,18,5.5,15.8,14.3c-1.1,7.5-9.7,12.1-16.7,9.4c-5.3-1.9-8.8-7.6-8-13.2
		C511.5,50.3,515.2,45.9,520,44.7z"/>
	<g>
		<linearGradient id="SVGID_4_" gradientUnits="userSpaceOnUse" x1="781.9678" y1="333" x2="781.9678" y2="5.0183">
			<stop  offset="0" style="stop-color:#3D4599"/>
			<stop  offset="1" style="stop-color:#35ABDC"/>
		</linearGradient>
		<path class="st3" d="M771.1,44.8c14.9-2.8,31,0.4,43.5,9c12.4,8.3,21.4,21.7,24.4,36.3c3,14.3,0.4,29.7-7.2,42.2
			c-6.3,10.5-16.1,18.9-27.4,23.6c-17.3,7.3-38.2,5.5-53.9-4.8c-9.5-6.1-17.1-15-21.7-25.3c-7.3-16-6.7-35.4,1.7-50.9
			C738.5,59.4,753.9,48,771.1,44.8z M773,65.7c-10.6,2.6-20,10.2-24.7,20.1c-4.9,9.8-5,21.8-0.5,31.7c4.4,9.9,13.3,17.6,23.6,20.6
			c8.8,2.6,18.6,1.8,26.9-2.2c10.5-5,18.3-15.1,20.5-26.5c2.8-13.4-2.6-27.9-13.2-36.4C796.6,65.7,784.2,62.8,773,65.7z"/>
	</g>
	<g>
		<linearGradient id="SVGID_5_" gradientUnits="userSpaceOnUse" x1="321.122" y1="333" x2="321.122" y2="5.0183">
			<stop  offset="0" style="stop-color:#3D4599"/>
			<stop  offset="1" style="stop-color:#35ABDC"/>
		</linearGradient>
		<path class="st4" d="M272.8,45.8c13.6,0,27.2,0,40.8,0c14.7,0.7,29.8,5.3,41,15.1c9.9,9.2,14.2,22.9,14.9,36
			c0.9,16.1-2.7,33.7-14.5,45.4c-11.6,10.9-27.8,15.9-43.6,16.3c-12.8,0.2-25.7,0-38.5,0.1C272.8,121.1,272.8,83.4,272.8,45.8z
			 M293.7,65c0,24.7,0.1,49.4,0,74.2c9.3,0.1,18.6,0.7,27.7-1.6c8.3-1.9,16.7-6,21.2-13.6c5.1-8.6,5.9-19.1,5-28.9
			c-0.8-8.8-4.5-18.1-12.5-22.8C322.9,64.5,307.8,64.8,293.7,65z"/>
	</g>
	<linearGradient id="SVGID_6_" gradientUnits="userSpaceOnUse" x1="699.3362" y1="333" x2="699.3362" y2="5.0183">
		<stop  offset="0" style="stop-color:#3D4599"/>
		<stop  offset="1" style="stop-color:#35ABDC"/>
	</linearGradient>
	<path class="st5" d="M689.3,45.8c6.8,0,13.5,0,20.3,0c0,37.7,0,75.3,0,113c-6.8-0.1-13.5,0.2-20.3-0.1
		C689.4,121,689.2,83.4,689.3,45.8z"/>
	<linearGradient id="SVGID_7_" gradientUnits="userSpaceOnUse" x1="570.75" y1="333" x2="570.75" y2="5.0183">
		<stop  offset="0" style="stop-color:#3D4599"/>
		<stop  offset="1" style="stop-color:#35ABDC"/>
	</linearGradient>
	<path class="st6" d="M557.3,57.5c6.6,0,13.3,0.1,19.9-0.1c0.2,7.2,0,14.4,0.1,21.6c6.2,0,12.3,0,18.5,0c0,6.2,0,12.3,0,18.5
		c-6.2,0-12.3,0-18.5,0c0,10.8,0,21.7,0,32.5c0.3,3.3,0.5,7.7,4.1,9.1c4.6,1.9,9.6,1,14.4,0.8c0,6.2,0,12.3,0,18.5
		c-10,0.4-21,1.6-29.8-3.9c-7.2-5-8.4-14.5-8.6-22.5c-0.1-11.5,0-23,0-34.5c-3.8,0-7.7,0-11.5,0c0-6.2,0-12.3,0-18.5
		c3.8,0,7.7,0,11.5,0C557.3,71.8,557.3,64.7,557.3,57.5z"/>
	<g>
		<linearGradient id="SVGID_8_" gradientUnits="userSpaceOnUse" x1="457.2267" y1="333" x2="457.2267" y2="5.0183">
			<stop  offset="0" style="stop-color:#3D4599"/>
			<stop  offset="1" style="stop-color:#35ABDC"/>
		</linearGradient>
		<path class="st7" d="M431,86.6c6.9-6.8,16.9-9.8,26.4-9.3c7.1,0,13.5,3.6,18.8,8c0-2.1,0-4.2,0-6.2c6.7,0,13.3,0,20,0
			c0,24.3,0,48.7,0,73c0,9.1-2.5,18.4-8.3,25.5c-5.8,7.6-15,12.1-24.4,13.2c-9.5,0.9-19.7,0.2-28.1-4.8c-5.7-3.5-11.1-7.8-14.9-13.3
			c4.7-4.3,9.3-8.8,13.9-13.3c4,5.2,8.5,10.5,15.1,12.4c7.2,1.9,15.8,1.1,21.2-4.4c4.3-4.3,5.4-10.7,5.2-16.5
			c-15.5,11.1-39.7,6.7-50.4-9C414.3,125.3,415.8,100.1,431,86.6z M452.7,96.2c-7.4,1.7-12.4,8.7-13.4,15.9
			c-1.4,7.9,0.4,16.9,6.6,22.4c7.1,6,19.1,5.3,25.2-1.9c3.8-4.2,5.4-10,5.2-15.5c0.2-6.3-2-12.8-6.7-17.1
			C465.1,95.8,458.5,94.7,452.7,96.2z"/>
	</g>
	<g>
		<linearGradient id="SVGID_9_" gradientUnits="userSpaceOnUse" x1="639.5828" y1="333" x2="639.5828" y2="5.0183">
			<stop  offset="0" style="stop-color:#3D4599"/>
			<stop  offset="1" style="stop-color:#35ABDC"/>
		</linearGradient>
		<path class="st8" d="M607.1,94.2c5.8-10,17-16.1,28.3-16.9c9.9-0.7,20.7,0.7,28.5,7.2c6.8,5.3,9.7,14.1,9.7,22.5
			c0.2,17.2,0,34.5,0.1,51.7c-6.7,0-13.3,0-20,0c0-2.1,0-4.3,0-6.4c-5.5,4.4-12.2,7.7-19.3,8.1c-8.6,0.5-17.8-2.2-23.6-8.9
			c-5.9-6.8-6.6-16.7-4-25c2.4-7.6,9.3-13,16.7-15.5c9.7-3.1,20.3-2.9,30,0c0-3.8-0.1-8.2-3-11.1c-4.9-4.9-12.7-5.2-18.9-3.1
			c-4.9,1.8-8.5,5.8-11.3,10.2C615.9,102.8,611.4,98.6,607.1,94.2z M626.8,130.5c-2,3.2-1.3,8.1,2.1,10.1c4.4,2.8,9.9,2.1,14.7,1
			c3.6-1,7.4-2.6,9.8-5.6c0.2-2.4,0-4.8,0.1-7.2c-6.1-2.2-12.7-3.5-19.2-2.6C631.4,126.7,628.5,128,626.8,130.5z"/>
	</g>
	<linearGradient id="SVGID_10_" gradientUnits="userSpaceOnUse" x1="887.3892" y1="333" x2="887.3892" y2="5.0183">
		<stop  offset="0" style="stop-color:#3D4599"/>
		<stop  offset="1" style="stop-color:#35ABDC"/>
	</linearGradient>
	<path class="st9" d="M883.1,77.7c9-1.3,18.6-0.4,26.7,4.1c5.4,2.8,9.7,7.2,13.5,11.9c-4.5,4.3-8.9,8.7-13.4,12.9
		c-3.6-3.8-7.5-7.6-12.5-9.5c-5.8-2.5-12.8-1.6-17.8,2.2c-11.8,9.2-11.9,29.6-0.2,39c5.4,4.3,13.1,4.9,19.5,2.4
		c5.1-2.3,8.7-6.8,12.6-10.6c4.3,4.3,8.9,8.4,13.1,12.8c-5.1,7.4-12.5,13.3-21.2,15.8c-13.3,4.2-29,1.6-39.3-8
		c-17.2-14.7-18.5-43.8-3.3-60.3C866.6,83.8,874.5,79.2,883.1,77.7z"/>
	<g>
		<linearGradient id="SVGID_11_" gradientUnits="userSpaceOnUse" x1="965.0897" y1="333" x2="965.0897" y2="5.0183">
			<stop  offset="0" style="stop-color:#3D4599"/>
			<stop  offset="1" style="stop-color:#35ABDC"/>
		</linearGradient>
		<path class="st10" d="M935.1,93.5c5.2-8.5,14.2-14.7,24.2-16c8.1-0.8,16.7-0.3,23.9,3.7c7.4,3.8,12.6,10.8,15.5,18.4
			c3.2,8.1,3.8,17,3,25.6c-17.7,0.1-35.3-0.1-53,0.1c0.7,4.3,2.3,8.8,5.7,11.8c5.5,5.1,13.9,6,20.8,3.8c5.4-1.7,9.3-6.1,13.2-10
			c4.5,4.1,8.8,8.4,13.2,12.6c-6.1,8.6-15.6,14.9-26.1,16.4c-10.8,1.7-22.6-0.1-31.6-6.6c-8.3-6-13.7-15.6-15.3-25.7
			C927.2,116,928.6,103.5,935.1,93.5z M955.6,99.2c-2.9,2.5-4.5,6-5.7,9.6c10.2,0.1,20.5,0,30.7,0c-0.7-4.6-3-9.4-7.4-11.5
			C967.6,94.6,960.3,94.9,955.6,99.2z"/>
	</g>
	<g>
		<linearGradient id="SVGID_12_" gradientUnits="userSpaceOnUse" x1="1045.3971" y1="333" x2="1045.3971" y2="5.0183">
			<stop  offset="0" style="stop-color:#3D4599"/>
			<stop  offset="1" style="stop-color:#35ABDC"/>
		</linearGradient>
		<path class="st11" d="M1013,94.2c5.4-9.1,15.2-15.2,25.7-16.6c10.5-1.3,22.1-0.1,30.8,6.5c6.7,5.1,10,13.6,10.1,21.8
			c0,17.6,0,35.2,0,52.8c-6.7,0-13.3,0-20,0c0-2.1,0-4.2,0-6.3c-5,3.8-10.8,6.9-17.1,7.7c-9,1.2-18.8-1.4-25.1-8.1
			c-6.4-6.9-7.4-17.4-4.4-26.1c2.4-7.2,8.9-12.4,15.9-14.8c9.8-3.4,20.6-3.2,30.5-0.3c0.1-3.6,0.3-7.6-2.3-10.4
			c-4.3-5.2-11.9-5.7-17.9-4.1c-5.6,1.5-9.8,6-12.8,10.8C1021.9,102.7,1017.3,98.6,1013,94.2z M1038.2,126.7c-4.1,1-7.8,5-6.5,9.4
			c0.8,4,5.1,6.1,8.8,6.3c6.6,0.4,13.5-1.4,18.6-5.9c0-2.6,0-5.2,0-7.8C1052.5,126.5,1045.2,124.9,1038.2,126.7z"/>
	</g>
	<linearGradient id="SVGID_13_" gradientUnits="userSpaceOnUse" x1="1129.5032" y1="333" x2="1129.5032" y2="5.0183">
		<stop  offset="0" style="stop-color:#3D4599"/>
		<stop  offset="1" style="stop-color:#35ABDC"/>
	</linearGradient>
	<path class="st12" d="M1114,83.5c5.1-4.3,11.8-6.6,18.5-6.3c8.2-0.3,16.9,2.1,22.8,8c6.8,6.7,9.4,16.5,9.5,25.8
		c-0.1,15.9,0.1,31.8-0.1,47.8c-6.7-0.1-13.5,0-20.2,0c0-15.6,0-31.2,0-46.8c0.1-5.4-1.9-11.3-6.6-14.4c-6.5-3.9-16.3-2.2-20.3,4.5
		c-2.2,3.5-3.2,7.7-3.1,11.9c0,14.9,0,29.8,0,44.8c-6.8,0-13.5,0-20.2,0c0-26.6,0-53.2,0-79.8c6.6,0,13.2,0,19.8,0
		C1114,80.5,1114,82,1114,83.5z"/>
	<linearGradient id="SVGID_14_" gradientUnits="userSpaceOnUse" x1="393.88" y1="333" x2="393.88" y2="5.0183">
		<stop  offset="0" style="stop-color:#3D4599"/>
		<stop  offset="1" style="stop-color:#35ABDC"/>
	</linearGradient>
	<path class="st13" d="M383.8,79c6.8,0,13.5,0,20.3,0c0,26.6,0,53.1,0,79.7c-6.8,0-13.5,0-20.3,0C383.8,132.2,383.8,105.6,383.8,79z
		"/>
	<linearGradient id="SVGID_15_" gradientUnits="userSpaceOnUse" x1="523.375" y1="333" x2="523.375" y2="5.0183">
		<stop  offset="0" style="stop-color:#3D4599"/>
		<stop  offset="1" style="stop-color:#35ABDC"/>
	</linearGradient>
	<path class="st14" d="M513.3,79c6.8,0,13.5,0,20.3,0c0,26.6,0,53.2,0,79.8c-6.8,0-13.5,0-20.2,0C513.2,132.2,513.3,105.6,513.3,79z
		"/>
	<g>
		<linearGradient id="SVGID_16_" gradientUnits="userSpaceOnUse" x1="300.1813" y1="333" x2="300.1813" y2="5.0183">
			<stop  offset="0" style="stop-color:#3D4599"/>
			<stop  offset="1" style="stop-color:#35ABDC"/>
		</linearGradient>
		<path class="st15" d="M273.3,249.3c10.8,0,21.5,0,32.3,0c8.5,0.1,17.2,5.3,20,13.6c2.4,7.3,2.2,15.8-1.5,22.6
			c-3.7,6.5-11.2,10.1-18.5,10.3c-7.5,0.1-14.9,0-22.4,0c0,10.1,0,20.2,0,30.3h-9.8C273.3,300.4,273.2,274.8,273.3,249.3z
			 M283,287.3c7.9-0.3,15.8,0.6,23.6-0.5c8.4-1.5,12.4-11.3,10-19c-1.3-5.9-7.2-9.9-13.1-10c-6.8-0.1-13.7,0-20.5,0
			C283,267.6,283,277.4,283,287.3z"/>
	</g>
	<g>
		<linearGradient id="SVGID_17_" gradientUnits="userSpaceOnUse" x1="364.755" y1="333" x2="364.755" y2="5.0183">
			<stop  offset="0" style="stop-color:#3D4599"/>
			<stop  offset="1" style="stop-color:#35ABDC"/>
		</linearGradient>
		<path class="st16" d="M360.6,249.2c2.8,0,5.6,0,8.4,0c10.7,25.6,21.3,51.2,32.1,76.7h-10.6c-2.7-6.5-5.4-13-8-19.5
			c-11.8,0-23.5,0-35.3,0c-2.7,6.5-5.3,13.1-8.2,19.5h-10.6C339.2,300.4,349.9,274.8,360.6,249.2z M350.8,298c9.3,0,18.7,0,28,0
			c-4.7-11.3-9.3-22.6-14-33.9C360.2,275.4,355.5,286.7,350.8,298z"/>
	</g>
	<g>
		<linearGradient id="SVGID_18_" gradientUnits="userSpaceOnUse" x1="446.52" y1="333" x2="446.52" y2="5.0183">
			<stop  offset="0" style="stop-color:#3D4599"/>
			<stop  offset="1" style="stop-color:#35ABDC"/>
		</linearGradient>
		<path class="st17" d="M417.8,249.3c10.3,0,20.5,0,30.8,0c7.1,0,14.6,3,18.7,9c4.3,6.3,4.6,14.4,2.9,21.6
			c-1.6,6.5-6.7,11.6-12.9,13.9c6,10.7,12,21.5,18,32.2h-11c-5.8-10.2-11.5-20.5-17.3-30.8c-6.5,0-13,0-19.6,0c0,10.3,0,20.5,0,30.8
			h-9.8C417.8,300.4,417.8,274.8,417.8,249.3z M427.3,257.8c0,9.7,0,19.3,0,29c6.1,0,12.2,0,18.3,0c3.9,0,8.1-0.9,11.2-3.5
			c5.1-4.4,5.8-12.4,3-18.3c-2.4-4.9-7.9-7.3-13.1-7.2C440.1,257.7,433.7,257.8,427.3,257.8z"/>
	</g>
	<linearGradient id="SVGID_19_" gradientUnits="userSpaceOnUse" x1="518.5018" y1="333" x2="518.5018" y2="5.0183">
		<stop  offset="0" style="stop-color:#3D4599"/>
		<stop  offset="1" style="stop-color:#35ABDC"/>
	</linearGradient>
	<path class="st18" d="M485.3,249.3c22.1,0,44.3,0,66.4,0c0,2.8,0.1,5.7,0,8.5c-9.5,0-19,0-28.5,0c0,22.8,0,45.5,0,68.3h-9.5
		c0-22.8,0-45.5,0-68.3c-9.5,0-19,0-28.5,0C485.3,254.9,485.3,252.1,485.3,249.3z"/>
	<linearGradient id="SVGID_20_" gradientUnits="userSpaceOnUse" x1="597.6238" y1="333" x2="597.6238" y2="5.0183">
		<stop  offset="0" style="stop-color:#3D4599"/>
		<stop  offset="1" style="stop-color:#35ABDC"/>
	</linearGradient>
	<path class="st19" d="M568.3,249.3c2.7,0,5.5,0,8.2,0c13.7,19.5,27.2,39.2,40.8,58.7c0-19.6,0-39.1,0-58.7c3.2,0,6.5,0,9.7,0
		c0,25.6,0,51.2,0,76.8h-8.3c-13.7-19.5-27.1-39.2-40.7-58.7c0,19.6,0,39.1,0,58.7h-9.8C568.3,300.4,568.2,274.8,568.3,249.3z"/>
	<linearGradient id="SVGID_21_" gradientUnits="userSpaceOnUse" x1="674.7432" y1="333" x2="674.7432" y2="5.0183">
		<stop  offset="0" style="stop-color:#3D4599"/>
		<stop  offset="1" style="stop-color:#35ABDC"/>
	</linearGradient>
	<path class="st20" d="M651.1,249.2c15.8,0.1,31.6,0,47.4,0.1c0,2.8,0,5.7,0,8.5c-12.7,0-25.3,0-38,0c0,8.2,0,16.3,0,24.5
		c11.2,0,22.3,0,33.5,0c0,2.7,0,5.5,0,8.2c-11.2,0-22.3,0-33.5,0c0,9,0,18,0,27c12.7,0,25.3,0,38,0c0,2.8,0,5.7,0,8.5H651
		C651,300.4,650.9,274.8,651.1,249.2z"/>
	<g>
		<linearGradient id="SVGID_22_" gradientUnits="userSpaceOnUse" x1="746.57" y1="333" x2="746.57" y2="5.0183">
			<stop  offset="0" style="stop-color:#3D4599"/>
			<stop  offset="1" style="stop-color:#35ABDC"/>
		</linearGradient>
		<path class="st21" d="M717.8,249.3c10.3,0,20.5,0,30.8,0c7.2-0.1,14.7,2.9,18.8,9c4.5,6.7,4.9,15.6,2.5,23.1
			c-1.9,5.8-6.8,10.1-12.4,12.4c6,10.7,11.9,21.5,18,32.2h-10.9c-5.8-10.2-11.5-20.5-17.3-30.8c-6.6,0-13.1,0-19.7,0
			c0,10.3,0,20.5,0,30.8h-9.8C717.8,300.4,717.8,274.8,717.8,249.3z M727.5,257.8c0,9.7,0,19.3,0,29c6.3,0,12.7,0,19,0
			c5.1,0,10.6-2.2,13-6.9c2.4-4.6,2.4-10.3,0.2-14.9c-2.4-4.9-8-7.3-13.2-7.2C740.2,257.8,733.8,257.8,727.5,257.8z"/>
	</g>
</g>
</svg>
