<svg id="Layer_1" xmlns="http://www.w3.org/2000/svg" viewBox="0 0 150 173.2"><style>.st0{fill:#2a8bcb}.st1{fill:#35addd}.st2{fill:#3d4599}</style><path class="st0" d="M75 0L0 43.3l16 9.2 59-34z"/><path class="st1" d="M75 0L0 43.3l16 9.2z"/><path class="st2" d="M75 0l75 43.3-16 9.2-59-34z"/><path class="st0" d="M75 0l75 43.3-16 9.2zM16 52.5v17.9H0V43.3z"/><path class="st1" d="M16 70.4H0V43.3zm118-17.9v17.9h16V43.3z"/><path class="st2" d="M134 70.4h16V43.3z"/><path class="st0" d="M75 173.2L0 129.9l16-9.2 59 34z"/><path class="st1" d="M75 173.2L0 129.9l16-9.2z"/><path class="st0" d="M75 173.2l75-43.3-16-9.2-59 34z"/><path class="st2" d="M75 173.2l75-43.3-16-9.2z"/><path class="st0" d="M134 120.7v-17.9h16v27.1z"/><path class="st1" d="M134 120.7l16-17.9v27.1zm-118 0v-17.9H0v27.1z"/><path class="st0" d="M16 120.7L0 102.8v27.1z"/><path class="st1" d="M56.7 87.9V60.4l23.8 13.8 23.9 13.7-23.9 13.8-23.8 13.8z"/><path class="st2" d="M56.7 115.5l23.8-13.8 23.9-13.8-9.7-5.6z"/><path class="st0" d="M56.7 72.6l38 9.7-14.2-8.1-23.8-13.8z"/></svg>