<svg width="1372" height="1136pt" viewBox="0 0 1029 1136" xmlns="http://www.w3.org/2000/svg"><path fill="#c2e0f4" d="M514.45 0h.05c133.34 89.78 266.61 179.65 399.92 269.46 38.18 25.79 76.48 51.4 114.58 77.31v2.28c-2.65-1.5-2.66 3.23 0 1.82v145.38c-73.3 49.45-146.68 98.8-219.97 148.27-98.02 66.16-196.14 132.18-294.19 198.29h-.67c-98.06-66.1-196.18-132.13-294.2-198.29C146.66 595.11 73.39 545.64 0 496.34V346.73C171.43 231.07 342.98 115.6 514.45 0m-5.13 8.21c-168.06 113.34-336.11 226.67-504.18 340-.69.62-1.87 1.02-1.82 2.14 138.21 92.83 276.13 186.11 414.32 278.99 16.05 10.98 32.22 21.82 48.45 32.56 15.86 11.25 32.33 21.61 48.29 32.72 72.53-48.51 144.76-97.45 217.2-146.08 96.41-64.92 192.82-129.85 289.26-194.73 1.75-1.45 4.44-2.16 5.23-4.49-47.8-31.89-95.31-64.22-143.03-96.23C760.94 170.77 638.82 88.48 516.69 6.21c-2.5-2.48-5.16.74-7.37 2z"/><path d="M509.32 8.21c2.21-1.26 4.87-4.48 7.37-2 122.13 82.27 244.25 164.56 366.35 246.88 47.72 32.01 95.23 64.34 143.03 96.23-.79 2.33-3.48 3.04-5.23 4.49-96.44 64.88-192.85 129.81-289.26 194.73-72.44 48.63-144.67 97.57-217.2 146.08-15.96-11.11-32.43-21.47-48.29-32.72-16.23-10.74-32.4-21.58-48.45-32.56C279.45 536.46 141.53 443.18 3.32 350.35c-.05-1.12 1.13-1.52 1.82-2.14 168.07-113.33 336.12-226.66 504.18-340M397.07 298.92c14.65 9.77 29.24 19.61 43.96 29.26 14.68-9.72 29.34-19.47 43.94-29.31-14.6-9.84-29.3-19.54-43.94-29.34-14.66 9.77-29.42 19.43-43.96 29.39m74.22 43.52c.02.28.07.86.09 1.15 13.58 9.1 27.22 18.11 40.79 27.23.98.6 2.28 1.84 3.44.78 14.02-9.32 28.02-18.67 42.02-28.01.03-.28.1-.84.13-1.12-14.54-9.54-28.81-19.54-43.53-28.79-14.19 9.77-28.66 19.13-42.94 28.76m72.78 44.63c14.56 9.91 29.29 19.58 43.93 29.37 14.66-9.75 29.34-19.48 43.94-29.33-14.58-9.86-29.24-19.63-43.95-29.3-14.68 9.68-29.32 19.45-43.92 29.26zm484.93-36.2c-2.66 1.41-2.65-3.32 0-1.82v1.82z" fill="#f1f9fd"/><path d="M397.07 298.92c14.54-9.96 29.3-19.62 43.96-29.39 14.64 9.8 29.34 19.5 43.94 29.34-14.6 9.84-29.26 19.59-43.94 29.31-14.72-9.65-29.31-19.49-43.96-29.26zm74.22 43.52c14.28-9.63 28.75-18.99 42.94-28.76 14.72 9.25 28.99 19.25 43.53 28.79-.03.28-.1.84-.13 1.12-14 9.34-28 18.69-42.02 28.01-1.16 1.06-2.46-.18-3.44-.78-13.57-9.12-27.21-18.13-40.79-27.23-.02-.29-.07-.87-.09-1.15zm72.78 44.63c14.6-9.81 29.24-19.58 43.92-29.26 14.71 9.67 29.37 19.44 43.95 29.3-14.6 9.85-29.28 19.58-43.94 29.33-14.64-9.79-29.37-19.46-43.93-29.37z" fill="#488fd1"/><path fill="#1b96cc" d="M24.33 776.27c65.23-43.9 130.35-87.95 195.64-131.75 98.02 66.16 196.14 132.19 294.2 198.29h.67c98.05-66.11 196.17-132.13 294.19-198.29 72.51 48.7 144.92 97.57 217.33 146.41.66-.39 1.98-1.19 2.64-1.59v3.3c-.88-.58-1.75-1.15-2.62-1.69-155.35 104.8-310.8 209.46-466.2 314.21-15.1 10.32-30.48 20.23-45.39 30.84h-.58c-15.7-11.14-31.88-21.59-47.77-32.45C311.85 999.33 157.16 895.26 2.65 790.93c-.9.58-1.78 1.19-2.65 1.83v-3.47c.91.55 1.83 1.09 2.76 1.63 7.09-5.04 14.4-9.75 21.57-14.65z"/></svg>