<svg id="OBJECTS" xmlns="http://www.w3.org/2000/svg" xmlns:xlink="http://www.w3.org/1999/xlink" viewBox="0 0 135.4 136.7"><style>.st3{fill:#fff}</style><defs><path id="XMLID_1_" d="M122.7 108.3l1.8-8.2s10-32.6.6-58.5S69.7 3 50.8 9.9C32 16.8 22.3 28.3 22.3 28.3s50.3 21.9 64.9 50.8l14.3 20.4s13.4-18.1 8.3-36.1c0 0 6.5 22.3 6 45.1-.5 17.5 6.9-.2 6.9-.2z"/></defs><use xlink:href="#XMLID_1_" overflow="visible" fill="#dc3832"/><clipPath id="XMLID_3_"><use xlink:href="#XMLID_1_" overflow="visible"/></clipPath><path d="M106.6 93.4c.1-.4 1-11.4-16.9-28.4 0 0 1.6 4.3 1.1 5.7 0 0-17.5-25.9-30-30.9 0 0 1.5 2.7.4 4.5 0 0-2.6-7.2-7.3-9.2 0 0 2.8 4 1.8 6.1 0 0-22.1-20.5-37.9-15.4l12.3 19.6 42 24.3L100.3 93l6.3.4z" opacity=".27" clip-path="url(#XMLID_3_)" fill="#5d5d5d"/><defs><path id="SVGID_1_" d="M122.7 108.3l1.8-8.2s10-32.6.6-58.5S69.7 3 50.8 9.9C32 16.8 22.3 28.3 22.3 28.3s50.3 21.9 64.9 50.8l14.3 20.4s13.4-18.1 8.3-36.1c0 0 6.5 22.3 6 45.1-.5 17.5 6.9-.2 6.9-.2z"/></defs><clipPath id="SVGID_2_"><use xlink:href="#SVGID_1_" overflow="visible"/></clipPath><linearGradient id="SVGID_3_" gradientUnits="userSpaceOnUse" x1="22.573" y1="58.086" x2="43.331" y2="62.009" gradientTransform="scale(-1 1) rotate(-16.075 -4.762 558.142)"><stop offset=".007" stop-color="#9b1f18"/><stop offset=".155" stop-color="#aa251e"/><stop offset=".487" stop-color="#c52f29"/><stop offset=".78" stop-color="#d63630"/><stop offset="1" stop-color="#dc3832"/></linearGradient><path d="M112.6 83.7s1.2-28.2-18.3-46.2c0 0 8.3 35.8-2.5 50.5s17.8 10.3 17.8 10.3l3-14.6z" clip-path="url(#SVGID_2_)" fill="url(#SVGID_3_)"/><linearGradient id="SVGID_4_" gradientUnits="userSpaceOnUse" x1="100.963" y1="36.082" x2="71.697" y2=".636" gradientTransform="scale(-1 1) rotate(-16.075 -4.762 558.142)"><stop offset=".002" stop-color="#b93832"/><stop offset="1" stop-color="#dc3832"/></linearGradient><path d="M35.9 14.7S50 2.2 74.3 14s26.6 3.8 13.5-6C74.7-1.9 47.2-5.6 35.9 14.7z" clip-path="url(#SVGID_2_)" fill="url(#SVGID_4_)"/><path class="st3" d="M134.8 116.9s.7 4.9.6 5.5c-.1.6-.4 5.2-4.5 9.7 0 0 .6-1.3-1.1-.5-1.6.8-1.4 3.2-1.4 3.2s-3.1 1.5-5.1.7c0 0-3.6 1.6-5.6 1.1 0 0 .9-1.3-2.6-1.7-3.5-.4-6.5-1.3-8-2.9 0 0 1.9-.4-1.1-2.8s-4.4-8.4-4.6-10.2c0 0 .7 1.5 1.5 2.1 0 0-1.1-7.3 3-11.9 0 0-1.5 3-.8 4.2 0 0 1.1-5.6 3.5-7.3 2.4-1.7 1.8.4 4.6-1s6.3-3.6 12.1-1.8c0 0-2 1.4.6 2.3 2.6.8 7.5 4.3 8.9 6.4-.1 0-1.5 2.5 0 4.9z"/><path d="M31.3 27.6c-.4-.1-.7-.2-1.1-.3.6-.2 1.4-.4 2.1-.3 0 0-.4.2-1 .6z" fill="none"/><path class="st3" d="M76.8 96.5c3.1-.8 7.9 1.6 7.9 1.6-5.1-7.9-21-17.4-21-17.4.8 1.9-.6 3-.6 3-2.3-6.4-15.4-17-15.4-17 1.9 4.8.1 6.2.1 6.2-2-7.8-7.7-12.8-7.7-12.8 3.8 3.9 2.5 7.5 2.5 7.5s-8.2-9-18.1-13.6c-9.9-4.6-15.6-4.2-15.6-4.2.4-6.1 8.6-9.8 8.6-9.8-.1-2.8-3.3.2-3.3.2 3.7-4.5 13.8-10.6 17-12.6C44.1 32 54.6 42.4 54.6 42.4c.4-2.5-3.1-5.8-3.1-5.8 6.5 3.2 8.4 9.2 8.4 9.2-.4-3-2.2-4.8-2.2-4.8 20.1 10.2 32.7 32 32.7 32 .1-2.7-1.7-6.3-1.7-6.3s19.4 15.7 17.2 26.7-10.9 19-10.9 19c1.9-3.3 1.1-5.7 1.1-5.7-1.2 2.1-2.7 3.8-4.2 5.2-3.8-8.4-15.1-15.4-15.1-15.4z"/><path d="M7.5 41.3c-.1-2.8-3.3.2-3.3.2 4.4-5.4 18.1-13.2 18.1-13.2-2-.4-4 1.3-4 1.3 2.3-4.1 5.3-3.8 5.3-3.8 1.9.2 3.8.6 5.6 1.1l.9.3c.4.1.7.2 1.1.3-3.3 1.9-13.3 8.1-17 12.6 0 0 3.3-2.9 3.3-.2 0 0-8.3 3.6-8.6 9.8 0 0 5.7-.4 15.6 4.2 9.9 4.6 18.2 13.7 18.2 13.7s1.3-3.6-2.5-7.5c0 0 5.8 5 7.7 12.8 0 0 1.7-1.4-.1-6.2 0 0 13.1 10.6 15.4 17 0 0 1.4-1.1.6-3 0 0 15.9 9.5 21 17.4 0 0-4.8-2.4-7.9-1.6 0 0 11.2 7 15.1 15.4-4.3 3.9-8.9 4.9-8.9 4.9-1.6-9.9-16.2-19-16.2-19 3.1-.8 7.9 1.6 7.9 1.6-5.1-7.9-21-17.4-21-17.4.8 1.9-.6 3-.6 3-2.3-6.4-15.4-17-15.4-17 1.9 4.8.1 6.2.1 6.2-2-7.8-7.7-12.8-7.7-12.8 3.8 3.9 2.5 7.5 2.5 7.5s-8.3-9.1-18.2-13.7c-9.9-4.6-14.3.3-14.3.3-1.5-7.3 7.3-14.2 7.3-14.2zm95.4 79.8s-1.1-7.3 3-11.9c0 0-1.5 3-.8 4.2 0 0 1.1-5.6 3.5-7.3 2.4-1.7 1.8.4 4.6-1 2.6-1.3 5.8-3.3 11-2.1-3 0-5.2 1.3-7 2.2-2.5 1.2-2-.7-4.1.9-2.1 1.5-3.1 6.5-3.1 6.5-.6-1.1.7-3.7.7-3.7-3.7 4-2.7 10.6-2.7 10.6-.7-.6-1.3-1.9-1.3-1.9.1 1.7 1.4 7 4.1 9.1 2.7 2.1 1 2.5 1 2.5 1.4 1.5 4 2.2 7.1 2.6 3.1.4 2.3 1.5 2.3 1.5 1.8.4 5-1 5-1 .8.3 1.9.2 2.8 0-.7 1-.6 2.5-.6 2.5s-3.1 1.5-5.1.7c0 0-3.6 1.6-5.6 1.1 0 0 .9-1.3-2.6-1.7-3.5-.4-6.5-1.3-8-2.9 0 0 1.9-.4-1.1-2.8s-4.4-8.4-4.6-10.2c0 0 .6 1.5 1.5 2.1z" fill="#f2f2f2"/></svg>