<svg xmlns="http://www.w3.org/2000/svg" viewBox="0 0 81.8 40.5"><linearGradient id="a" gradientUnits="userSpaceOnUse" x1="53.521" y1="40.044" x2="53.521" y2=".771"><stop offset="0" stop-color="#3d4599"/><stop offset=".507" stop-color="#3979bb"/><stop offset="1" stop-color="#35abdc"/></linearGradient><path d="M54.1 35.2c-1.5-.3-2.9.6-3.2 2.1-.3 1.2.2 2.4 1.3 3 .2.1.4.1.4.3h1.7c.1-.2.3-.2.5-.2.7-.4 1.2-1 1.4-1.8.3-1.7-.6-3.1-2.1-3.4zm1.5 2.5v.1c.1 1.2-.8 2.1-1.9 2.2-1.2.1-2.1-.8-2.2-1.9v-.3c-.1-1.1.8-2.1 1.9-2.2 1.2-.1 2.1.8 2.2 1.9v.2z" fill="url(#a)"/><linearGradient id="b" gradientUnits="userSpaceOnUse" x1="40.885" y1="40.044" x2="40.885" y2=".771"><stop offset="0" stop-color="#3d4599"/><stop offset=".507" stop-color="#3979bb"/><stop offset="1" stop-color="#35abdc"/></linearGradient><path d="M0 0v40c0 .4.1.5.5.5h40.9c0-.2.3-.3.4-.5L81.4.5c.2-.1.3-.3.4-.5H0zm59.5 19.4c-.4 1.1-.9 2-1.6 2.7-1.1 1.2-2.6 2-4.4 2.5-.3.1-.6.1-1 .1-1.5.2-3 .3-4.5.2-.5 0-.7.2-.7.7v6.6c0 .4-.1.5-.5.5H35.9c-.4 0-.5-.1-.7-.5-.3-1-.7-1.9-1-2.9 0-.3-.2-.3-.5-.2-2.5.8-5.3.8-7.8 0-.3-.1-.3 0-.4.2-.3 1-.6 1.9-.8 2.9 0 .3-.3.5-.6.5h-6.3c-.4 0-.5-.1-.4-.4 0-.1 0-.2.1-.3.1-.3.2-.5.3-.8.1-.2.1-.4.2-.6-1.6 1.3-3.6 2.1-5.7 2.3-3.7.4-7.5-.3-10.8-2.1-.1-.1-.2-.1-.2-.2s0-.2.1-.3c.6-1.4 1.4-2.9 2.1-4.3.2-.3.3-.2.5-.1 1.2.8 2.6 1.3 4 1.6 1.2.3 2.5.3 3.8 0 .3-.1.6-.2.9-.4.2-.1.4-.3.6-.5.4-.6.3-1.5-.2-2-.1-.1-.2-.2-.3-.2-.8-.5-1.6-.9-2.5-1.1-2-.5-3.8-1.3-5.6-2.3-.2-.1-.4-.2-.6-.4C1 18.4.2 14.2 2.4 11.1c1.4-1.9 3.5-3.2 5.8-3.6 1-.2 2.1-.3 3.1-.3.5 0 1 0 1.5.1 2 .2 4 .7 6 1.4.4.1.8.3 1.2.4.3.2.3.3.1.5-.8 1.4-1.7 2.8-2.5 4.2-.1.2-.2.2-.3.3-.1 0-.2 0-.3-.1-1.8-.9-3.8-1.4-5.8-1.4h-.9c-.5 0-1.1.2-1.5.4-.2.1-.3.2-.4.3-.1.1-.2.2-.2.3v.1c-.1.3-.2.4-.2.5v.1c0 .1 0 .3.1.4 0 0 0 .1.1.1 0 .1.1.2.2.3 0 .1.1.1.2.1l.2.2c1.1.8 2.4 1.4 3.8 1.8 1.1.4 2.3.7 3.4 1.2 2.3.8 4.1 2.7 4.8 5.1.8-2 1.5-3.9 2.2-5.9L26.6 8c0-.1.1-.1.1-.2.1-.2.3-.3.5-.2h5.9c.4-.1.7.2.8.6l6.6 18c0 .1.1.2.2.3V8.3c0-.2 0-.4.1-.5.1-.1.2-.2.5-.1 3.3.1 6.5-.1 9.7.1 1.6.1 3.2.4 4.8 1.1 2.2.9 3.7 2.9 4.1 5.2.2 1.7.1 3.6-.4 5.3z" fill="url(#b)"/><linearGradient id="c" gradientUnits="userSpaceOnUse" x1="50.297" y1="40.044" x2="50.297" y2=".771"><stop offset="0" stop-color="#3d4599"/><stop offset=".507" stop-color="#3979bb"/><stop offset="1" stop-color="#35abdc"/></linearGradient><path d="M50.7 13c-1.1-.2-2.1-.2-3.2-.2-.3 0-.3.2-.3.4v5.7c0 .2 0 .4.3.4 1 0 2 0 3-.1 1.6-.1 2.8-1.4 2.8-3 .2-1.6-1-3-2.6-3.2z" fill="url(#c)"/><linearGradient id="d" gradientUnits="userSpaceOnUse" x1="29.959" y1="40.044" x2="29.959" y2=".771"><stop offset="0" stop-color="#3d4599"/><stop offset=".507" stop-color="#3979bb"/><stop offset="1" stop-color="#35abdc"/></linearGradient><path d="M30 15.7h-.1c-.8 2.5-1.6 5.1-2.4 7.6-.1.3.1.3.3.4 1.5.5 3 .5 4.5 0 .2-.1.3-.2.2-.4-.9-2.6-1.7-5.1-2.5-7.6z" fill="url(#d)"/><linearGradient id="e" gradientUnits="userSpaceOnUse" x1="53.665" y1="40.044" x2="53.665" y2=".771"><stop offset="0" stop-color="#3d4599"/><stop offset=".507" stop-color="#3979bb"/><stop offset="1" stop-color="#35abdc"/></linearGradient><path d="M54.2 38c.4-.1.7-.6.5-1-.1-.4-.4-.7-.9-.6h-1c-.2 0-.3 0-.3.3v2.5c0 .2.1.2.2.2s.3 0 .3-.2v-.7c0-.1-.1-.4.1-.4.2-.1.4 0 .5.2.2.3.4.7.5.8s.3.3.6.2l-.7-1.2.2-.1zm-.9-.2c-.3.1-.2-.2-.3-.5s.1-.6.4-.5c.4.1.8 0 .8.5s-.4.4-.9.5z" fill="url(#e)"/></svg>