<svg xmlns="http://www.w3.org/2000/svg" viewBox="0 0 1998.9 524.3"><g fill="#35abdc"><path d="M1996.6 420c-4.2-.1-8.3-.1-12.5 0-.6 0-1.2.3-1.8.5 1.9 3.6 2.1 3.9.6 6.7-2.7 4.9-5.5 9.7-8.4 14.6-.2.4-.7.6-1.2 1.1-.6-.5-1.3-1-1.7-1.6-1.2-1.9-2.3-3.8-3.4-5.8-1.9-3.3-3.9-6.6-5.8-10-.6-1-1-2-.3-3.2.4-.6 1-1.3.1-2.2-.6-.1-1.4-.2-2.2-.2-7.3.4-14.7-.3-22 0-9.4.3-18.9.1-28.3 0-2.4 0-4.8-.3-7.2-.5-.9-.1-1.8-.1-2.8-.1-1.9 2.7-1.4 5.7-2.2 8.4-.1.4 0 .9.2 1.4.1.2.5.4.9.7.7-.8 1.3-1.7 2-2.5.8-.7 1.8-1.7 2.7-1.8 4-.4 8-.5 12-.6 1.1 0 1.7.9 1.8 1.9.1.5.1 1 .1 1.4l-.3 35.5c0 1.6-.1 3.2-1.2 4.5-1 1.1-3.2.5-3.8 2.5.6.3 1 .6 1.4.6h19.7c.3 0 .7-.1.9-.3.2-.2.3-.5.5-.8-1.4-1.8-4-.7-5.6-2.2-1.3-1.6-1.2-3.5-1.2-5.4-.1-11.4-.1-22.7-.2-34.1 0-1.1.3-2.1.5-3.3 3.5-1.1 6.8-.3 10.2-.2 2.8.1 4.9 1.2 5.9 4 .1.4.8.7 1.3 1 1.6-2.3 0-5.1 2-7.3.8.5 1.8.8 2.3 1.4 1.3 1.4 2.5 2.9 3.5 4.5 3.5 5.3 7 10.7 10.5 16.1 1.7 2.6 2.7 5.4 2.7 8.6 0 3.5 0 7-.1 10.6 0 1.6-.2 3.2-1.3 4.4-1.4.6-2.7 1.2-3.9 1.8.6 1.7 1.9 1.3 2.9 1.3h14.4c1.3 0 2.6 0 3.8-.1.5-.1 1-.5 2.2-1.1-2.7-.8-4.6-1.4-6.8-2.1-.3-1.4-.8-2.7-.9-4.1-.1-4-.1-8-.1-12 0-2.6.9-5 2.3-7.2 3.5-5.5 7.1-11 10.5-16.6 2.2-3.6 5.1-6.1 9.4-6.7v-1c-.6-.1-1.3-.5-2.1-.5zm-916.8-228c2.3-4.1 1.4-7.3-2.7-9.7-2.5-1.5-5.3-2.1-8.2-2.4-5.2-.5-10.2.3-15.2 1.4-3 .6-5.6 2-8.1 3.9-3.1 2.4-6.6 4.4-10 6.6-.8.5-1.7.6-2.9 1-.1-1.1-.3-1.8-.2-2.6.1-1.4.5-2.8.5-4.3.3-5.2 1.4-10.1 4.7-14.3 1.4-1.8 2.2-3.9 2.2-6.2 0-3.7-.4-7.4-1.4-10.9-1.5-4.9-5.2-6.7-9.5-5.6-7.3 1.8-14.4 4.2-20.8 8.3-1.8 1.1-3.5 2.2-5.3 3.3-.6.4-1.4.5-2.5.8-.3-2.6.6-4.2 1.5-5.6 2-2.9 3.9-5.8 6.2-8.5 4.6-5.6 9.5-10.8 14.9-15.6 5.1-4.6 10.2-9.3 15.5-13.6 7.2-5.8 14.4-11.7 23.1-15.3 3.6-1.5 4.8-4.6 4.8-8.1 0-3.7-2.4-6-6.2-5.6-2.4.3-4.7.8-7 1.5-12.9 3.9-24.6 9.8-34.4 19.2-1.8 1.8-4 3.2-6.1 4.6-.9.6-2 1.2-3.3.1.1-.8.2-1.7.2-2.6.2-3.5.4-7 .4-10.5 0-2.1-1.1-3.7-3.1-4.4-6-2.3-12-3.4-17.9.4-.3.2-.6.3-.9.4-3.1 1.4-5.2 3.6-5.8 7.1-.2 1.1-.5 2.2-.7 3.3-1 7.2-3.2 14-6.8 20.3-.9 1.5-1.5 3.2-2.3 4.8-2.1 4.2-1.6 8.4-.3 12.6.6 1.8 1.9 3 3.9 3.1 1.7 0 3.5-.2 5.2-.6 5.8-1.4 11-4.1 15.9-7.6 2.9-2 5.9-3.8 8.9-5.6 1.1-.6 2.5-1.6 4.2-.6-.1.6-.1 1.3-.4 1.8-.7 1.1-1.5 2.1-2.3 3.1-7.9 9.5-15.3 19.3-21.8 29.8-1.1 1.8-2.7 3.1-4.5 4.2-7.8 4.8-15.5 9.5-23.3 14.4-3.1 1.9-6.1 4.1-9.2 6.1-.8.5-1.6.8-3 1.5-.6-.8-1.1-1.7-1.7-2.4-4.9-5.8-10.7-10.5-16.8-14.9-1.7-1.2-3.5-2.2-5.3-3.3-2.5-1.5-4.9-1-7.1.6-2.4 1.8-3.9 4.2-5.3 6.7-1.2 2.3-1.3 4.6-.4 7 1 2.7 2.5 5.1 4.5 7.3 1.4 1.5 2.8 3.1 4.2 4.6 1.3 1.5 1.9 3.3 1.6 5.3-.2 1.6-.4 3.2-1 4.7-1.4 4.1-2.9 8.1-4.6 12.1-7.1 16.6-14 33.3-20.2 50.3-3 8.3-6.3 16.4-9.5 24.6-1.5 3.8-3.5 7.1-6.3 10.1-1.9 2.1-3.5 4.6-5 7-1.6 2.4-1.8 5.1-.6 7.8 3.1 7.1 7.9 12.7 14.4 16.9 2.8 1.8 5 1.6 7.4-.7 4.1-4 7.5-8.4 7.9-14.4.1-1 .2-1.9.2-2.9 0-3.3 1-6.3 2.3-9.2 2.4-5.2 4.7-10.5 7-15.8 9.8-22.1 19.3-44.2 27.2-67.1 1.8-5.3 3.8-10.5 4.9-16 .2-.9.4-2 .9-2.7 2.1-2.7 3.2-5.8 4.2-9.3 4.7-1.1 9.2-1.2 13.8-.1 1.4.3 2.7 1.1 3.2 3.1-1.8 4.6-3.7 9.5-5.6 14.4-.7 1.8-1.8 2.8-3.8 3.1-3.5.5-6.9 1.2-10.4 1.9-1.1.2-2.2.5-3.2.9s-1.5 1.4-1.1 2.3c.4 1 .9 2 1.6 2.9 2 2.7 4 5.4 6.2 8 1.1 1.4 1.4 2.8.7 4.4-1 2.2-1.9 4.4-2.8 6.6-3 7.6-6.1 15.1-9.1 22.7-1.7 4.4-2.5 8.9-2.1 13.6.4 4.1 2.2 6 6.3 6.5 2.7.3 5.5.1 8.1-.7 4.3-1.4 8.5-2.7 12.7-4.4 8.3-3.4 16.2-7.5 24-12.1 2.8-1.6 5.6-3.1 8.4-4.6 2.9-1.5 5.2 0 6.2 2.5.4 1 .5 2.2.7 3.2.7 2.9 1 6.1 2.2 8.8 2.6 5.9 5.9 8.7 14.1 8 1.1-.1 2.2-.4 3.3-.7 3.9-1.3 6.6-3.9 7.7-7.9.5-1.8.8-3.8.8-5.7 0-3-.2-6.1-.4-9.1-.1-3-.3-6.1-.4-9.1-.1-2.7.4-5 2.7-6.8.8-.7 1.6-1.6 2-2.6.8-1.7 1.5-3.6 1.8-5.4.4-2.9-.7-5.3-3-7.2-2.6-2.2-4.2-5-4.1-8.3.1-6.1.5-12.1.8-18.2.1-1.4.9-2.3 2.4-2.6 4-1 8.1-2 12.1-2.9 6.5-1.5 13.1-3 19.6-4.5 3.4-.8 6.7-2.2 9.7-4 2.7-1.4 4.7-3.2 6-5.7zm-138.2 21.3c-3.8 7-7.2 14.3-10.3 21.6-2.5 5.9-5.3 11.7-8.4 17.2-6.2 11.2-12.7 22.2-19.1 33.2-1.4 2.3-3.1 4.5-4.7 6.6-.6.8-2 .4-2.2-.6-.5-2.2-.4-4.5.3-6.6.7-2.4 1.5-4.9 2.5-7.2 6.2-14.5 12.1-29.2 19.2-43.3 3.2-6.4 6.7-12.7 10.1-19 .7-1.3 1.5-2.5 2.4-3.6 3.2-4 6.7-4.3 11.3-.7-.5.7-.7 1.6-1.1 2.4zm31.2 2.6c2.6-7.9 5.2-15.7 9.1-23.1 2-3.7 2.8-4.6 5.7-6.5.5.6 1.1 1.1 1.4 1.7 1.4 2.6 2.4 5.3 2.4 8.2 0 4-.2 8-.3 11.9-.1 1.5-.7 2.9-2.2 3.4-5.1 1.8-10.2 3.6-15.3 5.3-.1 0-.3-.1-.7-.3 0-.3-.1-.4-.1-.6zm32.9 29.5c-4.5 2.8-8.9 5.6-13.6 8-5 2.5-10 4.9-14.8 7.8-3.8 2.3-8 4-12.1 5.7-2.2.9-4.5 1.7-7.5 1 .3-1.6.4-2.9.7-4.1 2.1-7.7 4.3-15.4 6.4-23.1.6-2.3 1.8-3.9 3.9-5.2 3-1.8 5.8-4 8.8-5.8 2.7-1.6 5.6-3.2 8.5-4.4 5.3-2.2 8-.7 9.5 5 .5 1.9.6 3.8.3 5.7-.1.8-.1 1.5-.2 2.6 1.1.1 2 .3 2.9.3 2.1.1 4.2 0 6.2.3 1.7.2 3.5.5 4.5 2.2-.5 2.1-2 3.1-3.5 4zm6.9-22.6c-1.9-.9-3.9-1.6-5.6-2.6-1.6-.9-1.5-3 .1-3.9 1.9-1.1 3.9-1.9 6.7-2.4.5 3.4.5 6.1-1.2 8.9zm8.4-55.3c-.3 4.1-.7 8.3-1.3 12.4-.8 5.8-1.9 11.7-2.8 17.5-.4 2.5-1.4 4.1-3.9 4.9-1.5.5-2.8 1.7-4.5 1.2-.9-1.3-.5-2.8-.4-4.2.1-1.9.4-3.8.5-5.7.1-4.1-1-5.8-4.9-7.2-3.3-1.2-6.7-2.2-10-3.2-.7-.2-1.5-.6-2.4-.9.3-.7.5-1.4.9-1.8 6.2-6.7 13.1-12.6 21-17.4 1.1-.7 2.2-1.3 3.4-1.7 1.6-.6 3.4.3 3.9 1.9.4 1.3.7 2.8.5 4.2zM262.2 0C115.7.1.1 119.7 0 262c.3 142.3 114.5 261 262.2 262.3C408 523.2 524.3 406 524.3 261.7 524.3 118 407-.1 262.2 0zm-.2 518.4C118.4 517.7 5.2 401.1 5.6 261.2 6 119.5 122.7 5.1 263 5.5c137 .3 256.5 111.8 255.7 257.7-.8 144.9-118.8 255.1-256.7 255.2zm1532.3-253.9c.7-.3 1.4-.8 2-1.3 2.2-1.6 4.4-3.2 6.5-4.9 4.7-3.7 8.8-7.9 11.9-13 2.9-4.6 5.8-9.2 8.8-13.8 1.3-2 2.7-4 4.1-5.9 8-10.4 18.1-18 30.1-23.1 8.2-3.5 16.5-6.9 24.8-10.3 2.9-1.2 6-2.1 8.9-3.1.9.6 1.6.9 2.3 1.4 3.1 2.1 6.3 2.1 9.5.2 1.8-1.1 3.6-2.1 5.1-3.5 3.8-3.4 8-5.7 13-6.7.6-.1 1.2-.4 1.8-.6 12.5-3.5 24.9-7 37.4-10.4 1.7-.5 3.5-.6 5.2-.7 1.1-.1 1.9 1.1 1.2 2-1.1 1.4-2.2 2.8-3.5 3.8-5.1 4-10.9 6.7-16.8 9.1-10.8 4.5-21.6 8.9-32.3 13.5-6 2.6-12.1 5.2-17.9 8.2-4 2.1-7.9 4.2-12 6-1.1.5-2.2 1.1-3.9 1.9 1.2.2 1.6.4 2 .3 3.1-.6 6.3-1 9.4-1.8 6.5-1.8 12.9-3.9 19.3-5.6 4.6-1.3 9.3-2.4 14-3.4 4.1-.9 8.2-1.3 12.2-2.3 9.8-2.3 19.4-5.6 28.3-10.3 5.8-3.1 10.9-7.2 15.2-12.3 1.8-2.1 3.1-4.4 3.6-7.2.8-4.2-1.1-7.2-5.2-8.3-3.5-1-7-.8-10.5-.2-10.3 1.7-20.4 4-30.4 6.8-4.5 1.2-8.9 2.7-13.3 4-.8.2-1.7 0-2.6 0-.2-2.1.9-3.4 1.7-4.7 6.7-11.8 13.3-23.7 20.3-35.4 6.8-11.6 14.7-22.5 23.5-32.7 3.8-4.5 7.5-9.2 11.2-13.7 2.9-3.5 4.5-7.7 6.5-11.7l.3-.9c.7-2.9-.1-4.7-3-5.6-2.4-.7-5-.9-7.5-1.5-2.1-.5-4.1-.4-6.1.2-9.4 3.1-18.9 6.1-28.2 9.4-10.9 3.8-21.2 9-31.6 13.9-5.5 2.6-11 5.2-16 8.7-.8.5-1.6 1.1-2.5 1.5-.7.3-1.6.5-2.3.4-2.4-.6-4.9-1.3-7.2-3.1.9-.9 1.6-1.8 2.4-2.4 3-2.4 6.1-4.6 9.1-7.1 4.3-3.6 8.8-6.9 13.5-10 3.2-2.1 6.3-4.4 9.3-6.8 3.1-2.5 6.1-5.1 8.8-8.1 4.2-4.6 4.4-7.5 1.6-13-.1-.1-.2-.3-.2-.4-4.6-8.2-11.7-13.4-20.3-16.7-.3-.1-.8.1-1.5.2 1.1 2.2 2.1 4.2 3.2 6.2 1.5 2.9 1.7 5.8.2 8.7-.8 1.6-1.5 3.2-2.3 4.7-2.2 4.2-4.6 8.4-6.8 12.7-5 9.9-12 18.5-18.3 27.5-2 2.9-4.4 4-7.8 3-1.3-.4-2.8-.8-4.2.1 0 .5-.1 1 .1 1.4.3.9.7 1.8 1.2 2.6 1.5 2.6 3 5.3 4.6 7.9 1.7 2.6 2.1 5.2.9 8.2-2.7 6.5-5.2 13-7.9 19.5-.5 1.2-1.1 2.4-2 3.3-1 1-2.3 1.7-3.6 2.3-.8.4-1.8.5-2.5-.2-.5-2.3-.5-4.6-1.4-6.6-2.9-6.2-6-12.4-9.3-18.4-2.9-5.2-6.1-10.1-9.3-15.1-2.4-3.6-4.9-7.1-7.5-10.5-.6-.8-1.3-1.9-3-1.6.2 1.7.8 3.3 1.3 4.9 4.7 14.9 8.2 30.2 12.2 45.4.5 2 .8 4-.1 6.1-.7 1.8.2 3.1 2 3.5 1.6.3 3.2.1 4.7-.5 1.4-.7 2.9-1.3 4.2-1.8 5.9 2.8 6.5 2.7 4.4 9.6l-.3.9c-3.6 8.4-7.8 16.5-14 23.3-.4.4-.6 1-1.2 2 1.1-.1 1.8 0 2.3-.2 2.4-.9 4.4-2.5 6.3-4.3 5.5-5.4 11-10.7 15.3-17.1 1.5-2.2 2.8-2.3 4.8-.8.8.6 1.5 1.2 2.1 2 1.8 2.3 4.2 3.8 7 4.9 1.6.6 3.3 1.2 4.9 1.8 3.2 1.1 3.3 1.2 3.5 4.8.2 3 .5 6 .7 9.1 0 .6-.2 1.2-.3 2-2.3 1.1-4.5 2.3-6.9 3.3-9.7 4.3-19 9.1-28.2 14.3-7.9 4.5-15.5 9.6-22.1 16-5.4 5.2-10.7 10.5-16.1 15.8l-12.9 12.9c-1.4 1.3-2.9 2.5-4.5 3.5-.7.5-1.7.5-2.6.8-1.2-2.1 0-3.7.7-5.2 2.2-4.6 4.6-9.1 7-13.6 3.6-6.8 7.4-13.4 11.1-20.2.5-.9 1.2-1.8.9-3.5-1 1.4-1.8 2.4-2.4 3.4-6.9 11.5-13.8 23-20.8 34.5-3.2 5.2-2 10.8-1.4 16.4.1 1.3 2.3 2.1 4.1 1.3zm121.8-172.6c4.2-2 8.4-3.8 12.7-5.7 6.3-2.7 12.6-5.4 19-7.9 4.6-1.8 9.3-3.3 14.1-4.7 1.8-.5 3.8-.4 5.7-.5.4 0 1 .2 1.3.4.4.2.6.7.9 1 .1 1.9-.7 3.5-1.6 5-3.8 6.7-7.4 13.4-11.6 19.9-4.5 7-9.4 13.7-14.2 20.5-7.6 10.7-15.2 21.4-22.8 32-2 2.7-4.1 5.3-6.2 7.9-3.4 4.1-6.8 8.1-10.2 12.1-.8 1-1.6 2-2.6 2.9-2.3 2.1-4.7 1.8-6.5-.7-.4-.5-.7-1.1-.9-1.7-2.2-5.7-3-11.7-3.3-18.2 3-1.3 5.5-2.3 8-3.4 4.2-1.9 8.5-3.8 12.6-5.8 2.5-1.2 4.9-2.3 7.6-2.9 5-1.2 8.2-5.1 8.3-10.3 0-1.9-.1-3.8-.6-5.7-.7-3-1.5-5.9-2.5-8.7-2.3-6.3-6.3-11.4-11.2-15.9-1.6-1.5-3.5-2.7-4.8-4.8 3.1-2.1 5.9-3.5 8.8-4.8zm-29 51.3c-.1 1.7-.1 3.1-.2 4.4-.2 1.5-1.5 2.6-3.1 2.2-1.2-.3-2.5-.7-3.5-1.4-2.3-1.4-2.8-2.8-1.5-5.2 2.9-5.4 5.9-10.6 10.1-15 1.5-1.6 3-3.3 4.5-5 1.5-1.7 3-3.3 5.1-4.2 2.8-1.3 3.8-3.3 2.7-7.2-.7-2.5-2.4-4.5-4.2-6.3-1-1-2-2-3.1-3 .6-.5.9-.9 1.3-1.1 7.1-4 9.4-2.7 13.4 2.6 3.1 4.1 5.2 8.8 6.8 13.6 2.4 7.2.5 13.3-5.1 18.1-2.6 2.3-5.6 4.2-8.6 6.1-3.9 2.4-8.2 4.3-12.7 6.3-.5-1.7-1.1-3.1-1.9-4.9zM1650 226.4c1.1.6 2.2 1.3 3.1 2.2 1.7 1.6 3.4 3.3 5 5.2 5.2 6.3 9.7 13.1 13.3 20.5 3.1 6.1 6.2 12.3 10 18 1.5 2.3 3.3 4.3 5.5 5.9 2.4 1.8 4.9 3.6 7.4 5.3 1 .7 2.2 1.4 3.4 1.6 6.9.7 13.5.1 18.1-6.2 3.5-4.8 8.2-8 13.9-9.7 2.3-.7 4.4-1.8 6.6-2.8.7-.3 1.4-.7 2.1-1.2.8-.6 1.3-1.4.6-2.7-3.2-.2-6.5-.5-9.9-.7-4.5-.2-9-.2-13.4-.6-3.3-.3-6.7-.9-9.9-1.8-8.9-2.6-16.6-7.4-23.6-13.4-8.9-7.6-17.5-15.5-27.3-21.9-1-.7-1.8-1.7-2.8-2.5.6-1.3 1-2.3 1.6-3.3 4.9-8.1 9.7-16.2 14.6-24.2.7-1.2 1.7-2.3 2.5-3.5 3.3-4.5 7.6-7.7 13.1-9.1 2.5-.6 4.9-1.4 7.4-2 8.9-2.1 17.2-6 25.5-9.7 3.5-1.6 6.5-4.1 8.5-7.5 1.2-2 .8-3.3-1.4-4.2-3-1.2-6-2.1-9.3-1.9-4 .3-8 .4-12 .5-2.2 2.6-2.2 2.7-5.3 3.3-3.4.6-6.9 1.1-10.4 1.6-.4.1-.9-.3-1.5-.6 0-.6-.1-1.3 0-1.8.7-2.1 1.2-4.3 2.2-6.3 5.5-11.5 10.4-23.4 16.9-34.4.5-.8.9-1.7 1.3-2.6 1.7-4 1.1-8.2.5-12.3-.1-.5-.3-.9-.6-1.3-3.1-4.2-6.8-7.6-11.9-9.2-.4-.1-.9 0-1.6.1-.2.8-.6 1.5-.7 2.2-.5 3.9-1.8 7.4-3.4 10.9-1.9 4-3.8 8.1-5.6 12.2-5.5 12.4-10.7 25-18 36.5-2.1 3.4-3.8 7-5.6 10.6-.9 1.7-2 2.8-4 3.1-1.1.2-2.2.6-3.3.8-4.6.6-9.2 1.4-13.8 1.8-5 .5-9.9.3-14.6-1.8-1.7-.8-3.6-1.1-5.5-1.6-.5-.1-1.1.2-2 .4 1.9 2.9 3.6 5.4 5.3 7.8.6.9 1.4 1.8 2.2 2.5 5 3.8 10 7.4 15 11.1.7.5 1.5 1.1 2.3 1.7-.4 1.4-.6 2.7-1.1 3.8-1.1 2.3-2.3 4.6-3.6 6.7-4.7 7.4-9.5 14.8-14.4 22.1-3.6 5.5-7.3 10.9-11.2 16.2-11 14.8-23.3 28.4-36.4 41.4-3 2.9-6 5.7-9.5 8.1-2.9 2-5.6 4.3-8.1 6.7-2.6 2.4-5.4 4.5-8.5 6.2l-9.3 5.1c-.8.4-1.6 1-2.3 1.4l.3.9c1.1-.1 2.2 0 3.2-.2 3.1-.9 6.2-1.6 9.1-2.9 5.8-2.6 11.6-5.3 17.3-8.3 10.6-5.6 20.5-12.4 30.4-19.2 12-8.2 22.6-17.8 31.6-29.2 5.4-6.8 10.8-13.5 16.2-20.2.8-1 1.6-2 2.5-2.9 1.1-1.1 2.2-1.3 3.3-.7zm-860.5-92.3c-2 .5-4.1 1-5.9 1.8-4.4 2-8.6 4.2-13 6.2-7.7 3.6-14.8 8.2-20.9 14.2-2.7 2.7-6 4.8-9.5 6.4-1.7.8-3.6 1.4-5.4 1.8-2.2.4-3.3-.4-3.7-2.7-.2-1.1-.3-2.2-.4-3.3l-.3-11.5c-.1-6.1-.2-12.2-.4-18.2-.2-8.9-3.5-16.5-9.9-22.7-3.9-3.8-7.9-7.4-12-11-3.1-2.7-6.8-4.1-11-4.3-2.4-.1-4.8-.1-7.2 0-6.7.4-7.2.8-10.8 6.3-.4.7-.8 1.4-1.3 2-2.2 3.6-2.2 7.3 0 10.9 1.3 2.1 3 4.2 4.7 6 3 3.2 5.4 6.6 7.3 10.6 2.5 5.4 4.6 10.9 6.2 16.6 5.4 18.6 8.9 37.6 9.7 57 .1 1.9.5 3.8.9 5.7 1 5.7 2.2 11.3 3.1 17 1.5 9.2 4.1 18 7.5 26.7.1.3.4.4 1 .9 2.4-.1 4.4-1.2 6.4-2.1 6.4-2.9 10-7.7 10.4-14.8.4-8.1 1-16.3-1-24.3-.9-3.6-1.2-7.3-1.7-10.9-.7-5.5 1.7-9.3 6.6-11.5 2.8-1.2 5.6-2.5 8.4-3.5 8.1-2.9 16.3-5.6 24.5-8.5 2.7-1 5.4-2 8-3.3 7-3.4 11.9-8.8 15.3-15.9 3.3-7 2-13.3-1.6-19.6-.9-1.7-2.3-2.4-4-2zm-163 190.1c3.8 2.9 8 4.7 12.9 4.4 1.1-.1 2.2.1 3.4.1 8.1.4 15-2.4 20.8-8.1 2.9-2.8 5.8-5.5 9-7.8 5.9-4.2 11.4-8.7 16.8-13.5 4.2-3.7 8.7-7 13.7-9.6 5.5-2.9 11-5.9 16.5-8.8 4.4-2.3 8.9-4.3 13.7-5.7 2.5-.7 5-1 7.5-.2 2.9.9 5.7.8 8.5.1 6.2-1.5 12.5-2.8 18.6-4.6 5.2-1.5 10.3-3.4 15-6.3 8.3-5.1 9.9-13.9 9.3-21.2-.1-1.8-1.3-2.8-3.2-3.1-.8-.1-1.6-.1-2.4 0-11.7 1-23 3.6-33.8 8.4-19.7 8.8-39.5 17.4-59.2 26.1-8.8 3.9-17.7 7.3-27.1 9.6-9.4 2.4-18.9 4.9-28.3 7.2-6.6 1.6-13.3 1.6-19.9-.4-1.1-.3-2.2-.6-3.3-.8-3.6-.5-4.7.3-5.2 3.8-.1 1.3-.2 2.5-.2 3.3.1 1.9.1 3.4.4 4.8.5 2.8.9 5.7 2.7 8.1 4.1 5.4 8.5 10.2 13.8 14.2zm672.4-23c-1.9-1.6-4-2-6-2.4-6.6-1.5-12.7-4.2-18.8-7.2-3.2-1.6-6-3.7-8.5-6.2-3.2-3.1-6.4-6.2-9.6-9.4-4.9-5.1-9.6-10.2-13.6-16.1-2.1-3-4.4-5.9-6.6-8.8-1.6-2.2-3.3-4.4-4.9-6.5-1.5-2-3.1-4.1-4.6-6.1-.8-1.2-1.7-2.3-2.4-3.6-1-2-.8-4 .6-5.9 1.3-1.8 2.9-3.4 4.9-4.5 2.1-1.2 3.3-2.9 3.9-5.2.3-1.2.6-2.5.9-3.7.9-3.5 0-6.6-2.4-9.4-.6-.7-1.3-1.5-1.8-2.3-3.2-5.2-8.5-8.2-13.3-11.6-.3-.2-.9-.1-1.2-.1-.3.4-.6.6-.7.9-1.7 6.4-4.9 12.1-7.8 18-.8 1.6-1.5 3.2-3.5 3.9-.8-.5-1.7-.8-2.4-1.4-1.4-1.3-2.6-2.8-4-4.1-3.6-3.4-7.2-6.8-11-10-2.3-1.9-4.9-3.3-8.2-4 .4.8.5 1.3.7 1.7 4.2 5.8 8.4 11.7 12.8 17.4 2.8 3.7 5.1 7.7 7.5 11.9-1.3 2.3-2.3 4.7-3.7 6.8-4.2 6.6-8.5 13.1-12.8 19.7-.6.9-1.2 1.9-1.9 2.8-9.4 11.9-19.8 23-30.6 33.7-7.4 7.3-16.6 11.3-26.3 14.3-.6.2-1.1.4-1.6.6 7.3 1.5 13.9.3 20.3-2.8 4.3-2.1 8.6-4.3 12.9-6.4 13.4-6.8 25-16 35.4-26.8 4.7-4.9 8.3-10.5 12.1-16.1 1.3-2 2.8-3.9 4.4-5.6 1.7-1.8 3.5-1.5 4.7.7 2.2 4.1 4.3 8.2 6.5 12.3 4.8 9.4 9.5 18.8 14.3 28.2 4.1 8.1 10.3 14.1 18.4 18.3 6.1 3.2 12.2 4.3 18.9 2 5.3-1.8 10.9-2.5 16.5-2.7 2.4-.1 4.8-.3 7.1-.8 1.4-.3 2.7-.9 4-1.6.6-.4 1-1.2 1.4-1.9zm601.8 55.9c-.1-18.7 2-37.4 0-56.1-.6-5.2-.6-10.5-1.1-15.8-.4-3.6-1.3-7.2-2-10.8-.8-3.7-2.2-7.3-4.2-10.4.2-.4.2-.6.4-.6 4.8-2.9 10.1-3.8 15.6-3.8.3 0 .6.6 1.1 1.2-1.1.7-1.9 1.3-2.9 1.8-1.6.7-3.3 1.3-4.9 2-.7.3-1.4.8-1 2.2 2.5.9 5.3 1.6 8.2.9 2.8-.8 5.7-1 8.5-.9 3 .1 5.7-.5 8.3-2 3-1.7 6.2-2.6 9.5-3.2 1.7-.3 3.5-.7 5.2-1.1 1.1-.3 2.1-.7 3.1-1.3 2.7-1.6 3.5-4.4 1.9-7-1-1.6-2.3-3.2-3.8-4.2-2.6-1.8-5.5-3.3-8.4-4.6-7.3-3.3-8.7-3.1-15.5 1.5-2.7 1.8-5.6 2.9-8.8 3.6-11.6 2.4-22.9 6-33.6 11.3-11.2 5.6-22.5 10.8-33.6 16.5-5.5 2.8-10.8 3.6-16.6 1.2-.6-.3-1.4-.2-2.1-.3-1 2.5-.1 4.4.7 6.3 2 5.3 5.8 7.8 11.5 7.4 3.7-.3 7.3-.8 10.8-2 6.1-2.1 11.8-5.1 16.8-9.1 6.6-5.3 14.1-8.8 21.6-12.5.8-.4 1.7-.3 2.7-.4 1.1 2.9.8 5.6.5 8.3-.5 4.8-1.3 9.5-1.9 14.3-1.4 10.8-2.5 21.6-2.7 32.5 0 3.3-.4 6.7-.9 10-.7 4.9-2.3 5.9-7.1 5.1-5.2-.9-10.4-1.6-15.7-2.3-6.3-.9-12.7-1.8-19-2.7-5.9-.9-11.4-3-16.7-5.8-3.1-1.6-6.2-3.2-9.4-4.8 1 2.5 3 3.8 4.9 5.2 8.9 6.3 18.3 11.7 27.6 17.5l2.1 1.2c9.5 4.9 19.1 9.7 28.6 14.7 2.1 1.1 4.1 2.5 6.1 3.8.8.5 1.5 1.2 2.3 1.7 3.4 2.2 6.7 1.9 9.9-.4 2.6-2.3 4.1-4.7 4-8.1zm-469.2-95.4c-.3 2 1.5 3.5 3.3 2.8 1.3-.6 2.6-1.3 3.7-2.2 1.3-1.1 2.5-2.5 3.7-3.7 1-.9 2-1.1 3-.3 1.2 1 2.5 2.1 3.4 3.4 1.3 1.8 2.4 3.8 3.4 5.8 1 1.9 2.4 3.4 4.3 4.3 2 .9 3.2.7 4.6-1 1.6-2 2.5-4.5 3-7 .8-3.9 1.4-7.9 2-11.8.5-3.6.7-7.3 1.2-11 1.1-8.1 2.3-16.1 3.5-24.2 1.3-9.2 2.6-18.4 5.1-27.3 1.3-4.5 2.6-8.9 3.9-13.3 2-6.9 3.1-14 3.5-21.2.2-3.3-1.3-5.5-4.4-6.7-1.2-.5-2.4-.8-3.7-1-4.9-.7-9.6.3-13.9 2.8-8.4 4.7-16.3 10.2-23.2 16.9-8.2 8-14.9 17.1-20.4 27.1-1 1.8-2 3.7-3.1 5.4-.3.4-.9.7-1.7 1.3-1.5-4.6-.4-8.8 0-13.2-3.9 3.1-5.8 6.1-7.1 10.8-1.8 6.6-3.6 13.3-5.3 19.9-1.6 6.4-2.9 12.8-2.3 19.4.3 3.8 1.4 7.2 3.7 10.2 3 4 4.1 4.3 8.9 2.9.3-.1.6-.2.9-.2 1.2-.2 1.9-1 2.4-2.1 1.9-4.2 2.7-8.5 1.2-13-2.2-6.5-1.6-12.9.6-19.3 4-11.6 9.7-22.3 17.1-32 2.6-3.4 5.3-6.9 8-10.2 1.4-1.7 3-3.3 4.8-4.7 4.8-3.8 9.6-7.4 14.5-11.1 1.1-.9 2.3-1.7 3.6-2.4 1.1-.6 2.3-1.1 3.5-1.4 1.4-.4 2.6.2 3.1 1.6.3.7.5 1.5.5 2.3 0 2.9.2 5.8-.3 8.6-1.5 8.8-3.1 17.6-5 26.4-2.3 11.1-5.8 21.9-6.6 33.3-.4 5.4-1 10.8-1.5 16.2-.4 3.8-.6 7.6-1.1 11.5-.1 1.2-.6 2.5-1.1 3.7-.4 1-1.3 1.5-2.3 1.3-1.9-.4-3.7-1-5.6-1.5-2.3-.6-3.6-2.1-3.9-4.4-.2-2-.4-4.1-.3-6.2.3-5.4 1.7-10.7 1.3-16.2-.3-4.1 1.3-7.3 4.6-9.9 2.8-2.2 5.3-5.1 7.5-8 2.9-3.7 1.9-7.3-2.3-9.5-1.4-.7-2.9-1.2-4.5-1.7-2.6-.9-4.3-2.7-4.8-5.5-.3-1.4-.5-2.8-.5-4.3-.1-2.1-.1-4.2-.2-6.2-.1-1.4-.4-2.9-.8-4.2-.6-1.9-2.1-3.1-3.4-2.7-1.5.4-1.8 1.7-1.9 3-.2 2.1-.5 4.1-.5 6.2.1 3.2-1.3 5.1-4.3 6.1-.7.2-1.4.7-2 1 1.5 5.2 1.4 6.1-.6 11.2-.5 1.3-1.1 2.7-1.7 4-2.4 5.4-4.9 10.8-7.3 16.1-.2.4-.4.9-.5 1.3-.3 1 0 1.9.9 2.5 2 1.2 4.1 1.8 6.4 1.1 1-.3 2.1-.3 3-.5 1.3 1.7 1 3.3 1 4.9v14.9c0 3.5.3 7.1-1.2 10.4.3.2.3.4.2.5zm-.2-37c-.2.3-.9.3-1.3.2-.2 0-.6-.5-.5-.7.1-.9.3-1.8.7-2.6.1-.3.8-.5 1.2-.4.4.1.7.5 1.1 1-.4.9-.7 1.8-1.2 2.5zM791.5 420.2c-5.4-.1-10.9-.1-16.3-.1-.4 0-.8.4-1.5.8.7.5 1.1 1.1 1.6 1.1 3.8.1 4.9 2.4 5.1 5.6 0 .6.1 1.3.2 1.9.1 7.8.3 15.7.4 23.5 0 .8 0 1.6-1.3 2.1-.8-.6-1.8-1.3-2.7-2.2-7-6.8-13.9-13.7-20.8-20.6l-10.5-10.5c-.9-.9-1.9-1.7-2.9-2.4-.9-.6-2.1-.2-2.3.8-.3 1.5-.6 3.1-.6 4.7-.2 10.9-.3 21.8-.4 32.6 0 2.7-.3 5.4-.5 8.1-.1.9-.5 1.8-.8 2.8-1.3.3-2.5.7-3.8.8-3.6.3-6.6-.7-8.3-4.3-.9-1.9-1.9-3.7-2.7-5.6-5-11.8-10-23.6-15-35.3-.6-1.5-1.3-2.9-2.1-4.3-.9-1.5-2.6-1.4-3.5 0-.8 1.4-1.5 2.8-2.1 4.3-5.3 12.2-10.5 24.4-15.8 36.5-.8 1.9-1.8 3.7-2.8 5.6-1 1.9-2.6 2.8-4.6 3-1 .1-1.9.2-2.9.1-4.9-.5-5.6-.7-5.6-5.7l-.3-35.5c0-1 .2-1.9.3-2.9.2-1.6.9-2.6 2.6-3.1.8-.2 2-.1 1.9-1.9-.7-.1-1.4-.4-2.1-.4-6.2.1-12.4.2-18.7.3-.2 0-.4.4-.8.9.8.3 1.4.7 2.1 1 3.7 1.2 4.1 1.6 4.2 5.3.1 3.8.1 7.7 0 11.5 0 .9-.4 1.8-.6 2.5-.4.2-.6.3-.7.3-7.5.1-15 .2-22.5.2-1.8 0-2.4-.8-2.4-2.8-.1-4 0-8 0-12 0-2.7 1-4.6 3.9-5.1.4-.1.7-.5 1.2-.9-.4-.4-.8-.9-1.1-.9-6.5 0-13.1 0-19.6.1-.3 0-.5.6-1.1 1.2 1.2.4 2 .8 2.9.9 2 .4 3 1.7 3.3 3.6.1.6.1 1.3.1 1.9-.1 11.8-.1 23.7-.2 35.5 0 1.7-.5 3.4-.7 4.7-1.5 1.4-3.5 1.1-4.4 2.8.7.3 1 .7 1.4.7 6.9 0 13.7-.1 20.6-.2.2 0 .4-.4.7-.8-1.4-1.8-3.9-.9-5.7-2.4-.2-.3-.5-.9-.7-1.5-.2-1.1-.4-2.2-.5-3.3-.1-4.3-.2-8.6-.2-13 0-1.1.3-2.1.5-3.3.8-.2 1.4-.5 2-.5H656c.6 0 1.2.3 1.7.5.2.6.5 1 .5 1.5v16.3c0 .5-.1 1-.2 1.4-.3 1.3-.9 2.3-2.3 2.8-1 .3-2.3.1-2.6 1.6.3.2.5.6.7.6 12.8.1 25.6.1 38.4.2.4 0 .8-.3 2-.8-2-1.1-3.3-1.8-4.8-2.6.9-4.8 2.8-9 5-13.2 5.6-.1 11-.2 16.6.1.8 1.9 1.6 3.7 2.3 5.4.7 1.8 1.2 3.7 2.2 5.3 1.1 1.8-.1 3.7.2 5.7 12.2.5 24.1.3 36.1 0 .2 0 .4-.4.7-.7-.6-1.4-1.9-1.5-3.1-1.7-1.7-.3-2.5-1.4-2.7-2.9-.3-2.1-.5-4.1-.7-6.2-.2-3-.2-6.1-.3-9.1-.1-3.7-.2-7.4-.3-11 0-.9-.2-2 1.5-2.3.5.4 1.1.8 1.6 1.4 3.2 3.1 6.3 6.3 9.5 9.5l22.5 21.6c.9.9 2 1.6 3.1 2.2.8.5 2.2-.1 2.3-1 .3-1.7.5-3.5.6-5.2l.6-34.5c0-1.9.2-3.8.4-5.7.2-1.7 1-3 2.8-3.4.7-.2 1.3-.7 2-1.1-.4-.5-.6-.9-.8-.9zm-94.8 29.2c.6-4 3.6-11.4 5.7-14 2.1 2.8 5.1 10.4 5.4 14-3.7.7-7.4.8-11.1 0zm698.1-310c7.4-.2 14.6-1.8 21.7-3.5 4.4-1 8.3-3.2 11.7-6.3 6.6-6.2 13.3-12.5 20.1-18.5 7-6.1 14.1-12 21.3-17.9 1.7-1.4 3.4-2.9 6.7-3.7-1.3 3.6-2.7 6-4.2 8.4-3.3 5.1-7.3 9.7-11.6 14-2.9 3-4 6.3-4.1 10.4-.1 2.9.3 5.4 3 7.1.2.1.3.6.4.9-1 2.8-1 2.9-2.9 4.8-3.4 3.4-6.9 6.6-10.4 10-.6.6-1.7 1.1-1.1 2.4 2.7.8 5.3.2 7.9-.9 4.1-1.8 8.2-3.5 12.2-5.5 3.3-1.6 6.5-3.4 9.5-5.5 3.3-2.3 3.9-6 1.8-9.3-.7-1.2-2-2-3.1-2.9-1-.8-2.2-1.3-3.1-2.2-1.5-1.3-1.6-3.1-.5-4.8.3-.4.6-.7.9-1.1 3.9-4.8 7.8-9.7 11.8-14.5 2-2.5 4.2-4.8 6.2-7.3 1.5-1.9 3-3.8 4.3-5.7 1.2-1.9 2.1-4 3.5-5.7 1.8-2.3 1.7-4.6.6-7.1-1-2.4-2.6-3.6-5.1-3.6-2.7 0-5.4-.2-8.1-.2-1.8 0-3.5.5-4.6 2.1-1.8 2.6-4.5 4.1-7.2 5.4-7.1 3.4-13.6 7.7-20.1 12-2.1 1.4-4.3 2.8-6.4 4.2-13.4 9.1-26.7 18.2-39.1 28.5-5.9 4.9-12.1 9.4-19.3 12.5-.6.3-1.1.9-1.9 1.7 1.2.7 1.9 1.4 2.8 1.5 1.9.2 4.2.4 6.4.3zm102.5 155c-8.1.7-16.2 1.5-24.4 2.2-6.1.5-12.1-.4-18-2.2-9.3-2.8-18.7-5.7-28-8.6-16.5-5.2-32.8-10.8-49.7-14.5-9.2-2-18.4-4.3-27.2-7.6-.6-.2-1.4-.1-2.8-.3 3.6 4.3 6.9 7.8 11.4 9.7 5.3 2.2 10.8 4 16.1 6.2 9 3.6 18.2 7 27 11.2 13.4 6.2 25.6 14.4 37.9 22.5 3.1 2 6.2 4 9.3 5.9 3.5 2.1 7.2 3.5 11.3 3.7 3.3.1 6.3-.6 8.8-3.1 1.6-1.6 3.3-3 4.8-4.7 3.7-4.3 8.3-6.9 13.6-8.5 2.6-.8 5.1-1.7 7.7-2.7 3.3-1.3 6.1-3.4 8.6-5.9.6-.6 1-1.5 1.6-2.6-1-.4-1.7-.9-2.4-.9-1.8-.1-3.7.1-5.6.2zm-524 169.3c-1.2-2.8-2.5-5.5-3.7-8.3-4.6-10.7-9.2-21.4-13.9-32.1-.6-1.3-1.3-2.6-2-3.8-.6-1-2.3-.9-2.9.1-.7 1.1-1.3 2.2-1.8 3.4-5.2 11.9-10.3 23.8-15.4 35.6-.9 2.1-1.7 4.1-2.5 6.2-1.5 3.7-4.3 4.9-8 4.7-5.1-.4-6.2-.7-6.2-6.2 0-11.7 0-23.3-.1-35 0-.8 0-1.6.1-2.4.1-1.8.8-3 2.7-3.5.8-.2 1.6-.7 2.5-1.2-.5-.5-.7-.8-.9-.8-6.7 0-13.4-.1-20.1 0-.3 0-.5.6-1 1.1.8.4 1.3.6 1.9.8 3.7 1.2 4.1 1.6 4.2 5.3.1 3.7.1 7.4.1 11 0 1-.5 2.1-.7 2.9-.5.2-.6.4-.8.4-7.5.1-15 .2-22.5.2-1.8 0-2.5-.9-2.6-2.8-.1-3.7.1-7.4 0-11 0-3.2.7-5.7 4.3-6.4.2 0 .4-.5.6-.7-.2-.2-.4-.7-.5-.7-6.5-.1-13.1-.2-19.6-.2-.4 0-.8.4-1.1.6.4 1.6 1.8 1.3 2.7 1.6 2.2.5 3.2 2 3.2 4.1v1.4c0 11.8-.1 23.7-.2 35.5 0 1-.1 1.9-.2 2.9-.2 1.5-1 2.6-2.6 3.1-.8.2-2.1.1-2.1 1.7.3.2.7.5 1.1.6 2.4.3 19.2 0 21.5-.4-.9-1.8-2.3-1.6-3.4-2-2.6-.7-3.2-1.2-3.3-3.9-.3-4.5-.4-8.9-.5-13.4 0-1 0-1.9.1-2.9.2-1.4.7-2 2.1-2.2.6-.1 1.3-.1 1.9-.1h19.2c.9 0 1.8.3 2.9.5.2 1.1.5 2 .5 3 0 4.8-.1 9.6-.2 14.4 0 2.7-.9 4.7-3.9 5.1-.4.1-.7.5-1.1.8.7 1.6 2.2 1.2 3.3 1.2 5.9.1 11.8.1 17.7.1 5.6 0 11.2 0 16.8-.1.8 0 2.1.3 2.2-1.3-1.3-.7-2.7-1.4-3.9-2.1.9-5.1 2.6-9.4 5.1-13 5.5-.7 13.4-.5 16.7.5.7 1.6 1.5 3.4 2.2 5.2.7 1.6 1.1 3.4 2 4.9 1.1 1.8-.1 3.7.5 5.7 5.7.2 11.3.5 16.8.1.4 0 .7-.4 1.4-.9-.7-.5-1.2-1-1.7-1-3.6-.9-5.5-3.2-6.9-6.3zm-28.4-14c-.2-.6-.4-1.1-.3-1.4 1.4-4.4 3.2-8.6 5.6-13.7 1 1.9 1.8 2.9 2.1 4 1.1 3.6 3.4 6.8 3.6 10.8-3.7.8-7.3.5-11 .3zm909.1-6.1c-2.5-1.8-5.2-3.2-7.7-4.9-1.9-1.2-3.8-2.4-5.4-4-3.2-3.2-2.5-7.9 1.4-10.2 5.6-3.3 12.2-1.1 14.6 5 .3.7.4 1.6 1.5 1.7.3-.3.8-.6.8-.9.3-3.2.7-6.3 0-9.4-.5-.3-.9-.7-1.3-.8-5.5-1.4-11.1-1.7-16.6 0-2.1.6-4.2 1.7-5.9 3-4.3 3.3-5.9 7.7-4.7 13.2.9 4 3.2 6.9 6.4 9.2 2.3 1.7 4.8 3.1 7.2 4.8 2 1.4 4.1 2.6 5.7 4.3 4 4.3 2.4 11-3.1 12.9-5.1 1.8-13.9.4-15.1-7.5-.1-.9 0-2-1.6-2.3-2.5 3.3.1 7.8-2.3 11.4-1.1-.2-2.3-.2-3.2-.8-1.9-1.2-3.7-2.5-5.3-4.1-2.9-3-5.6-6.2-8.3-9.3-2-2.3-3.8-4.7-6-7.5 1.6-1.5 2.7-2.7 3.8-3.8 2-1.9 3.6-4.1 4.6-6.7 2.2-5.6-.1-12.1-5.5-14.7-2.1-1-4.5-1.8-6.8-1.9-8.5-.3-16.9-.3-25.4-.3-.5 0-1 .5-2.3 1 1.7.6 2.7 1 3.7 1.3 2 .5 3 1.8 3.1 3.7.1 1 .1 1.9.1 2.9-.1 11.5-.2 23-.2 34.5 0 3.2-.7 5.6-4.2 6.4-.2 0-.3.5-.6.8.3.3.7.8 1 .8h19.2c.3 0 .7-.5 1-.8-1.3-2-3.7-1-5.5-2.8-.2-.7-.7-1.9-.7-3.1 0-4.6-.6-9.2.2-14 .9-.1 1.7-.2 2.5-.3 2.8-.1 4.9.9 6.4 3.4 1 1.8 2.4 3.4 3.6 5.1 2.1 2.7 4.1 5.3 6.3 7.9 2.6 3 5.9 4.8 10.1 4.8 3.2 0 6.4 0 9.6-.1 1.3 0 2.6-.2 3.8.1 4.6 1.2 9.2 1 13.8.7 7.1-.4 13.3-6.9 14.1-12.5 1-6.8-1.2-12.2-6.8-16.2zm-49.9-3.2c-.8 3.1-3.6 5.8-7.4 5.7-1.9-.1-3.8 0-5.8-.7-.8-5-.7-16.7.1-20.2 7.2-2.1 12.3 1 13.6 8.2.4 2.4.1 4.7-.5 7zm-596.9-314.3c7.8-2.2 15.7-4.4 23.5-6.7 1.2-.3 2.4-.9 3.8.3-.3.6-.6 1.4-1.1 1.9-1 1-2.1 1.9-3.2 2.9-.5.5-1.3.9-.7 2.1.6-.1 1.2 0 1.8-.2 7.3-2.4 14.4-5.3 21.1-9 1.5-.8 3.1-1.6 4.7-2.2 6.2-2.6 12.5-4.7 19.1-6.3 1.7-.4 3.4-1 4.8-1.9 2.5-1.7 2.4-5.7-.2-7.4-.9-.6-2-1.1-3.1-1.1-5.3-.1-10.5-.1-15.8 0-.7 0-1.8.2-2.2.8-2.4 3.1-5.9 3.5-9.3 4.3-4.5 1-9 2-13.5 2.9-.4.1-.8-.2-1.2-.4-.1-.3-.1-.5-.1-.6 1.5-9.1-1.2-14.1-9.6-17.9-2.6-1.2-5.3-2.3-7.9-3.6-4.5-2.2-9.3-3.5-14.2-4.1-.7-.1-1.4 0-2.1 0 2.1 5.1 4.3 9.9 6.1 14.8 1.8 4.9 2.7 9.9-.7 14.6-.2.3-.3.6-.4.9-3.7 6.9-8.5 12.7-16.1 15.6-2.7 1-5.2 2.3-7.8 3.5 8.6.3 16.1-.9 24.3-3.2zm557.4 336.5c-.9 3.1-3.3 4.2-6.2 4.3-2.1.1-4.2.1-6.2 0-4.2-.3-5.6-1.9-5.8-6.1-.1-3.8-.1-7.7 0-11.5 0-.9.4-1.8.7-2.8 3.4 0 6.5-.1 9.7 0 2.2.1 3.9 1.2 4.4 3.7.1.5.6 1 1 1.6.5-.6.9-1 1-1.4.3-3 .5-6 .7-9 0-.2-.4-.5-.7-.9-4.6 1.8-9.6 1.3-14.5 1.3-1.6 0-2.4-.8-2.4-2.4 0-4.5.2-8.9.3-13.4 0-.3.3-.5.7-1.2 2.7-.7 5.7-.2 8.7 0 3 .2 5.7 1 6.6 4.5.1.2.5.4.8.6.3-.3.9-.6.9-.9.2-2.9 1.2-5.9.6-8.7-.6-.3-.9-.5-1.2-.5-10.1 0-20.1.1-30.2.1h-17.7c-1.2 0-2.6-.4-3.6 1.2 1.2.7 2.3 1.4 3.4 2.1-.6 3.8-7.2 20.9-12 30.9-.3.7-.9 1.2-1.6 2.2-.7-1.2-1.3-1.9-1.6-2.7-3.3-8.3-6.6-16.7-9.8-25-.6-1.5-.9-3.1-1.3-4.6-.1-.3.2-.6.3-1 1-.6 2-1.2 3.1-1.8-.4-.5-.6-.9-.7-.9-6.4-.1-12.8-.2-19.1-.3-.6 0-1.1.4-2.4.8 1.4.7 2.1 1.3 2.9 1.4 2.7.4 4.3 2.1 5.3 4.4.9 2 1.9 4.1 2.7 6.1 4.9 11.5 9.7 23 14.6 34.4.6 1.5 1.4 2.9 2.2 4.2.8 1.3 2.3 1.3 3.1-.1 1.1-1.8 2-3.6 2.9-5.5 5.4-11.6 10.7-23.2 16-34.9.8-1.7 1.7-3.4 2.5-5.2 1.2-2.7 3.4-4 6.1-3.9 5.9.1 7.5 1.1 7.5 6.7-.1 11.3-.1 22.7-.2 34.1 0 1.1-.1 2.2-.2 3.3-.2 1.7-1 3-2.8 3.4-.8.2-2 .3-1.7 2 .8.1 1.7.3 2.6.4 8.5.2 16.9.3 25.4.4 1.4 0 2.9-.1 4.3-.3 1.5-.2 2.3-1.1 2.5-2.5.3-2.4.5-4.8.7-7.1 0-.4-.4-.8-.8-1.5-.7.8-1.3 1.3-1.5 2zm-619.5 2.8c-1-2-2-4-2.9-6.1-5.1-11.9-10.2-23.8-15.4-35.6-.6-1.3-1.2-2.6-1.9-3.8-.8-1.3-2.5-1.4-3.2-.2-.8 1.3-1.5 2.8-2.2 4.2-5.4 12.3-10.7 24.6-16.1 36.9-.6 1.3-1.3 2.6-1.8 3.9-1.5 4-4.6 5-8.4 4.8-1-.1-1.9-.2-2.8-.4-2-.4-2.6-1.2-2.9-3.3-.1-.5-.1-1-.1-1.4 0-12.5 0-24.9-.1-37.4 0-2.5.6-4.4 3.4-4.9.6-.1 1.1-.6 1.6-.9-.3-.4-.5-.9-.7-.9l-18.6-.3c-.6 0-1.1.4-2.4.8 1.4.7 2.1 1.2 3 1.4 2.1.5 2.8 1.9 2.9 3.9 0 .8.1 1.6.1 2.4.1 5 .2 9.9.2 14.9-.1 7.2-.3 14.4-.3 21.6 0 2.4-.7 4-3.3 4.5-.7.1-1.6.3-1.5 1.8 1 .1 2 .4 3 .4h17.7c5.8 0 11.5 0 17.3-.1.8 0 2.1.3 2-1.4-1.2-.6-2.4-1.2-3.5-1.8.5-5 2.5-10 5.3-13.5 5.2 0 10.6-.3 16.1.3 1.2 3 2.4 5.8 3.5 8.6 1.5 3.8 1.5 3.8 1.3 7.3 4.9.9 14 .9 18.5-.4-1.6-.7-2.2-1.2-2.9-1.3-2.4-.3-3.8-2-4.9-4zm-29.5-15.9c.5-3.5 3.2-10.4 5.4-13.8.3.1.7.1.9.3 1.9 3.2 4.4 10.2 4.9 13.5-3.8.6-7.5.7-11.2 0zm456.3-38.6h-14.4c-.8 0-1.6.1-2.4.3-.3.1-.5.6-.9 1.3 1.4.3 2.4.5 3.4.8 2.3.6 3.5 2.1 3.6 4.5v1.4c0 10.4.1 20.8-.1 31.2 0 2.7-.6 5.4-1.3 8-.8 2.8-2.5 5.2-5.1 6.8-8 5-20.4 2.6-23-8.5-1-4.4-1.3-8.9-1.4-13.3-.1-7.4.1-14.7.2-22.1 0-1 .1-1.9.1-2.9.1-2.9 1.1-5 4.2-5.4.5-.1.9-.6 1.4-.9-.9-1.5-2.1-1.2-3.2-1.2h-17.8c-.8 0-1.6 0-2.4.2-.4.1-.7.5-1 .8.1.3.2.5.3.5.6.2 1.1.5 1.7.6 4.4 1.1 4.9 1.6 5 6.2v2.4c0 7 0 14.1.2 21.1.1 4.9.2 9.9 1.6 14.7 2 6.9 6.2 11.8 13.2 14 5 1.5 10 1.9 15.1 1.1 10.6-1.6 17.4-8.3 19.1-18.7.7-4.1.9-8.3 1-12.4.2-6.7.1-13.4.1-20.2 0-1.1 0-2.2.1-3.4.1-2.5 1.1-4.3 3.8-4.9.7-.1 1.6-.2 1.6-1.6-.5-.4-1.6-.4-2.7-.4zm-406.2-221.5c2 0 3.7-1 5.3-2 3.8-2.1 7.5-4.3 11.3-6.3 2.7-1.4 5.5-2.6 8.4-3.4 12.9-3.7 24.1-10.1 32.2-21.2.7-.9 1.3-1.9 2.1-2.6 1.5-1.2 3-2.4 4.8-3.1 2.3-1 4.1.2 4.7 2.6.5 2.3.2 4.4-1 6.4-.9 1.5-2.2 2.9-1.4 4.9 1.6 1.1 3.4.5 5.1.4 3.5-.2 6.8-1.3 10.4.2 2 .8 4.1-.2 5.5-2 2.6-3.2 3.3-6.9 2.2-10.8-.6-2.3-2.1-3.9-4.6-4.4-2.7-.6-5.3-1.2-7.9-2.1-2.8-.9-5.7-.9-8.5-.4-7.1 1.1-13.5 4-19.2 8.3-5.5 4.2-11.9 6.2-18.3 8-.7.2-1.4-.1-2.2-.2.2-2 .4-3.7.5-5.5 0-.8-.1-1.6-1.5-1.9-4.2 3.6-8.5 7.3-12.9 11.1-2.7 2.3-5.3 4.6-8 6.9-1.7 1.5-3.5 2.9-5 4.5-2.5 2.5-4.6 5.3-5.3 8.9-.3 2.3 1 3.7 3.3 3.7zm236.6 230.9c-.2 0-.3.5-.7 1 1.1.4 2.1.8 3.1 1 1.9.3 2.8 1.4 3 3.2.1.8.2 1.6.2 2.4.3 8 .6 16 .8 24 0 1.1-.2 2.2-.3 4.3-1.7-1.4-2.7-2.2-3.6-3l-23.9-23.6c-2.7-2.7-5.4-5.4-8.2-8.1-.8-.8-1.7-1.4-2.6-2-.7-.5-2.2.1-2.3 1-.2 1.2-.3 2.5-.3 3.8-.2 8.8-.3 17.6-.5 26.4-.1 5-.3 9.9-.5 14.9-.1 2-.7 3.4-2.9 3.7-.5.1-1 .2-1.3.5-.4.3-.7.8-1.1 1.3 1.8 1.1 3.4.6 5 .7 1.6 0 3.2-.1 4.8-.1 1.6 0 3.2.1 4.8.1 1.5-.1 3.2.6 4.4-1-1.2-2-3.7-1.1-5.5-3.1-.3-1.6-.7-3.8-.9-6-.1-1.1 0-2.2-.1-3.4-.2-5.7-.4-11.5-.6-17.2 0-1.2-.5-2.6 1-3.4 1.7.3 2.6 1.8 3.7 2.9 7.6 7.3 15.1 14.7 22.7 22.1 2.6 2.6 5.3 5.1 8 7.6.9.8 2 1.5 3.1 2.1.8.4 2.1-.3 2.3-1.2.2-1.1.3-2.2.3-3.3.3-12.3.5-24.6.8-36.9 0-1.1 0-2.2.1-3.4.1-2.8.9-5 4.1-5.6.4-.1.7-.6 1.1-.9-.5-.3-.9-.8-1.2-.8-5.6-.2-11.2-.1-16.8 0zm-205.5 1.6c-9.3-3.9-18.7-3.9-28.1-.5-6.7 2.5-11.6 7.3-14.4 13.9-5.3 12.3-.5 28.4 13 34.5 4.4 2 9.1 2.9 14 2.7 1.6-.1 3.2 0 4.8-.2 6.9-.9 13-3.5 17.7-8.6 6.8-7.4 8.5-16.3 6.4-25.9-1.7-7.6-6.3-12.9-13.4-15.9zm1.6 34.7c-2.1 7.9-8.6 12.9-18.5 10.9-6.2-1.2-10.7-4.9-13.5-10.5-3.8-7.5-4.1-15.4-1.5-23.3 2.7-8.1 10.6-12 19.4-9.8 6 1.5 10.1 5.3 12.8 10.7 2.2 4.4 2.7 9.1 2.7 14.9-.4 1.8-.7 4.5-1.4 7.1zm142.3-35.3c-8.9-3.2-18-3.3-26.7.3-10.3 4.2-15.9 12.3-16.2 23.4-.3 10.8 4.3 19.2 14 24.4 4.6 2.5 9.6 3.4 14.7 3.2 6.7.3 12.9-1.2 18.3-5 9.4-6.6 12.9-16 11.4-27.2-1.4-9.5-6.7-15.9-15.5-19.1zm3.2 35.2c-2.6 9.8-10.9 13-19.3 10.9-5.8-1.4-10-5-12.7-10.2-3.9-7.6-4.3-15.7-1.5-23.7 2.9-8 10.8-11.7 19.6-9.4 5.8 1.5 9.8 5.2 12.4 10.5 2.1 4.2 2.8 8.8 2.8 14.6-.3 1.6-.5 4.5-1.3 7.3zm275.9-36.2c-.2 0-.4.5-.7 1 1.1.4 2.1.9 3.1 1 1.6.3 2.5 1.3 2.8 2.8.2.9.4 1.9.4 2.8.3 8.2.5 16.3.7 24.5 0 .9-.3 1.8-.4 2.6-2 .2-2.8-1.2-3.8-2.2-7-6.8-13.9-13.7-20.8-20.6l-10.5-10.5c-.9-.9-1.9-1.7-2.9-2.4-.8-.6-2.1-.1-2.3.9-.2 1.4-.4 2.8-.4 4.3-.2 7.7-.4 15.3-.5 23-.1 5.1-.1 10.2-.2 15.3 0 1.9.1 3.9-1.4 5.6-1.1.3-2.3.7-3.5 1.1-.7.3-.8.8-.5 1.5 2.3.4 15.6.5 18.1.2.2 0 .4-.4.6-.7-.5-1.4-1.9-1.5-3.1-1.7-1.7-.3-2.5-1.3-2.7-2.9-.2-1.1-.4-2.2-.5-3.3-.3-7.7-.5-15.3-.7-23 0-.7.3-1.4.4-2 1.7-.3 2.3.7 3.1 1.5 3 2.9 5.9 5.9 8.9 8.8 7.6 7.3 15.2 14.7 22.8 22 .9.9 2 1.6 3.1 2.2.8.5 2.1-.2 2.3-1.1.3-1.7.5-3.5.5-5.2.3-11.7.5-23.3.7-35 0-1.6.1-3.2.3-4.8.2-1.9.9-3.4 2.9-3.9.7-.2 1.2-.7 2.4-1.4-1.2-.4-1.7-.8-2.3-.7l-15.9.3zM1482.9 446c-1.9-.5-17.7-.4-20.8.2.8 1.8 2.3 1.6 3.4 2 1.8.5 2.8 1.6 2.8 3.4.1 4.5.1 8.9 0 13.4 0 1.5-1 2.5-2.3 2.6-1.9.3-3.8.4-5.7.2-8.9-.9-15.8-5-19.4-13.5-2.7-6.2-2.9-12.7-1-19.2 1.8-6 6-9.8 12-11.1 4.9-1.1 9.9-.9 14.7.7 4.1 1.4 7.5 3.7 8.5 8.3.1.5.7 1 1.3 1.7.5-.8 1-1.3 1.1-1.8.3-3 .6-6 .7-9.1.1-2.4-.5-3-3-3.4-6.5-1-13-1.9-19.6-1.5-3.2.2-6.4.7-9.4 1.6-6.2 1.8-11.2 5.4-14.7 10.9-2.4 3.7-3.6 7.8-3.9 12.2-.4 5.7.6 11.1 3.7 16 3 4.8 7.4 7.8 12.6 9.9 8.4 3.4 17.1 3.3 25.9 2.1 1.6-.2 3.1-.6 4.6-1.2 3.8-1.3 4-1.6 4.1-5.4.1-4 .1-8 .1-12 0-2.8.7-5.1 3.9-5.7.4-.1.7-.5 1.1-.8-.4-.1-.5-.5-.7-.5zm-628.1-.2c-6.4-.1-12.8-.1-19.2-.1-.4 0-.8.4-2.1 1 1.3.6 1.9.9 2.5 1.1 3.9 1.3 4.3 1.7 4.4 5.7.1 3.4.1 6.7 0 10.1-.1 3.1-1 4.2-3.9 4.4-8.7.5-16.2-2.1-21.3-9.5-5.2-7.7-5.8-16.2-2.6-24.8 1.8-4.9 5.7-8.1 10.8-9.4 5.6-1.4 11.1-1 16.5 1.1 3.4 1.3 6.1 3.5 7.2 7.2l.3.9c.3.6.7 1.2 1.4.9.4-.2.7-.7.8-1.1.2-3 .4-6.1.6-9.1.1-2.5-.4-3.1-2.9-3.5-6.5-1-13-1.9-19.6-1.5-3.2.2-6.4.7-9.4 1.6-8.6 2.7-14.8 8.2-17.4 17.1-2.4 8.4-1.7 16.5 3.8 23.7 4.1 5.5 10 8.3 16.5 9.9 6.3 1.6 12.7 1.2 19.1.8 2.2-.2 4.4-.9 6.5-1.6 3.5-1.1 3.8-1.6 3.8-5.1.1-3 0-6.1 0-9.1 0-1.6 0-3.2.1-4.8.1-1.7.9-3 2.7-3.6.8-.2 2.1-.2 2-1.6-.2-.3-.4-.7-.6-.7z"/><path d="M913.6 124.9c2.2 1 4.4 1.8 6.7 2.7 3.1 1.2 6.3 2.3 9.4 3.6 3.5 1.4 5.3 4 5.1 7.8-.1 1.8-.1 3.5-.1 5.3 0 1.4.4 2.5 1.3 3.5s1.9 1.7 3.5 1.4c.3-.4.9-.8 1.1-1.3 1-2.4 2.9-3.7 5.1-4.8 1.9-.9 3.9-1.4 6-1.4 3.7 0 6.9-1.3 9.7-3.5 3.3-2.7 4.5-6.5 2.9-10.3-.6-1.5-1.5-2.8-2.5-4-1.9-2.4-4.5-4-7.2-5.4-6-3.1-12.4-4.1-19-4.1-3.5 0-7 .2-10.6.3-3.2.1-6.4.2-9.5-.9-1-.4-2.2-.6-3.3-.4-.9.1-1.9.6-2.4 1.3-1.9 2.3-1.8 5.8.3 7.9 1 .9 2.3 1.7 3.5 2.3zM1291 410.6c-3 .1-6.1.5-9.1.5-8.5.1-16.9.1-25.4 0-4.3-.1-8.6-.6-12.9-.8-.6 0-1.2.1-1.9.2-1.3 3.4-1.9 6.9-2.1 10.4 0 .4.4.7.6 1.1 1.7-.3 1.9-1.8 2.6-2.7.9-1.2 2-2.1 3.5-2.2 4.3-.3 8.6-.5 12.9-.6 1.4 0 2.1.7 2.3 2 .1.8.2 1.6.1 2.4l-.3 42.2c0 .8-.1 1.6-.2 2.4-.2 2.1-1 3.6-3.3 4-.8.1-2 .1-2.1 1.5.2.2.4.6.6.6l21.1.3c.9 0 1.8-.2 3.3-.4-1.3-2.1-2.9-1.9-4.2-2.2-2.5-.6-3.2-1.3-3.5-3.8-.1-1.1-.1-2.2-.2-3.3-.1-3.4-.3-6.7-.3-10.1-.1-10.5-.1-21.1-.1-31.6 0-1.3-.1-2.6 1.4-3.9 4.1-.4 8.5-.1 12.9.7 2.1.4 3.8 1.5 4.5 3.8.2.7.3 1.6 1.6 1.7.2-.3.6-.6.7-1 .2-2.9.4-5.7.4-8.6 0-2.1-.9-2.7-2.9-2.6zm-689.8 31.6c-1.6-1.5-3.1-3.2-4.8-4.7-2.8-2.4-5.8-4.6-8.5-7-1.6-1.5-3.2-3.2-4.2-5.1-2.1-4-.2-8.7 4-10.2 5.9-2.1 11.7 0 13.9 5.7.4 1.1.4 2.6 1.7 3.2.4-.2.8-.2.9-.4 1.1-3.7.6-7.6.6-11.5-7.2-3.4-17.5-3-23.6.6-.4.2-.8.5-1.2.8-3.7 2.7-5.7 6.4-5.8 11-.1 4.3 1.1 8.2 3.6 11.7 2.1 2.9 4.6 5.3 7.4 7.5 2.5 2 5 4 7.4 6.1 2.3 2.1 3.9 4.6 4.4 7.8.5 3.3-.5 6.1-3 8.1-5.5 4.3-16.2 2.7-18-6-.2-1.1-.5-2.2-.8-3.2-.2-.5-.7-.9-1.3-1.7-.5 1.1-1 1.8-1.1 2.5-.2 3.4-.2 6.7-.3 10.1-.1 2.1 1.1 3.2 2.9 3.9 3.5 1.3 7.2 1.7 10.8 1.6 3.1-.1 6.4-.2 9.4-1.6 7.1-3.2 11.3-9.4 10.9-16.6-.3-4.8-1.7-9.2-5.3-12.6zm459.5-31.3h-18.2c-.6 0-1.3 0-1.9.2-.3.1-.6.6-1.1 1.3 1 .3 1.7.5 2.4.7 3.8 1 4.5 1.8 4.7 5.5v1.4c0 15.8.1 31.6 0 47.4 0 2.9-.4 5.7-.8 8.6-.8 5.3-3.2 9.6-7.6 12.8-.8.6-1.5 1.2-2.1 1.9-.2.2-.2.7-.1.9.3.3.8.7 1.1.6 3.8-1.3 7.1-3.6 10.2-6.2 5.3-4.4 9-9.9 9.8-17 .4-3.6.6-7.3.6-11 .1-12.3 0-24.6 0-36.9 0-1.4 0-2.9.2-4.3.2-1.7 1.1-3 2.8-3.5.9-.3 1.7-.6 2.6-.9 0-.3-.1-.7-.1-1-.8-.2-1.6-.5-2.5-.5zm827.8 58c-1.2-.3-1.9-1.1-2.1-2.3-.1-.6-.1-1.3-.2-1.9-.5-12.1-.7-24.3-.2-36.5.2-4.5.2-4.5 4.4-6.8.1-.1.2-.3.3-.5-.3-.3-.6-.8-1-.8H1871c-.3 0-.6.6-1 1.1.8.4 1.3.8 1.9.9 2.5.5 3.5 2 3.4 4.4v1.9c0 11.4 0 22.7-.1 34.1v2.4c0 2.3-.8 4-3.3 4.5-.7.1-1.6.3-1.6 1.6.3.2.7.5 1.1.5 2.6.3 19.1 0 21.5-1.2-.4-.2-.8-.5-1.2-.6-1-.3-2.1-.5-3.2-.8zm-7.7-227.2c-.8 1-1.9 1.7-2.8 2.6-.9 1-.6 2.3.7 2.6 3.7.6 7.3.6 10.6-1.7 6.3-4.4 10.9-10.2 15.1-16.6.6-.9.9-2.1 1.1-3.1.3-1.5-.6-2.6-2-2.7-3-.2-6.1-.2-9.1-.2-1.6 0-3 .8-4.3 1.9-2.6 2.2-5.7 3.7-8.9 4.6-4.3 1.3-8.6 2.4-13 3.5-4.7 1.2-9.4 1.6-14.3.9-.7-.1-1.5 0-2.6 0 1.2 3.1 3.5 4.6 5.7 6.1 2.4 1.8 5.1 2.5 8.1 1.9 5.8-1.1 11.6-2.3 16.9-5.1.6-.3 1.4-.5 2.4-.8 0 .8.2 1.4 0 1.7-1.2 1.5-2.4 3-3.6 4.4zm-217.2 222.7V463c0-11.5-.1-23-.1-34.5v-1.9c.1-2.3.8-4 3.4-4.5.7-.1 1.6-.3 1.4-1.7-.8-.1-1.7-.4-2.6-.4l-17.2.3c-.2 0-.3.5-.6.8.3.3.6.8 1 .9 3.4.6 4.2 3 4.1 6 0 3.4.1 6.7 0 10.1l-.3 24.9c0 1.9.1 3.9-1.1 5.6-1.1.5-2.3 1-3.4 1.5-.2.1-.2.5-.4 1.1 1.1.7 2.3.6 3.5.6h13.4c1.3 0 2.6 0 3.8-.1.5-.1 1-.5 1.9-1.1-1.4-.5-2.3-.9-3.2-1.2-3.1-1.1-3.4-1.4-3.6-5zm-662.7 4.1c-1.7-1.6-1.4-3.8-1.4-5.8 0-11.4-.1-22.7-.1-34.1 0-1 0-1.9.1-2.9.2-1.7 1-3 2.8-3.5.8-.2 1.5-.8 2.8-1.5-1.3-.4-1.9-.7-2.4-.7-6.1 0-12.1.1-18.2.2-.2 0-.4.4-.8.9.7.4 1.3.9 2.1 1.1 2.1.4 2.8 1.9 3.1 3.8.1.6.1 1.3.1 1.9-.1 11.8-.1 23.7-.2 35.5 0 1.7 0 3.5-1.1 5.1-1.1.5-2.3 1-3.4 1.5-.2.1-.2.5-.3 1 .4.2.8.5 1.1.6h20.1c.4 0 .8-.4 1.4-.7-1.6-2.1-4-1.4-5.7-2.4zm813.3-312.9c.7 3.3 1.4 6.6 2.5 9.7.8 2.2 2.1 4.3 3.6 6.1 2.1 2.4 4.8 2.4 7.2.3 2.6-2.5 4.5-5.4 4.4-9.2-.1-5.1-1.3-9.8-4.6-13.8-4.5-5.2-8.9-10.4-13.4-15.6l-2.7-3.3c-.3.2-.7.3-1 .5-.3 1.7 0 3.4.3 5.1 1.2 6.7 2.4 13.5 3.7 20.2zm-446 57.7c1.1 3.5 2.6 6.9 2.3 10.9 3.8 1.8 7.5 2.2 11.1 2.2 2.5 0 4.5-2 4.7-4.5.1-1.6 0-3.2-.5-4.7-.8-2.2-1.8-4.4-3.1-6.4-3.7-5.7-8.5-10.3-14.4-13.7-1.1-.6-2.2-1.3-3.7-.3-.4 1.9-.1 4 .4 6 1 3.5 2.1 7 3.2 10.5zm13.2 52.6c4.6 1.7 8.5-1.4 7.8-6.2-.9-6.4-4.7-10.5-10.6-13.1.9 3.7 1.6 7.3 1.6 10.9 0 1.9-.2 3.8-.3 5.7-.1 1.4.4 2.3 1.5 2.7zM262.2 9.5C122.5 9.7 9.9 123.7 9.9 261.9c0 136.9 110.6 251.7 252.3 252.5 138.4-.4 252.2-112 252.4-252.2.1-141.6-115.8-252.8-252.4-252.7zM513 261.2c.4 141.1-114.3 251.1-250.5 251.4-138.9-.3-250.7-112.6-251.1-250C11 125.1 123.4 11.5 262 11.2c133.8-.3 250.6 108.1 251 250z"/><path d="M257.7 81.6l-1.2 9c-.7 5.4-1.4 6-6.6 5.9-2.3-.1-2.7-.3-3.4-2.6-1-3.4-1.8-6.8-2.8-10.2-.3-.9-.9-1.6-1.3-2.4-2.7.2-5.2.5-7.6 1.3-1.3 5.2.3 10.4-1.1 15.3-1.9 1.4-4 1.5-6.1 1.7-1.3.1-2.2-.5-2.7-1.6-1.1-2.5-2.1-5-3.2-7.5-.7-1.6-1-3.4-2.5-4.5-3.8.1-4.5.3-7.9 2.2.2 2.4.4 4.9.7 7.4.3 2.7 1.3 5.3.1 8-2.2 1-4.3 2.1-7 2.1-.8-1-1.6-1.9-2.2-3-1.5-2.5-2.9-5-4.4-7.4-.6-.9-1.3-1.7-2-2.6-2.7 1.1-5.4 1.5-7.6 3.6.5 1.8 1 3.7 1.4 5.5.6 2.5 1.3 4.9 1.9 7.4.2 1 .2 2-.7 2.6-5.3 3.3-6.4 4.1-9.7-1-.9-1.5-2-2.9-3.1-4.3-1-1.2-2-2.4-3.1-3.7-1.2.5-2.1.7-2.9 1.2-1.5.9-3.2 1.4-4.5 3.1.9 5 4.3 9.1 5.1 14-1 2.1-2.8 2.8-4.4 3.9-1.4.9-2.8.7-3.9-.4-2.3-2.2-4.5-4.5-6.8-6.8-.9-.9-1.9-1.6-2.8-2.2-4 2-4.1 2.1-6.7 5.3.9 1.7 1.9 3.5 2.9 5.3 1.1 2 2.3 3.8 3.3 5.8.9 1.8.7 3-.7 4.3-3.8 3.5-4.1 4-8.4.6-1.5-1.2-3-2.4-4.6-3.5-1.3-.9-2.6-1.9-3.9-2.8-2.7 1.6-4.6 3.6-6.3 6.2 2.4 3.2 4.7 6.2 7 9.3 2.3 3.1 2.2 3.6-.4 6.6-2.5 2.8-3 2.9-6.1 1.2-2.1-1.1-4.2-2.4-6.3-3.6-1.4-.8-2.8-1.5-4.3-2.2-2.3 2.1-4.2 4.1-5.1 6.9 3.2 4.2 7.7 7 10.2 11.2-.4 2.4-1.8 3.8-2.9 5.3-.9 1.2-2.1 1.4-3.4.9-2.8-1.1-5.6-2.3-8.4-3.4-1.3-.5-2.6-1-4-1.5-1.9 2.4-3.5 4.7-4.1 7.8l4.2 3.3c1.9 1.5 3.9 2.9 5.7 4.4.7.6 1.5 1.6 1.5 2.3-.2 2.4-1.3 4.6-3.2 6.2-.5.4-1.5.4-2.3.2-2.6-.6-5.2-1.5-7.9-2.1-1.7-.4-3.3-1.3-5.3-.8-1.4 2.3-2.4 4.7-3 7.2 1.1 1.8 2.9 2.3 4.4 3.2 2.3 1.4 4.7 2.7 7 4.1 1.2.7 1.8 1.8 1.3 3.3-1.8 5.7-1.6 6.4-7.9 5.4-2-.3-4.1-.5-6.2-.8-1.2-.1-2.5-.8-3.7.1-1.8 4.1-1.8 4.1-1.8 8 4.1 2.5 9 3.7 13.5 6.2.1 2-.1 3.9-.6 5.7-.4 1.6-1.5 2.4-3.1 2.4-3.2 0-6.4 0-9.6.1-1.2 0-2.4.3-3.7.5-.6 2.8-1.3 5.2-1 7.9 4.6 2.7 10.3 2.2 14.9 5.3 0 1.8.1 3.6 0 5.3-.1 1.6-1.1 2.6-2.7 2.9-2.1.3-4.1.6-6.2.9-2.3.3-4.7.5-7.1 1.5-.1 1.6-.2 3-.2 4.4 0 1.1.2 2.2.3 3.4 1.2.3 2.2.7 3.3.9 2.1.3 4.1.6 6.2.8 6.1.7 6.8.9 6.4 7.9 0 .3-.2.6-.3 1-.3.3-.6.7-1 .8-1.2.5-2.4.9-3.6 1.2-2.8.8-5.6 1.5-8.3 2.3-1 .3-1.9 1-1.7 2 .4 2.3.1 4.8 1.7 7.1 1.6 0 3.1.1 4.7.1h7.2c2.9.1 3.6.8 4.2 3.6.2.9.2 1.9.4 2.9.2 1.5-.5 2.5-1.8 3-2.9 1.3-5.9 2.5-8.8 3.8-1.1.5-2.2 1.2-3.2 1.8.2 2.9.9 5.3 2.2 7.9 1.4-.1 2.8-.1 4.2-.3 2.7-.3 5.4-.8 8.1-1 1.1-.1 2.2.1 3.4.3.6 1.6 1.2 3.1 1.7 4.6.7 2.3.5 3-1.6 4.4-2.7 1.7-5.5 3.2-8.3 4.9-.9.6-1.7 1.3-2.7 2 .9 2.6 1.4 5 3.1 7 .8 0 1.4.1 2 0 3-.7 5.9-1.4 8.9-2.1 4.4-1.1 5.1-.8 7 3.4.1.3.3.6.4.9.5 1.2.4 2.2-.5 3.1-1.2 1.1-2.5 2-3.7 3.1-2.3 1.9-5 3.4-7 5.8.9 3 2.2 5.4 4.6 7.4 3.5-1.4 6.9-2.9 10.3-4.2 3.8-1.5 4.4-1.3 6.7 2.1 1.9 2.9 1.9 3.5-.6 6.2-2 2.1-4.1 4.1-6.1 6.1-.8.8-1.4 1.7-2.1 2.6 1.4 2.6 2.8 4.8 5.2 6.4 1.1-.5 2.1-.9 3.1-1.4 2.4-1.3 4.7-2.7 7.1-4 3.6-2 3.9-1.9 6.5 1 .2.2.4.5.6.7 1.8 2.2 1.9 2.9.3 5.1-1.9 2.6-3.9 5.1-5.8 7.6-.6.9-1.1 1.9-1.7 2.9 1 1.1 1.8 2.1 2.7 3 1 1 2.1 1.9 3 2.7.7-.2 1-.3 1.2-.5 2.6-1.9 5.1-3.8 7.7-5.8 4-3 4.6-3 8.1.3 1.9 1.8 2.1 2.6.8 5-1.5 2.8-3.2 5.6-4.7 8.4-.5.9-.8 2-1.3 3.1 2.3 1.8 4 4 7.1 4.6 2.5-2.4 5-4.8 7.4-7.3 3.6-3.7 4.3-3.2 8.1-.5.3.2.5.4.8.6 1.1.9 1.4 2.1.9 3.4-1 2.5-2.1 5-3.1 7.5-.6 1.6-1.7 3.1-1.4 5.2 1.9 1.8 4.3 3 7 4.2 1.1-1.3 2.1-2.5 3.1-3.7l4.8-6.6c1.3-1.7 2.3-1.8 4.2-1 4.8 2 5.2 2.8 3.8 8-.8 3.2-1.7 6.4-2.7 9.9 2.7 1.4 5.1 2.9 8.4 3 1.6-2.6 3.1-5.2 4.7-7.8 3.5-5.8 4.3-6 10.8-2.2.6 4.9-1.5 9.9-1.2 15.1 2.5 1.3 5.2 2.1 8.3 2 .8-1.7 1.5-3.3 2.2-4.9 1-2.2 1.8-4.4 2.8-6.6 1-2.1 1.6-2.5 3.7-2.2 1.7.2 3.4.8 4.8 1.1 1.2 1.8 1.1 3.4 1.1 5 0 2.6 0 5.1.1 7.7 0 1.1.4 2.1.5 3.1 5.1 1.3 5.1 1.3 8.4.6.5-1.8 1-3.8 1.6-5.8.6-2.2 1.1-4.3 1.9-6.4.3-.8 1.1-1.9 1.8-2 1.9-.2 3.8 0 5.7.3.6.1 1.4 1 1.5 1.6.5 1.8.8 3.8 1 5.7.3 2.7.8 5.3 1.3 8.1 3.1.3 5.9.7 8.8-.4.6-3.9 1.3-7.7 1.7-11.5.3-3 1.4-3.9 4.3-4h2.4c1.5 0 2.4.8 2.8 2.1.7 2.1 1.1 4.3 1.8 6.4.7 2.1.7 4.4 2.3 6.4 2.6.4 5-.3 7.9-1.1.1-1.9.2-3.5.2-5.1v-6.7c.1-3.5.6-4 4.1-4.8.5-.1.9-.2 1.4-.2 2.4-.3 3.2 0 4.2 2.2 1.3 2.9 2.4 5.9 3.7 8.8.4 1 1.1 1.9 1.6 2.8 2.8-.3 5.3-.8 7.8-2.2 0-.9.1-1.8 0-2.7-.3-2.7-.7-5.4-1.1-8.1-.5-4.5-.1-5.2 4.3-6.5.3-.1.6-.2.9-.2 1.6-.5 2.8 0 3.7 1.4l5.1 8.7c.6.9 1.3 1.7 2 2.5 2.8-.8 5.4-1.5 7.6-3.5-.3-1.5-.6-2.9-1-4.3-.6-2.3-1.3-4.6-1.9-6.9-.9-3.5-.6-4 2.7-5.6.4-.2.8-.4 1.3-.6 2.3-1 3-1 4.6 1 2.1 2.6 4.1 5.3 6.2 7.9.7.8 1.6 1.5 2.3 2.2 2.5-1.3 4.9-2.2 6.8-4.4-.4-1.2-.7-2.4-1.1-3.6-.9-2.4-2-4.7-2.9-7.1-1.4-3.7-1.2-4.2 1.9-6.4.4-.3.8-.5 1.2-.8 1.9-1.1 2.8-1.1 4.3.4 2.3 2.2 4.5 4.5 6.9 6.7.9.8 1.9 1.5 2.9 2.3 2.6-1.5 4.9-2.9 6.3-5-.2-.6-.2-1-.3-1.3-1.6-2.8-3.1-5.6-4.7-8.4-2.5-4.4-2.4-4.9 1.5-7.9.1-.1.2-.2.4-.3 1.7-1.3 2.6-1.4 4.3-.1 2.7 1.9 5.3 4.1 8 6.1.9.6 1.9 1.1 2.7 1.5 3.9-3.1 4-3.1 5.6-6.2-2.4-4.4-6.5-7.7-8.7-12.7 1.3-1.5 2.5-3 3.7-4.4 1-1.1 2.2-1.2 3.5-.5 1.9 1.1 3.8 2.3 5.8 3.4 1.9 1 3.6 2.6 6.1 2.8 2-1.8 3.6-3.9 4.9-6.5-2.7-2.7-5.3-5.3-7.8-7.9-3.1-3.2-3.2-3.8-.7-7.3 1.9-2.7 2.6-3 5.6-1.8 2.8 1.1 5.6 2.3 8.4 3.5 1 .4 2.1.6 3.3.9 1.5-2.5 3.1-4.6 3.8-7.5l-4.2-3.3c-2-1.6-4.1-3.1-6-4.7-.7-.6-1.4-1.6-1.3-2.4.2-2.3 1.3-4.3 3.1-5.7.5-.4 1.6-.4 2.3-.3 1.6.3 3.1.8 4.7 1.1 2.8.5 5.5 1.6 8.5 1.5 1.3-2.4 2.8-4.6 2.6-7.8-3-1.8-6.1-3.5-9.1-5.3-3.9-2.3-4-2.8-2.6-6.9 1.1-3.2 1.7-3.6 4.9-3.2 3 .3 6 .8 9 1.2 1.1.1 2.2 0 3.2 0 1.2-2.8 2.1-5.3 1.9-8.3-3.2-1.3-6.2-2.7-9.3-3.9-5.7-2.3-4.8-2.9-3.8-7.9.3-1.6 1.4-2.5 3-2.6 2.9-.1 5.8 0 8.6-.1 1.6 0 3.2.3 4.9-.9.7-2.4 1.2-5 .5-7.5-.5-.3-.7-.6-1-.7-2.9-.8-5.8-1.6-8.8-2.5-4.9-1.4-5.3-2-4.6-7.1.3-2.2.8-2.9 2.9-3.2 3.1-.6 6.3-.9 9.5-1.4 1.2-.2 2.6-.1 3.8-1.7 0-1.3.1-3.1.1-4.8 0-.8-.3-1.5-.4-2.3-.7-.2-1.3-.5-1.9-.6-2.8-.4-5.7-.8-8.5-1.2-5.2-.8-5.2-.9-5.5-6.5-.1-2.2.4-2.9 2.4-3.6 2.6-.8 5.3-1.4 7.9-2.2 1.5-.4 3.2-.5 4.4-2 .3-2.6.3-5.2-1-7.6-.4-.2-.7-.4-1-.4-3-.1-6.1-.2-9.1-.1-6.1.1-5.6-.6-6.7-5.8-.4-1.8.1-2.6 1.8-3.4l9.3-3.9c1-.4 1.9-1.1 2.9-1.7-.8-2.9-.6-5.9-2.8-8.1-1.7.2-3.3.4-4.8.7-1.7.2-3.5.5-5.2.7-4.8.7-5.5.3-6.9-4.3-.8-2.8-.6-3.5 2-5.1 2.7-1.7 5.6-3.2 8.3-4.8.8-.5 1.4-1.2 2.2-1.8-.8-2.8-1.6-5.3-3.5-7.8-3.5 1-7.1 1.9-10.6 2.9-4.4 1.1-4.8.9-6.7-3-.1-.3-.3-.6-.4-.9-.8-2-.7-2.9.9-4.2 2.6-2.1 5.3-4.1 8-6.2.8-.7 1.5-1.5 2.3-2.3-1.2-2.7-2.4-5.1-4.5-7.3l-10.2 4.2c-4.2 1.7-4.7 1.5-7-2.1-1.9-2.9-1.9-3.4.4-5.8 2-2.1 4.1-4.1 6.1-6.1.9-.9 1.6-1.9 2.6-3-1.2-1.6-2.2-2.9-3.2-4.3-.6-.8-1.1-1.5-1.6-2.2-3.9 1.3-6.7 3.5-9.7 5.2-4.3 2.6-4.8 2.2-8-1.5-.2-.2-.4-.5-.6-.8-.9-1.2-.9-2.4-.1-3.5 1.4-2 2.9-3.8 4.3-5.8 1.2-1.7 2.7-3.1 3.4-5-2.4-3.6-3.1-4.4-6.2-5.8-4.5 2.3-7.7 6.6-12.8 8.6-1.4-1.1-2.8-2.2-4.1-3.3-1.4-1.3-1.6-2.2-.7-3.8 1.1-2.1 2.4-4.2 3.5-6.3 1-1.8 2.3-3.4 2.8-5.6-1.9-2.1-3.8-3.8-6.5-4.9-.9.7-1.9 1.4-2.6 2.1-2 1.9-3.8 3.9-5.8 5.7-2.9 2.8-3.6 2.8-7 .4-.3-.2-.5-.4-.8-.6-1.9-1.5-2.2-2.2-1.3-4.5 1.2-3.1 2.6-6.2 3.9-9.3.3-.8.4-1.8.6-2.8-2.5-1.4-4.5-3.3-7.5-3.6-2.3 2.5-4.2 5.2-6.2 7.9-3.6 4.7-3.8 4.2-9.1 1.4-1.3-.7-1.7-1.9-1.4-3.3.7-2.8 1.5-5.6 2.2-8.4.4-1.5 1.2-3 .6-5-.9-.5-2-1.1-3.2-1.6-1.3-.5-2.7-.9-4.1-1.4-3.7 4-4.9 9.5-8.8 13.2-2.8-.5-5.2-1.1-7.3-2.7-.7-5.3 1.7-10.2 1-15.4-2.5-1.2-5-2.2-7.9-1.8-2.8 4.2-3.5 9.3-6.5 13.4-2.8.3-5.4.1-7.9-1.6-1.3-5 .2-10.2-1-15.3-2.6-.5-5-1.3-7.7-1-2.6 4.7-2.3 10.4-5.3 15-1.7 0-3.3.1-4.9 0-2.2-.2-2.8-.7-3.2-2.8-.4-2-.7-4.1-.9-6.2-.3-2.4-.6-4.7-1.6-7.2-2.8 0-5.4-.5-7.9.2 0 .3-.2.6-.3.9zm4.9 30.9c8.1.1 16.3.9 24.3 2.1 10.3 1.5 20.3 4.3 30 8.2 11.2 4.4 21.7 10.2 31.6 17.1 10.5 7.4 20 16 28.2 25.9 8.3 10 15.6 20.6 20.8 32.6 3.7 8.4 6.9 16.8 9.4 25.6 3.4 12.4 4.8 25.1 5 37.3-.1 22.5-4.7 43.4-13.7 63.4-5.2 11.5-11.9 21.9-19.8 31.6-7.1 8.9-15.3 16.7-24.3 23.7-9.9 7.7-20.6 14.1-32.1 19.1-10.9 4.8-22.2 8.2-33.9 10.3-12.7 2.3-25.4 2.8-38.2 1.7-12.3-1-24.4-3.5-36.1-7.6-11.8-4.1-23.1-9.4-33.5-16.5-10.1-6.8-19.4-14.6-27.7-23.5-8.6-9.2-15.8-19.3-21.9-30.2-5.5-9.8-9.6-20.2-12.6-31-2.1-7.4-3.7-14.9-4.5-22.5-.7-6.8-1.2-13.7-1-20.6.3-13.8 2.3-27.4 6.4-40.6 3.4-10.9 7.9-21.3 13.6-31.1 6.3-10.9 13.8-20.8 22.5-29.8s18.5-16.7 29.1-23.4c14.1-8.8 29.3-15 45.6-18.4 6.5-1.4 13.2-2.5 19.9-2.8 4.3-.1 8.6-.7 12.9-.6zm43.5-38.3c.7.3 1.5.5 2.3.6 2.9.4 5.7.7 8.6 1.1 6.2.8 12.3 2 18 4.6 6.3 2.9 12.3 6.1 16.8 11.6 1.6 2 3.7 3.4 5.7 5 .5.4 1.3.4 2.2.6.7-3.8-2.3-6.2-2.9-9.8 2.2-2 3.6-4.9 4.3-8 .9-4.2 1.9-8.4 2.7-12.7.7-3.8 0-5.1-3.4-7-1-.6-2.1-.9-3-1.6-.4-.3-.7-1.2-.5-1.6.2-.4 1-.8 1.5-.9.8 0 1.6.2 2.3.5 1.2.4 2.3 1.1 3.5 1.5 2.8 1 4.1.5 5.4-2.1.2-.4.4-.9.6-1.3 1.6-3.6 1.4-4.6-2.2-6.5-3.4-1.8-6.8-3.6-10.4-5-3.6-1.4-7.3-2.3-11-3.4-2.5-.7-4.3.4-5.6 2.6-1.8 3-1.8 6.8 3 7.5 1.2.2 2.5.7 3.6 1.1.7.3 1.5.9 1 1.8-.2.5-1 .9-1.5.9-.9.1-1.9-.2-2.9-.2-3.7-.3-7 .6-9.5 3.5-1.3 1.4-2.6 2.8-4.1 4.1-2.4 2.1-3.9 2.2-6.4.4-.8-.5-1.3-1.3-2.4-2.5.8-.6 1.2-1 1.6-1.1 2.8-.8 4-3 4.7-5.6.4-1.5.9-3.1 1.2-4.7.4-2.2 1.6-3.8 3.5-4.9 1.1-.6 2.2-1.3 3.2-2.1 1.4-1.1 1.9-2.7 1.3-4.3-1.1-2.6-3.1-4.4-5.9-5.2-1.2-.3-2.4.6-2.2 1.8.1 1.1.5 2.2.7 3.3.3 1.7-.4 2.9-2.1 3.2-1.1.2-2.2.3-3.3.1-2-.3-4.1-.9-6.1-1.4-1.9-.4-3.7-1-5.6-1.3-1.3-.2-2.3.4-2.6 1.6-.4 1.4.2 2.7 1.5 3.1 1.2.4 2.5.4 3.8.7 2 .5 4 1.1 5.9 1.8.5.2.8 1.1 1.5 2-1.7.3-2.9.7-4.2.7-2.1 0-4.1-.4-6.2-.4-1.1 0-2.2.2-3.3.4-.4.1-.8.7-.8 1 .1.6.4 1.3.8 1.5.7.4 1.5.6 2.3.6 2.6 0 5.1 0 7.7-.1 1 0 1.9-.1 2.9 0 .4 0 .9.5 1 .8.1.4.1 1.1-.1 1.3-.9.8-1.9 1.8-3 2.2-2.4.8-4.9 1.4-7.4 1.8-3 .5-3.9 1.1-4.5 4-.6 2.8-1.4 5.6-2.6 8.2-.5 1.1-.7 2.4-.9 3.7 0 1.2.5 2.1 1.5 2.5zm51.5-2.3c.2.3.1 1.1-.1 1.3-.4.4-1.1.8-1.6.7-2.3-.5-4.1-1.7-5-4-.4-.8.2-1.8 1.7-1.7 1.8.3 3.8 1.4 5 3.7zM352 61.3c.2-.3.8-.6 1.2-.6 1.2 0 2 .8 2.6 1.7.6.9.6 1.7-.1 2.5-1.9.2-2.8-1-3.7-2.4-.2-.2-.2-.9 0-1.2zm-3.5-13c-.7-.1-1.5-.7-1.8-1.4-.4-.6-.5-1.6-.3-2.2.3-.8 1.2-1 2-.7 4.3 1.6 8.7 3.1 12.9 4.9.9.4 1.6 1.4 2.4 2.3.3.3.2.9.4 1.6-.6.4-1.1 1.1-1.8 1.2-.7.1-1.7 0-2.2-.4-3.5-2.9-7.3-4.7-11.6-5.3zm-.7 26.3c2.1.3 4 1.2 5.4 2.9.5.6.9 1.4 1.1 2.1.6 2.4-1.2 4.4-3.6 4.4-2.5-.1-4.7-.9-6.4-2.8-1.1-1.3-1.6-2.8-.8-4.4.5-1.5 2.5-2.5 4.3-2.2zM342.7 58c.7-.2 1.5-.4 2.2-.3.8.2 1.3.8 1 2-.5.1-1.1.3-1.7.3-.8 0-1.6-.3-1.8-1.2-.1-.2.1-.7.3-.8zm-5.7 5.6c.3-.6 1.1-.9 1.3-1.2 2.1-.1 3.5.6 4.7 1.7.7.6.8 2 .1 2.6-.5.5-1.5.9-2.1.7-1.3-.5-2.5-1.3-3.6-2.2-.4-.2-.6-1.2-.4-1.6zm-5.2 6.9c1.2-.6 2.6-1 3.4-1.3 1 .1 1.3.1 1.6.1 1.8.4 3.2 1.3 3.8 3.2.4 1.2 0 2.3-.8 3.1-1.5 1.4-3.4 2.2-5.2 1.2-1.4-.7-2.5-1.9-3.5-3.1-1-1-.6-2.6.7-3.2zm-8.3-4.2c1.7 0 3.1 1.4 3 3-.1 1.6-1.4 2.9-3 3-1.7.1-3.2-1.2-3.3-2.7-.1-1.7 1.6-3.3 3.3-3.3zm-10.1-5.1c.4-.4 1.1-.6 1.3-.7 1.8-.1 3.3 1.2 3.1 2.7-.4 3.3-2 6-5 7.6-.9.5-2-.2-2.1-1.2-.3-3.3.6-6.1 2.7-8.4zM421.6 147c3.2 1.4 6.5 2.6 9.8 3.9 2.6 1.1 5.3 2.3 7.8 3.6 2.9 1.4 4.5 3.7 5.2 7 1 5.4.9 10.8-.3 16.2-.6 2.6-1.5 5.2-2.1 7.9-.4 1.4-.7 2.8-.9 4.2-.2 1.2.5 2.2 1.6 2.7 1.1.6 2.7.3 3.4-.9.8-1.3 1.7-2.8 2-4.3.6-2.6 1-5.3 1.3-8 .4-3.8.5-7.7.9-11.5.2-1.5.7-3.1 1.2-4.6.3-.9 1.7-1 2.5-.5 1.7 1.1 2.7 2.8 3.1 4.7.5 2.3.7 4.7 1 7.1.2 1.3.3 2.6.7 3.7.3 1 1.4 1.5 2.4 1.2.7-.2 1.5-.8 1.7-1.4.3-1.5.5-3.1.4-4.7-.1-1.9-.4-3.8-.7-6 .1-1.1.2-2.6.6-4 .2-.9.8-1.8 1.9-1.9 1.1 0 1.7.9 1.9 1.8.4 2.4.7 4.7.9 7.1.3 2.5.5 5.1.9 7.6.1.9.6 1.8 1.1 2.6.6.9 2 1.1 3.1.6 1-.4 1.3-1.3 1.3-2.3-.1-.8-.4-1.6-.5-2.3-1.2-7.9-2.4-15.8-3.4-23.7-.4-3.3-.5-6.6 2.6-9.2 1.5-1.3.1-4.1-1.9-4.2-.9-.1-2-.1-2.8.2-2.5.9-4.7.1-6.8-1.2-3.2-2.1-6.5-4.1-9.6-6.3-2.9-2-5.7-4.2-8.5-6.2-.8-.6-1.6-1.2-2.4-1.5-.5-.2-1.3 0-1.7.3-.7.5-.8 1.4-.3 2.1.6.9 1.3 1.8 2.1 2.6 1 1 2.2 1.8 3.4 2.7 1.3 1 2.6 1.8 3.9 2.8.9.7 1.7 1.5 2.3 2.4.6.8.9 1.9 0 2.6-.5.4-1.6.6-2.2.3-1.5-.6-2.9-1.4-4.2-2.3-1.5-1-2.8-2.1-4.2-3.2-.8-.6-1.5-1.2-2.4-1.6-1.2-.5-2.5-.8-3.7.1-.7.5-.6 1.9.7 3.4 1.1 1.3 2.5 2.4 3.9 3.4.9.6 2 1 3 1.4 3.7 1.4 3.7 4.9 2.5 7.6-.6 1.3-1.8 2-3.1 1.4-1.8-.7-3.5-1.6-5.1-2.7-4.3-2.7-8.8-5.2-13.8-6.6-1.6-.5-3.4-.5-5.2-.6-.8 0-1.6.5-1.6 1.4 0 .6.2 1.4.6 1.7 1.8 1.3 3.7 2.5 5.7 3.4zm27.5 1.9c.3-1.2 1-2 2.1-2.4 1.5-.5 3-.9 3.8-2.5.6-1.2 1.8-1.1 3.3-1.1 2.3.5 4.7 1.6 6.4 3.9 1.7 2.3 1.8 4.7.1 7.1-1.8 2.6-4.4 4.1-7.1 5.5-.9.4-2.2.3-3.2 0-3.9-1.4-6.5-6.4-5.4-10.5zM158.2 62.3c.9-.2 1.8-.7 2.6-1.1 1.3-.7 2.4-1.5 3.7-2.3 3.6-2.1 7.2-4.1 10.8-6.2 1.6-.9 3.3-1.2 5.1-1 1.2.2 2 1.5 1.4 2.5-.8 1.2-1.7 2.3-2.7 3.3-3.9 4.2-7.9 8.4-11.7 12.7-3.5 4-5.6 8.9-7.2 14-.5 1.8-.5 3.8-.4 5.7.1 1.9 1.7 3.6 3.2 3.6 1.7 0 2.6-1.2 3.1-2.6.7-2.3 1.5-4.6 1.9-6.9 1.5-8.7 5.8-15.8 12.4-21.6 3.7-3.3 7.9-5.5 12.7-6.3 7.3-1.1 14 .2 19.7 5.2 2.4 2.1 4.9 4.2 7.3 6.2 1.2 1 2.6 1.8 4.3 1.8 1.8 0 3.1-1.5 2.5-3.1-.3-.9-.7-1.8-1.2-2.6-1.7-2.5-3.8-4.8-6.3-6.5-4.9-3.3-10.2-5.4-16-5.8-3.8-.3-7.7-.1-11.5-.1v.2h-1.4c-1.5 0-2.6-.6-2.7-1.5-.1-1.3.9-2 1.9-2.5.3-.2.6-.3.9-.4 2.9-.9 5.7-2.1 8.7-2.7 2.8-.6 5.7-.7 8.5-1 1.6-.1 3.2-.4 4.3-1.7.7-.7 1.1-1.7.5-2.6-.4-.6-1.3-1.1-1.9-1.1-2.1.1-4.1.3-6.1.7-5.5 1.1-10.9 2.5-16.4 3.5-3.5.7-4.8-.3-6-3.7-.8-2.3-1.9-2.9-4.3-2.3-1 .2-1.7 1.2-1.4 2.2.4 1.4 1 2.7 1.4 4.1.9 3 .1 4.9-2.7 6.3-1.6.8-3.3 1.3-4.9 1.9-3.2 1.1-6.4 2.1-9.5 3.3-2.1.8-4.1 1.8-5.6 3.6-1.2 1.5-1.4 3.3-.5 4.4.9 1 2.3.8 3.5.4zM59 153.7c1 .1 2.1.1 3.2.2 3.3.5 4.8 2.4 4.2 5.7-.3 2-1 4-1.6 6-.7 2.3-1.4 4.6-2 6.9-.6 2.3-.3 4.4.8 6.5.8 1.6 1.6 3.1 2.4 4.7 1 1.8 2.5 3.3 4.4 4.3 1.2.7 2.5 1.7 4 .9.9-.5.7-2.2-.5-4.4-1.1-1.9-2.4-3.7-3.6-5.7-1.4-2.4-2.3-4.9-1.8-7.8 1.1-6.5 2.7-12.8 5.4-18.8 1.2-2.6 2.5-5.2 4.6-7.2 2.7-2.5 5.4-5 8.2-7.3 3-2.4 6.4-3.5 10.3-2.9 1.2.2 2.6.2 3.8 0 1.7-.2 2.5-1.5 2.1-3.1-.4-1.9-1.3-2.9-3.3-2.7-3.2.4-6.3 1.1-9.4 1.6-4 .6-7 2.9-9.5 5.9-1.3 1.6-2.7 3.2-3.8 5-1.4 2.4-3.1 3.6-5.9 2.5-.5-.2-1.3 0-1.9.1-2.5.6-3.9-.5-5-2.7-.3-.7-1-1.2-1.4-1.7-1.6.2-3 .3-4.1.4-1.6-1.2-.7-3.5-2.6-4.1-1.5.2-2.5 1.1-2.4 2.5.3 3.3-.5 6.3-1.5 9.4-.1.2.1.6.2.9 3.9 1.2 3.9 1.2 6.7 4.9zm9.9-5.6c.4-.1 1.3.1 1.6.5.8 1.1.4 2.5-1 3.7-.3.3-.8.3-1.5.6-.4-.5-.9-.9-1-1.4-.3-1.6.5-3 1.9-3.4z"/><path d="M98.4 149.4c.4-1.2.6-2.5.6-3.7 0-2.1-1.5-3.1-4-3.2-1.6 0-2.2.7-2.3 2.9-.1 1.4.1 2.9-.1 4.3-.2 1.6-.6 3.1-1.1 4.6-.4 1-1.3 1.3-2.6.8-.2-.6-.5-1.3-.5-2.1-.1-1.3 0-2.6-.2-3.8-.2-1.7-1-3-2.8-3.5-1.6-.4-2.7.4-3.8 1.4-.2.2-.4.5-.6.7-3.3 4.6-5.5 9.7-6.2 15.3-.3 2.2.2 4.1 2.4 5.2.5.3.9.9 1.5 1.5-.7 1.3-1.4 2.5-1.9 3.8-.6 1.3.3 2.6 1.7 2.8 1.7.3 3.2-.2 4.4-1.4 1.1-1.1 2.1-2.4 3.2-3.5 1.1-1.2 2.3-2.2 4.7-1.5.4 1.3.7 2.5 1.1 3.7.3.7 1.4 1 2 .6.6-.5 1.3-1 1.7-1.6 1.6-2.3 1.7-4.8.5-7.3-1.5-3.1-1.2-6.1.1-9.2.7-2.2 1.5-4.5 2.2-6.8zm-18.6 12.7c-1.5-.6-1.9-1.7-1.7-2.8.4-2.5 1.5-4.8 3-6.9.5-.7 1.3-1 2.1-.5.5.3 1.1 1 1 1.5-.2 3.5-1.2 6.7-4.4 8.7zm4.4 5c-.5.2-1.4.2-1.8-.1-.4-.3-.6-1.1-.5-1.6.2-1.3 1-2.3 2.2-3 .8-.4 2.1.3 2.1 1.5s-.4 2.6-2 3.2zm380.9 100.1c-.1 1.2-.2 2.4-.2 3.5 3.4 1.8 6.5 3.4 9.6 5 .7.4 1.4.9 1 2.2-3.4 2.1-7.8 2.8-11.4 4.6-.2.6-.4.9-.5 1.2-1.4 7.5-2.8 15.1-4.1 22.6-.2 1.1-.4 2.2-.4 3.3 0 .5.5.9 1 1.6 1.8-2.2 1.1-4.7 2.4-7 1.2 0 2.4-.2 3.4 0 5.6 1.1 11.3 2.4 16.9 3.6 1.2.3 2.4.5 3.7.7 1.2-1.9 1.5-3.6 1-5.8-2-.4-3.8-.7-5.7-1-5.2-1-10.4-1.9-15.5-3-2.4-.5-2.8-1.4-2.2-3.8.5-2.1 1.1-4.2 1.7-6.6 3-1.4 6.3-2.7 9.4-4.3 3.3-1.8 6.6-2.1 10.2-1.5 1.7.3 3.4 1.1 5.2.2.7-1.8 1.2-3.5.4-5.6-2.2-.1-4.2-.2-6.3-.2-3 0-5.6-.8-8-2.6-3.3-2.5-6.8-4.7-10.3-7-.3-.2-.7-.1-1.3-.1zm-349 134.6c-1-1.7-2.2-3.3-4.2-4.6-2.5 2.7-4.8 5.7-8.5 7.7-2.4-2.5-5.1-4.3-5.9-7.6 2.3-3 5.8-4.6 8.2-7.5-.7-.9-1.3-1.7-1.9-2.4-.6-.7-1.4-1.2-2.1-1.8-2.3 2.2-4.3 4.2-6.4 6.1-2.3 2-4.6 3.9-6.9 5.9-2.2 1.8-4.6 3.4-6.5 5.6 1 1.9 2.2 3.3 3.9 4.4 3.4-2.3 5.6-5.8 9-7.7 3.6 2.6 4.6 3.8 6.2 7.3-2.3 3.2-6.3 4.7-8.8 8.3 1.4 1.3 2.2 3.1 4.4 4 5.6-6.4 12.5-11.4 18.9-16.8.2-.1.3-.4.6-.9zm-50.8-92c-.6-2.4-.5-4.3-1.7-6.1-3.6.8-7 2.5-10.7 2-1.8-4.2-1.9-4.7-1.7-9.2 3.2-2 7.3-1.1 11-2.8-.4-1.8-.7-3.5-1.1-5.1-8.9 1.6-17.5 3.2-26.5 4.8.3 2 .1 3.9 1.7 5.7 1.7-.3 3.4-.7 5.1-1.1 1.6-.3 3.1-.7 4.7-1 1.1-.2 2 .3 2.3 1.3.7 2.6 1.6 5.2 1 7.8-.4.3-.6.6-.9.7l-3.3.6c-2.5.5-5 .4-7.3 1.5 0 3.4 0 3.4 1.5 5.5 4.2-.9 8.4-1.8 12.6-2.6 4.3-.7 8.6-.9 13.3-2zm158.6 149.5c-3-1.7-6.3-2.2-9.7-2.1-4.5 0-7.5 2.2-9.4 6.2-1.4 3.1-2.2 6.3-2.2 8.7-.1 7.2 2 10 7.8 12 2.5.8 5 1 7.5 1 4.3-.1 7.2-2.3 9-6.1 1.5-3.4 2.3-7 2.3-10.7.1-4-1.7-7.1-5.3-9zm-3 19.3c-1.8 3.5-4.2 4.7-7.3 4-3.4-.8-5.2-3-5.4-6.9v-2.1c.3-3.3 1.2-7.2 3.2-10.7 1.1-1.9 2.7-3.1 5-3.3 3.3-.3 5.6 1.1 6.6 4.3.3 1 .6 2.2.6 3.3-.1 3.9-.8 7.8-2.7 11.4zM461 353.9c-1.7.1-3.3.5-5 .8-.3-1.6-.4-3.1-.9-4.4-1.8-4.6-7.3-5.4-10.4-1.6-1.5 1.9-5.4 9.7-6.4 12.7.2.2.4.5.7.6 6.9 3.6 13.9 7.3 20.8 10.8.7.3 1.4.4 2.4.7.9-1.7 1.6-3.2 2.5-5-1.4-.7-2.5-1.3-3.6-1.8-2-1-4.1-1.9-6-2.9-1.3-.7-1.3-2.1-.4-3.2.8-.9 1.7-1.5 2.9-1.4 1.7.1 3.5.2 5.2.5 1.9.3 3.7.7 6 1.2 1.1-2 2.3-3.5 2.3-5.7-2-.2-3.7-.5-5.4-.7-1.5-.3-3.1-.6-4.7-.6zm-9.7 7.7c-3.2-1-6.1-2.4-8.5-4.9.6-2.6 1.6-4.8 4.4-5 2.5-.2 4.6 1.2 5.8 3.4 1.3 2.5.1 4.5-1.7 6.5zm-169 99.7c-1.4-.1-2.9-.1-4.3.1-6.7.9-11.2 4.2-11.1 11.9v1.7c.1 2.1.1 5 1.2 7.8 1.5 3.7 4.1 6.1 8.2 6.2 2.2.1 4.5.1 6.7-.2 5.5-.7 8.9-4.3 9.4-9.8.4-3.7-.1-7.4-1.3-10.9-1.3-4.3-4.3-6.6-8.8-6.8zm3.7 22.2c-.9 2.3-2.9 3.3-5.3 3.4-2.6.1-4.7-1-6-3.3-1.3-2.2-1.7-4.8-2.1-7.3-.1-.9 0-1.9 0-2.9-.1 0-.2 0-.3-.1.4-1.9.6-3.8 1.2-5.6.7-2.5 2.5-3.9 5.2-4.3 2.7-.3 4.9.6 6.1 2.9 2.6 5.6 3.4 11.4 1.2 17.2zm31-27.2c-.1-.3-.4-.5-.7-.9-1 .4-2.4-.6-3.4 1.3 1.4 5.1 3.7 10.2 4 16.4-1.2-.8-2.1-1.2-2.7-1.8-2.7-2.9-5.4-5.9-8-9-4.2-5-3.2-4.3-9.2-2.8-.3.1-.4.4-.6.5 1.3 5.7 2.6 11.2 3.7 16.8.5 2.7.8 5.4 1.2 8 .1.4.5.8.9 1.3 1.2-.3 2.3-.6 3.7-1-1-3.4-2.1-6.4-2.9-9.5-.7-3-2.2-5.9-1.4-9.3 1.8.4 2.6 1.8 3.5 2.8 3.6 3.8 7.1 7.8 10.7 11.6.7.8 1.6 1.4 2.6 2.2 1.3-.6 2.4-1.1 3.3-1.6 0-.5.1-.6.1-.8-1.5-7.9-3.1-16-4.8-24.2zM83.8 358c-.8-1.4-1.3-2.4-2-3.7-1.5.9-2.7 1.6-3.9 2.3-2.9 1.6-5.9 3.2-8.8 4.8-.7.4-1.5.6-2.3-.3 2.7-6 7.8-10.6 10.9-16.5-1.3-1.8-1.3-4.1-3.3-5.4-6.9 4-14 7.2-21.4 9.9-.8.3-1.6.9-2.6 1.5.8 1.4 1.4 2.4 2.1 3.7 2-1.2 3.8-2.3 5.6-3.3 1.9-1.1 3.9-2.2 5.9-3.1 1.8-.8 3.4-2.3 6.1-2.1-.6 1.3-1 2.3-1.6 3.1-3.2 4.8-6.5 9.5-9.7 14.3-1.8 2.6-1.7 2.8 1 5.7 4.1-1.2 7.7-3.7 11.6-5.4 4-1.8 8.1-3.6 12.4-5.5zm313.1 54.1c-.9.7-1.8 1.4-2.9 2.3.8.9 1.4 1.6 2 2.4 2.6 3 5.2 6 7.8 9.1.3.4.3 1 .6 2.1-1.4-.3-2.3-.4-3.2-.7-3.8-1.6-7.6-3.2-11.5-4.9-1.3-.6-2.6-1.1-4-1.6-1.7 1.4-3.3 2.6-5.1 4 .7.8 1.1 1.4 1.6 2 3.5 4.4 7 8.7 10.5 13.1 1.4 1.8 2.6 3.7 3.9 5.5.1.2.6.2.9.3 1.1-.6 2.3-1.1 2.4-2.6-2-2.3-4.1-4.5-6-6.8-1.9-2.4-4.4-4.4-5.6-8.1 1.6.4 2.6.6 3.6 1 5.2 2 10.4 4.1 15.6 6.1 3 1.1 3 1.1 5.5-2.1-5.1-6.9-10.1-13.6-15-20.2-.3-.4-.6-.6-1.1-.9zm-223.6 59.8c2.2 1.3 2.2 1.4 4.7 1.3 1.5-2.5 2.4-5.5 4.9-7.5 2.5.7 5 1.1 7.1 3.1-.3 3-.6 5.9-1 9 1.9 1.3 3.9 2 6.2 2 .3-9.5.7-18.7 1-28.1-1.6-1-3.4-1.3-5.2-1.8-5.9 7.4-11.8 14.7-17.7 22zm17-7.2c-2.6.8-4-.2-5.7-1.2.7-3 2.7-5.1 5.2-7.4.3.8.7 1.3.7 1.8 0 2.3-.1 4.5-.2 6.8zm152.3-2.6c.5 1 .9 1.8 1.3 2.7.6 1.5 1.2 3 1.6 4.5.4 1.4-.3 2.6-1.6 3.1-3.9 1.6-7.2 1.3-9.8-2.3-2.5-3.4-4-7.3-4.2-11.5-.2-4.5 1.8-7.3 6.2-8.3 2.1-.5 4.3-.4 6.8-.5.2-1.1.6-2.3-.9-3.4-3.7.7-7.3 1.9-10.7 3.7-5 2.7-7.3 6.9-6.5 12.2.5 3.2 1.5 6.2 3.2 9 2.4 4 5.8 5.8 10.5 5 4.6-.8 8.9-2.3 13.2-5.3-1.4-3.7-1.9-7.3-3.8-10.6-2 0-3.5.7-5.3 1.7zm42.1-18.8c-2.5-4.6-5-9.3-7.6-13.9-.2-.4-.7-.6-1.2-1.1-.9.6-1.9 1.1-2.8 1.7-.2.1-.2.6-.4.9l.6 1.2c2.8 4.3 5.6 8.5 8.3 12.9.6.9 1 2 1.3 3.1.9 3.1-.3 5.6-3.3 7.1-2.6 1.4-5.2.8-7.2-1.6-.6-.7-1.2-1.5-1.7-2.3-2.4-4.1-4.8-8.3-7.2-12.4-.5-.8-1.1-1.4-1.8-2.3-1.7 1-3.2 1.9-4.7 2.9 3.2 5.2 6 9.8 8.8 14.4.8 1.2 1.5 2.4 2.5 3.5 2.3 2.6 4.4 3.1 7.7 1.9 3.1-1.1 5.8-2.7 8.1-4.9 2.2-2.1 2.8-4.6 2-7.4-.2-1.4-.8-2.6-1.4-3.7zm-302-58.1c-2.1 1.4-3.9 2.7-5.8 3.8-1.5.9-2.8.5-3.8-.9-2.4-3.3-2.5-6.5.1-9.6 2.7-3.2 6-5.6 10.1-6.9 4.3-1.4 8 .3 9.8 4.4.8 1.9 1.3 3.9 2 6.2.9-.3 1.9-.7 3-1.1-1.9-4.2-4-7.9-7.1-11-3.2-3.2-7.1-4.3-11.4-3-4 1.3-7.4 3.7-10 7.1-2.2 2.9-2.7 6.1-1.3 9.5 1.9 4.5 4.4 8.4 8.3 11.8 3.1-1.9 6.2-3.8 9.7-5.9-1.3-1.7-1.8-3.6-3.6-4.4zm43.4 26c-8.3 4.6-16.4 9.1-24.5 13.6.7 1.6 1.9 2.5 3.4 3.2 2.7-1.8 4.5-4.8 8.2-5.5 1.7 1.5 3.4 3 5.6 4.9-1.6 3.2-3 5.9-4.4 8.6 1.4 1.8 2.8 3.5 4.9 4.1 3.9-8.7 7.6-17.1 11.4-25.6-1.7-1.4-3-2.7-4.6-3.3zm-6.5 13.6c-2.2-.8-3.4-1.9-4.2-3.5 2-2.5 3.5-3.5 7.4-4.8.1.3.5.6.4.8-.7 2.7-1.8 5.1-3.6 7.5zM69.8 324.4c-.2-.6-.6-1.1-1-1.8H54.9c-4.6-.1-9.2-.9-13.8-.6-.6 1.7 0 2.9 1.2 4.3 1.5-.2 3-.5 4.6-.7 4.4-.6 5.2-.1 6.4 4.3 0 .2.1.3.1.5.6 2.4.4 2.9-1.8 4.3-1.9 1.2-4.1 1.7-5.7 3.7.4 2 .7 4 2.2 5.5 7.8-5.4 15.3-10.6 23-16-.5-1.4-.9-2.5-1.3-3.5zM56.4 331c-1.8-1.4-1.9-3.2-2.1-5.5 3.4-.6 6.2-1.1 9.4.3-2.1 2.6-4.5 4.1-7.3 5.2zm367.9 53.2c-.1-.2-.5-.3-.8-.4-1.3.7-2.3 1.5-2.4 3.1 6.9 8.1 9.6 12.2 10.4 15.7-.9.7-1.8.2-2.7-.2-4.4-1.9-8.7-3.9-13.1-5.9-.8-.4-1.7-.7-2.7-1.2-1.3 1.6-2.5 3-4 4.8 4.8 2 9.2 3.6 13.6 5.4 4.4 1.7 8.6 4.1 13.1 5.2 2.5-3.1 2.6-3.1.9-6-4.1-6.9-8.2-13.7-12.3-20.5zm31.4-4.4c-1.3 2.2-2.5 4.5-3.9 6.6-1 1.4-2.3 1.8-3.8 1.1-2.5-1.1-4.8-2.4-6.6-4.7.4-.9.8-1.7 1.3-2.5s1.3-1.5 1.7-2.3c.4-.9-.1-1.5-1.1-1.8-2.2 1-2.1 4.3-4.8 5.1-2.5-1.5-5.2-2.9-7.1-5.5 1.2-3.1 3.8-5.2 5.9-8.2-.5-.5-1-.9-1.4-1.2-2.6 2.4-7.5 9.5-9.5 13.5 7.2 4.9 14.4 9.9 22.2 15.2 2.7-3.4 4.7-7 7.2-10.3.7-.9 1.3-1.8 1.8-2.8.3-1.2-.2-1.7-1.9-2.2zm-212 84.5c2.2 0 4.7-1.1 7 .5.1 1.3.3 2.5.2 3.8-.2 5.2-.6 10.5-.8 15.7-.1 1.7-.7 3.5.5 5.1.8.1 1.6.1 2.4.1.8 0 1.6-.1 2.9-.1.1-1.6.2-2.9.2-4.1.1-5.3.1-10.5.2-15.8 0-1.6-.2-3.2 1-4.7 2.2-1 4.6.4 7.1-.1v-2.3c-6.7-.3-13.2-.7-19.7-1-1.2 0-1.5.7-1 2.9zM45.5 282.5c1.1-1.4 1.8-3 2.7-4.5.7-1.2 1.4-2.5 2.2-3.7 1.5-2 3.5-2.7 5.4-2 2.1.8 2.9 2.6 2.9 4.6 0 1.6-.5 3.1-.7 4.7 0 .2.2.5.5 1h2c0-1.7.2-3.2.1-4.8 0-1.3 0-2.6-.4-3.8-.5-1.5-1.1-3-2-4.3-1.4-2-3.4-2.8-5.9-2.4-2.5.4-4.5 1.6-5.8 3.8-1.1 1.8-2 3.6-3.2 5.3-.8 1.2-1.7 2.3-2.8 3.1-2 1.4-4.7.5-5.4-1.9-.4-1.3-.4-2.8-.2-4.2.1-1.2.7-2.4 1-3.7.1-.2-.2-.6-.4-1h-2.1c-1 4-.8 8.7.5 11.8.2.6.6 1.1 1 1.7 2.6 3.6 7.8 3.9 10.6.3zm429.4 50.2c-2.3-1.6-4.7-1.8-7.2-.4-1.1.6-2.2 1.3-3.2 2-1.5 1-2.9 2-4.4 2.9-2.2 1.2-4.2 1-5.7-.4-1.3-1.2-1.7-3.2-.6-5.3.8-1.5 1.9-2.9 3-4.6-.6-.4-1.2-.9-1.9-1.4-2.3 3.3-3.7 6.6-3.9 10.3-.3 4.5 2.4 7.4 6.8 7.4 1.5 0 3.1-.6 4.5-1.3 1.7-.9 3.2-2.1 4.8-3.2.9-.6 1.8-1.3 2.9-1.7 1.8-.8 3.7-.4 4.8.9 1.2 1.4 1.2 2.9.5 4.5-.6 1.3-1.5 2.5-2.3 3.6-.5.7-1.2 1.4-2 2.4 1.1.5 1.9.8 2.8 1.2 2.3-3.3 3.5-6.7 4.1-10.3.1-2.6-.7-4.9-3-6.6zM166.2 438.9c-1.8-1-3.2-2.2-5.3-2.5-.4.6-.7 1.1-1 1.6-2.7 6.3-6.5 12-9.9 18-1.7 3-4.2 4.7-7.9 3.7-.2-.1-.5.2-.9.5.2.4.2 1 .5 1.1 1 .5 2 .9 3.1 1.2 4.9 1.3 7.8.1 10.5-4.3.6-.9 1.1-2 1.6-2.9 2.8-4.8 5.7-9.6 8.5-14.4.3-.6.5-1.2.8-2zM61.4 131.2c.8-.8 1.5-1.7 2.3-2.4.4-.3 1.3-.5 1.7-.3.5.2 1 .9 1 1.4.1.9-.2 1.9-.1 2.9 0 .7.3 1.5.5 2.5.9-.3 1.5-.4 2-.7.9-.6 1.9-1.5 3-.6 1.3 1 .7 2.3.3 3.5-.3.7-.6 1.5-.6 2.3 0 .4.2 1 .6 1.2.3.2 1 .2 1.3 0 1.2-.6 1.9-1.7 2.2-3 .8-3 .7-6 .1-9-.2-.9-.7-1.8-1.3-2.5-1.8-2-4-3.6-6.6-4.7-1.9-.8-3.9-.6-5.2 1.2-1.7 2.5-3.3 5.1-4.7 7.7-.3.6 0 1.5 0 2.2 1.7.1 2.6-.9 3.5-1.7zm344.2 272.2c-1.7 1.3-3.2 2.4-3.9 4 6.3 6.4 12.4 12.7 18.5 19 1.8-1 3.1-2.3 4.2-4.2-3.3-3.2-6.4-6.3-9.6-9.3-3.2-3-5.6-6.8-9.2-9.5zm-227.3 41.2c-2-.9-3.6-1.8-5.7-2-1.8 4-3.5 7.9-5.2 11.9-1.7 4.1-4.3 7.7-5.9 12.1 1.7 1.2 3.4 2.1 5.6 2.5 1.2-2.9 2.3-5.7 3.5-8.4 1.1-2.6 2.4-5.2 3.6-7.8 1.2-2.8 3-5.3 4.1-8.3zM45.6 167.2c2.6 1.7 5.6 2.2 8.5 2.6 2.4.5 4.1-.6 5.2-2.6.7-1.2 1.3-2.5 1.8-3.9.3-1 .4-2.2.3-3.3 0-.5-.5-1.3-1-1.5-.4-.2-1.3.1-1.6.5-.8.9-1.5 2.1-2.3 3.1-.3.3-.9.7-1.2.5-.5-.2-1.1-.8-1.2-1.3-.2-1.2-.1-2.5-.3-3.8 0-.4-.5-1-.8-1-.6 0-1.3.2-1.6.6-.5.8-.7 1.7-1.1 2.6-.3.9-.6 1.8-1 2.6-.5.9-1.6 1.3-2.4.9-.8-.4-1-1.2-.8-2 .5-1.5 1.1-3 1.5-4.5.3-.9.6-1.9-.5-2.5-.7-.4-1.6.3-2 1.5-.6 2.1-1.1 4.3-1.7 6.5-.4 2.3.4 3.8 2.2 5zm99.3 258.6c-1.4-1-2.8-2-4.6-3.3-4.8 8.1-10.1 15-16 22.3 2.3.7 3.4 2.7 5.3 2.9 5.1-7 10.1-13.6 15-20.3.1-.4.1-.9.3-1.6zm315.2-111c-.7-.2-1.5-.2-2.3-.3-.8 2-1.7 3.6-1.2 5.3 8.5 2.5 16.8 4.9 25.1 7.3 1.4-1.3 1.3-3.2 2-5.1-.9-.4-1.6-1-2.5-1.2-7.1-1.5-14.1-3.5-21.1-6zM235.2 229c1 1.2 1.9 2.2 3 3.4-.8 1.6-1.5 3.2-2.4 4.8-3.9 7.3-7.9 14.7-11.8 22-.6 1.1-1.6 2.1-.9 3.8 1.5.1 3 .2 4.6.2h30.7c1.4 0 2.9 0 4.3.2 2 .3 3.2 1.9 3.2 4.1 0 2.2-1.2 3.9-3.2 4.2-1.4.2-2.9.2-4.3.2h-33.6c-1.5 0-3.1-.3-4.9.5 1.1 1.6 2.1 3 3 4.5.8 1.3 1.9 2 3.4 2.3 5.8 1.4 10.2 8.4 4.9 15.1-.8 1-1.8 1.8-2.7 2.7-2.8 2.6-5.7 5.2-8.4 7.9-3.1 3.2-6.1 6.5-9.1 9.9-1.8 2-2.7 4.3-3.1 6.9-.4 3 .8 4.5 3.9 4.7 1 .1 1.9 0 2.9 0H316c1.3 0 2.6 0 3.8-.1 2.1-.2 3.3-1.3 3.3-3.4 0-1.6-.3-3.2-.9-4.6-.8-1.7-2-3.3-3.2-4.8-4.9-6-10.6-11.1-16.2-16.4-1-1-2.2-1.9-3.1-3-3.4-4.2-2.9-9.2 1-12.9 1.7-1.7 3.8-2.2 6-2.7.6-.9 1.1-1.7 1.6-2.5 2.4-3.7 5.5-6.6 8.8-9.4 3.8-3.1 7.8-5 12.8-4.3h.5c2.2.2 3.9-.7 5.5-2.2 7.2-6.8 16.1-10.2 25.8-11.9.8-.1 1.8.2 2.6.3.6 2 .7 3.7-.2 5.5-.5.3-1.1.7-1.6.9-3.1 1.4-4.6 3.8-4.6 7.2 0 1.6-.1 3.2-.1 4.8 0 4.2 0 8.3.1 12.5 0 3.1 1.3 5.5 4.2 6.9.8.4 1.6 1 2.2 1.4.7 5.3.6 6.8-.4 10.1-.3.2-.5.4-.8.5-4.1 1.5-5.5 4.6-5.4 8.7.1 2.9 0 5.8 0 8.6 0 2.6 0 5.1.1 7.7.1 1.6.6 3.1 1.6 4.4 2.5 3.6 12.5 3.5 14.9.2.7-.9 1.3-1.9 1.6-2.9.4-1.2.4-2.5.5-3.8.1-3.2 0-6.4 0-9.6 0-2.1 0-4.2-.1-6.2-.2-2.7-1.2-5.2-3.8-6.2-2.8-1.1-3.3-3.2-3.1-5.7.1-1.1 0-2.2 0-3.4 0-1.8.6-3 2.4-3.8 3.4-1.4 4.6-4.3 4.6-7.7v-7.7c0-2.9 0-5.8-.1-8.6-.1-3.3-1.4-5.9-4.5-7.3-.7-.3-1.3-.8-2.3-1.4 0-1.5-.1-3.1-.1-4.7 0-1.5 1-2.3 2.4-2.6 2.2-.5 4.4-.9 6.6-1.4 2.5-.6 4.9-1.6 7-3.1 1.2-.9 2.3-1.9 2.3-3.5.2-3.2.5-6.3-.3-9.4-.7-.3-1.2-.6-1.6-.6-49.8 0-99.5-.1-149.3-.1 0 .3-.5.6-1.3.8zm136.5 75.5c.4 1.1 1.1 2.1 1.2 3.1.1 4.4.2 8.9 0 13.4-.2 3.5-2.8 5.4-6.2 5.1-2.7-.3-4.7-2-5-4.9-.3-3-.2-6-.2-9.1 0-1.4 0-2.9.2-4.3.1-1.3.5-2.5 1.9-3.3 1.5.1 1.9 2.3 3.8 2.1 1.6 0 2.2-1.7 4.3-2.1zm-4.5-41.3c2 0 2.3-2 4.3-2.7.5 1.1 1.2 1.9 1.2 2.7.1 4.9.2 9.9 0 14.8 0 1-.8 1.9-1.2 2.7-1.4.1-1.7-.6-2-1.4-.4-1.3-1.3-1.6-2.6-1.6-1.4 0-1.9.8-2.2 2-.1.4-.5.7-.7 1-1.1.1-1.7-.6-1.9-1.3-.3-1-.6-2.2-.6-3.2-.1-3.7-.1-7.3 0-11 0-1.7.1-3.5 2-4.7 1.7.3 1.6 2.7 3.7 2.7zm-124 14.8c1.1-.1 2.2-.1 3.3-.1h37.8c1.3 0 2.6 0 3.8.2 2.3.3 3.4 1.9 3.3 4.5-.1 2.3-1.2 3.7-3.4 3.9-1.3.1-2.6.1-3.8.1h-37.9c-1.1 0-2.2 0-3.4-.1-2.5-.2-3.7-1.6-3.8-4 .1-2.6 1.4-4.2 4.1-4.5zm-5.2 17.6c.5-.7 1.4-1.4 2.2-1.6 1.2-.3 2.5-.3 3.8-.3h42.6c1 0 1.9 0 2.9.1 2.6.3 3.7 1.6 3.8 4 .1 2.7-1.1 4.2-3.9 4.5-1.3.1-2.6.1-3.8.1h-40.7c-1.3 0-2.6.1-3.8-.1-3.3-.3-4.9-3.8-3.1-6.7zm62.5 14.9c1 0 1.9 0 2.9.1 4 .3 4.6 4.8 3 6.9-.5.7-1.5 1.3-2.3 1.5-1.4.3-2.9.2-4.3.2h-68.5c-1.4 0-2.9 0-4.3-.1-2.1-.3-3.2-1.8-3.3-4 0-2.3 1.1-3.9 3.1-4.2 1.1-.2 2.2-.2 3.3-.2 23.5-.2 46.9-.2 70.4-.2zm-16.8-47.3c3.2-.2 6.4 0 9.6 0 3 0 6.1-.1 9.1 0 3 .2 4.5 2.3 3.9 5.3-.4 1.7-1.4 2.8-3.2 3.2-.8.1-1.6.2-2.4.2h-15.3c-.6 0-1.3 0-1.9-.1-2.5-.3-3.7-1.7-3.8-4.1-.1-2.7 1.2-4.3 4-4.5zm10.7-43.2c.8-1.6.5-3.3.5-5.1v-41.2c0-1.4 0-2.9.1-4.3 0-.5.5-1 .9-2 .7.9 1.3 1.5 1.6 2.2l3 5.4c7.5 13.6 15 27.1 22.5 40.7.8 1.5 1.3 3.3 3.3 4.2 4.2-2.1 8.4-4.3 12.5-7-.5-1.2-.8-2.3-1.3-3.2-8.9-16.1-17.7-32.2-26.6-48.2-.5-.9-1.3-1.7-2-2.6-4.7 1.9-8.5 4.9-13.3 6.6-.3-1.1-.7-1.9-.8-2.8-.1-2.7 0-5.4-.1-8.1 0-1-.4-2.1-.7-3.3-5.1.1-10-.4-14.9.2-.2.8-.5 1.2-.5 1.6 0 21.7-.1 43.5 0 65.2 0 .6.2 1.2.3 1.8 3.8.8 11.5.8 15.5-.1zm21.6-40.9c-.1.1-.1.3-.2.4-.7 1.3-4.7 3.6-6 3.2-.6-.2-1.2-1-1.5-1.6-.2-.4 0-1.4.4-1.6 1.6-1 3.2-2 4.9-2.8 1.1-.4 2.6 1.2 2.4 2.4zm-10.9-6.3c1.4-1 2.9-1.8 4.4-2.6.2-.1.6-.1 1.2-.2.4.4 1 .9 1.3 1.5.2.5.1 1.5-.2 1.7-1.7 1.1-3.4 2.1-5.3 2.8-.4.2-1.3-.7-1.7-1.2-.5-.6-.4-1.6.3-2zm-15.9 7.8c-.8.2-1.6.1-2.2.2-.8 0-1.4 0-2.1-.1-1.3-.1-1.9-.9-1.9-2.2.1-1.1.6-1.8 1.7-1.9 1.4-.1 2.8-.1 4.3 0 1.1.1 1.7.8 1.7 1.9.1 1.1-.4 1.9-1.5 2.1zm-4.6-19.2c1.6-.1 3.1-.1 4.7.1.9.1 1.5 1.1 1.4 2.1-.1.9-.5 1.5-1.4 1.7-.2 0-.3.1-.5.1-.6 0-1.3.1-1.9.1-.7 0-1.5-.1-2.3-.2-1.1-.1-1.6-.9-1.6-2 .1-1 .5-1.9 1.6-1.9zm.1 7.6c1.6-.1 3.1 0 4.7.1.9.1 1.2.9 1.3 1.7.1 1-.5 1.9-1.4 2.1-.3.1-.6.1-.9.1h-2.3c.1 0-.7 0-1.5-.1-1-.1-1.5-.9-1.5-2.1.1-.9.5-1.8 1.6-1.8zM177.6 330.6c2.1-4.1 4.1-8.3 6.3-12.4 13.9-25.9 27.9-51.9 41.8-77.8.9-1.7 2.1-3.2 2.4-5.3-2.2-1.9-4.8-3-8.1-4.4-2.6 4.9-5 9.3-7.4 13.8-2.4 4.5-4.8 9-7.3 13.5l-7.2 13.5c-2.5 4.7-5 9.3-7.5 14l-7.2 13.5c-2.4 4.5-4.7 9.1-7.1 13.6-2.4 4.5-4.5 9.2-7.6 13.5-1.3-.5-2.5-.9-3.6-1.5-4-2.1-7.9-4.2-11.9-6.3-.9-.5-2-.8-3.2-1.2-1.9 3.2-3.6 6.3-5.3 9.3.7.9 1.2 1.5 1.7 2.1 2.2 2.2 3.8 4.8 4.4 7.9.5 2.5 2.1 3.7 4.1 4.8 8.8 4.6 17.5 9.3 26.3 14 .8.4 1.7.7 2.5 1 3.1-3.9 8.3-13.1 9.3-16.6-2.4-1.3-4.9-2.7-7.4-4.1-2.9-1.4-5.9-2.1-8-4.9zM254.2 220c1.8 1 3.7.5 5.6.6 2.1.1 4.2.1 6.2 0 1.9-.1 3.8.5 5.6-.8.7-1.8.5-3.8.5-5.6v-63.3c0-1.1 0-2.2-.1-3.4-.1-.9-.4-1.8-.6-2.9-5.8-.5-11.3-.2-17-.2-1.2 2-.9 3.6-.9 5.2v65.2c.1 1.7-.3 3.5.7 5.2zm11-39.4c-1.9.2-3.8.4-5.9-.4-.1-.9-.2-2-.3-2.8.5-.4.8-.7 1-.7 1.7-.1 3.5-.2 5.2-.1 1 0 1.6.9 1.6 2s-.6 1.9-1.6 2zm.1-7.7c-1.9.1-3.8 0-5.9 0-.7-3.5-.4-4 1.8-4.1 1.4-.1 2.8 0 4.3.2.9.1 1.2.9 1.3 1.7.1 1.2-.5 2.2-1.5 2.2zm-4-19.3c1.3-.1 2.5 0 3.8.1 1.1.1 1.6.8 1.7 1.9.1 1.2-.6 2.1-2 2.1-1.7.1-3.5 0-5.4 0-.6-3.4-.3-4 1.9-4.1zm3.9 7.8c1.1.1 1.6 1 1.5 2 0 1.1-.6 1.8-1.7 1.9-1.9.2-3.8.4-5.9-.3-.1-1-.1-2-.2-3.7 2.6 0 4.5-.1 6.3.1zm-104.7 90.9c0 .6 0 1.3.1 1.9.3 1.8 1.3 3.1 3 3.3 3.3.5 6.6.7 9.7-.2 1.1-1.6.9-3.3 1-4.9.2-2.4.1-4.8.4-7.2.2-1.7.6-3.5 1.3-5.1.7-1.8 2.1-2.8 4.6-2 1 6.1-.3 12.5.8 19 1 .2 1.9.6 2.8.6 3.2.1 6.4-.1 9.6 0 2.2.1 3.5-1 4.5-2.9l12.6-23.7c.3-.6.4-1.5.6-2.4-1.2-.2-2.1-.4-3.1-.4-10.1.1-20.1.2-30.2.2-3.1 0-6.1.6-8.9 1.6-2 .6-3.9 1.6-5.6 2.7-2.1 1.3-3.3 3.3-3.2 6 .1 4.5 0 9 0 13.5zm177.4 85.3c-.4-1.9-1.6-3.1-3.6-3.3-1.7-.1-3.5-.2-5.3-.2H203.4c-1.8 0-3.5.1-5.3.2-1.6.1-2.7 1-3.2 2.5-.4 1.2-.8 2.5-.8 3.7 0 8.8.1 17.6.2 26.4 0 .8 0 1.6.1 2.4.3 2.6 1.7 4.1 4.3 4.4 1.4.2 2.9.2 4.3.2h127.5c6.5 0 7.6-1.1 7.6-7.5v-24.9c.1-1.3 0-2.6-.2-3.9zm-3.3 26.6c0 5.3-.9 6.1-6.1 6.3H207.1c-1.8 0-3.5 0-5.3-.1-2.3-.2-3.1-1.1-3.5-3.2-.2-.9-.3-1.9-.3-2.9 0-7.2-.1-14.4 0-21.6.1-4.7.9-5.4 5.8-5.5h122.7c1.6 0 3.2 0 4.8.3 1.7.3 2.8 1.4 3 3.2.1 1 .1 1.9.1 2.9.2 6.9.3 13.8.2 20.6zM194.1 190h37.4c1.1 0 2.1-.3 3.3-.5.7-2.9.7-5.5 0-8.4-5.3-.6-10.4-.2-15.4-.3-5.3-.1-10.5.1-15.7-.5 18.3-3.9 33.6-9.4 37.7-12.9-.6-1.4-1.1-2.8-1.8-4.3-.5-1-1.1-1.9-1.7-3.1-4.6 1.8-8.9 3.8-13.4 5.4-4.4 1.5-8.8 2.8-13.3 3.9-4.6 1.1-9.3 1.8-13.7 2.6-1.1 3.1 1.5 5.6.3 8.5-1 .1-2.1.3-3.1.4-1.2.1-2.5.2-3.9.3-.5 2.9-.6 5.5.1 8.4 1.1.2 2.2.5 3.2.5zm38.6 15.2c.7 0 1.4-.4 2.3-.7.1-2.7.4-5.2-.3-8-1-.2-1.6-.3-2.2-.3h-39.2c-.9 0-1.8.4-2.7.6v7.9c.9.2 1.7.5 2.4.5 13.3.1 26.5.1 39.7 0zM190.8 220c1.1.2 2.2.5 3.3.5h37.4c1.1 0 2.1-.3 3.3-.5.6-2.9.8-5.5-.1-8.2-1-.2-1.7-.4-2.5-.4h-38.9c-.9 0-1.8.4-2.7.6-.3 2.8-.5 5.3.2 8zm51.8-62.2c1.2 2.8 1.8 5.4 3.7 7.3 3.5-1 3.5-1 6-3.2-1.4-2.1-2.1-4.8-3.8-6.9-2.2.5-3.9 1.4-5.9 2.8zm-2.4 23.8c-.2 2.6-.7 5.3.4 8 2 .5 3.8.6 5.9-.2.4-2.7.6-5.3-.2-8.3-2.2-.3-4.1-.6-6.1.5zm6.4 22.8v-7.8c-3.5-.5-3.5-.5-6.2.2-.6 2.6-.8 5.2.1 7.9 2.1.7 4.1 1 6.1-.3zm0 15.3c.1-2.5.6-5.1-.4-7.8-2-.7-3.8-.6-5.8 0-.8 2.7-.8 5.3 0 8.2 2 .5 4 .8 6.2-.4z"/><path d="M254.3 349.5c.4-4.6-.6-5.8-5.2-5.8-5.4-.1-10.9 0-16.3 0-.8 0-1.6 0-2.4.1-1.7.3-2.7 1.1-2.7 2.8 0 2.3.4 4.7.7 7.5-1.3 1.6-1.5 3.9-1.2 6.4.3 2.1 1.4 3.1 3.5 3.3 1.9.1 3.8.1 5.8.1 4.8 0 9.6.1 14.4 0 2.8-.1 3.7-1 3.9-3.8.2-2.3 0-4.5-1.5-6.3.3-1.8.9-3 1-4.3zm-19-2.8c3.8-.1 7.6-.1 11.5 0 1.4 0 2.2 1.1 2.2 2.6 0 1.6-.6 2.7-2 2.8-4.4.4-8.8.6-13.4-.2-.2-1.2-.5-2.1-.4-3 0-1.4.7-2.2 2.1-2.2zm11.2 14.2c-1.9.1-3.8 0-5.8 0-1.9 0-3.8.1-5.7 0-1.4-.1-2.2-1.1-2.3-2.6-.1-1.7.8-2.9 2.4-3 3.8-.1 7.7-.1 11.5 0 1.8 0 2.5 1 2.4 2.9 0 1.7-.6 2.6-2.5 2.7zm77.6-8.9c-1.1-.1-2.2-.1-3.4-.1h-10.1c-1.1 0-2.2 0-3.3-.2-1.1-.2-1.9-1.3-1.9-2.4 0-1.2.7-2.2 1.9-2.4.6-.1 1.3-.2 1.9-.2 4.1.1 8.3.3 12.4.4 1.3 0 2.5 0 3.8-.1.4 0 1-.5 1-.8 0-.6-.2-1.4-.6-1.7-.6-.4-1.5-.7-2.2-.7-6.7 0-13.4-.1-20.1 0-2.5 0-3.6 1.1-3.7 3.5-.1 4.3-.2 8.6 0 12.9.1 2.6 1.2 3.6 4 3.6 3.2.1 6.4 0 9.6 0 3.5 0 7 .1 10.5 0 1.8-.1 2.8-.9 3-2.5.2-2.2.2-4.5.1-6.7-.1-1.6-1.2-2.5-2.9-2.6zm-2.3 6.3c-.1 1.5-.8 2.4-2.3 2.5-2 .1-4.1 0-6.2 0-1.9 0-3.8.1-5.7 0-1.4-.1-2.1-1.1-2.2-2.6-.1-1.8.6-3.2 2.1-3.2 4.1-.1 8.2-.1 12.3 0 1.5.1 2.1 1.5 2 3.3zM290.5 346c-.3-1.1-1.1-1.9-2.3-2.1-.9-.1-1.9-.2-2.9-.2h-15.8c-5.4 0-6.1.8-6 6.1 0 .8 0 1.6.1 2.4.3 2.2 1.1 3.1 3.4 3.3 1.1.1 2.2.1 3.3.1h10c1.1 0 2.2.1 3.3.3 1.2.2 1.8 1.1 1.8 2.5 0 1.5-.7 2.5-2.3 2.5-4.3.1-8.6 0-12.9-.2-2-.1-4.1-.6-6.1.3-.2 1.4.4 2.4 1.6 2.7 1.1.3 2.2.3 3.3.3h16.3c.8 0 1.6 0 2.4-.1 1.7-.2 2.6-.9 3-2.6.2-.8.2-1.6.2-2.4v-10c-.1-1-.2-2-.4-2.9zm-7.2 6.6c-4 .1-8 .1-12 0-1.5 0-2.3-1.4-2.2-3.2.1-1.5.8-2.6 2.2-2.7 2.1-.1 4.1 0 6.2 0 1.9 0 3.8-.1 5.7 0 1.4.1 2.1 1.1 2.1 2.7.2 1.9-.4 3.1-2 3.2zm-77.1-6.8c-.3.2-.6 1-.5 1.2.3.4.9.9 1.3 1 1.2 0 2.5-.2 4-.4 1.5 2.5.8 5.3 1 7.9.2 2.6-.5 5.4.6 7.9 1.7.6 3.2.7 4.6-.1.8-4.8.7-15.6-.1-19-3.3-.7-8.5-.1-10.9 1.5z"/></g></svg>