<svg xmlns="http://www.w3.org/2000/svg" viewBox="0 0 61.7 48.4"><linearGradient id="a" gradientUnits="userSpaceOnUse" x1="30.85" y1="51.127" x2="30.85" y2="-3.197"><stop offset="0" stop-color="#3d4599"/><stop offset=".507" stop-color="#3979bb"/><stop offset="1" stop-color="#35abdc"/></linearGradient><path d="M61.7 39.4c-.5 1.3-1.4 2.4-2.6 3.1-1.8 1.4-3.6 2.9-5.4 4.4-1.3 1-2.9 1.6-4.6 1.5H38.3c-.3 0-.6 0-.8-.1-.7-.2-1.1-.9-1-1.6 0-.8.7-1.4 1.4-1.4h9.3c1 0 2 0 2.9-.2.6-.1 1.1-.3 1.6-.7 2.3-1.7 4.5-3.6 6.8-5.5.1-.1.2-.2.1-.4s-.1-.3-.4-.3H47.3c-1.5 0-2.9-.5-4-1.6-.4-.4-.9-.8-1.3-1.2-.9-.7-1.6-1.7-2.4-2.4-1.8-1.6-4-2.7-6.4-3-2.1-.2-4.3-.3-6.4-.1-5.5.2-11 .1-16.5.1-2.6 0-5.2-.1-7.7-.1h-.2c-1 .2-2-.3-2.4-1.3v-.5c.1 0 .1-.1.1-.2.3-.7 1-1.1 1.7-1.1h32.5c1.8 0 3.6.7 4.8 2C41 30.6 43 32.3 45 34c1 .8 2.3 1.2 3.6 1.1h8.7c.6 0 1.3 0 1.9.2 1.3.3 2.2 1.4 2.4 2.7 0 .1 0 .2.1.2v1.2z" fill="url(#a)"/><linearGradient id="b" gradientUnits="userSpaceOnUse" x1="48.49" y1="51.127" x2="48.49" y2="-3.197"><stop offset="0" stop-color="#3d4599"/><stop offset=".507" stop-color="#3979bb"/><stop offset="1" stop-color="#35abdc"/></linearGradient><path d="M61.7 9.6c-.2.2-.2.5-.2.7-.4 1.2-1.5 2.1-2.8 2.2-1.4.1-2.8.1-4.2 0-2 0-4.1 0-6.1.1-1.2 0-2.3.4-3.2 1.2l-3 2.7c-1.4 1.3-2.7 2.6-4 3.8-.2.2-.5.4-.8.5-.4.2-1 .2-1.4-.1-.5-.3-.8-.8-.7-1.4.1-.4.3-.8.7-1.1 2.6-2.5 5.2-5.1 8-7.4 1-.8 2.2-1.3 3.5-1.3 3.5-.2 7-.1 10.6-.1.2 0 .4 0 .5-.3s.1-.3-.1-.4c-1.5-1-2.9-2.1-4.2-3.2-1.2-1.1-2.6-1.8-4.1-2.3-1-.2-2-.3-3-.1-1 .2-2-.4-2.5-1.3-.1-.2-.1-.3 0-.5.3-.7.9-1.1 1.6-1.2.1 0 .3.1.3-.1H50c0 .1.1.1.1.1 1.5.1 2.8.6 3.9 1.6 1.5 1.4 3.2 2.6 4.9 3.8 1.3.6 2.2 1.8 2.6 3.1v1h.2z" fill="url(#b)"/><linearGradient id="c" gradientUnits="userSpaceOnUse" x1="11.95" y1="51.127" x2="11.95" y2="-3.197"><stop offset="0" stop-color="#3d4599"/><stop offset=".507" stop-color="#3979bb"/><stop offset="1" stop-color="#35abdc"/></linearGradient><path d="M12 18.8c1.5 0 2.9.1 4.4 0 1.1 0 2.1.5 2.8 1.4.1.1.1.2 0 .2l-1 1c-.2.2-.6.3-.9.3-3.1.2-6.2.1-9.4.1-.5 0-1.1 0-1.6-.1-.2 0-.5-.1-.6-.3-.3-.3-.6-.7-1-1.1-.1-.1-.1-.2 0-.3 0 0 .1 0 .1-.1.8-.9 2-1.4 3.3-1.2 1.3.1 2.6.1 3.9.1z" fill="url(#c)"/><linearGradient id="d" gradientUnits="userSpaceOnUse" x1="30.438" y1="51.127" x2="30.438" y2="-3.197"><stop offset="0" stop-color="#3d4599"/><stop offset=".507" stop-color="#3979bb"/><stop offset="1" stop-color="#35abdc"/></linearGradient><path d="M33 12.7c-2.2-.1-4.4 0-6.6 0-.5 0-.9 0-1.4-.1s-.9-.4-1.1-.7c-.6-.6-.5-.5-.1-1.2.5-.7 1.3-1.1 2.2-1h9.7c.7 0 1 .5 1.4.9s.4.5 0 1c-.6.7-1.6 1.1-2.5 1l-1.6.1z" fill="url(#d)"/><linearGradient id="e" gradientUnits="userSpaceOnUse" x1="25.288" y1="51.127" x2="25.288" y2="-3.197"><stop offset="0" stop-color="#3d4599"/><stop offset=".507" stop-color="#3979bb"/><stop offset="1" stop-color="#35abdc"/></linearGradient><path d="M25.4.5h2.4c.7 0 1.5.3 1.9.9.5.7.5.7 0 1.4-.4.6-1.1.9-1.8.8-1.8.1-3.5.1-5.3 0-.6 0-1.2-.3-1.6-.8-.2-.2-.5-.5-.5-.7s.4-.4.6-.7c.6-.7 1.5-1 2.4-.9h1.9z" fill="url(#e)"/><linearGradient id="f" gradientUnits="userSpaceOnUse" x1="27.28" y1="51.127" x2="27.28" y2="-3.197"><stop offset="0" stop-color="#3d4599"/><stop offset=".507" stop-color="#3979bb"/><stop offset="1" stop-color="#35abdc"/></linearGradient><path d="M27.3 18.8h2c.8 0 1.5.6 1.8 1.3.1.2.1.4 0 .5-.3.6-.9 1.1-1.5 1.1-1.5.1-3 .1-4.5 0-.3 0-.7 0-1-.2-.4-.3-.8-.7-.7-1.2.2-.7.7-1.2 1.3-1.4.4-.1.7-.1 1.1-.1h1.5z" fill="url(#f)"/><linearGradient id="g" gradientUnits="userSpaceOnUse" x1="16.695" y1="51.127" x2="16.695" y2="-3.197"><stop offset="0" stop-color="#3d4599"/><stop offset=".507" stop-color="#3979bb"/><stop offset="1" stop-color="#35abdc"/></linearGradient><path d="M19.6 11.2c.1.7-.4 1.3-1.1 1.4h-.2c-1.1.1-2.1.1-3.2 0-1.2 0-1.4-.9-1.3-1.8 0-.7.6-1.2 1.2-1.2 1.1-.1 2.3-.1 3.4 0 .7 0 1.2.6 1.2 1.3v.3z" fill="url(#g)"/><linearGradient id="h" gradientUnits="userSpaceOnUse" x1="37.201" y1="51.127" x2="37.201" y2="-3.197"><stop offset="0" stop-color="#3d4599"/><stop offset=".507" stop-color="#3979bb"/><stop offset="1" stop-color="#35abdc"/></linearGradient><path d="M37.1.5c1.2-.3 2 .7 2.9 1.3.2.1.1.2 0 .3l-1.5 1.2c-.3.2-.6.3-.9.3-.6 0-1.2 0-1.9-.1-.7 0-1.4-.5-1.4-1.3V2c-.1-.7.4-1.4 1.1-1.5h1.7z" fill="url(#h)"/><linearGradient id="i" gradientUnits="userSpaceOnUse" x1="12.863" y1="51.127" x2="12.863" y2="-3.197"><stop offset="0" stop-color="#3d4599"/><stop offset=".507" stop-color="#3979bb"/><stop offset="1" stop-color="#35abdc"/></linearGradient><path d="M12.8 38.9c-1.3 0-2.5 0-3.7-.1-.2 0-.4-.1-.5-.2-.3-.3-.6-.7-.9-1.1-.1-.1-.1-.2 0-.3.3-.3.6-.7.9-1 .4-.3.9-.4 1.4-.4.9-.1 1.7-.1 2.6 0 .8 0 1.6-.1 2.4 0 .5 0 1 0 1.5.1.6.1 1.2.5 1.5 1.1.1.1.1.3.1.5-.2.7-.8 1.2-1.6 1.3-1.2 0-2.5.1-3.7.1z" fill="url(#i)"/><linearGradient id="j" gradientUnits="userSpaceOnUse" x1="20.405" y1="51.127" x2="20.405" y2="-3.197"><stop offset="0" stop-color="#3d4599"/><stop offset=".507" stop-color="#3979bb"/><stop offset="1" stop-color="#35abdc"/></linearGradient><path d="M20.8 48.4h-1.2c-.3 0-.6-.1-.8-.2-.4-.4-.9-.8-1.2-1.2-.1-.1-.2-.2 0-.3.6-.5 1-1.2 1.8-1.4 1.2-.3 2.5 0 3.4.8.4.3.6.8.5 1.3-.1.5-.5.8-1 .9-.5.1-1 .1-1.5.1z" fill="url(#j)"/><linearGradient id="k" gradientUnits="userSpaceOnUse" x1="34.212" y1="51.127" x2="34.212" y2="-3.197"><stop offset="0" stop-color="#3d4599"/><stop offset=".507" stop-color="#3979bb"/><stop offset="1" stop-color="#35abdc"/></linearGradient><path d="M34.2 39c-.4 0-.8 0-1.1-.1-.9-.1-1.2-.8-1.7-1.4-.1-.1 0-.2.1-.2l.8-.8c.5-.5 1.2-.7 1.8-.5h.5c.9-.1 1.8.3 2.3 1 .2.2.2.4.1.7-.2.6-.7 1.1-1.3 1.2-.4.1-1 .1-1.5.1z" fill="url(#k)"/><linearGradient id="l" gradientUnits="userSpaceOnUse" x1="29.656" y1="51.127" x2="29.656" y2="-3.197"><stop offset="0" stop-color="#3d4599"/><stop offset=".507" stop-color="#3979bb"/><stop offset="1" stop-color="#35abdc"/></linearGradient><path d="M32.5 47l-1.9 1.3c-.2.1-.4.2-.5.1H29c-.4 0-.7-.1-1-.3-.4-.3-.8-.7-1.1-1.1 0-.1-.2-.1 0-.2.6-.7 1.1-1.5 2.2-1.6 1-.2 1.9.1 2.6.8.1.3.4.6.8 1z" fill="url(#l)"/><linearGradient id="m" gradientUnits="userSpaceOnUse" x1="25.155" y1="51.127" x2="25.155" y2="-3.197"><stop offset="0" stop-color="#3d4599"/><stop offset=".507" stop-color="#3979bb"/><stop offset="1" stop-color="#35abdc"/></linearGradient><path d="M22.3 37.5l.9-.9c1.1-1 2.7-1 3.8-.1.4.3.9.6 1 .9s-.6.6-.9 1c-.4.5-1.1.8-1.7.6h-.3c-.8.2-1.6-.1-2-.7l-.8-.8z" fill="url(#m)"/></svg>